G04 #@! TF.GenerationSoftware,KiCad,Pcbnew,5.1.5-52549c5~86~ubuntu18.04.1*
G04 #@! TF.CreationDate,2020-04-17T17:34:57+02:00*
G04 #@! TF.ProjectId,bottom,626f7474-6f6d-42e6-9b69-6361645f7063,rev?*
G04 #@! TF.SameCoordinates,Original*
G04 #@! TF.FileFunction,Copper,L1,Top*
G04 #@! TF.FilePolarity,Positive*
%FSLAX46Y46*%
G04 Gerber Fmt 4.6, Leading zero omitted, Abs format (unit mm)*
G04 Created by KiCad (PCBNEW 5.1.5-52549c5~86~ubuntu18.04.1) date 2020-04-17 17:34:57*
%MOMM*%
%LPD*%
G04 APERTURE LIST*
%ADD10C,4.400000*%
%ADD11C,0.254000*%
G04 APERTURE END LIST*
D10*
X277005000Y-99408000D03*
X220975000Y-116108000D03*
X148455000Y-147298500D03*
X167885000Y-56028000D03*
X75934700Y-116108000D03*
X129025000Y-56028000D03*
X225415000Y-46638000D03*
X19904700Y-99408000D03*
X71494700Y-46638000D03*
D11*
G36*
X252714103Y-36793263D02*
G01*
X253043156Y-36892811D01*
X253346606Y-37054376D01*
X253612892Y-37271802D01*
X253842646Y-37549842D01*
X253936678Y-37706437D01*
X281278215Y-89127953D01*
X282078298Y-90797857D01*
X282726135Y-92503297D01*
X283228988Y-94256952D01*
X283583337Y-96046550D01*
X283786694Y-97859510D01*
X283837633Y-99683128D01*
X283735795Y-101504625D01*
X283481898Y-103311201D01*
X283077717Y-105090205D01*
X282526094Y-106829142D01*
X281830896Y-108515820D01*
X280996996Y-110138412D01*
X280030241Y-111685546D01*
X278937429Y-113146336D01*
X277726202Y-114510575D01*
X276405074Y-115768668D01*
X274983297Y-116911806D01*
X273470851Y-117931964D01*
X271878348Y-118821982D01*
X270216966Y-119575619D01*
X268498338Y-120187595D01*
X266734531Y-120653613D01*
X264928112Y-120972133D01*
X264283180Y-121048433D01*
X264272127Y-121050213D01*
X261031043Y-121432369D01*
X261028639Y-121432697D01*
X261026200Y-121432956D01*
X261007139Y-121435586D01*
X256911526Y-122055355D01*
X256907748Y-122055998D01*
X256903922Y-122056546D01*
X256884970Y-122059873D01*
X252814818Y-122829304D01*
X252811062Y-122830086D01*
X252807263Y-122830773D01*
X252788446Y-122834791D01*
X248749222Y-123752851D01*
X248745456Y-123753780D01*
X248741726Y-123754597D01*
X248723068Y-123759302D01*
X244720198Y-124824757D01*
X244716489Y-124825817D01*
X244712771Y-124826776D01*
X244694298Y-124832162D01*
X240733160Y-126043582D01*
X240729517Y-126044770D01*
X240725812Y-126045871D01*
X240707549Y-126051931D01*
X236793461Y-127407688D01*
X236789853Y-127409012D01*
X236786202Y-127410245D01*
X236768173Y-127416969D01*
X232906394Y-128915242D01*
X232902821Y-128916704D01*
X232899233Y-128918064D01*
X232881463Y-128925444D01*
X229077180Y-130564220D01*
X229073669Y-130565809D01*
X229070128Y-130567302D01*
X229052640Y-130575329D01*
X225310963Y-132352408D01*
X225307516Y-132354123D01*
X225304027Y-132355747D01*
X225286845Y-132364409D01*
X221612800Y-134277404D01*
X221609429Y-134279239D01*
X221605992Y-134280994D01*
X221589139Y-134290280D01*
X217987661Y-136336620D01*
X217984338Y-136338590D01*
X217980989Y-136340458D01*
X217964487Y-136350355D01*
X214440413Y-138527293D01*
X214437186Y-138529369D01*
X214433886Y-138531372D01*
X214417758Y-138541867D01*
X210975821Y-140846478D01*
X210972658Y-140848681D01*
X210969448Y-140850794D01*
X210953716Y-140861873D01*
X207598541Y-143291061D01*
X207595445Y-143293390D01*
X207592331Y-143295608D01*
X207577015Y-143307256D01*
X204313107Y-145857759D01*
X204310120Y-145860183D01*
X204307067Y-145862530D01*
X204292189Y-145874731D01*
X201123933Y-148543123D01*
X201121039Y-148545653D01*
X201118072Y-148548112D01*
X201103651Y-148560850D01*
X198035303Y-151343547D01*
X198032505Y-151346180D01*
X198029629Y-151348747D01*
X198015684Y-151362005D01*
X195051365Y-154255269D01*
X195048663Y-154258005D01*
X195045885Y-154260674D01*
X195032435Y-154274434D01*
X192176127Y-157274377D01*
X192173523Y-157277215D01*
X192170849Y-157279979D01*
X192157913Y-157294223D01*
X189413452Y-160396818D01*
X189410947Y-160399757D01*
X189408383Y-160402610D01*
X189395977Y-160417319D01*
X186767049Y-163618397D01*
X186764678Y-163621394D01*
X186762195Y-163624370D01*
X186750337Y-163639524D01*
X184240475Y-166934785D01*
X184238214Y-166937869D01*
X184235843Y-166940932D01*
X184224548Y-166956510D01*
X181837122Y-170341530D01*
X181834946Y-170344738D01*
X181832720Y-170347843D01*
X181822003Y-170363824D01*
X179560220Y-173834054D01*
X179558181Y-173837312D01*
X179556051Y-173840524D01*
X179545927Y-173856887D01*
X177430133Y-177378855D01*
X177202476Y-177697489D01*
X176952101Y-177933062D01*
X176660732Y-178115520D01*
X176339480Y-178237906D01*
X176000566Y-178295565D01*
X175656910Y-178286298D01*
X175290328Y-178203383D01*
X175276113Y-178198495D01*
X175275807Y-178198422D01*
X175273416Y-178197552D01*
X173032155Y-177436748D01*
X173019282Y-177432689D01*
X173006419Y-177428536D01*
X169694880Y-176438554D01*
X169670637Y-176431880D01*
X169663963Y-176430042D01*
X166312392Y-175585449D01*
X166281133Y-175578293D01*
X162895912Y-174880697D01*
X162864370Y-174874911D01*
X159451943Y-174325641D01*
X159434878Y-174323275D01*
X159420179Y-174321237D01*
X155987042Y-173921337D01*
X155955116Y-173918323D01*
X155955113Y-173918323D01*
X152507805Y-173668556D01*
X152507802Y-173668556D01*
X152475775Y-173666937D01*
X149020847Y-173567776D01*
X148988780Y-173567555D01*
X145532814Y-173619191D01*
X145517080Y-173619770D01*
X145500768Y-173620369D01*
X142050345Y-173822703D01*
X142018505Y-173825269D01*
X142018381Y-173825279D01*
X138580068Y-174177926D01*
X138548247Y-174181893D01*
X135128588Y-174684181D01*
X135096970Y-174689532D01*
X131702475Y-175340506D01*
X131671121Y-175347231D01*
X128308253Y-176145650D01*
X128277221Y-176153737D01*
X124952380Y-177098083D01*
X124921731Y-177107515D01*
X121667668Y-178187223D01*
X121291503Y-178281053D01*
X120948131Y-178297882D01*
X120608036Y-178247697D01*
X120284166Y-178132409D01*
X119988855Y-177956410D01*
X119733352Y-177726403D01*
X119508177Y-177425470D01*
X119500541Y-177412546D01*
X119497520Y-177408414D01*
X117822490Y-174595759D01*
X117821207Y-174593692D01*
X117819979Y-174591574D01*
X117809810Y-174575240D01*
X115574707Y-171087767D01*
X115572581Y-171084581D01*
X115570520Y-171081308D01*
X115559758Y-171065357D01*
X113198362Y-167662128D01*
X113196103Y-167658996D01*
X113193941Y-167655828D01*
X113182602Y-167640282D01*
X110698085Y-164325869D01*
X110695729Y-164322843D01*
X110693436Y-164319734D01*
X110681536Y-164304614D01*
X108077235Y-161083470D01*
X108074754Y-161080514D01*
X108072364Y-161077510D01*
X108059917Y-161062836D01*
X105339330Y-157939286D01*
X105336771Y-157936454D01*
X105334245Y-157933508D01*
X105321269Y-157919300D01*
X102488051Y-154897540D01*
X102485364Y-154894778D01*
X102482757Y-154891953D01*
X102469269Y-154878230D01*
X99527225Y-151962319D01*
X99524437Y-151959655D01*
X99521730Y-151956930D01*
X99507748Y-151943710D01*
X96460830Y-149137565D01*
X96457941Y-149135001D01*
X96455141Y-149132381D01*
X96440685Y-149119683D01*
X93985281Y-147019277D01*
X145620000Y-147019277D01*
X145620000Y-147577723D01*
X145728948Y-148125439D01*
X145942656Y-148641376D01*
X146252912Y-149105707D01*
X146647793Y-149500588D01*
X147112124Y-149810844D01*
X147628061Y-150024552D01*
X148175777Y-150133500D01*
X148734223Y-150133500D01*
X149281939Y-150024552D01*
X149797876Y-149810844D01*
X150262207Y-149500588D01*
X150657088Y-149105707D01*
X150967344Y-148641376D01*
X151181052Y-148125439D01*
X151290000Y-147577723D01*
X151290000Y-147019277D01*
X151181052Y-146471561D01*
X150967344Y-145955624D01*
X150657088Y-145491293D01*
X150262207Y-145096412D01*
X149797876Y-144786156D01*
X149281939Y-144572448D01*
X148734223Y-144463500D01*
X148175777Y-144463500D01*
X147628061Y-144572448D01*
X147112124Y-144786156D01*
X146647793Y-145096412D01*
X146252912Y-145491293D01*
X145942656Y-145955624D01*
X145728948Y-146471561D01*
X145620000Y-147019277D01*
X93985281Y-147019277D01*
X93292985Y-146427073D01*
X93290024Y-146424633D01*
X93287110Y-146422100D01*
X93272198Y-146409940D01*
X90027946Y-143834481D01*
X90024898Y-143832151D01*
X90021893Y-143829727D01*
X90006545Y-143818122D01*
X86670097Y-141363275D01*
X86666950Y-141361047D01*
X86663873Y-141358746D01*
X86648110Y-141347711D01*
X83223949Y-139016772D01*
X83220738Y-139014672D01*
X83217564Y-139012474D01*
X83201407Y-139002024D01*
X79694130Y-136798125D01*
X79690844Y-136796144D01*
X79687592Y-136794064D01*
X79671063Y-136784213D01*
X76085384Y-134710313D01*
X76081999Y-134708437D01*
X76078701Y-134706495D01*
X76061823Y-134697256D01*
X72402556Y-132756142D01*
X72399127Y-132754403D01*
X72395738Y-132752571D01*
X72378532Y-132743957D01*
X68650592Y-130938236D01*
X68647105Y-130936625D01*
X68643648Y-130934917D01*
X68626139Y-130926939D01*
X64834534Y-129259035D01*
X64830977Y-129257548D01*
X64827472Y-129255973D01*
X64809682Y-129248642D01*
X60959507Y-127720798D01*
X60955903Y-127719444D01*
X60952339Y-127717997D01*
X60934291Y-127711323D01*
X57030716Y-126325589D01*
X57027072Y-126324370D01*
X57023449Y-126323052D01*
X57005170Y-126317044D01*
X53053437Y-125075282D01*
X53049757Y-125074199D01*
X53046083Y-125073013D01*
X53027595Y-125067679D01*
X49033014Y-123971558D01*
X49029291Y-123970610D01*
X49025581Y-123969560D01*
X49006911Y-123964907D01*
X44974846Y-123015898D01*
X44971090Y-123015086D01*
X44967346Y-123014174D01*
X44948517Y-123010208D01*
X40884386Y-122209586D01*
X40880596Y-122208911D01*
X40876826Y-122208138D01*
X40857865Y-122204864D01*
X36767125Y-121553704D01*
X36763315Y-121553169D01*
X36759518Y-121552534D01*
X36740449Y-121549958D01*
X32649829Y-121051722D01*
X32645697Y-121051031D01*
X30809966Y-120783410D01*
X29033061Y-120370094D01*
X27296981Y-119809544D01*
X25613894Y-119105686D01*
X23995613Y-118263464D01*
X22453473Y-117288775D01*
X20998306Y-116188464D01*
X20597350Y-115828777D01*
X73099700Y-115828777D01*
X73099700Y-116387223D01*
X73208648Y-116934939D01*
X73422356Y-117450876D01*
X73732612Y-117915207D01*
X74127493Y-118310088D01*
X74591824Y-118620344D01*
X75107761Y-118834052D01*
X75655477Y-118943000D01*
X76213923Y-118943000D01*
X76761639Y-118834052D01*
X77277576Y-118620344D01*
X77741907Y-118310088D01*
X78136788Y-117915207D01*
X78447044Y-117450876D01*
X78660752Y-116934939D01*
X78769700Y-116387223D01*
X78769700Y-115828777D01*
X218140000Y-115828777D01*
X218140000Y-116387223D01*
X218248948Y-116934939D01*
X218462656Y-117450876D01*
X218772912Y-117915207D01*
X219167793Y-118310088D01*
X219632124Y-118620344D01*
X220148061Y-118834052D01*
X220695777Y-118943000D01*
X221254223Y-118943000D01*
X221801939Y-118834052D01*
X222317876Y-118620344D01*
X222782207Y-118310088D01*
X223177088Y-117915207D01*
X223487344Y-117450876D01*
X223701052Y-116934939D01*
X223810000Y-116387223D01*
X223810000Y-115828777D01*
X223701052Y-115281061D01*
X223487344Y-114765124D01*
X223177088Y-114300793D01*
X222782207Y-113905912D01*
X222317876Y-113595656D01*
X221801939Y-113381948D01*
X221254223Y-113273000D01*
X220695777Y-113273000D01*
X220148061Y-113381948D01*
X219632124Y-113595656D01*
X219167793Y-113905912D01*
X218772912Y-114300793D01*
X218462656Y-114765124D01*
X218248948Y-115281061D01*
X218140000Y-115828777D01*
X78769700Y-115828777D01*
X78660752Y-115281061D01*
X78447044Y-114765124D01*
X78136788Y-114300793D01*
X77741907Y-113905912D01*
X77277576Y-113595656D01*
X76761639Y-113381948D01*
X76213923Y-113273000D01*
X75655477Y-113273000D01*
X75107761Y-113381948D01*
X74591824Y-113595656D01*
X74127493Y-113905912D01*
X73732612Y-114300793D01*
X73422356Y-114765124D01*
X73208648Y-115281061D01*
X73099700Y-115828777D01*
X20597350Y-115828777D01*
X19640321Y-114970253D01*
X18389017Y-113642662D01*
X17253209Y-112215041D01*
X16240840Y-110697380D01*
X15359014Y-109100323D01*
X14613921Y-107435083D01*
X14010783Y-105713335D01*
X13553832Y-103947147D01*
X13246277Y-102148933D01*
X13090270Y-100331278D01*
X13088054Y-99128777D01*
X17069700Y-99128777D01*
X17069700Y-99687223D01*
X17178648Y-100234939D01*
X17392356Y-100750876D01*
X17702612Y-101215207D01*
X18097493Y-101610088D01*
X18561824Y-101920344D01*
X19077761Y-102134052D01*
X19625477Y-102243000D01*
X20183923Y-102243000D01*
X20731639Y-102134052D01*
X21247576Y-101920344D01*
X21711907Y-101610088D01*
X22106788Y-101215207D01*
X22417044Y-100750876D01*
X22630752Y-100234939D01*
X22739700Y-99687223D01*
X22739700Y-99128777D01*
X274170000Y-99128777D01*
X274170000Y-99687223D01*
X274278948Y-100234939D01*
X274492656Y-100750876D01*
X274802912Y-101215207D01*
X275197793Y-101610088D01*
X275662124Y-101920344D01*
X276178061Y-102134052D01*
X276725777Y-102243000D01*
X277284223Y-102243000D01*
X277831939Y-102134052D01*
X278347876Y-101920344D01*
X278812207Y-101610088D01*
X279207088Y-101215207D01*
X279517344Y-100750876D01*
X279731052Y-100234939D01*
X279840000Y-99687223D01*
X279840000Y-99128777D01*
X279731052Y-98581061D01*
X279517344Y-98065124D01*
X279207088Y-97600793D01*
X278812207Y-97205912D01*
X278347876Y-96895656D01*
X277831939Y-96681948D01*
X277284223Y-96573000D01*
X276725777Y-96573000D01*
X276178061Y-96681948D01*
X275662124Y-96895656D01*
X275197793Y-97205912D01*
X274802912Y-97600793D01*
X274492656Y-98065124D01*
X274278948Y-98581061D01*
X274170000Y-99128777D01*
X22739700Y-99128777D01*
X22630752Y-98581061D01*
X22417044Y-98065124D01*
X22106788Y-97600793D01*
X21711907Y-97205912D01*
X21247576Y-96895656D01*
X20731639Y-96681948D01*
X20183923Y-96573000D01*
X19625477Y-96573000D01*
X19077761Y-96681948D01*
X18561824Y-96895656D01*
X18097493Y-97205912D01*
X17702612Y-97600793D01*
X17392356Y-98065124D01*
X17178648Y-98581061D01*
X17069700Y-99128777D01*
X13088054Y-99128777D01*
X13086908Y-98506940D01*
X13236212Y-96688740D01*
X13537139Y-94889384D01*
X13987574Y-93121538D01*
X14584359Y-91397581D01*
X15327338Y-89720512D01*
X15622948Y-89144009D01*
X33379528Y-55748777D01*
X126190000Y-55748777D01*
X126190000Y-56307223D01*
X126298948Y-56854939D01*
X126512656Y-57370876D01*
X126822912Y-57835207D01*
X127217793Y-58230088D01*
X127682124Y-58540344D01*
X128198061Y-58754052D01*
X128745777Y-58863000D01*
X129304223Y-58863000D01*
X129851939Y-58754052D01*
X130367876Y-58540344D01*
X130832207Y-58230088D01*
X131227088Y-57835207D01*
X131537344Y-57370876D01*
X131751052Y-56854939D01*
X131860000Y-56307223D01*
X131860000Y-55748777D01*
X165050000Y-55748777D01*
X165050000Y-56307223D01*
X165158948Y-56854939D01*
X165372656Y-57370876D01*
X165682912Y-57835207D01*
X166077793Y-58230088D01*
X166542124Y-58540344D01*
X167058061Y-58754052D01*
X167605777Y-58863000D01*
X168164223Y-58863000D01*
X168711939Y-58754052D01*
X169227876Y-58540344D01*
X169692207Y-58230088D01*
X170087088Y-57835207D01*
X170397344Y-57370876D01*
X170611052Y-56854939D01*
X170720000Y-56307223D01*
X170720000Y-55748777D01*
X170611052Y-55201061D01*
X170397344Y-54685124D01*
X170087088Y-54220793D01*
X169692207Y-53825912D01*
X169227876Y-53515656D01*
X168711939Y-53301948D01*
X168164223Y-53193000D01*
X167605777Y-53193000D01*
X167058061Y-53301948D01*
X166542124Y-53515656D01*
X166077793Y-53825912D01*
X165682912Y-54220793D01*
X165372656Y-54685124D01*
X165158948Y-55201061D01*
X165050000Y-55748777D01*
X131860000Y-55748777D01*
X131751052Y-55201061D01*
X131537344Y-54685124D01*
X131227088Y-54220793D01*
X130832207Y-53825912D01*
X130367876Y-53515656D01*
X129851939Y-53301948D01*
X129304223Y-53193000D01*
X128745777Y-53193000D01*
X128198061Y-53301948D01*
X127682124Y-53515656D01*
X127217793Y-53825912D01*
X126822912Y-54220793D01*
X126512656Y-54685124D01*
X126298948Y-55201061D01*
X126190000Y-55748777D01*
X33379528Y-55748777D01*
X38372286Y-46358777D01*
X68659700Y-46358777D01*
X68659700Y-46917223D01*
X68768648Y-47464939D01*
X68982356Y-47980876D01*
X69292612Y-48445207D01*
X69687493Y-48840088D01*
X70151824Y-49150344D01*
X70667761Y-49364052D01*
X71215477Y-49473000D01*
X71773923Y-49473000D01*
X72321639Y-49364052D01*
X72837576Y-49150344D01*
X73301907Y-48840088D01*
X73696788Y-48445207D01*
X74007044Y-47980876D01*
X74220752Y-47464939D01*
X74329700Y-46917223D01*
X74329700Y-46358777D01*
X74220752Y-45811061D01*
X74007044Y-45295124D01*
X73696788Y-44830793D01*
X73301907Y-44435912D01*
X72837576Y-44125656D01*
X72321639Y-43911948D01*
X71773923Y-43803000D01*
X71215477Y-43803000D01*
X70667761Y-43911948D01*
X70151824Y-44125656D01*
X69687493Y-44435912D01*
X69292612Y-44830793D01*
X68982356Y-45295124D01*
X68768648Y-45811061D01*
X68659700Y-46358777D01*
X38372286Y-46358777D01*
X42962606Y-37725652D01*
X43173857Y-37407695D01*
X43416091Y-37163763D01*
X43701101Y-36971521D01*
X44018018Y-36838302D01*
X44354778Y-36769175D01*
X44715451Y-36766657D01*
X44905870Y-36794042D01*
X123371061Y-52285074D01*
X123382188Y-52286154D01*
X124129722Y-52409023D01*
X124133447Y-52409420D01*
X124137121Y-52410201D01*
X124194461Y-52416734D01*
X125576256Y-52519419D01*
X125589096Y-52519643D01*
X125601871Y-52520873D01*
X125659582Y-52520873D01*
X127044120Y-52466474D01*
X127056893Y-52465244D01*
X127069734Y-52465020D01*
X127127075Y-52458487D01*
X128496553Y-52247704D01*
X128509111Y-52245035D01*
X128521838Y-52243359D01*
X128578071Y-52230377D01*
X129914886Y-51865920D01*
X129927067Y-51861844D01*
X129939517Y-51858740D01*
X129993918Y-51839476D01*
X131280882Y-51326029D01*
X131292524Y-51320600D01*
X131304541Y-51316107D01*
X131356412Y-51290809D01*
X132576980Y-50634973D01*
X132587921Y-50628269D01*
X132599364Y-50622438D01*
X132648037Y-50591430D01*
X133786517Y-49801639D01*
X133796633Y-49793736D01*
X133807338Y-49786650D01*
X133852189Y-49750331D01*
X134893942Y-48836737D01*
X134903106Y-48827731D01*
X134912931Y-48819487D01*
X134953382Y-48778325D01*
X135885018Y-47752675D01*
X135893101Y-47742694D01*
X135901934Y-47733385D01*
X135937465Y-47687908D01*
X136747004Y-46563386D01*
X136753900Y-46552561D01*
X136761627Y-46542307D01*
X136791781Y-46493100D01*
X137468818Y-45284164D01*
X137474443Y-45272632D01*
X137480962Y-45261564D01*
X137505352Y-45209260D01*
X138041181Y-43931452D01*
X138045468Y-43919345D01*
X138050687Y-43907623D01*
X138069000Y-43852894D01*
X138456732Y-42522644D01*
X138459620Y-42510134D01*
X138463480Y-42497892D01*
X138475479Y-42441442D01*
X138710131Y-41075849D01*
X138711585Y-41063086D01*
X138714033Y-41050492D01*
X138719565Y-40993046D01*
X138796304Y-39641631D01*
X138800000Y-39604105D01*
X138800000Y-37103947D01*
X138808504Y-37017213D01*
X138823254Y-36968360D01*
X138847212Y-36923301D01*
X138879466Y-36883755D01*
X138918786Y-36851226D01*
X138963670Y-36826957D01*
X139012427Y-36811865D01*
X139096764Y-36803000D01*
X157809053Y-36803000D01*
X157895787Y-36811504D01*
X157944640Y-36826254D01*
X157989699Y-36850212D01*
X158029245Y-36882466D01*
X158061774Y-36921786D01*
X158086043Y-36966670D01*
X158101135Y-37015427D01*
X158110001Y-37099774D01*
X158110000Y-39604104D01*
X158110710Y-39611308D01*
X158135109Y-40373316D01*
X158135441Y-40377052D01*
X158135387Y-40380803D01*
X158140083Y-40438323D01*
X158306978Y-41813842D01*
X158309246Y-41826485D01*
X158310513Y-41839252D01*
X158321690Y-41895871D01*
X158643224Y-43243654D01*
X158646908Y-43255960D01*
X158649613Y-43268502D01*
X158667128Y-43323492D01*
X159139170Y-44626212D01*
X159144222Y-44638017D01*
X159148330Y-44650176D01*
X159171958Y-44702829D01*
X159788437Y-45943739D01*
X159794793Y-45954897D01*
X159800251Y-45966512D01*
X159829687Y-46016152D01*
X160582678Y-47179298D01*
X160590254Y-47189662D01*
X160596994Y-47200588D01*
X160631861Y-47246577D01*
X161511683Y-48317003D01*
X161520385Y-48326444D01*
X161528317Y-48336535D01*
X161568166Y-48378281D01*
X162563508Y-49342229D01*
X162573219Y-49350621D01*
X162582246Y-49359753D01*
X162626564Y-49396720D01*
X163724631Y-50241796D01*
X163735234Y-50249037D01*
X163745233Y-50257086D01*
X163793451Y-50288798D01*
X164980124Y-51004136D01*
X164991478Y-51010130D01*
X165002325Y-51016996D01*
X165053823Y-51043046D01*
X166313847Y-51619451D01*
X166325806Y-51624121D01*
X166337359Y-51629714D01*
X166391475Y-51649767D01*
X167708650Y-52079829D01*
X167721061Y-52083116D01*
X167733174Y-52087365D01*
X167789212Y-52101162D01*
X169146605Y-52379350D01*
X169159309Y-52381211D01*
X169171824Y-52384061D01*
X169229064Y-52391427D01*
X170609223Y-52514166D01*
X170622056Y-52514576D01*
X170634813Y-52515992D01*
X170692517Y-52516830D01*
X170692519Y-52516830D01*
X172077699Y-52482541D01*
X172090499Y-52481496D01*
X172103332Y-52481458D01*
X172160761Y-52475759D01*
X173515283Y-52287370D01*
X173538940Y-52285074D01*
X203556484Y-46358777D01*
X222580000Y-46358777D01*
X222580000Y-46917223D01*
X222688948Y-47464939D01*
X222902656Y-47980876D01*
X223212912Y-48445207D01*
X223607793Y-48840088D01*
X224072124Y-49150344D01*
X224588061Y-49364052D01*
X225135777Y-49473000D01*
X225694223Y-49473000D01*
X226241939Y-49364052D01*
X226757876Y-49150344D01*
X227222207Y-48840088D01*
X227617088Y-48445207D01*
X227927344Y-47980876D01*
X228141052Y-47464939D01*
X228250000Y-46917223D01*
X228250000Y-46358777D01*
X228141052Y-45811061D01*
X227927344Y-45295124D01*
X227617088Y-44830793D01*
X227222207Y-44435912D01*
X226757876Y-44125656D01*
X226241939Y-43911948D01*
X225694223Y-43803000D01*
X225135777Y-43803000D01*
X224588061Y-43911948D01*
X224072124Y-44125656D01*
X223607793Y-44435912D01*
X223212912Y-44830793D01*
X222902656Y-45295124D01*
X222688948Y-45811061D01*
X222580000Y-46358777D01*
X203556484Y-46358777D01*
X251988915Y-36796870D01*
X252371983Y-36759526D01*
X252714103Y-36793263D01*
G37*
X252714103Y-36793263D02*
X253043156Y-36892811D01*
X253346606Y-37054376D01*
X253612892Y-37271802D01*
X253842646Y-37549842D01*
X253936678Y-37706437D01*
X281278215Y-89127953D01*
X282078298Y-90797857D01*
X282726135Y-92503297D01*
X283228988Y-94256952D01*
X283583337Y-96046550D01*
X283786694Y-97859510D01*
X283837633Y-99683128D01*
X283735795Y-101504625D01*
X283481898Y-103311201D01*
X283077717Y-105090205D01*
X282526094Y-106829142D01*
X281830896Y-108515820D01*
X280996996Y-110138412D01*
X280030241Y-111685546D01*
X278937429Y-113146336D01*
X277726202Y-114510575D01*
X276405074Y-115768668D01*
X274983297Y-116911806D01*
X273470851Y-117931964D01*
X271878348Y-118821982D01*
X270216966Y-119575619D01*
X268498338Y-120187595D01*
X266734531Y-120653613D01*
X264928112Y-120972133D01*
X264283180Y-121048433D01*
X264272127Y-121050213D01*
X261031043Y-121432369D01*
X261028639Y-121432697D01*
X261026200Y-121432956D01*
X261007139Y-121435586D01*
X256911526Y-122055355D01*
X256907748Y-122055998D01*
X256903922Y-122056546D01*
X256884970Y-122059873D01*
X252814818Y-122829304D01*
X252811062Y-122830086D01*
X252807263Y-122830773D01*
X252788446Y-122834791D01*
X248749222Y-123752851D01*
X248745456Y-123753780D01*
X248741726Y-123754597D01*
X248723068Y-123759302D01*
X244720198Y-124824757D01*
X244716489Y-124825817D01*
X244712771Y-124826776D01*
X244694298Y-124832162D01*
X240733160Y-126043582D01*
X240729517Y-126044770D01*
X240725812Y-126045871D01*
X240707549Y-126051931D01*
X236793461Y-127407688D01*
X236789853Y-127409012D01*
X236786202Y-127410245D01*
X236768173Y-127416969D01*
X232906394Y-128915242D01*
X232902821Y-128916704D01*
X232899233Y-128918064D01*
X232881463Y-128925444D01*
X229077180Y-130564220D01*
X229073669Y-130565809D01*
X229070128Y-130567302D01*
X229052640Y-130575329D01*
X225310963Y-132352408D01*
X225307516Y-132354123D01*
X225304027Y-132355747D01*
X225286845Y-132364409D01*
X221612800Y-134277404D01*
X221609429Y-134279239D01*
X221605992Y-134280994D01*
X221589139Y-134290280D01*
X217987661Y-136336620D01*
X217984338Y-136338590D01*
X217980989Y-136340458D01*
X217964487Y-136350355D01*
X214440413Y-138527293D01*
X214437186Y-138529369D01*
X214433886Y-138531372D01*
X214417758Y-138541867D01*
X210975821Y-140846478D01*
X210972658Y-140848681D01*
X210969448Y-140850794D01*
X210953716Y-140861873D01*
X207598541Y-143291061D01*
X207595445Y-143293390D01*
X207592331Y-143295608D01*
X207577015Y-143307256D01*
X204313107Y-145857759D01*
X204310120Y-145860183D01*
X204307067Y-145862530D01*
X204292189Y-145874731D01*
X201123933Y-148543123D01*
X201121039Y-148545653D01*
X201118072Y-148548112D01*
X201103651Y-148560850D01*
X198035303Y-151343547D01*
X198032505Y-151346180D01*
X198029629Y-151348747D01*
X198015684Y-151362005D01*
X195051365Y-154255269D01*
X195048663Y-154258005D01*
X195045885Y-154260674D01*
X195032435Y-154274434D01*
X192176127Y-157274377D01*
X192173523Y-157277215D01*
X192170849Y-157279979D01*
X192157913Y-157294223D01*
X189413452Y-160396818D01*
X189410947Y-160399757D01*
X189408383Y-160402610D01*
X189395977Y-160417319D01*
X186767049Y-163618397D01*
X186764678Y-163621394D01*
X186762195Y-163624370D01*
X186750337Y-163639524D01*
X184240475Y-166934785D01*
X184238214Y-166937869D01*
X184235843Y-166940932D01*
X184224548Y-166956510D01*
X181837122Y-170341530D01*
X181834946Y-170344738D01*
X181832720Y-170347843D01*
X181822003Y-170363824D01*
X179560220Y-173834054D01*
X179558181Y-173837312D01*
X179556051Y-173840524D01*
X179545927Y-173856887D01*
X177430133Y-177378855D01*
X177202476Y-177697489D01*
X176952101Y-177933062D01*
X176660732Y-178115520D01*
X176339480Y-178237906D01*
X176000566Y-178295565D01*
X175656910Y-178286298D01*
X175290328Y-178203383D01*
X175276113Y-178198495D01*
X175275807Y-178198422D01*
X175273416Y-178197552D01*
X173032155Y-177436748D01*
X173019282Y-177432689D01*
X173006419Y-177428536D01*
X169694880Y-176438554D01*
X169670637Y-176431880D01*
X169663963Y-176430042D01*
X166312392Y-175585449D01*
X166281133Y-175578293D01*
X162895912Y-174880697D01*
X162864370Y-174874911D01*
X159451943Y-174325641D01*
X159434878Y-174323275D01*
X159420179Y-174321237D01*
X155987042Y-173921337D01*
X155955116Y-173918323D01*
X155955113Y-173918323D01*
X152507805Y-173668556D01*
X152507802Y-173668556D01*
X152475775Y-173666937D01*
X149020847Y-173567776D01*
X148988780Y-173567555D01*
X145532814Y-173619191D01*
X145517080Y-173619770D01*
X145500768Y-173620369D01*
X142050345Y-173822703D01*
X142018505Y-173825269D01*
X142018381Y-173825279D01*
X138580068Y-174177926D01*
X138548247Y-174181893D01*
X135128588Y-174684181D01*
X135096970Y-174689532D01*
X131702475Y-175340506D01*
X131671121Y-175347231D01*
X128308253Y-176145650D01*
X128277221Y-176153737D01*
X124952380Y-177098083D01*
X124921731Y-177107515D01*
X121667668Y-178187223D01*
X121291503Y-178281053D01*
X120948131Y-178297882D01*
X120608036Y-178247697D01*
X120284166Y-178132409D01*
X119988855Y-177956410D01*
X119733352Y-177726403D01*
X119508177Y-177425470D01*
X119500541Y-177412546D01*
X119497520Y-177408414D01*
X117822490Y-174595759D01*
X117821207Y-174593692D01*
X117819979Y-174591574D01*
X117809810Y-174575240D01*
X115574707Y-171087767D01*
X115572581Y-171084581D01*
X115570520Y-171081308D01*
X115559758Y-171065357D01*
X113198362Y-167662128D01*
X113196103Y-167658996D01*
X113193941Y-167655828D01*
X113182602Y-167640282D01*
X110698085Y-164325869D01*
X110695729Y-164322843D01*
X110693436Y-164319734D01*
X110681536Y-164304614D01*
X108077235Y-161083470D01*
X108074754Y-161080514D01*
X108072364Y-161077510D01*
X108059917Y-161062836D01*
X105339330Y-157939286D01*
X105336771Y-157936454D01*
X105334245Y-157933508D01*
X105321269Y-157919300D01*
X102488051Y-154897540D01*
X102485364Y-154894778D01*
X102482757Y-154891953D01*
X102469269Y-154878230D01*
X99527225Y-151962319D01*
X99524437Y-151959655D01*
X99521730Y-151956930D01*
X99507748Y-151943710D01*
X96460830Y-149137565D01*
X96457941Y-149135001D01*
X96455141Y-149132381D01*
X96440685Y-149119683D01*
X93985281Y-147019277D01*
X145620000Y-147019277D01*
X145620000Y-147577723D01*
X145728948Y-148125439D01*
X145942656Y-148641376D01*
X146252912Y-149105707D01*
X146647793Y-149500588D01*
X147112124Y-149810844D01*
X147628061Y-150024552D01*
X148175777Y-150133500D01*
X148734223Y-150133500D01*
X149281939Y-150024552D01*
X149797876Y-149810844D01*
X150262207Y-149500588D01*
X150657088Y-149105707D01*
X150967344Y-148641376D01*
X151181052Y-148125439D01*
X151290000Y-147577723D01*
X151290000Y-147019277D01*
X151181052Y-146471561D01*
X150967344Y-145955624D01*
X150657088Y-145491293D01*
X150262207Y-145096412D01*
X149797876Y-144786156D01*
X149281939Y-144572448D01*
X148734223Y-144463500D01*
X148175777Y-144463500D01*
X147628061Y-144572448D01*
X147112124Y-144786156D01*
X146647793Y-145096412D01*
X146252912Y-145491293D01*
X145942656Y-145955624D01*
X145728948Y-146471561D01*
X145620000Y-147019277D01*
X93985281Y-147019277D01*
X93292985Y-146427073D01*
X93290024Y-146424633D01*
X93287110Y-146422100D01*
X93272198Y-146409940D01*
X90027946Y-143834481D01*
X90024898Y-143832151D01*
X90021893Y-143829727D01*
X90006545Y-143818122D01*
X86670097Y-141363275D01*
X86666950Y-141361047D01*
X86663873Y-141358746D01*
X86648110Y-141347711D01*
X83223949Y-139016772D01*
X83220738Y-139014672D01*
X83217564Y-139012474D01*
X83201407Y-139002024D01*
X79694130Y-136798125D01*
X79690844Y-136796144D01*
X79687592Y-136794064D01*
X79671063Y-136784213D01*
X76085384Y-134710313D01*
X76081999Y-134708437D01*
X76078701Y-134706495D01*
X76061823Y-134697256D01*
X72402556Y-132756142D01*
X72399127Y-132754403D01*
X72395738Y-132752571D01*
X72378532Y-132743957D01*
X68650592Y-130938236D01*
X68647105Y-130936625D01*
X68643648Y-130934917D01*
X68626139Y-130926939D01*
X64834534Y-129259035D01*
X64830977Y-129257548D01*
X64827472Y-129255973D01*
X64809682Y-129248642D01*
X60959507Y-127720798D01*
X60955903Y-127719444D01*
X60952339Y-127717997D01*
X60934291Y-127711323D01*
X57030716Y-126325589D01*
X57027072Y-126324370D01*
X57023449Y-126323052D01*
X57005170Y-126317044D01*
X53053437Y-125075282D01*
X53049757Y-125074199D01*
X53046083Y-125073013D01*
X53027595Y-125067679D01*
X49033014Y-123971558D01*
X49029291Y-123970610D01*
X49025581Y-123969560D01*
X49006911Y-123964907D01*
X44974846Y-123015898D01*
X44971090Y-123015086D01*
X44967346Y-123014174D01*
X44948517Y-123010208D01*
X40884386Y-122209586D01*
X40880596Y-122208911D01*
X40876826Y-122208138D01*
X40857865Y-122204864D01*
X36767125Y-121553704D01*
X36763315Y-121553169D01*
X36759518Y-121552534D01*
X36740449Y-121549958D01*
X32649829Y-121051722D01*
X32645697Y-121051031D01*
X30809966Y-120783410D01*
X29033061Y-120370094D01*
X27296981Y-119809544D01*
X25613894Y-119105686D01*
X23995613Y-118263464D01*
X22453473Y-117288775D01*
X20998306Y-116188464D01*
X20597350Y-115828777D01*
X73099700Y-115828777D01*
X73099700Y-116387223D01*
X73208648Y-116934939D01*
X73422356Y-117450876D01*
X73732612Y-117915207D01*
X74127493Y-118310088D01*
X74591824Y-118620344D01*
X75107761Y-118834052D01*
X75655477Y-118943000D01*
X76213923Y-118943000D01*
X76761639Y-118834052D01*
X77277576Y-118620344D01*
X77741907Y-118310088D01*
X78136788Y-117915207D01*
X78447044Y-117450876D01*
X78660752Y-116934939D01*
X78769700Y-116387223D01*
X78769700Y-115828777D01*
X218140000Y-115828777D01*
X218140000Y-116387223D01*
X218248948Y-116934939D01*
X218462656Y-117450876D01*
X218772912Y-117915207D01*
X219167793Y-118310088D01*
X219632124Y-118620344D01*
X220148061Y-118834052D01*
X220695777Y-118943000D01*
X221254223Y-118943000D01*
X221801939Y-118834052D01*
X222317876Y-118620344D01*
X222782207Y-118310088D01*
X223177088Y-117915207D01*
X223487344Y-117450876D01*
X223701052Y-116934939D01*
X223810000Y-116387223D01*
X223810000Y-115828777D01*
X223701052Y-115281061D01*
X223487344Y-114765124D01*
X223177088Y-114300793D01*
X222782207Y-113905912D01*
X222317876Y-113595656D01*
X221801939Y-113381948D01*
X221254223Y-113273000D01*
X220695777Y-113273000D01*
X220148061Y-113381948D01*
X219632124Y-113595656D01*
X219167793Y-113905912D01*
X218772912Y-114300793D01*
X218462656Y-114765124D01*
X218248948Y-115281061D01*
X218140000Y-115828777D01*
X78769700Y-115828777D01*
X78660752Y-115281061D01*
X78447044Y-114765124D01*
X78136788Y-114300793D01*
X77741907Y-113905912D01*
X77277576Y-113595656D01*
X76761639Y-113381948D01*
X76213923Y-113273000D01*
X75655477Y-113273000D01*
X75107761Y-113381948D01*
X74591824Y-113595656D01*
X74127493Y-113905912D01*
X73732612Y-114300793D01*
X73422356Y-114765124D01*
X73208648Y-115281061D01*
X73099700Y-115828777D01*
X20597350Y-115828777D01*
X19640321Y-114970253D01*
X18389017Y-113642662D01*
X17253209Y-112215041D01*
X16240840Y-110697380D01*
X15359014Y-109100323D01*
X14613921Y-107435083D01*
X14010783Y-105713335D01*
X13553832Y-103947147D01*
X13246277Y-102148933D01*
X13090270Y-100331278D01*
X13088054Y-99128777D01*
X17069700Y-99128777D01*
X17069700Y-99687223D01*
X17178648Y-100234939D01*
X17392356Y-100750876D01*
X17702612Y-101215207D01*
X18097493Y-101610088D01*
X18561824Y-101920344D01*
X19077761Y-102134052D01*
X19625477Y-102243000D01*
X20183923Y-102243000D01*
X20731639Y-102134052D01*
X21247576Y-101920344D01*
X21711907Y-101610088D01*
X22106788Y-101215207D01*
X22417044Y-100750876D01*
X22630752Y-100234939D01*
X22739700Y-99687223D01*
X22739700Y-99128777D01*
X274170000Y-99128777D01*
X274170000Y-99687223D01*
X274278948Y-100234939D01*
X274492656Y-100750876D01*
X274802912Y-101215207D01*
X275197793Y-101610088D01*
X275662124Y-101920344D01*
X276178061Y-102134052D01*
X276725777Y-102243000D01*
X277284223Y-102243000D01*
X277831939Y-102134052D01*
X278347876Y-101920344D01*
X278812207Y-101610088D01*
X279207088Y-101215207D01*
X279517344Y-100750876D01*
X279731052Y-100234939D01*
X279840000Y-99687223D01*
X279840000Y-99128777D01*
X279731052Y-98581061D01*
X279517344Y-98065124D01*
X279207088Y-97600793D01*
X278812207Y-97205912D01*
X278347876Y-96895656D01*
X277831939Y-96681948D01*
X277284223Y-96573000D01*
X276725777Y-96573000D01*
X276178061Y-96681948D01*
X275662124Y-96895656D01*
X275197793Y-97205912D01*
X274802912Y-97600793D01*
X274492656Y-98065124D01*
X274278948Y-98581061D01*
X274170000Y-99128777D01*
X22739700Y-99128777D01*
X22630752Y-98581061D01*
X22417044Y-98065124D01*
X22106788Y-97600793D01*
X21711907Y-97205912D01*
X21247576Y-96895656D01*
X20731639Y-96681948D01*
X20183923Y-96573000D01*
X19625477Y-96573000D01*
X19077761Y-96681948D01*
X18561824Y-96895656D01*
X18097493Y-97205912D01*
X17702612Y-97600793D01*
X17392356Y-98065124D01*
X17178648Y-98581061D01*
X17069700Y-99128777D01*
X13088054Y-99128777D01*
X13086908Y-98506940D01*
X13236212Y-96688740D01*
X13537139Y-94889384D01*
X13987574Y-93121538D01*
X14584359Y-91397581D01*
X15327338Y-89720512D01*
X15622948Y-89144009D01*
X33379528Y-55748777D01*
X126190000Y-55748777D01*
X126190000Y-56307223D01*
X126298948Y-56854939D01*
X126512656Y-57370876D01*
X126822912Y-57835207D01*
X127217793Y-58230088D01*
X127682124Y-58540344D01*
X128198061Y-58754052D01*
X128745777Y-58863000D01*
X129304223Y-58863000D01*
X129851939Y-58754052D01*
X130367876Y-58540344D01*
X130832207Y-58230088D01*
X131227088Y-57835207D01*
X131537344Y-57370876D01*
X131751052Y-56854939D01*
X131860000Y-56307223D01*
X131860000Y-55748777D01*
X165050000Y-55748777D01*
X165050000Y-56307223D01*
X165158948Y-56854939D01*
X165372656Y-57370876D01*
X165682912Y-57835207D01*
X166077793Y-58230088D01*
X166542124Y-58540344D01*
X167058061Y-58754052D01*
X167605777Y-58863000D01*
X168164223Y-58863000D01*
X168711939Y-58754052D01*
X169227876Y-58540344D01*
X169692207Y-58230088D01*
X170087088Y-57835207D01*
X170397344Y-57370876D01*
X170611052Y-56854939D01*
X170720000Y-56307223D01*
X170720000Y-55748777D01*
X170611052Y-55201061D01*
X170397344Y-54685124D01*
X170087088Y-54220793D01*
X169692207Y-53825912D01*
X169227876Y-53515656D01*
X168711939Y-53301948D01*
X168164223Y-53193000D01*
X167605777Y-53193000D01*
X167058061Y-53301948D01*
X166542124Y-53515656D01*
X166077793Y-53825912D01*
X165682912Y-54220793D01*
X165372656Y-54685124D01*
X165158948Y-55201061D01*
X165050000Y-55748777D01*
X131860000Y-55748777D01*
X131751052Y-55201061D01*
X131537344Y-54685124D01*
X131227088Y-54220793D01*
X130832207Y-53825912D01*
X130367876Y-53515656D01*
X129851939Y-53301948D01*
X129304223Y-53193000D01*
X128745777Y-53193000D01*
X128198061Y-53301948D01*
X127682124Y-53515656D01*
X127217793Y-53825912D01*
X126822912Y-54220793D01*
X126512656Y-54685124D01*
X126298948Y-55201061D01*
X126190000Y-55748777D01*
X33379528Y-55748777D01*
X38372286Y-46358777D01*
X68659700Y-46358777D01*
X68659700Y-46917223D01*
X68768648Y-47464939D01*
X68982356Y-47980876D01*
X69292612Y-48445207D01*
X69687493Y-48840088D01*
X70151824Y-49150344D01*
X70667761Y-49364052D01*
X71215477Y-49473000D01*
X71773923Y-49473000D01*
X72321639Y-49364052D01*
X72837576Y-49150344D01*
X73301907Y-48840088D01*
X73696788Y-48445207D01*
X74007044Y-47980876D01*
X74220752Y-47464939D01*
X74329700Y-46917223D01*
X74329700Y-46358777D01*
X74220752Y-45811061D01*
X74007044Y-45295124D01*
X73696788Y-44830793D01*
X73301907Y-44435912D01*
X72837576Y-44125656D01*
X72321639Y-43911948D01*
X71773923Y-43803000D01*
X71215477Y-43803000D01*
X70667761Y-43911948D01*
X70151824Y-44125656D01*
X69687493Y-44435912D01*
X69292612Y-44830793D01*
X68982356Y-45295124D01*
X68768648Y-45811061D01*
X68659700Y-46358777D01*
X38372286Y-46358777D01*
X42962606Y-37725652D01*
X43173857Y-37407695D01*
X43416091Y-37163763D01*
X43701101Y-36971521D01*
X44018018Y-36838302D01*
X44354778Y-36769175D01*
X44715451Y-36766657D01*
X44905870Y-36794042D01*
X123371061Y-52285074D01*
X123382188Y-52286154D01*
X124129722Y-52409023D01*
X124133447Y-52409420D01*
X124137121Y-52410201D01*
X124194461Y-52416734D01*
X125576256Y-52519419D01*
X125589096Y-52519643D01*
X125601871Y-52520873D01*
X125659582Y-52520873D01*
X127044120Y-52466474D01*
X127056893Y-52465244D01*
X127069734Y-52465020D01*
X127127075Y-52458487D01*
X128496553Y-52247704D01*
X128509111Y-52245035D01*
X128521838Y-52243359D01*
X128578071Y-52230377D01*
X129914886Y-51865920D01*
X129927067Y-51861844D01*
X129939517Y-51858740D01*
X129993918Y-51839476D01*
X131280882Y-51326029D01*
X131292524Y-51320600D01*
X131304541Y-51316107D01*
X131356412Y-51290809D01*
X132576980Y-50634973D01*
X132587921Y-50628269D01*
X132599364Y-50622438D01*
X132648037Y-50591430D01*
X133786517Y-49801639D01*
X133796633Y-49793736D01*
X133807338Y-49786650D01*
X133852189Y-49750331D01*
X134893942Y-48836737D01*
X134903106Y-48827731D01*
X134912931Y-48819487D01*
X134953382Y-48778325D01*
X135885018Y-47752675D01*
X135893101Y-47742694D01*
X135901934Y-47733385D01*
X135937465Y-47687908D01*
X136747004Y-46563386D01*
X136753900Y-46552561D01*
X136761627Y-46542307D01*
X136791781Y-46493100D01*
X137468818Y-45284164D01*
X137474443Y-45272632D01*
X137480962Y-45261564D01*
X137505352Y-45209260D01*
X138041181Y-43931452D01*
X138045468Y-43919345D01*
X138050687Y-43907623D01*
X138069000Y-43852894D01*
X138456732Y-42522644D01*
X138459620Y-42510134D01*
X138463480Y-42497892D01*
X138475479Y-42441442D01*
X138710131Y-41075849D01*
X138711585Y-41063086D01*
X138714033Y-41050492D01*
X138719565Y-40993046D01*
X138796304Y-39641631D01*
X138800000Y-39604105D01*
X138800000Y-37103947D01*
X138808504Y-37017213D01*
X138823254Y-36968360D01*
X138847212Y-36923301D01*
X138879466Y-36883755D01*
X138918786Y-36851226D01*
X138963670Y-36826957D01*
X139012427Y-36811865D01*
X139096764Y-36803000D01*
X157809053Y-36803000D01*
X157895787Y-36811504D01*
X157944640Y-36826254D01*
X157989699Y-36850212D01*
X158029245Y-36882466D01*
X158061774Y-36921786D01*
X158086043Y-36966670D01*
X158101135Y-37015427D01*
X158110001Y-37099774D01*
X158110000Y-39604104D01*
X158110710Y-39611308D01*
X158135109Y-40373316D01*
X158135441Y-40377052D01*
X158135387Y-40380803D01*
X158140083Y-40438323D01*
X158306978Y-41813842D01*
X158309246Y-41826485D01*
X158310513Y-41839252D01*
X158321690Y-41895871D01*
X158643224Y-43243654D01*
X158646908Y-43255960D01*
X158649613Y-43268502D01*
X158667128Y-43323492D01*
X159139170Y-44626212D01*
X159144222Y-44638017D01*
X159148330Y-44650176D01*
X159171958Y-44702829D01*
X159788437Y-45943739D01*
X159794793Y-45954897D01*
X159800251Y-45966512D01*
X159829687Y-46016152D01*
X160582678Y-47179298D01*
X160590254Y-47189662D01*
X160596994Y-47200588D01*
X160631861Y-47246577D01*
X161511683Y-48317003D01*
X161520385Y-48326444D01*
X161528317Y-48336535D01*
X161568166Y-48378281D01*
X162563508Y-49342229D01*
X162573219Y-49350621D01*
X162582246Y-49359753D01*
X162626564Y-49396720D01*
X163724631Y-50241796D01*
X163735234Y-50249037D01*
X163745233Y-50257086D01*
X163793451Y-50288798D01*
X164980124Y-51004136D01*
X164991478Y-51010130D01*
X165002325Y-51016996D01*
X165053823Y-51043046D01*
X166313847Y-51619451D01*
X166325806Y-51624121D01*
X166337359Y-51629714D01*
X166391475Y-51649767D01*
X167708650Y-52079829D01*
X167721061Y-52083116D01*
X167733174Y-52087365D01*
X167789212Y-52101162D01*
X169146605Y-52379350D01*
X169159309Y-52381211D01*
X169171824Y-52384061D01*
X169229064Y-52391427D01*
X170609223Y-52514166D01*
X170622056Y-52514576D01*
X170634813Y-52515992D01*
X170692517Y-52516830D01*
X170692519Y-52516830D01*
X172077699Y-52482541D01*
X172090499Y-52481496D01*
X172103332Y-52481458D01*
X172160761Y-52475759D01*
X173515283Y-52287370D01*
X173538940Y-52285074D01*
X203556484Y-46358777D01*
X222580000Y-46358777D01*
X222580000Y-46917223D01*
X222688948Y-47464939D01*
X222902656Y-47980876D01*
X223212912Y-48445207D01*
X223607793Y-48840088D01*
X224072124Y-49150344D01*
X224588061Y-49364052D01*
X225135777Y-49473000D01*
X225694223Y-49473000D01*
X226241939Y-49364052D01*
X226757876Y-49150344D01*
X227222207Y-48840088D01*
X227617088Y-48445207D01*
X227927344Y-47980876D01*
X228141052Y-47464939D01*
X228250000Y-46917223D01*
X228250000Y-46358777D01*
X228141052Y-45811061D01*
X227927344Y-45295124D01*
X227617088Y-44830793D01*
X227222207Y-44435912D01*
X226757876Y-44125656D01*
X226241939Y-43911948D01*
X225694223Y-43803000D01*
X225135777Y-43803000D01*
X224588061Y-43911948D01*
X224072124Y-44125656D01*
X223607793Y-44435912D01*
X223212912Y-44830793D01*
X222902656Y-45295124D01*
X222688948Y-45811061D01*
X222580000Y-46358777D01*
X203556484Y-46358777D01*
X251988915Y-36796870D01*
X252371983Y-36759526D01*
X252714103Y-36793263D01*
M02*
