G04 #@! TF.GenerationSoftware,KiCad,Pcbnew,5.1.5-52549c5~86~ubuntu18.04.1*
G04 #@! TF.CreationDate,2020-04-17T17:34:57+02:00*
G04 #@! TF.ProjectId,bottom,626f7474-6f6d-42e6-9b69-6361645f7063,rev?*
G04 #@! TF.SameCoordinates,Original*
G04 #@! TF.FileFunction,Legend,Top*
G04 #@! TF.FilePolarity,Positive*
%FSLAX46Y46*%
G04 Gerber Fmt 4.6, Leading zero omitted, Abs format (unit mm)*
G04 Created by KiCad (PCBNEW 5.1.5-52549c5~86~ubuntu18.04.1) date 2020-04-17 17:34:57*
%MOMM*%
%LPD*%
G04 APERTURE LIST*
%ADD10C,0.150000*%
G04 APERTURE END LIST*
D10*
X145336011Y-157408630D02*
X145336011Y-158218154D01*
X145383630Y-158313392D01*
X145431250Y-158361011D01*
X145526488Y-158408630D01*
X145716964Y-158408630D01*
X145812202Y-158361011D01*
X145859821Y-158313392D01*
X145907440Y-158218154D01*
X145907440Y-157408630D01*
X146383630Y-158408630D02*
X146383630Y-157408630D01*
X146764583Y-157408630D01*
X146859821Y-157456250D01*
X146907440Y-157503869D01*
X146955059Y-157599107D01*
X146955059Y-157741964D01*
X146907440Y-157837202D01*
X146859821Y-157884821D01*
X146764583Y-157932440D01*
X146383630Y-157932440D01*
X148145535Y-158408630D02*
X148145535Y-157408630D01*
X148145535Y-157884821D02*
X148716964Y-157884821D01*
X148716964Y-158408630D02*
X148716964Y-157408630D01*
X149193154Y-157884821D02*
X149526488Y-157884821D01*
X149669345Y-158408630D02*
X149193154Y-158408630D01*
X149193154Y-157408630D01*
X149669345Y-157408630D01*
X150669345Y-158408630D02*
X150336011Y-157932440D01*
X150097916Y-158408630D02*
X150097916Y-157408630D01*
X150478869Y-157408630D01*
X150574107Y-157456250D01*
X150621726Y-157503869D01*
X150669345Y-157599107D01*
X150669345Y-157741964D01*
X150621726Y-157837202D01*
X150574107Y-157884821D01*
X150478869Y-157932440D01*
X150097916Y-157932440D01*
X151097916Y-157884821D02*
X151431250Y-157884821D01*
X151574107Y-158408630D02*
X151097916Y-158408630D01*
X151097916Y-157408630D01*
X151574107Y-157408630D01*
M02*
