G04 #@! TF.GenerationSoftware,KiCad,Pcbnew,5.1.5-52549c5~86~ubuntu18.04.1*
G04 #@! TF.CreationDate,2020-04-17T17:34:57+02:00*
G04 #@! TF.ProjectId,bottom,626f7474-6f6d-42e6-9b69-6361645f7063,rev?*
G04 #@! TF.SameCoordinates,Original*
G04 #@! TF.FileFunction,Legend,Bot*
G04 #@! TF.FilePolarity,Positive*
%FSLAX46Y46*%
G04 Gerber Fmt 4.6, Leading zero omitted, Abs format (unit mm)*
G04 Created by KiCad (PCBNEW 5.1.5-52549c5~86~ubuntu18.04.1) date 2020-04-17 17:34:57*
%MOMM*%
%LPD*%
G04 APERTURE LIST*
%ADD10C,0.150000*%
G04 APERTURE END LIST*
D10*
X152256547Y-166933630D02*
X152256547Y-167647916D01*
X152304166Y-167790773D01*
X152399404Y-167886011D01*
X152542261Y-167933630D01*
X152637500Y-167933630D01*
X151304166Y-167933630D02*
X151780357Y-167933630D01*
X151780357Y-166933630D01*
X150399404Y-167838392D02*
X150447023Y-167886011D01*
X150589880Y-167933630D01*
X150685119Y-167933630D01*
X150827976Y-167886011D01*
X150923214Y-167790773D01*
X150970833Y-167695535D01*
X151018452Y-167505059D01*
X151018452Y-167362202D01*
X150970833Y-167171726D01*
X150923214Y-167076488D01*
X150827976Y-166981250D01*
X150685119Y-166933630D01*
X150589880Y-166933630D01*
X150447023Y-166981250D01*
X150399404Y-167028869D01*
X149685119Y-166933630D02*
X149685119Y-167647916D01*
X149732738Y-167790773D01*
X149827976Y-167886011D01*
X149970833Y-167933630D01*
X150066071Y-167933630D01*
X148732738Y-167933630D02*
X149208928Y-167933630D01*
X149208928Y-166933630D01*
X147827976Y-167838392D02*
X147875595Y-167886011D01*
X148018452Y-167933630D01*
X148113690Y-167933630D01*
X148256547Y-167886011D01*
X148351785Y-167790773D01*
X148399404Y-167695535D01*
X148447023Y-167505059D01*
X148447023Y-167362202D01*
X148399404Y-167171726D01*
X148351785Y-167076488D01*
X148256547Y-166981250D01*
X148113690Y-166933630D01*
X148018452Y-166933630D01*
X147875595Y-166981250D01*
X147827976Y-167028869D01*
X147113690Y-166933630D02*
X147113690Y-167647916D01*
X147161309Y-167790773D01*
X147256547Y-167886011D01*
X147399404Y-167933630D01*
X147494642Y-167933630D01*
X146161309Y-167933630D02*
X146637500Y-167933630D01*
X146637500Y-166933630D01*
X145256547Y-167838392D02*
X145304166Y-167886011D01*
X145447023Y-167933630D01*
X145542261Y-167933630D01*
X145685119Y-167886011D01*
X145780357Y-167790773D01*
X145827976Y-167695535D01*
X145875595Y-167505059D01*
X145875595Y-167362202D01*
X145827976Y-167171726D01*
X145780357Y-167076488D01*
X145685119Y-166981250D01*
X145542261Y-166933630D01*
X145447023Y-166933630D01*
X145304166Y-166981250D01*
X145256547Y-167028869D01*
X144542261Y-166933630D02*
X144542261Y-167647916D01*
X144589880Y-167790773D01*
X144685119Y-167886011D01*
X144827976Y-167933630D01*
X144923214Y-167933630D01*
X143589880Y-167933630D02*
X144066071Y-167933630D01*
X144066071Y-166933630D01*
X142685119Y-167838392D02*
X142732738Y-167886011D01*
X142875595Y-167933630D01*
X142970833Y-167933630D01*
X143113690Y-167886011D01*
X143208928Y-167790773D01*
X143256547Y-167695535D01*
X143304166Y-167505059D01*
X143304166Y-167362202D01*
X143256547Y-167171726D01*
X143208928Y-167076488D01*
X143113690Y-166981250D01*
X142970833Y-166933630D01*
X142875595Y-166933630D01*
X142732738Y-166981250D01*
X142685119Y-167028869D01*
M02*
