G04 #@! TF.GenerationSoftware,KiCad,Pcbnew,5.1.5-52549c5~86~ubuntu18.04.1*
G04 #@! TF.CreationDate,2020-04-17T17:34:57+02:00*
G04 #@! TF.ProjectId,bottom,626f7474-6f6d-42e6-9b69-6361645f7063,rev?*
G04 #@! TF.SameCoordinates,Original*
G04 #@! TF.FileFunction,Profile,NP*
%FSLAX46Y46*%
G04 Gerber Fmt 4.6, Leading zero omitted, Abs format (unit mm)*
G04 Created by KiCad (PCBNEW 5.1.5-52549c5~86~ubuntu18.04.1) date 2020-04-17 17:34:57*
%MOMM*%
%LPD*%
G04 APERTURE LIST*
%ADD10C,0.200000*%
G04 APERTURE END LIST*
D10*
X121872712Y-178893593D02*
G75*
G02X175037158Y-178893546I26582288J-74627007D01*
G01*
X138065000Y-37068000D02*
G75*
G02X139065000Y-36068000I1000000J0D01*
G01*
X281939567Y-88807250D02*
G75*
G02X264369534Y-121778343I-19882568J-10571750D01*
G01*
X281940000Y-88807000D02*
X254578000Y-37347000D01*
X45023100Y-36068000D02*
X123478000Y-51557000D01*
X42331532Y-37347322D02*
G75*
G02X45023116Y-36068342I2207368J-1173678D01*
G01*
X138065000Y-39568000D02*
X138065000Y-37068000D01*
X138064301Y-39568000D02*
G75*
G02X123477093Y-51556891I-12220301J0D01*
G01*
X157845000Y-36068000D02*
G75*
G02X158845000Y-37068000I0J-1000000D01*
G01*
X173431907Y-51556891D02*
G75*
G02X158844699Y-39568000I-2366907J11988891D01*
G01*
X32539667Y-121778343D02*
G75*
G02X14969632Y-88807252I2312533J22399343D01*
G01*
X173432000Y-51557000D02*
X251886000Y-36068000D01*
X121872872Y-178893558D02*
G75*
G02X118867737Y-177786422I-838872J2355058D01*
G01*
X158845000Y-39568000D02*
X158845000Y-37068000D01*
X178042267Y-177786414D02*
G75*
G02X175037124Y-178893556I-2166267J1247914D01*
G01*
X32539730Y-121778744D02*
G75*
G02X118867221Y-177786506I-11606830J-112424436D01*
G01*
X178042876Y-177786165D02*
G75*
G02X264370170Y-121778744I97934124J-56417015D01*
G01*
X14969700Y-88807000D02*
X42331500Y-37347000D01*
X251886784Y-36068342D02*
G75*
G02X254578368Y-37347322I484216J-2452658D01*
G01*
X139065000Y-36068000D02*
X157845000Y-36068000D01*
M02*
