G04 #@! TF.GenerationSoftware,KiCad,Pcbnew,5.1.5-52549c5~86~ubuntu18.04.1*
G04 #@! TF.CreationDate,2020-04-17T17:34:57+02:00*
G04 #@! TF.ProjectId,bottom,626f7474-6f6d-42e6-9b69-6361645f7063,rev?*
G04 #@! TF.SameCoordinates,Original*
G04 #@! TF.FileFunction,Soldermask,Top*
G04 #@! TF.FilePolarity,Negative*
%FSLAX46Y46*%
G04 Gerber Fmt 4.6, Leading zero omitted, Abs format (unit mm)*
G04 Created by KiCad (PCBNEW 5.1.5-52549c5~86~ubuntu18.04.1) date 2020-04-17 17:34:57*
%MOMM*%
%LPD*%
G04 APERTURE LIST*
%ADD10C,0.100000*%
G04 APERTURE END LIST*
D10*
G36*
X148730880Y-145058276D02*
G01*
X149111593Y-145134004D01*
X149521249Y-145303689D01*
X149889929Y-145550034D01*
X150203466Y-145863571D01*
X150449811Y-146232251D01*
X150619496Y-146641907D01*
X150706000Y-147076796D01*
X150706000Y-147520204D01*
X150619496Y-147955093D01*
X150449811Y-148364749D01*
X150203466Y-148733429D01*
X149889929Y-149046966D01*
X149521249Y-149293311D01*
X149111593Y-149462996D01*
X148730880Y-149538724D01*
X148676705Y-149549500D01*
X148233295Y-149549500D01*
X148179120Y-149538724D01*
X147798407Y-149462996D01*
X147388751Y-149293311D01*
X147020071Y-149046966D01*
X146706534Y-148733429D01*
X146460189Y-148364749D01*
X146290504Y-147955093D01*
X146204000Y-147520204D01*
X146204000Y-147076796D01*
X146290504Y-146641907D01*
X146460189Y-146232251D01*
X146706534Y-145863571D01*
X147020071Y-145550034D01*
X147388751Y-145303689D01*
X147798407Y-145134004D01*
X148179120Y-145058276D01*
X148233295Y-145047500D01*
X148676705Y-145047500D01*
X148730880Y-145058276D01*
G37*
G36*
X221250880Y-113867776D02*
G01*
X221631593Y-113943504D01*
X222041249Y-114113189D01*
X222409929Y-114359534D01*
X222723466Y-114673071D01*
X222969811Y-115041751D01*
X223139496Y-115451407D01*
X223226000Y-115886296D01*
X223226000Y-116329704D01*
X223139496Y-116764593D01*
X222969811Y-117174249D01*
X222723466Y-117542929D01*
X222409929Y-117856466D01*
X222041249Y-118102811D01*
X221631593Y-118272496D01*
X221250880Y-118348224D01*
X221196705Y-118359000D01*
X220753295Y-118359000D01*
X220699120Y-118348224D01*
X220318407Y-118272496D01*
X219908751Y-118102811D01*
X219540071Y-117856466D01*
X219226534Y-117542929D01*
X218980189Y-117174249D01*
X218810504Y-116764593D01*
X218724000Y-116329704D01*
X218724000Y-115886296D01*
X218810504Y-115451407D01*
X218980189Y-115041751D01*
X219226534Y-114673071D01*
X219540071Y-114359534D01*
X219908751Y-114113189D01*
X220318407Y-113943504D01*
X220699120Y-113867776D01*
X220753295Y-113857000D01*
X221196705Y-113857000D01*
X221250880Y-113867776D01*
G37*
G36*
X76210580Y-113867776D02*
G01*
X76591293Y-113943504D01*
X77000949Y-114113189D01*
X77369629Y-114359534D01*
X77683166Y-114673071D01*
X77929511Y-115041751D01*
X78099196Y-115451407D01*
X78185700Y-115886296D01*
X78185700Y-116329704D01*
X78099196Y-116764593D01*
X77929511Y-117174249D01*
X77683166Y-117542929D01*
X77369629Y-117856466D01*
X77000949Y-118102811D01*
X76591293Y-118272496D01*
X76210580Y-118348224D01*
X76156405Y-118359000D01*
X75712995Y-118359000D01*
X75658820Y-118348224D01*
X75278107Y-118272496D01*
X74868451Y-118102811D01*
X74499771Y-117856466D01*
X74186234Y-117542929D01*
X73939889Y-117174249D01*
X73770204Y-116764593D01*
X73683700Y-116329704D01*
X73683700Y-115886296D01*
X73770204Y-115451407D01*
X73939889Y-115041751D01*
X74186234Y-114673071D01*
X74499771Y-114359534D01*
X74868451Y-114113189D01*
X75278107Y-113943504D01*
X75658820Y-113867776D01*
X75712995Y-113857000D01*
X76156405Y-113857000D01*
X76210580Y-113867776D01*
G37*
G36*
X277280880Y-97167776D02*
G01*
X277661593Y-97243504D01*
X278071249Y-97413189D01*
X278439929Y-97659534D01*
X278753466Y-97973071D01*
X278999811Y-98341751D01*
X279169496Y-98751407D01*
X279256000Y-99186296D01*
X279256000Y-99629704D01*
X279169496Y-100064593D01*
X278999811Y-100474249D01*
X278753466Y-100842929D01*
X278439929Y-101156466D01*
X278071249Y-101402811D01*
X277661593Y-101572496D01*
X277280880Y-101648224D01*
X277226705Y-101659000D01*
X276783295Y-101659000D01*
X276729120Y-101648224D01*
X276348407Y-101572496D01*
X275938751Y-101402811D01*
X275570071Y-101156466D01*
X275256534Y-100842929D01*
X275010189Y-100474249D01*
X274840504Y-100064593D01*
X274754000Y-99629704D01*
X274754000Y-99186296D01*
X274840504Y-98751407D01*
X275010189Y-98341751D01*
X275256534Y-97973071D01*
X275570071Y-97659534D01*
X275938751Y-97413189D01*
X276348407Y-97243504D01*
X276729120Y-97167776D01*
X276783295Y-97157000D01*
X277226705Y-97157000D01*
X277280880Y-97167776D01*
G37*
G36*
X20180580Y-97167776D02*
G01*
X20561293Y-97243504D01*
X20970949Y-97413189D01*
X21339629Y-97659534D01*
X21653166Y-97973071D01*
X21899511Y-98341751D01*
X22069196Y-98751407D01*
X22155700Y-99186296D01*
X22155700Y-99629704D01*
X22069196Y-100064593D01*
X21899511Y-100474249D01*
X21653166Y-100842929D01*
X21339629Y-101156466D01*
X20970949Y-101402811D01*
X20561293Y-101572496D01*
X20180580Y-101648224D01*
X20126405Y-101659000D01*
X19682995Y-101659000D01*
X19628820Y-101648224D01*
X19248107Y-101572496D01*
X18838451Y-101402811D01*
X18469771Y-101156466D01*
X18156234Y-100842929D01*
X17909889Y-100474249D01*
X17740204Y-100064593D01*
X17653700Y-99629704D01*
X17653700Y-99186296D01*
X17740204Y-98751407D01*
X17909889Y-98341751D01*
X18156234Y-97973071D01*
X18469771Y-97659534D01*
X18838451Y-97413189D01*
X19248107Y-97243504D01*
X19628820Y-97167776D01*
X19682995Y-97157000D01*
X20126405Y-97157000D01*
X20180580Y-97167776D01*
G37*
G36*
X129300880Y-53787776D02*
G01*
X129681593Y-53863504D01*
X130091249Y-54033189D01*
X130459929Y-54279534D01*
X130773466Y-54593071D01*
X131019811Y-54961751D01*
X131189496Y-55371407D01*
X131276000Y-55806296D01*
X131276000Y-56249704D01*
X131189496Y-56684593D01*
X131019811Y-57094249D01*
X130773466Y-57462929D01*
X130459929Y-57776466D01*
X130091249Y-58022811D01*
X129681593Y-58192496D01*
X129300880Y-58268224D01*
X129246705Y-58279000D01*
X128803295Y-58279000D01*
X128749120Y-58268224D01*
X128368407Y-58192496D01*
X127958751Y-58022811D01*
X127590071Y-57776466D01*
X127276534Y-57462929D01*
X127030189Y-57094249D01*
X126860504Y-56684593D01*
X126774000Y-56249704D01*
X126774000Y-55806296D01*
X126860504Y-55371407D01*
X127030189Y-54961751D01*
X127276534Y-54593071D01*
X127590071Y-54279534D01*
X127958751Y-54033189D01*
X128368407Y-53863504D01*
X128749120Y-53787776D01*
X128803295Y-53777000D01*
X129246705Y-53777000D01*
X129300880Y-53787776D01*
G37*
G36*
X168160880Y-53787776D02*
G01*
X168541593Y-53863504D01*
X168951249Y-54033189D01*
X169319929Y-54279534D01*
X169633466Y-54593071D01*
X169879811Y-54961751D01*
X170049496Y-55371407D01*
X170136000Y-55806296D01*
X170136000Y-56249704D01*
X170049496Y-56684593D01*
X169879811Y-57094249D01*
X169633466Y-57462929D01*
X169319929Y-57776466D01*
X168951249Y-58022811D01*
X168541593Y-58192496D01*
X168160880Y-58268224D01*
X168106705Y-58279000D01*
X167663295Y-58279000D01*
X167609120Y-58268224D01*
X167228407Y-58192496D01*
X166818751Y-58022811D01*
X166450071Y-57776466D01*
X166136534Y-57462929D01*
X165890189Y-57094249D01*
X165720504Y-56684593D01*
X165634000Y-56249704D01*
X165634000Y-55806296D01*
X165720504Y-55371407D01*
X165890189Y-54961751D01*
X166136534Y-54593071D01*
X166450071Y-54279534D01*
X166818751Y-54033189D01*
X167228407Y-53863504D01*
X167609120Y-53787776D01*
X167663295Y-53777000D01*
X168106705Y-53777000D01*
X168160880Y-53787776D01*
G37*
G36*
X71770580Y-44397776D02*
G01*
X72151293Y-44473504D01*
X72560949Y-44643189D01*
X72929629Y-44889534D01*
X73243166Y-45203071D01*
X73489511Y-45571751D01*
X73659196Y-45981407D01*
X73745700Y-46416296D01*
X73745700Y-46859704D01*
X73659196Y-47294593D01*
X73489511Y-47704249D01*
X73243166Y-48072929D01*
X72929629Y-48386466D01*
X72560949Y-48632811D01*
X72151293Y-48802496D01*
X71770580Y-48878224D01*
X71716405Y-48889000D01*
X71272995Y-48889000D01*
X71218820Y-48878224D01*
X70838107Y-48802496D01*
X70428451Y-48632811D01*
X70059771Y-48386466D01*
X69746234Y-48072929D01*
X69499889Y-47704249D01*
X69330204Y-47294593D01*
X69243700Y-46859704D01*
X69243700Y-46416296D01*
X69330204Y-45981407D01*
X69499889Y-45571751D01*
X69746234Y-45203071D01*
X70059771Y-44889534D01*
X70428451Y-44643189D01*
X70838107Y-44473504D01*
X71218820Y-44397776D01*
X71272995Y-44387000D01*
X71716405Y-44387000D01*
X71770580Y-44397776D01*
G37*
G36*
X225690880Y-44397776D02*
G01*
X226071593Y-44473504D01*
X226481249Y-44643189D01*
X226849929Y-44889534D01*
X227163466Y-45203071D01*
X227409811Y-45571751D01*
X227579496Y-45981407D01*
X227666000Y-46416296D01*
X227666000Y-46859704D01*
X227579496Y-47294593D01*
X227409811Y-47704249D01*
X227163466Y-48072929D01*
X226849929Y-48386466D01*
X226481249Y-48632811D01*
X226071593Y-48802496D01*
X225690880Y-48878224D01*
X225636705Y-48889000D01*
X225193295Y-48889000D01*
X225139120Y-48878224D01*
X224758407Y-48802496D01*
X224348751Y-48632811D01*
X223980071Y-48386466D01*
X223666534Y-48072929D01*
X223420189Y-47704249D01*
X223250504Y-47294593D01*
X223164000Y-46859704D01*
X223164000Y-46416296D01*
X223250504Y-45981407D01*
X223420189Y-45571751D01*
X223666534Y-45203071D01*
X223980071Y-44889534D01*
X224348751Y-44643189D01*
X224758407Y-44473504D01*
X225139120Y-44397776D01*
X225193295Y-44387000D01*
X225636705Y-44387000D01*
X225690880Y-44397776D01*
G37*
M02*
