0
SECTION
2
HEADER
9
$INSUNITS
70
4
9
$ACADVER
1
AC1014
9
$HANDSEED
5
FFFF
0
ENDSEC
0
SECTION
2
TABLES
0
TABLE
2
VPORT
5
8
100
AcDbSymbolTable
0
ENDTAB
0
TABLE
2
LTYPE
5
5
100
AcDbSymbolTable
0
LTYPE
5
14
100
AcDbSymbolTableRecord
100
AcDbLinetypeTableRecord
2
BYBLOCK
70
0
0
LTYPE
5
15
100
AcDbSymbolTableRecord
100
AcDbLinetypeTableRecord
2
BYLAYER
70
0
0
ENDTAB
0
TABLE
2
LAYER
5
2
100
AcDbSymbolTable
70
2
0
LAYER
5
50
100
AcDbSymbolTableRecord
100
AcDbLayerTableRecord
2
0
70
0
6
CONTINUOUS
0
ENDTAB
0
TABLE
2
STYLE
5
3
100
AcDbSymbolTable
70
1
0
STYLE
5
11
100
AcDbSymbolTableRecord
100
AcDbTextStyleTableRecord
2
STANDARD
70
0
0
ENDTAB
0
TABLE
2
VIEW
5
6
100
AcDbSymbolTable
70
0
0
ENDTAB
0
TABLE
2
UCS
5
7
100
AcDbSymbolTable
70
0
0
ENDTAB
0
TABLE
2
APPID
5
9
100
AcDbSymbolTable
70
2
0
APPID
5
12
100
AcDbSymbolTableRecord
100
AcDbRegAppTableRecord
2
ACAD
70
0
0
ENDTAB
0
TABLE
2
DIMSTYLE
5
A
100
AcDbSymbolTable
70
1
0
ENDTAB
0
TABLE
2
BLOCK_RECORD
5
1
100
AcDbSymbolTable
70
1
0
BLOCK_RECORD
5
1F
100
AcDbSymbolTableRecord
100
AcDbBlockTableRecord
2
*MODEL_SPACE
0
BLOCK_RECORD
5
1B
100
AcDbSymbolTableRecord
100
AcDbBlockTableRecord
2
*PAPER_SPACE
0
ENDTAB
0
ENDSEC
0
SECTION
2
BLOCKS
0
BLOCK
5
20
100
AcDbEntity
100
AcDbBlockBegin
2
*MODEL_SPACE
0
ENDBLK
5
21
100
AcDbEntity
100
AcDbBlockEnd
0
BLOCK
5
1C
100
AcDbEntity
100
AcDbBlockBegin
2
*PAPER_SPACE
0
ENDBLK
5
1D
100
AcDbEntity
100
AcDbBlockEnd
0
ENDSEC
0
SECTION
2
ENTITIES
0
LWPOLYLINE
5
100
100
AcDbEntity
8
0
100
AcDbPolyline
90
27
70
1
43
0.0
10
143.60000000000002
20
-3.4004700580587133e-31
10
125.82000000000001
20
0
42
0.41421356237309503
10
124.82000000000001
20
-0.99999999999999978
10
124.82000000000001
20
-1.0671006945682338
42
-0.4696222699089036
10
108.23911362776158
20
-14.827152494383299
10
71.613291177993005
20
-7.957477335609239
42
0.12329555714692847
10
66.764044022560483
20
-8.2485061171499225
42
-0.20114585151067071
10
27.714588406413256
20
-4.6576791052690041
42
0.41421356237309576
10
26.362169250768432
20
-5.0711551353420337
10
0.47081256312654596
20
-53.765714881511826
42
0.41421356237309925
10
0.88428859320144326
20
-55.118134037157624
42
-0.022241983330391138
10
56.494288593199613
20
-87.93813403715653
42
-0.16344574996032563
10
106.3253027086261
20
-140.56914815258298
42
0.41421356237309503
10
107.67772186427092
20
-140.98262418265602
42
-0.24932800284318365
10
161.73227813572919
20
-140.982624182656
42
0.41421356237312751
10
163.08469729137389
20
-140.56914815258298
42
-0.16334290527875567
10
212.93571140680032
20
-87.938134037156601
42
-0.02228136414856775
10
268.53571140680049
20
-55.118134037156622
42
0.41421356237306611
10
268.9491874368735
20
-53.765714881511819
10
243.0578307492317
20
-5.0711551353419626
42
0.41421356237308959
10
241.70541159358694
20
-4.657679105268917
42
-0.2011359011675673
10
202.66577953653265
20
-8.2483558040336682
42
0.12328584834787826
10
197.81689723117034
20
-7.9574419968874919
10
161.18088325229891
20
-14.829028716675738
42
-0.46962224246776724
10
144.59999688006053
20
-1.0689781758912469
10
144.59999687385726
20
-0.99999991506952068
42
0.41348077329999727
10
143.60250244605942
20
-6.2622754653771588e-06
0
CIRCLE
5
101
100
AcDbEntity
8
0
100
AcDbCircle
10
71.483133457857576
20
-70.940303287925019
30
0
40
1.1000000000000001
210
0
220
0
230
1
0
CIRCLE
5
102
100
AcDbEntity
8
0
100
AcDbCircle
10
134.7050000000001
20
-130.74117499744324
30
0
40
1.1000000000000001
210
0
220
0
230
1
0
CIRCLE
5
103
100
AcDbEntity
8
0
100
AcDbCircle
10
11.174216943380666
20
-39.013926526442603
30
0
40
1.1000000000000001
210
0
220
0
230
1
0
CIRCLE
5
104
100
AcDbEntity
8
0
100
AcDbCircle
10
58.737485965087743
20
-18.083002571027031
30
0
40
1.1000000000000001
210
0
220
0
230
1
0
CIRCLE
5
105
100
AcDbEntity
8
0
100
AcDbCircle
10
109.94367689318105
20
-18.374322446984117
30
0
40
1.1000000000000001
210
0
220
0
230
1
0
CIRCLE
5
106
100
AcDbEntity
8
0
100
AcDbCircle
10
134.71122844880153
20
-64.670228985892436
30
0
40
1.1000000000000001
210
0
220
0
230
1
0
CIRCLE
5
107
100
AcDbEntity
8
0
100
AcDbCircle
10
258.24578305661942
20
-39.013926526442539
30
0
40
1.1000000000000001
210
0
220
0
230
1
0
CIRCLE
5
108
100
AcDbEntity
8
0
100
AcDbCircle
10
210.69153416010448
20
-18.082766426912766
30
0
40
1.1000000000000001
210
0
220
0
230
1
0
CIRCLE
5
109
100
AcDbEntity
8
0
100
AcDbCircle
10
159.48632310681893
20
-18.374322446984138
30
0
40
1.1000000000000001
210
0
220
0
230
1
0
CIRCLE
5
110
100
AcDbEntity
8
0
100
AcDbCircle
10
197.94686654214246
20
-70.940303287925019
30
0
40
1.1000000000000001
210
0
220
0
230
1
0
ENDSEC
0
SECTION
2
OBJECTS
0
DICTIONARY
5
C
100
AcDbDictionary
3
ACAD_GROUP
350
D
3
ACAD_MLINESTYLE
350
17
0
DICTIONARY
5
D
100
AcDbDictionary
0
DICTIONARY
5
1A
330
C
100
AcDbDictionary
0
DICTIONARY
5
17
100
AcDbDictionary
0
ENDSEC
0
EOF
