G04 #@! TF.GenerationSoftware,KiCad,Pcbnew,5.1.5-52549c5~86~ubuntu18.04.1*
G04 #@! TF.CreationDate,2020-04-20T11:55:07+02:00*
G04 #@! TF.ProjectId,plate,706c6174-652e-46b6-9963-61645f706362,rev?*
G04 #@! TF.SameCoordinates,Original*
G04 #@! TF.FileFunction,Soldermask,Top*
G04 #@! TF.FilePolarity,Negative*
%FSLAX46Y46*%
G04 Gerber Fmt 4.6, Leading zero omitted, Abs format (unit mm)*
G04 Created by KiCad (PCBNEW 5.1.5-52549c5~86~ubuntu18.04.1) date 2020-04-20 11:55:07*
%MOMM*%
%LPD*%
G04 APERTURE LIST*
%ADD10C,0.100000*%
G04 APERTURE END LIST*
D10*
G36*
X147479880Y-133238776D02*
G01*
X147860593Y-133314504D01*
X148270249Y-133484189D01*
X148638929Y-133730534D01*
X148952466Y-134044071D01*
X149198811Y-134412751D01*
X149368496Y-134822407D01*
X149455000Y-135257296D01*
X149455000Y-135700704D01*
X149368496Y-136135593D01*
X149198811Y-136545249D01*
X148952466Y-136913929D01*
X148638929Y-137227466D01*
X148270249Y-137473811D01*
X147860593Y-137643496D01*
X147479880Y-137719224D01*
X147425705Y-137730000D01*
X146982295Y-137730000D01*
X146928120Y-137719224D01*
X146547407Y-137643496D01*
X146137751Y-137473811D01*
X145769071Y-137227466D01*
X145455534Y-136913929D01*
X145209189Y-136545249D01*
X145039504Y-136135593D01*
X144953000Y-135700704D01*
X144953000Y-135257296D01*
X145039504Y-134822407D01*
X145209189Y-134412751D01*
X145455534Y-134044071D01*
X145769071Y-133730534D01*
X146137751Y-133484189D01*
X146547407Y-133314504D01*
X146928120Y-133238776D01*
X146982295Y-133228000D01*
X147425705Y-133228000D01*
X147479880Y-133238776D01*
G37*
G36*
X219999880Y-102048376D02*
G01*
X220380593Y-102124104D01*
X220790249Y-102293789D01*
X221158929Y-102540134D01*
X221472466Y-102853671D01*
X221718811Y-103222351D01*
X221888496Y-103632007D01*
X221975000Y-104066896D01*
X221975000Y-104510304D01*
X221888496Y-104945193D01*
X221718811Y-105354849D01*
X221472466Y-105723529D01*
X221158929Y-106037066D01*
X220790249Y-106283411D01*
X220380593Y-106453096D01*
X219999880Y-106528824D01*
X219945705Y-106539600D01*
X219502295Y-106539600D01*
X219448120Y-106528824D01*
X219067407Y-106453096D01*
X218657751Y-106283411D01*
X218289071Y-106037066D01*
X217975534Y-105723529D01*
X217729189Y-105354849D01*
X217559504Y-104945193D01*
X217473000Y-104510304D01*
X217473000Y-104066896D01*
X217559504Y-103632007D01*
X217729189Y-103222351D01*
X217975534Y-102853671D01*
X218289071Y-102540134D01*
X218657751Y-102293789D01*
X219067407Y-102124104D01*
X219448120Y-102048376D01*
X219502295Y-102037600D01*
X219945705Y-102037600D01*
X219999880Y-102048376D01*
G37*
G36*
X74959580Y-102048376D02*
G01*
X75340293Y-102124104D01*
X75749949Y-102293789D01*
X76118629Y-102540134D01*
X76432166Y-102853671D01*
X76678511Y-103222351D01*
X76848196Y-103632007D01*
X76934700Y-104066896D01*
X76934700Y-104510304D01*
X76848196Y-104945193D01*
X76678511Y-105354849D01*
X76432166Y-105723529D01*
X76118629Y-106037066D01*
X75749949Y-106283411D01*
X75340293Y-106453096D01*
X74959580Y-106528824D01*
X74905405Y-106539600D01*
X74461995Y-106539600D01*
X74407820Y-106528824D01*
X74027107Y-106453096D01*
X73617451Y-106283411D01*
X73248771Y-106037066D01*
X72935234Y-105723529D01*
X72688889Y-105354849D01*
X72519204Y-104945193D01*
X72432700Y-104510304D01*
X72432700Y-104066896D01*
X72519204Y-103632007D01*
X72688889Y-103222351D01*
X72935234Y-102853671D01*
X73248771Y-102540134D01*
X73617451Y-102293789D01*
X74027107Y-102124104D01*
X74407820Y-102048376D01*
X74461995Y-102037600D01*
X74905405Y-102037600D01*
X74959580Y-102048376D01*
G37*
G36*
X276029880Y-85348376D02*
G01*
X276410593Y-85424104D01*
X276820249Y-85593789D01*
X277188929Y-85840134D01*
X277502466Y-86153671D01*
X277748811Y-86522351D01*
X277918496Y-86932007D01*
X278005000Y-87366896D01*
X278005000Y-87810304D01*
X277918496Y-88245193D01*
X277748811Y-88654849D01*
X277502466Y-89023529D01*
X277188929Y-89337066D01*
X276820249Y-89583411D01*
X276410593Y-89753096D01*
X276029880Y-89828824D01*
X275975705Y-89839600D01*
X275532295Y-89839600D01*
X275478120Y-89828824D01*
X275097407Y-89753096D01*
X274687751Y-89583411D01*
X274319071Y-89337066D01*
X274005534Y-89023529D01*
X273759189Y-88654849D01*
X273589504Y-88245193D01*
X273503000Y-87810304D01*
X273503000Y-87366896D01*
X273589504Y-86932007D01*
X273759189Y-86522351D01*
X274005534Y-86153671D01*
X274319071Y-85840134D01*
X274687751Y-85593789D01*
X275097407Y-85424104D01*
X275478120Y-85348376D01*
X275532295Y-85337600D01*
X275975705Y-85337600D01*
X276029880Y-85348376D01*
G37*
G36*
X18929580Y-85348376D02*
G01*
X19310293Y-85424104D01*
X19719949Y-85593789D01*
X20088629Y-85840134D01*
X20402166Y-86153671D01*
X20648511Y-86522351D01*
X20818196Y-86932007D01*
X20904700Y-87366896D01*
X20904700Y-87810304D01*
X20818196Y-88245193D01*
X20648511Y-88654849D01*
X20402166Y-89023529D01*
X20088629Y-89337066D01*
X19719949Y-89583411D01*
X19310293Y-89753096D01*
X18929580Y-89828824D01*
X18875405Y-89839600D01*
X18431995Y-89839600D01*
X18377820Y-89828824D01*
X17997107Y-89753096D01*
X17587451Y-89583411D01*
X17218771Y-89337066D01*
X16905234Y-89023529D01*
X16658889Y-88654849D01*
X16489204Y-88245193D01*
X16402700Y-87810304D01*
X16402700Y-87366896D01*
X16489204Y-86932007D01*
X16658889Y-86522351D01*
X16905234Y-86153671D01*
X17218771Y-85840134D01*
X17587451Y-85593789D01*
X17997107Y-85424104D01*
X18377820Y-85348376D01*
X18431995Y-85337600D01*
X18875405Y-85337600D01*
X18929580Y-85348376D01*
G37*
G36*
X128049879Y-41968376D02*
G01*
X128430592Y-42044104D01*
X128840248Y-42213789D01*
X129208928Y-42460134D01*
X129522465Y-42773671D01*
X129768810Y-43142351D01*
X129938495Y-43552007D01*
X130024999Y-43986896D01*
X130024999Y-44430304D01*
X129938495Y-44865193D01*
X129768810Y-45274849D01*
X129522465Y-45643529D01*
X129208928Y-45957066D01*
X128840248Y-46203411D01*
X128430592Y-46373096D01*
X128049879Y-46448824D01*
X127995704Y-46459600D01*
X127552294Y-46459600D01*
X127498119Y-46448824D01*
X127117406Y-46373096D01*
X126707750Y-46203411D01*
X126339070Y-45957066D01*
X126025533Y-45643529D01*
X125779188Y-45274849D01*
X125609503Y-44865193D01*
X125522999Y-44430304D01*
X125522999Y-43986896D01*
X125609503Y-43552007D01*
X125779188Y-43142351D01*
X126025533Y-42773671D01*
X126339070Y-42460134D01*
X126707750Y-42213789D01*
X127117406Y-42044104D01*
X127498119Y-41968376D01*
X127552294Y-41957600D01*
X127995704Y-41957600D01*
X128049879Y-41968376D01*
G37*
G36*
X166909880Y-41968376D02*
G01*
X167290593Y-42044104D01*
X167700249Y-42213789D01*
X168068929Y-42460134D01*
X168382466Y-42773671D01*
X168628811Y-43142351D01*
X168798496Y-43552007D01*
X168885000Y-43986896D01*
X168885000Y-44430304D01*
X168798496Y-44865193D01*
X168628811Y-45274849D01*
X168382466Y-45643529D01*
X168068929Y-45957066D01*
X167700249Y-46203411D01*
X167290593Y-46373096D01*
X166909880Y-46448824D01*
X166855705Y-46459600D01*
X166412295Y-46459600D01*
X166358120Y-46448824D01*
X165977407Y-46373096D01*
X165567751Y-46203411D01*
X165199071Y-45957066D01*
X164885534Y-45643529D01*
X164639189Y-45274849D01*
X164469504Y-44865193D01*
X164383000Y-44430304D01*
X164383000Y-43986896D01*
X164469504Y-43552007D01*
X164639189Y-43142351D01*
X164885534Y-42773671D01*
X165199071Y-42460134D01*
X165567751Y-42213789D01*
X165977407Y-42044104D01*
X166358120Y-41968376D01*
X166412295Y-41957600D01*
X166855705Y-41957600D01*
X166909880Y-41968376D01*
G37*
G36*
X70519580Y-32578376D02*
G01*
X70900293Y-32654104D01*
X71309949Y-32823789D01*
X71678629Y-33070134D01*
X71992166Y-33383671D01*
X72238511Y-33752351D01*
X72408196Y-34162007D01*
X72494700Y-34596896D01*
X72494700Y-35040304D01*
X72408196Y-35475193D01*
X72238511Y-35884849D01*
X71992166Y-36253529D01*
X71678629Y-36567066D01*
X71309949Y-36813411D01*
X70900293Y-36983096D01*
X70519580Y-37058824D01*
X70465405Y-37069600D01*
X70021995Y-37069600D01*
X69967820Y-37058824D01*
X69587107Y-36983096D01*
X69177451Y-36813411D01*
X68808771Y-36567066D01*
X68495234Y-36253529D01*
X68248889Y-35884849D01*
X68079204Y-35475193D01*
X67992700Y-35040304D01*
X67992700Y-34596896D01*
X68079204Y-34162007D01*
X68248889Y-33752351D01*
X68495234Y-33383671D01*
X68808771Y-33070134D01*
X69177451Y-32823789D01*
X69587107Y-32654104D01*
X69967820Y-32578376D01*
X70021995Y-32567600D01*
X70465405Y-32567600D01*
X70519580Y-32578376D01*
G37*
G36*
X224439880Y-32578376D02*
G01*
X224820593Y-32654104D01*
X225230249Y-32823789D01*
X225598929Y-33070134D01*
X225912466Y-33383671D01*
X226158811Y-33752351D01*
X226328496Y-34162007D01*
X226415000Y-34596896D01*
X226415000Y-35040304D01*
X226328496Y-35475193D01*
X226158811Y-35884849D01*
X225912466Y-36253529D01*
X225598929Y-36567066D01*
X225230249Y-36813411D01*
X224820593Y-36983096D01*
X224439880Y-37058824D01*
X224385705Y-37069600D01*
X223942295Y-37069600D01*
X223888120Y-37058824D01*
X223507407Y-36983096D01*
X223097751Y-36813411D01*
X222729071Y-36567066D01*
X222415534Y-36253529D01*
X222169189Y-35884849D01*
X221999504Y-35475193D01*
X221913000Y-35040304D01*
X221913000Y-34596896D01*
X221999504Y-34162007D01*
X222169189Y-33752351D01*
X222415534Y-33383671D01*
X222729071Y-33070134D01*
X223097751Y-32823789D01*
X223507407Y-32654104D01*
X223888120Y-32578376D01*
X223942295Y-32567600D01*
X224385705Y-32567600D01*
X224439880Y-32578376D01*
G37*
M02*
