G04 #@! TF.GenerationSoftware,KiCad,Pcbnew,5.1.5-52549c5~86~ubuntu18.04.1*
G04 #@! TF.CreationDate,2020-04-20T11:55:07+02:00*
G04 #@! TF.ProjectId,plate,706c6174-652e-46b6-9963-61645f706362,rev?*
G04 #@! TF.SameCoordinates,Original*
G04 #@! TF.FileFunction,Legend,Top*
G04 #@! TF.FilePolarity,Positive*
%FSLAX46Y46*%
G04 Gerber Fmt 4.6, Leading zero omitted, Abs format (unit mm)*
G04 Created by KiCad (PCBNEW 5.1.5-52549c5~86~ubuntu18.04.1) date 2020-04-20 11:55:07*
%MOMM*%
%LPD*%
G04 APERTURE LIST*
%ADD10C,0.150000*%
G04 APERTURE END LIST*
D10*
X51150297Y-98877380D02*
X51150297Y-97877380D01*
X51150297Y-98829761D02*
X51055059Y-98877380D01*
X50864583Y-98877380D01*
X50769345Y-98829761D01*
X50721726Y-98782142D01*
X50674107Y-98686904D01*
X50674107Y-98401190D01*
X50721726Y-98305952D01*
X50769345Y-98258333D01*
X50864583Y-98210714D01*
X51055059Y-98210714D01*
X51150297Y-98258333D01*
X52007440Y-98829761D02*
X51912202Y-98877380D01*
X51721726Y-98877380D01*
X51626488Y-98829761D01*
X51578869Y-98734523D01*
X51578869Y-98353571D01*
X51626488Y-98258333D01*
X51721726Y-98210714D01*
X51912202Y-98210714D01*
X52007440Y-98258333D01*
X52055059Y-98353571D01*
X52055059Y-98448809D01*
X51578869Y-98544047D01*
X52436011Y-98829761D02*
X52531250Y-98877380D01*
X52721726Y-98877380D01*
X52816964Y-98829761D01*
X52864583Y-98734523D01*
X52864583Y-98686904D01*
X52816964Y-98591666D01*
X52721726Y-98544047D01*
X52578869Y-98544047D01*
X52483630Y-98496428D01*
X52436011Y-98401190D01*
X52436011Y-98353571D01*
X52483630Y-98258333D01*
X52578869Y-98210714D01*
X52721726Y-98210714D01*
X52816964Y-98258333D01*
X53293154Y-98877380D02*
X53293154Y-98210714D01*
X53293154Y-97877380D02*
X53245535Y-97925000D01*
X53293154Y-97972619D01*
X53340773Y-97925000D01*
X53293154Y-97877380D01*
X53293154Y-97972619D01*
X54197916Y-98210714D02*
X54197916Y-99020238D01*
X54150297Y-99115476D01*
X54102678Y-99163095D01*
X54007440Y-99210714D01*
X53864583Y-99210714D01*
X53769345Y-99163095D01*
X54197916Y-98829761D02*
X54102678Y-98877380D01*
X53912202Y-98877380D01*
X53816964Y-98829761D01*
X53769345Y-98782142D01*
X53721726Y-98686904D01*
X53721726Y-98401190D01*
X53769345Y-98305952D01*
X53816964Y-98258333D01*
X53912202Y-98210714D01*
X54102678Y-98210714D01*
X54197916Y-98258333D01*
X54674107Y-98210714D02*
X54674107Y-98877380D01*
X54674107Y-98305952D02*
X54721726Y-98258333D01*
X54816964Y-98210714D01*
X54959821Y-98210714D01*
X55055059Y-98258333D01*
X55102678Y-98353571D01*
X55102678Y-98877380D01*
X55959821Y-98829761D02*
X55864583Y-98877380D01*
X55674107Y-98877380D01*
X55578869Y-98829761D01*
X55531250Y-98734523D01*
X55531250Y-98353571D01*
X55578869Y-98258333D01*
X55674107Y-98210714D01*
X55864583Y-98210714D01*
X55959821Y-98258333D01*
X56007440Y-98353571D01*
X56007440Y-98448809D01*
X55531250Y-98544047D01*
X56864583Y-98877380D02*
X56864583Y-97877380D01*
X56864583Y-98829761D02*
X56769345Y-98877380D01*
X56578869Y-98877380D01*
X56483630Y-98829761D01*
X56436011Y-98782142D01*
X56388392Y-98686904D01*
X56388392Y-98401190D01*
X56436011Y-98305952D01*
X56483630Y-98258333D01*
X56578869Y-98210714D01*
X56769345Y-98210714D01*
X56864583Y-98258333D01*
X58102678Y-98877380D02*
X58102678Y-97877380D01*
X58102678Y-98258333D02*
X58197916Y-98210714D01*
X58388392Y-98210714D01*
X58483630Y-98258333D01*
X58531250Y-98305952D01*
X58578869Y-98401190D01*
X58578869Y-98686904D01*
X58531250Y-98782142D01*
X58483630Y-98829761D01*
X58388392Y-98877380D01*
X58197916Y-98877380D01*
X58102678Y-98829761D01*
X58912202Y-98210714D02*
X59150297Y-98877380D01*
X59388392Y-98210714D02*
X59150297Y-98877380D01*
X59055059Y-99115476D01*
X59007440Y-99163095D01*
X58912202Y-99210714D01*
X60674107Y-98877380D02*
X60578869Y-98829761D01*
X60531250Y-98734523D01*
X60531250Y-97877380D01*
X61197916Y-98877380D02*
X61102678Y-98829761D01*
X61055059Y-98782142D01*
X61007440Y-98686904D01*
X61007440Y-98401190D01*
X61055059Y-98305952D01*
X61102678Y-98258333D01*
X61197916Y-98210714D01*
X61340773Y-98210714D01*
X61436011Y-98258333D01*
X61483630Y-98305952D01*
X61531250Y-98401190D01*
X61531250Y-98686904D01*
X61483630Y-98782142D01*
X61436011Y-98829761D01*
X61340773Y-98877380D01*
X61197916Y-98877380D01*
X62388392Y-98210714D02*
X62388392Y-98877380D01*
X61959821Y-98210714D02*
X61959821Y-98734523D01*
X62007440Y-98829761D01*
X62102678Y-98877380D01*
X62245535Y-98877380D01*
X62340773Y-98829761D01*
X62388392Y-98782142D01*
X63293154Y-98829761D02*
X63197916Y-98877380D01*
X63007440Y-98877380D01*
X62912202Y-98829761D01*
X62864583Y-98782142D01*
X62816964Y-98686904D01*
X62816964Y-98401190D01*
X62864583Y-98305952D01*
X62912202Y-98258333D01*
X63007440Y-98210714D01*
X63197916Y-98210714D01*
X63293154Y-98258333D01*
X63721726Y-98877380D02*
X63721726Y-97877380D01*
X63816964Y-98496428D02*
X64102678Y-98877380D01*
X64102678Y-98210714D02*
X63721726Y-98591666D01*
X64674107Y-98877380D02*
X64578869Y-98829761D01*
X64531250Y-98782142D01*
X64483630Y-98686904D01*
X64483630Y-98401190D01*
X64531250Y-98305952D01*
X64578869Y-98258333D01*
X64674107Y-98210714D01*
X64816964Y-98210714D01*
X64912202Y-98258333D01*
X64959821Y-98305952D01*
X65007440Y-98401190D01*
X65007440Y-98686904D01*
X64959821Y-98782142D01*
X64912202Y-98829761D01*
X64816964Y-98877380D01*
X64674107Y-98877380D01*
X65864583Y-98210714D02*
X65864583Y-98877380D01*
X65436011Y-98210714D02*
X65436011Y-98734523D01*
X65483630Y-98829761D01*
X65578869Y-98877380D01*
X65721726Y-98877380D01*
X65816964Y-98829761D01*
X65864583Y-98782142D01*
X66293154Y-98829761D02*
X66388392Y-98877380D01*
X66578869Y-98877380D01*
X66674107Y-98829761D01*
X66721726Y-98734523D01*
X66721726Y-98686904D01*
X66674107Y-98591666D01*
X66578869Y-98544047D01*
X66436011Y-98544047D01*
X66340773Y-98496428D01*
X66293154Y-98401190D01*
X66293154Y-98353571D01*
X66340773Y-98258333D01*
X66436011Y-98210714D01*
X66578869Y-98210714D01*
X66674107Y-98258333D01*
X67102678Y-98829761D02*
X67197916Y-98877380D01*
X67388392Y-98877380D01*
X67483630Y-98829761D01*
X67531250Y-98734523D01*
X67531250Y-98686904D01*
X67483630Y-98591666D01*
X67388392Y-98544047D01*
X67245535Y-98544047D01*
X67150297Y-98496428D01*
X67102678Y-98401190D01*
X67102678Y-98353571D01*
X67150297Y-98258333D01*
X67245535Y-98210714D01*
X67388392Y-98210714D01*
X67483630Y-98258333D01*
X68340773Y-98829761D02*
X68245535Y-98877380D01*
X68055059Y-98877380D01*
X67959821Y-98829761D01*
X67912202Y-98734523D01*
X67912202Y-98353571D01*
X67959821Y-98258333D01*
X68055059Y-98210714D01*
X68245535Y-98210714D01*
X68340773Y-98258333D01*
X68388392Y-98353571D01*
X68388392Y-98448809D01*
X67912202Y-98544047D01*
M02*
