G04 #@! TF.GenerationSoftware,KiCad,Pcbnew,5.1.5-52549c5~86~ubuntu18.04.1*
G04 #@! TF.CreationDate,2020-04-24T00:39:49+02:00*
G04 #@! TF.ProjectId,plate,706c6174-652e-46b6-9963-61645f706362,rev?*
G04 #@! TF.SameCoordinates,Original*
G04 #@! TF.FileFunction,Legend,Bot*
G04 #@! TF.FilePolarity,Positive*
%FSLAX46Y46*%
G04 Gerber Fmt 4.6, Leading zero omitted, Abs format (unit mm)*
G04 Created by KiCad (PCBNEW 5.1.5-52549c5~86~ubuntu18.04.1) date 2020-04-24 00:39:49*
%MOMM*%
%LPD*%
G04 APERTURE LIST*
%ADD10C,0.150000*%
G04 APERTURE END LIST*
D10*
X155431547Y-147089880D02*
X155431547Y-147804166D01*
X155479166Y-147947023D01*
X155574404Y-148042261D01*
X155717261Y-148089880D01*
X155812500Y-148089880D01*
X154479166Y-148089880D02*
X154955357Y-148089880D01*
X154955357Y-147089880D01*
X153574404Y-147994642D02*
X153622023Y-148042261D01*
X153764880Y-148089880D01*
X153860119Y-148089880D01*
X154002976Y-148042261D01*
X154098214Y-147947023D01*
X154145833Y-147851785D01*
X154193452Y-147661309D01*
X154193452Y-147518452D01*
X154145833Y-147327976D01*
X154098214Y-147232738D01*
X154002976Y-147137500D01*
X153860119Y-147089880D01*
X153764880Y-147089880D01*
X153622023Y-147137500D01*
X153574404Y-147185119D01*
X152860119Y-147089880D02*
X152860119Y-147804166D01*
X152907738Y-147947023D01*
X153002976Y-148042261D01*
X153145833Y-148089880D01*
X153241071Y-148089880D01*
X151907738Y-148089880D02*
X152383928Y-148089880D01*
X152383928Y-147089880D01*
X151002976Y-147994642D02*
X151050595Y-148042261D01*
X151193452Y-148089880D01*
X151288690Y-148089880D01*
X151431547Y-148042261D01*
X151526785Y-147947023D01*
X151574404Y-147851785D01*
X151622023Y-147661309D01*
X151622023Y-147518452D01*
X151574404Y-147327976D01*
X151526785Y-147232738D01*
X151431547Y-147137500D01*
X151288690Y-147089880D01*
X151193452Y-147089880D01*
X151050595Y-147137500D01*
X151002976Y-147185119D01*
X150288690Y-147089880D02*
X150288690Y-147804166D01*
X150336309Y-147947023D01*
X150431547Y-148042261D01*
X150574404Y-148089880D01*
X150669642Y-148089880D01*
X149336309Y-148089880D02*
X149812500Y-148089880D01*
X149812500Y-147089880D01*
X148431547Y-147994642D02*
X148479166Y-148042261D01*
X148622023Y-148089880D01*
X148717261Y-148089880D01*
X148860119Y-148042261D01*
X148955357Y-147947023D01*
X149002976Y-147851785D01*
X149050595Y-147661309D01*
X149050595Y-147518452D01*
X149002976Y-147327976D01*
X148955357Y-147232738D01*
X148860119Y-147137500D01*
X148717261Y-147089880D01*
X148622023Y-147089880D01*
X148479166Y-147137500D01*
X148431547Y-147185119D01*
X147717261Y-147089880D02*
X147717261Y-147804166D01*
X147764880Y-147947023D01*
X147860119Y-148042261D01*
X148002976Y-148089880D01*
X148098214Y-148089880D01*
X146764880Y-148089880D02*
X147241071Y-148089880D01*
X147241071Y-147089880D01*
X145860119Y-147994642D02*
X145907738Y-148042261D01*
X146050595Y-148089880D01*
X146145833Y-148089880D01*
X146288690Y-148042261D01*
X146383928Y-147947023D01*
X146431547Y-147851785D01*
X146479166Y-147661309D01*
X146479166Y-147518452D01*
X146431547Y-147327976D01*
X146383928Y-147232738D01*
X146288690Y-147137500D01*
X146145833Y-147089880D01*
X146050595Y-147089880D01*
X145907738Y-147137500D01*
X145860119Y-147185119D01*
M02*
