M48
; DRILL file {KiCad 5.1.5-52549c5~86~ubuntu18.04.1} date Fri 17 Apr 2020 17:36:01 CEST
; FORMAT={-:-/ absolute / inch / decimal}
; #@! TF.CreationDate,2020-04-17T17:36:01+02:00
; #@! TF.GenerationSoftware,Kicad,Pcbnew,5.1.5-52549c5~86~ubuntu18.04.1
; #@! TF.FileFunction,Plated,1,2,PTH
FMAT,2
INCH
T1C0.0157
T2C0.0394
T3C0.0430
T4C0.0579
T5C0.0866
%
G90
G05
T1
X5.76Y-2.035
X7.6875Y-2.375
X7.8506Y-2.5068
X8.2188Y-2.375
T2
X5.6861Y-4.1389
X5.7861Y-4.1389
X5.8861Y-4.1389
X5.9861Y-4.1389
T3
X5.5361Y-1.4704
X5.5361Y-1.5704
X5.5361Y-1.6704
X5.5361Y-1.7704
X5.5361Y-1.8704
X5.5361Y-1.9704
X5.5361Y-2.0704
X5.5361Y-2.1704
X5.5361Y-2.2704
X5.5361Y-2.3704
X5.5361Y-2.4704
X5.5361Y-2.5704
X6.1361Y-1.4704
X6.1361Y-1.5704
X6.1361Y-1.6704
X6.1361Y-1.7704
X6.1361Y-1.8704
X6.1361Y-1.9704
X6.1361Y-2.0704
X6.1361Y-2.1704
X6.1361Y-2.2704
X6.1361Y-2.3704
X6.1361Y-2.4704
X6.1361Y-2.5704
T4
X4.606Y-2.6797
X4.8737Y-2.7088
X6.8878Y-4.581
X7.0616Y-4.3753
X3.7114Y-2.7646
X3.9791Y-2.7937
X8.048Y-3.5678
X8.2218Y-3.3622
X7.5792Y-5.1274
X7.6939Y-4.8837
X7.5055Y-4.145
X7.6793Y-3.9393
X8.4685Y-2.7607
X8.6423Y-2.5551
X6.4032Y-6.2638
X6.6715Y-6.2412
X9.3512Y-2.8237
X9.5249Y-2.6181
X7.1531Y-3.4828
X7.3269Y-3.2771
X2.056Y-2.6829
X2.3237Y-2.712
X10.3653Y-3.134
X10.5391Y-2.9283
X1.7039Y-3.3451
X1.9716Y-3.3742
X7.3437Y-2.2434
X7.5175Y-2.0378
X2.9389Y-2.62
X3.2066Y-2.6491
X4.0635Y-2.1024
X4.3312Y-2.1315
X1.0417Y-2.993
X1.3094Y-3.0221
X8.9992Y-2.1615
X9.173Y-1.9559
X2.5868Y-3.2822
X2.8545Y-3.3113
X9.7031Y-3.4859
X9.8769Y-3.2803
X8.8204Y-3.4229
X8.9942Y-3.2173
X5.2236Y-3.1157
X5.4913Y-3.1447
X6.8012Y-2.8206
X6.9749Y-2.6149
X3.9018Y-4.0041
X4.1695Y-4.0332
X6.1833Y-3.2565
X6.3571Y-3.0509
X10.0134Y-2.4718
X10.1871Y-2.2661
X4.2539Y-3.3419
X4.5216Y-3.371
X9.6614Y-1.8096
X9.8352Y-1.6039
X6.5358Y-3.9187
X6.7096Y-3.7131
X3.3593Y-3.4269
X3.627Y-3.4559
X7.6956Y-2.9056
X7.8694Y-2.7
X4.8715Y-3.7779
X5.1392Y-3.807
X3.8732Y-4.9228
X4.1242Y-5.0201
X4.982Y-6.3517
X5.1919Y-6.183
X3.291Y-1.9578
X3.5587Y-1.9869
X1.7459Y-1.6686
X2.0136Y-1.6977
X4.5968Y-5.5427
X4.7558Y-5.3254
X8.1159Y-2.0986
X8.2897Y-1.8929
X6.8207Y-5.3835
X7.0857Y-5.4311
X2.4081Y-2.0207
X2.6758Y-2.0498
X10.0555Y-4.1481
X10.2293Y-3.9425
X1.3518Y-4.0073
X1.6195Y-4.0364
X1.3938Y-2.3308
X1.6615Y-2.3599
X4.5194Y-4.4401
X4.7871Y-4.4692
T5
X10.897Y-3.8143
X5.836Y-5.6998
X0.775Y-3.8143
X2.9809Y-4.4718
X8.8659Y-1.7368
X8.6911Y-4.4718
X6.601Y-2.1065
X2.8061Y-1.7368
X5.0711Y-2.1065
T0
M30
