G04 #@! TF.GenerationSoftware,KiCad,Pcbnew,5.1.5-52549c5~86~ubuntu18.04.1*
G04 #@! TF.CreationDate,2020-04-17T17:36:02+02:00*
G04 #@! TF.ProjectId,first-pcb,66697273-742d-4706-9362-2e6b69636164,0.1.1*
G04 #@! TF.SameCoordinates,Original*
G04 #@! TF.FileFunction,OtherDrawing,Comment*
%FSLAX46Y46*%
G04 Gerber Fmt 4.6, Leading zero omitted, Abs format (unit mm)*
G04 Created by KiCad (PCBNEW 5.1.5-52549c5~86~ubuntu18.04.1) date 2020-04-17 17:36:02*
%MOMM*%
%LPD*%
G04 APERTURE LIST*
%ADD10C,0.150000*%
%ADD11C,0.200000*%
G04 APERTURE END LIST*
D10*
X185006834Y-75930180D02*
X186772729Y-74991237D01*
X186772729Y-74991237D02*
X185833786Y-73225342D01*
X169604756Y-68263630D02*
X167838861Y-69202573D01*
X167838861Y-69202573D02*
X168777804Y-70968468D01*
X164424003Y-68158546D02*
X181244154Y-59215113D01*
X181244154Y-59215113D02*
X190187587Y-76035264D01*
X190187587Y-76035264D02*
X173367436Y-84978697D01*
X173367436Y-84978697D02*
X164424003Y-68158546D01*
X137757833Y-167881426D02*
X139670442Y-167296682D01*
X139670442Y-167296682D02*
X139085699Y-165384073D01*
X124101581Y-157416876D02*
X122188972Y-158001620D01*
X122188972Y-158001620D02*
X122773715Y-159914229D01*
X114481662Y-157717609D02*
X141808071Y-149363087D01*
X141808071Y-149363087D02*
X147377752Y-167580693D01*
X120051343Y-175935215D02*
X147377752Y-167580693D01*
X120051343Y-175935215D02*
X114481662Y-157717609D01*
X168276157Y-170799050D02*
X170188766Y-171383793D01*
X170188766Y-171383793D02*
X170773510Y-169471184D01*
X162806313Y-154487066D02*
X160893704Y-153902323D01*
X160893704Y-153902323D02*
X160308960Y-155814932D01*
X154662871Y-149356994D02*
X181989280Y-157711516D01*
X181989280Y-157711516D02*
X176419599Y-175929122D01*
X149093190Y-167574600D02*
X176419599Y-175929122D01*
X149093190Y-167574600D02*
X154662871Y-149356994D01*
X129284890Y-144206522D02*
X130980987Y-143146684D01*
X130980987Y-143146684D02*
X129921148Y-141450588D01*
X113385540Y-137633042D02*
X111689443Y-138692880D01*
X111689443Y-138692880D02*
X112749282Y-140388976D01*
X102151832Y-141675216D02*
X130423636Y-124009032D01*
X130423636Y-124009032D02*
X140518598Y-140164348D01*
X112246794Y-157830532D02*
X140518598Y-140164348D01*
X112246794Y-157830532D02*
X102151832Y-141675216D01*
X175662042Y-149498993D02*
X177358138Y-150558832D01*
X177358138Y-150558832D02*
X178417976Y-148862735D01*
X174600430Y-132327127D02*
X172904334Y-131267288D01*
X172904334Y-131267288D02*
X171844496Y-132963385D01*
X166042815Y-124002310D02*
X194314619Y-141668494D01*
X194314619Y-141668494D02*
X184219657Y-157823810D01*
X155947853Y-140157626D02*
X184219657Y-157823810D01*
X155947853Y-140157626D02*
X166042815Y-124002310D01*
X106513818Y-65961200D02*
X108279713Y-66900143D01*
X108279713Y-66900143D02*
X109218656Y-65134248D01*
X104256944Y-48905218D02*
X102491049Y-47966275D01*
X102491049Y-47966275D02*
X101552106Y-49732170D01*
X101447022Y-44551417D02*
X118267173Y-53494850D01*
X118267173Y-53494850D02*
X109323740Y-70315001D01*
X109323740Y-70315001D02*
X92503589Y-61371568D01*
X92503589Y-61371568D02*
X101447022Y-44551417D01*
X47646534Y-54941843D02*
X49412429Y-55880786D01*
X49412429Y-55880786D02*
X50351372Y-54114891D01*
X45389660Y-37885861D02*
X43623765Y-36946918D01*
X43623765Y-36946918D02*
X42684822Y-38712813D01*
X42579738Y-33532060D02*
X59399889Y-42475493D01*
X59399889Y-42475493D02*
X50456456Y-59295644D01*
X50456456Y-59295644D02*
X33636305Y-50352211D01*
X33636305Y-50352211D02*
X42579738Y-33532060D01*
X86891391Y-62288082D02*
X88657286Y-63227025D01*
X88657286Y-63227025D02*
X89596229Y-61461130D01*
X84634517Y-45232100D02*
X82868622Y-44293157D01*
X82868622Y-44293157D02*
X81929679Y-46059052D01*
X81824595Y-40878299D02*
X98644746Y-49821732D01*
X98644746Y-49821732D02*
X89701313Y-66641883D01*
X89701313Y-66641883D02*
X72881162Y-57698450D01*
X72881162Y-57698450D02*
X81824595Y-40878299D01*
X120293203Y-80623486D02*
X122059098Y-81562429D01*
X122059098Y-81562429D02*
X122998041Y-79796534D01*
X118036329Y-63567504D02*
X116270434Y-62628561D01*
X116270434Y-62628561D02*
X115331491Y-64394456D01*
X115226407Y-59213703D02*
X132046558Y-68157136D01*
X132046558Y-68157136D02*
X123103125Y-84977287D01*
X123103125Y-84977287D02*
X106282974Y-76033854D01*
X106282974Y-76033854D02*
X115226407Y-59213703D01*
X135980520Y-91697471D02*
X137746415Y-92636414D01*
X137746415Y-92636414D02*
X138685358Y-90870519D01*
X133723646Y-74641489D02*
X131957751Y-73702546D01*
X131957751Y-73702546D02*
X131018808Y-75468441D01*
X130913724Y-70287688D02*
X147733875Y-79231121D01*
X147733875Y-79231121D02*
X138790442Y-96051272D01*
X138790442Y-96051272D02*
X121970291Y-87107839D01*
X121970291Y-87107839D02*
X130913724Y-70287688D01*
X38703103Y-71761995D02*
X40468998Y-72700938D01*
X40468998Y-72700938D02*
X41407941Y-70935043D01*
X36446229Y-54706013D02*
X34680334Y-53767070D01*
X34680334Y-53767070D02*
X33741391Y-55532965D01*
X33636307Y-50352212D02*
X50456458Y-59295645D01*
X50456458Y-59295645D02*
X41513025Y-76115796D01*
X41513025Y-76115796D02*
X24692874Y-67172363D01*
X24692874Y-67172363D02*
X33636307Y-50352212D01*
X55523251Y-80705429D02*
X57289146Y-81644372D01*
X57289146Y-81644372D02*
X58228089Y-79878477D01*
X53266377Y-63649447D02*
X51500482Y-62710504D01*
X51500482Y-62710504D02*
X50561539Y-64476399D01*
X50456455Y-59295646D02*
X67276606Y-68239079D01*
X67276606Y-68239079D02*
X58333173Y-85059230D01*
X58333173Y-85059230D02*
X41513022Y-76115797D01*
X41513022Y-76115797D02*
X50456455Y-59295646D01*
X77947958Y-79108232D02*
X79713853Y-80047175D01*
X79713853Y-80047175D02*
X80652796Y-78281280D01*
X75691084Y-62052250D02*
X73925189Y-61113307D01*
X73925189Y-61113307D02*
X72986246Y-62879202D01*
X72881162Y-57698449D02*
X89701313Y-66641882D01*
X89701313Y-66641882D02*
X80757880Y-83462033D01*
X80757880Y-83462033D02*
X63937729Y-74518600D01*
X63937729Y-74518600D02*
X72881162Y-57698449D01*
X97570383Y-82781353D02*
X99336278Y-83720296D01*
X99336278Y-83720296D02*
X100275221Y-81954401D01*
X95313509Y-65725371D02*
X93547614Y-64786428D01*
X93547614Y-64786428D02*
X92608671Y-66552323D01*
X92503587Y-61371570D02*
X109323738Y-70315003D01*
X109323738Y-70315003D02*
X100380305Y-87135154D01*
X100380305Y-87135154D02*
X83560154Y-78191721D01*
X83560154Y-78191721D02*
X92503587Y-61371570D01*
X111349769Y-97443634D02*
X113115664Y-98382577D01*
X113115664Y-98382577D02*
X114054607Y-96616682D01*
X109092895Y-80387652D02*
X107327000Y-79448709D01*
X107327000Y-79448709D02*
X106388057Y-81214604D01*
X106282973Y-76033851D02*
X123103124Y-84977284D01*
X123103124Y-84977284D02*
X114159691Y-101797435D01*
X114159691Y-101797435D02*
X97339540Y-92854002D01*
X97339540Y-92854002D02*
X106282973Y-76033851D01*
X127037087Y-108517621D02*
X128802982Y-109456564D01*
X128802982Y-109456564D02*
X129741925Y-107690669D01*
X124780213Y-91461639D02*
X123014318Y-90522696D01*
X123014318Y-90522696D02*
X122075375Y-92288591D01*
X121970291Y-87107838D02*
X138790442Y-96051271D01*
X138790442Y-96051271D02*
X129847009Y-112871422D01*
X129847009Y-112871422D02*
X113026858Y-103927989D01*
X113026858Y-103927989D02*
X121970291Y-87107838D01*
X69004522Y-95928383D02*
X70770417Y-96867326D01*
X70770417Y-96867326D02*
X71709360Y-95101431D01*
X66747648Y-78872401D02*
X64981753Y-77933458D01*
X64981753Y-77933458D02*
X64042810Y-79699353D01*
X63937726Y-74518600D02*
X80757877Y-83462033D01*
X80757877Y-83462033D02*
X71814444Y-100282184D01*
X71814444Y-100282184D02*
X54994293Y-91338751D01*
X54994293Y-91338751D02*
X63937726Y-74518600D01*
X88626951Y-99601503D02*
X90392846Y-100540446D01*
X90392846Y-100540446D02*
X91331789Y-98774551D01*
X86370077Y-82545521D02*
X84604182Y-81606578D01*
X84604182Y-81606578D02*
X83665239Y-83372473D01*
X83560155Y-78191720D02*
X100380306Y-87135153D01*
X100380306Y-87135153D02*
X91436873Y-103955304D01*
X91436873Y-103955304D02*
X74616722Y-95011871D01*
X74616722Y-95011871D02*
X83560155Y-78191720D01*
X102406337Y-114263790D02*
X104172232Y-115202733D01*
X104172232Y-115202733D02*
X105111175Y-113436838D01*
X100149463Y-97207808D02*
X98383568Y-96268865D01*
X98383568Y-96268865D02*
X97444625Y-98034760D01*
X97339541Y-92854007D02*
X114159692Y-101797440D01*
X114159692Y-101797440D02*
X105216259Y-118617591D01*
X105216259Y-118617591D02*
X88396108Y-109674158D01*
X88396108Y-109674158D02*
X97339541Y-92854007D01*
X118093651Y-125337774D02*
X119859546Y-126276717D01*
X119859546Y-126276717D02*
X120798489Y-124510822D01*
X115836777Y-108281792D02*
X114070882Y-107342849D01*
X114070882Y-107342849D02*
X113131939Y-109108744D01*
X113026855Y-103927991D02*
X129847006Y-112871424D01*
X129847006Y-112871424D02*
X120903573Y-129691575D01*
X120903573Y-129691575D02*
X104083422Y-120748142D01*
X104083422Y-120748142D02*
X113026855Y-103927991D01*
X37636387Y-114345731D02*
X39402282Y-115284674D01*
X39402282Y-115284674D02*
X40341225Y-113518779D01*
X35379513Y-97289749D02*
X33613618Y-96350806D01*
X33613618Y-96350806D02*
X32674675Y-98116701D01*
X32569591Y-92935948D02*
X49389742Y-101879381D01*
X49389742Y-101879381D02*
X40446309Y-118699532D01*
X40446309Y-118699532D02*
X23626158Y-109756099D01*
X23626158Y-109756099D02*
X32569591Y-92935948D01*
X98315619Y-138024091D02*
X99778326Y-139388087D01*
X99778326Y-139388087D02*
X101142323Y-137925380D01*
X100550059Y-120965155D02*
X99087352Y-119601159D01*
X99087352Y-119601159D02*
X97723355Y-121063866D01*
X98962729Y-116032445D02*
X112895017Y-129024513D01*
X112895017Y-129024513D02*
X99902949Y-142956801D01*
X99902949Y-142956801D02*
X85970661Y-129964733D01*
X85970661Y-129964733D02*
X98962729Y-116032445D01*
X198786834Y-61270181D02*
X200552729Y-60331238D01*
X200552729Y-60331238D02*
X199613786Y-58565343D01*
X183384756Y-53603631D02*
X181618861Y-54542574D01*
X181618861Y-54542574D02*
X182557804Y-56308469D01*
X178204003Y-53498547D02*
X195024154Y-44555114D01*
X195024154Y-44555114D02*
X203967587Y-61375265D01*
X203967587Y-61375265D02*
X187147436Y-70318698D01*
X187147436Y-70318698D02*
X178204003Y-53498547D01*
X218402100Y-57591217D02*
X220167995Y-56652274D01*
X220167995Y-56652274D02*
X219229052Y-54886379D01*
X203000022Y-49924667D02*
X201234127Y-50863610D01*
X201234127Y-50863610D02*
X202173070Y-52629505D01*
X197819269Y-49819583D02*
X214639420Y-40876150D01*
X214639420Y-40876150D02*
X223582853Y-57696301D01*
X223582853Y-57696301D02*
X206762702Y-66639734D01*
X206762702Y-66639734D02*
X197819269Y-49819583D01*
X240836831Y-59190181D02*
X242602726Y-58251238D01*
X242602726Y-58251238D02*
X241663783Y-56485343D01*
X225434753Y-51523631D02*
X223668858Y-52462574D01*
X223668858Y-52462574D02*
X224607801Y-54228469D01*
X220254000Y-51418547D02*
X237074151Y-42475114D01*
X237074151Y-42475114D02*
X246017584Y-59295265D01*
X246017584Y-59295265D02*
X229197433Y-68238698D01*
X229197433Y-68238698D02*
X220254000Y-51418547D01*
X257656832Y-50250177D02*
X259422727Y-49311234D01*
X259422727Y-49311234D02*
X258483784Y-47545339D01*
X242254754Y-42583627D02*
X240488859Y-43522570D01*
X240488859Y-43522570D02*
X241427802Y-45288465D01*
X237074001Y-42478543D02*
X253894152Y-33535110D01*
X253894152Y-33535110D02*
X262837585Y-50355261D01*
X262837585Y-50355261D02*
X246017434Y-59298694D01*
X246017434Y-59298694D02*
X237074001Y-42478543D01*
X178266026Y-103822894D02*
X180031921Y-102883951D01*
X180031921Y-102883951D02*
X179092978Y-101118056D01*
X162863948Y-96156344D02*
X161098053Y-97095287D01*
X161098053Y-97095287D02*
X162036996Y-98861182D01*
X157683195Y-96051260D02*
X174503346Y-87107827D01*
X174503346Y-87107827D02*
X183446779Y-103927978D01*
X183446779Y-103927978D02*
X166626628Y-112871411D01*
X166626628Y-112871411D02*
X157683195Y-96051260D01*
X193946832Y-92750181D02*
X195712727Y-91811238D01*
X195712727Y-91811238D02*
X194773784Y-90045343D01*
X178544754Y-85083631D02*
X176778859Y-86022574D01*
X176778859Y-86022574D02*
X177717802Y-87788469D01*
X173364001Y-84978547D02*
X190184152Y-76035114D01*
X190184152Y-76035114D02*
X199127585Y-92855265D01*
X199127585Y-92855265D02*
X182307434Y-101798698D01*
X182307434Y-101798698D02*
X173364001Y-84978547D01*
X207726834Y-78090180D02*
X209492729Y-77151237D01*
X209492729Y-77151237D02*
X208553786Y-75385342D01*
X192324756Y-70423630D02*
X190558861Y-71362573D01*
X190558861Y-71362573D02*
X191497804Y-73128468D01*
X187144003Y-70318546D02*
X203964154Y-61375113D01*
X203964154Y-61375113D02*
X212907587Y-78195264D01*
X212907587Y-78195264D02*
X196087436Y-87138697D01*
X196087436Y-87138697D02*
X187144003Y-70318546D01*
X227356832Y-74410180D02*
X229122727Y-73471237D01*
X229122727Y-73471237D02*
X228183784Y-71705342D01*
X211954754Y-66743630D02*
X210188859Y-67682573D01*
X210188859Y-67682573D02*
X211127802Y-69448468D01*
X206774001Y-66638546D02*
X223594152Y-57695113D01*
X223594152Y-57695113D02*
X232537585Y-74515264D01*
X232537585Y-74515264D02*
X215717434Y-83458697D01*
X215717434Y-83458697D02*
X206774001Y-66638546D01*
X249776833Y-76010181D02*
X251542728Y-75071238D01*
X251542728Y-75071238D02*
X250603785Y-73305343D01*
X234374755Y-68343631D02*
X232608860Y-69282574D01*
X232608860Y-69282574D02*
X233547803Y-71048469D01*
X229194002Y-68238547D02*
X246014153Y-59295114D01*
X246014153Y-59295114D02*
X254957586Y-76115265D01*
X254957586Y-76115265D02*
X238137435Y-85058698D01*
X238137435Y-85058698D02*
X229194002Y-68238547D01*
X266596831Y-67070181D02*
X268362726Y-66131238D01*
X268362726Y-66131238D02*
X267423783Y-64365343D01*
X251194753Y-59403631D02*
X249428858Y-60342574D01*
X249428858Y-60342574D02*
X250367801Y-62108469D01*
X246014000Y-59298547D02*
X262834151Y-50355114D01*
X262834151Y-50355114D02*
X271777584Y-67175265D01*
X271777584Y-67175265D02*
X254957433Y-76118698D01*
X254957433Y-76118698D02*
X246014000Y-59298547D01*
X187208336Y-120643642D02*
X188974231Y-119704699D01*
X188974231Y-119704699D02*
X188035288Y-117938804D01*
X171806258Y-112977092D02*
X170040363Y-113916035D01*
X170040363Y-113916035D02*
X170979306Y-115681930D01*
X166625505Y-112872008D02*
X183445656Y-103928575D01*
X183445656Y-103928575D02*
X192389089Y-120748726D01*
X192389089Y-120748726D02*
X175568938Y-129692159D01*
X175568938Y-129692159D02*
X166625505Y-112872008D01*
X202896833Y-109570181D02*
X204662728Y-108631238D01*
X204662728Y-108631238D02*
X203723785Y-106865343D01*
X187494755Y-101903631D02*
X185728860Y-102842574D01*
X185728860Y-102842574D02*
X186667803Y-104608469D01*
X182314002Y-101798547D02*
X199134153Y-92855114D01*
X199134153Y-92855114D02*
X208077586Y-109675265D01*
X208077586Y-109675265D02*
X191257435Y-118618698D01*
X191257435Y-118618698D02*
X182314002Y-101798547D01*
X258716831Y-92830182D02*
X260482726Y-91891239D01*
X260482726Y-91891239D02*
X259543783Y-90125344D01*
X243314753Y-85163632D02*
X241548858Y-86102575D01*
X241548858Y-86102575D02*
X242487801Y-87868470D01*
X238134000Y-85058548D02*
X254954151Y-76115115D01*
X254954151Y-76115115D02*
X263897584Y-92935266D01*
X263897584Y-92935266D02*
X247077433Y-101878699D01*
X247077433Y-101878699D02*
X238134000Y-85058548D01*
X275536832Y-83890181D02*
X277302727Y-82951238D01*
X277302727Y-82951238D02*
X276363784Y-81185343D01*
X260134754Y-76223631D02*
X258368859Y-77162574D01*
X258368859Y-77162574D02*
X259307802Y-78928469D01*
X254954001Y-76118547D02*
X271774152Y-67175114D01*
X271774152Y-67175114D02*
X280717585Y-83995265D01*
X280717585Y-83995265D02*
X263897434Y-92938698D01*
X263897434Y-92938698D02*
X254954001Y-76118547D01*
X29759667Y-88582145D02*
X31525562Y-89521088D01*
X31525562Y-89521088D02*
X32464505Y-87755193D01*
X27502793Y-71526163D02*
X25736898Y-70587220D01*
X25736898Y-70587220D02*
X24797955Y-72353115D01*
X24692871Y-67172362D02*
X41513022Y-76115795D01*
X41513022Y-76115795D02*
X32569589Y-92935946D01*
X32569589Y-92935946D02*
X15749438Y-83992513D01*
X15749438Y-83992513D02*
X24692871Y-67172362D01*
X216676830Y-94910179D02*
X218442725Y-93971236D01*
X218442725Y-93971236D02*
X217503782Y-92205341D01*
X201274752Y-87243629D02*
X199508857Y-88182572D01*
X199508857Y-88182572D02*
X200447800Y-89948467D01*
X196093999Y-87138545D02*
X212914150Y-78195112D01*
X212914150Y-78195112D02*
X221857583Y-95015263D01*
X221857583Y-95015263D02*
X205037432Y-103958696D01*
X205037432Y-103958696D02*
X196093999Y-87138545D01*
X46579820Y-97525578D02*
X48345715Y-98464521D01*
X48345715Y-98464521D02*
X49284658Y-96698626D01*
X44322946Y-80469596D02*
X42557051Y-79530653D01*
X42557051Y-79530653D02*
X41618108Y-81296548D01*
X41513024Y-76115795D02*
X58333175Y-85059228D01*
X58333175Y-85059228D02*
X49389742Y-101879379D01*
X49389742Y-101879379D02*
X32569591Y-92935946D01*
X32569591Y-92935946D02*
X41513024Y-76115795D01*
X205461556Y-131204093D02*
X206924263Y-129840096D01*
X206924263Y-129840096D02*
X205560267Y-128377389D01*
X188600042Y-127785125D02*
X187137335Y-129149122D01*
X187137335Y-129149122D02*
X188501331Y-130611829D01*
X183568621Y-129024499D02*
X197500909Y-116032431D01*
X197500909Y-116032431D02*
X210492977Y-129964719D01*
X210492977Y-129964719D02*
X196560689Y-142956787D01*
X196560689Y-142956787D02*
X183568621Y-129024499D01*
X169312593Y-87002744D02*
X171078488Y-86063801D01*
X171078488Y-86063801D02*
X170139545Y-84297906D01*
X153910515Y-79336194D02*
X152144620Y-80275137D01*
X152144620Y-80275137D02*
X153083563Y-82041032D01*
X148729762Y-79231110D02*
X165549913Y-70287677D01*
X165549913Y-70287677D02*
X174493346Y-87107828D01*
X174493346Y-87107828D02*
X157673195Y-96051261D01*
X157673195Y-96051261D02*
X148729762Y-79231110D01*
X267666832Y-109650181D02*
X269432727Y-108711238D01*
X269432727Y-108711238D02*
X268493784Y-106945343D01*
X252264754Y-101983631D02*
X250498859Y-102922574D01*
X250498859Y-102922574D02*
X251437802Y-104688469D01*
X247084001Y-101878547D02*
X263904152Y-92935114D01*
X263904152Y-92935114D02*
X272847585Y-109755265D01*
X272847585Y-109755265D02*
X256027434Y-118698698D01*
X256027434Y-118698698D02*
X247084001Y-101878547D01*
X64466689Y-63885277D02*
X66232584Y-64824220D01*
X66232584Y-64824220D02*
X67171527Y-63058325D01*
X62209815Y-46829295D02*
X60443920Y-45890352D01*
X60443920Y-45890352D02*
X59504977Y-47656247D01*
X59399893Y-42475494D02*
X76220044Y-51418927D01*
X76220044Y-51418927D02*
X67276611Y-68239078D01*
X67276611Y-68239078D02*
X50456460Y-59295645D01*
X50456460Y-59295645D02*
X59399893Y-42475494D01*
X236296833Y-91230180D02*
X238062728Y-90291237D01*
X238062728Y-90291237D02*
X237123785Y-88525342D01*
X220894755Y-83563630D02*
X219128860Y-84502573D01*
X219128860Y-84502573D02*
X220067803Y-86268468D01*
X215714002Y-83458546D02*
X232534153Y-74515113D01*
X232534153Y-74515113D02*
X241477586Y-91335264D01*
X241477586Y-91335264D02*
X224657435Y-100278697D01*
X224657435Y-100278697D02*
X215714002Y-83458546D01*
D11*
X144679793Y-32012905D02*
X144679793Y-37092905D01*
X152045793Y-32012905D02*
X144679793Y-32012905D01*
X152045793Y-37092905D02*
X152045793Y-32012905D01*
X144679793Y-37092905D02*
X152045793Y-37092905D01*
M02*
