G04 #@! TF.GenerationSoftware,KiCad,Pcbnew,5.1.5-52549c5~86~ubuntu18.04.1*
G04 #@! TF.CreationDate,2020-04-17T17:36:02+02:00*
G04 #@! TF.ProjectId,first-pcb,66697273-742d-4706-9362-2e6b69636164,0.1.1*
G04 #@! TF.SameCoordinates,Original*
G04 #@! TF.FileFunction,Legend,Top*
G04 #@! TF.FilePolarity,Positive*
%FSLAX46Y46*%
G04 Gerber Fmt 4.6, Leading zero omitted, Abs format (unit mm)*
G04 Created by KiCad (PCBNEW 5.1.5-52549c5~86~ubuntu18.04.1) date 2020-04-17 17:36:02*
%MOMM*%
%LPD*%
G04 APERTURE LIST*
%ADD10C,0.150000*%
%ADD11C,0.381000*%
%ADD12C,0.120000*%
%ADD13C,0.100000*%
%ADD14C,4.089800*%
%ADD15C,1.852000*%
%ADD16C,3.602000*%
%ADD17C,1.854600*%
%ADD18R,1.854600X1.854600*%
%ADD19O,1.802000X1.802000*%
%ADD20R,1.802000X1.802000*%
G04 APERTURE END LIST*
D10*
X143812202Y-169314880D02*
X143812202Y-170029166D01*
X143764583Y-170172023D01*
X143669345Y-170267261D01*
X143526488Y-170314880D01*
X143431250Y-170314880D01*
X144764583Y-170314880D02*
X144288392Y-170314880D01*
X144288392Y-169314880D01*
X145669345Y-170219642D02*
X145621726Y-170267261D01*
X145478869Y-170314880D01*
X145383630Y-170314880D01*
X145240773Y-170267261D01*
X145145535Y-170172023D01*
X145097916Y-170076785D01*
X145050297Y-169886309D01*
X145050297Y-169743452D01*
X145097916Y-169552976D01*
X145145535Y-169457738D01*
X145240773Y-169362500D01*
X145383630Y-169314880D01*
X145478869Y-169314880D01*
X145621726Y-169362500D01*
X145669345Y-169410119D01*
X146383630Y-169314880D02*
X146383630Y-170029166D01*
X146336011Y-170172023D01*
X146240773Y-170267261D01*
X146097916Y-170314880D01*
X146002678Y-170314880D01*
X147336011Y-170314880D02*
X146859821Y-170314880D01*
X146859821Y-169314880D01*
X148240773Y-170219642D02*
X148193154Y-170267261D01*
X148050297Y-170314880D01*
X147955059Y-170314880D01*
X147812202Y-170267261D01*
X147716964Y-170172023D01*
X147669345Y-170076785D01*
X147621726Y-169886309D01*
X147621726Y-169743452D01*
X147669345Y-169552976D01*
X147716964Y-169457738D01*
X147812202Y-169362500D01*
X147955059Y-169314880D01*
X148050297Y-169314880D01*
X148193154Y-169362500D01*
X148240773Y-169410119D01*
X148955059Y-169314880D02*
X148955059Y-170029166D01*
X148907440Y-170172023D01*
X148812202Y-170267261D01*
X148669345Y-170314880D01*
X148574107Y-170314880D01*
X149907440Y-170314880D02*
X149431250Y-170314880D01*
X149431250Y-169314880D01*
X150812202Y-170219642D02*
X150764583Y-170267261D01*
X150621726Y-170314880D01*
X150526488Y-170314880D01*
X150383630Y-170267261D01*
X150288392Y-170172023D01*
X150240773Y-170076785D01*
X150193154Y-169886309D01*
X150193154Y-169743452D01*
X150240773Y-169552976D01*
X150288392Y-169457738D01*
X150383630Y-169362500D01*
X150526488Y-169314880D01*
X150621726Y-169314880D01*
X150764583Y-169362500D01*
X150812202Y-169410119D01*
X151526488Y-169314880D02*
X151526488Y-170029166D01*
X151478869Y-170172023D01*
X151383630Y-170267261D01*
X151240773Y-170314880D01*
X151145535Y-170314880D01*
X152478869Y-170314880D02*
X152002678Y-170314880D01*
X152002678Y-169314880D01*
X153383630Y-170219642D02*
X153336011Y-170267261D01*
X153193154Y-170314880D01*
X153097916Y-170314880D01*
X152955059Y-170267261D01*
X152859821Y-170172023D01*
X152812202Y-170076785D01*
X152764583Y-169886309D01*
X152764583Y-169743452D01*
X152812202Y-169552976D01*
X152859821Y-169457738D01*
X152955059Y-169362500D01*
X153097916Y-169314880D01*
X153193154Y-169314880D01*
X153336011Y-169362500D01*
X153383630Y-169410119D01*
X57817857Y-106814880D02*
X57817857Y-105814880D01*
X58055952Y-105814880D01*
X58198809Y-105862500D01*
X58294047Y-105957738D01*
X58341666Y-106052976D01*
X58389285Y-106243452D01*
X58389285Y-106386309D01*
X58341666Y-106576785D01*
X58294047Y-106672023D01*
X58198809Y-106767261D01*
X58055952Y-106814880D01*
X57817857Y-106814880D01*
X59198809Y-106767261D02*
X59103571Y-106814880D01*
X58913095Y-106814880D01*
X58817857Y-106767261D01*
X58770238Y-106672023D01*
X58770238Y-106291071D01*
X58817857Y-106195833D01*
X58913095Y-106148214D01*
X59103571Y-106148214D01*
X59198809Y-106195833D01*
X59246428Y-106291071D01*
X59246428Y-106386309D01*
X58770238Y-106481547D01*
X59627380Y-106767261D02*
X59722619Y-106814880D01*
X59913095Y-106814880D01*
X60008333Y-106767261D01*
X60055952Y-106672023D01*
X60055952Y-106624404D01*
X60008333Y-106529166D01*
X59913095Y-106481547D01*
X59770238Y-106481547D01*
X59675000Y-106433928D01*
X59627380Y-106338690D01*
X59627380Y-106291071D01*
X59675000Y-106195833D01*
X59770238Y-106148214D01*
X59913095Y-106148214D01*
X60008333Y-106195833D01*
X60484523Y-106814880D02*
X60484523Y-106148214D01*
X60484523Y-105814880D02*
X60436904Y-105862500D01*
X60484523Y-105910119D01*
X60532142Y-105862500D01*
X60484523Y-105814880D01*
X60484523Y-105910119D01*
X61389285Y-106148214D02*
X61389285Y-106957738D01*
X61341666Y-107052976D01*
X61294047Y-107100595D01*
X61198809Y-107148214D01*
X61055952Y-107148214D01*
X60960714Y-107100595D01*
X61389285Y-106767261D02*
X61294047Y-106814880D01*
X61103571Y-106814880D01*
X61008333Y-106767261D01*
X60960714Y-106719642D01*
X60913095Y-106624404D01*
X60913095Y-106338690D01*
X60960714Y-106243452D01*
X61008333Y-106195833D01*
X61103571Y-106148214D01*
X61294047Y-106148214D01*
X61389285Y-106195833D01*
X61865476Y-106148214D02*
X61865476Y-106814880D01*
X61865476Y-106243452D02*
X61913095Y-106195833D01*
X62008333Y-106148214D01*
X62151190Y-106148214D01*
X62246428Y-106195833D01*
X62294047Y-106291071D01*
X62294047Y-106814880D01*
X63151190Y-106767261D02*
X63055952Y-106814880D01*
X62865476Y-106814880D01*
X62770238Y-106767261D01*
X62722619Y-106672023D01*
X62722619Y-106291071D01*
X62770238Y-106195833D01*
X62865476Y-106148214D01*
X63055952Y-106148214D01*
X63151190Y-106195833D01*
X63198809Y-106291071D01*
X63198809Y-106386309D01*
X62722619Y-106481547D01*
X64055952Y-106814880D02*
X64055952Y-105814880D01*
X64055952Y-106767261D02*
X63960714Y-106814880D01*
X63770238Y-106814880D01*
X63675000Y-106767261D01*
X63627380Y-106719642D01*
X63579761Y-106624404D01*
X63579761Y-106338690D01*
X63627380Y-106243452D01*
X63675000Y-106195833D01*
X63770238Y-106148214D01*
X63960714Y-106148214D01*
X64055952Y-106195833D01*
X65294047Y-106814880D02*
X65294047Y-105814880D01*
X65294047Y-106195833D02*
X65389285Y-106148214D01*
X65579761Y-106148214D01*
X65675000Y-106195833D01*
X65722619Y-106243452D01*
X65770238Y-106338690D01*
X65770238Y-106624404D01*
X65722619Y-106719642D01*
X65675000Y-106767261D01*
X65579761Y-106814880D01*
X65389285Y-106814880D01*
X65294047Y-106767261D01*
X66103571Y-106148214D02*
X66341666Y-106814880D01*
X66579761Y-106148214D02*
X66341666Y-106814880D01*
X66246428Y-107052976D01*
X66198809Y-107100595D01*
X66103571Y-107148214D01*
X67865476Y-106814880D02*
X67770238Y-106767261D01*
X67722619Y-106672023D01*
X67722619Y-105814880D01*
X68389285Y-106814880D02*
X68294047Y-106767261D01*
X68246428Y-106719642D01*
X68198809Y-106624404D01*
X68198809Y-106338690D01*
X68246428Y-106243452D01*
X68294047Y-106195833D01*
X68389285Y-106148214D01*
X68532142Y-106148214D01*
X68627380Y-106195833D01*
X68675000Y-106243452D01*
X68722619Y-106338690D01*
X68722619Y-106624404D01*
X68675000Y-106719642D01*
X68627380Y-106767261D01*
X68532142Y-106814880D01*
X68389285Y-106814880D01*
X69579761Y-106148214D02*
X69579761Y-106814880D01*
X69151190Y-106148214D02*
X69151190Y-106672023D01*
X69198809Y-106767261D01*
X69294047Y-106814880D01*
X69436904Y-106814880D01*
X69532142Y-106767261D01*
X69579761Y-106719642D01*
X70484523Y-106767261D02*
X70389285Y-106814880D01*
X70198809Y-106814880D01*
X70103571Y-106767261D01*
X70055952Y-106719642D01*
X70008333Y-106624404D01*
X70008333Y-106338690D01*
X70055952Y-106243452D01*
X70103571Y-106195833D01*
X70198809Y-106148214D01*
X70389285Y-106148214D01*
X70484523Y-106195833D01*
X70913095Y-106814880D02*
X70913095Y-105814880D01*
X71008333Y-106433928D02*
X71294047Y-106814880D01*
X71294047Y-106148214D02*
X70913095Y-106529166D01*
X71865476Y-106814880D02*
X71770238Y-106767261D01*
X71722619Y-106719642D01*
X71675000Y-106624404D01*
X71675000Y-106338690D01*
X71722619Y-106243452D01*
X71770238Y-106195833D01*
X71865476Y-106148214D01*
X72008333Y-106148214D01*
X72103571Y-106195833D01*
X72151190Y-106243452D01*
X72198809Y-106338690D01*
X72198809Y-106624404D01*
X72151190Y-106719642D01*
X72103571Y-106767261D01*
X72008333Y-106814880D01*
X71865476Y-106814880D01*
X73055952Y-106148214D02*
X73055952Y-106814880D01*
X72627380Y-106148214D02*
X72627380Y-106672023D01*
X72675000Y-106767261D01*
X72770238Y-106814880D01*
X72913095Y-106814880D01*
X73008333Y-106767261D01*
X73055952Y-106719642D01*
X73484523Y-106767261D02*
X73579761Y-106814880D01*
X73770238Y-106814880D01*
X73865476Y-106767261D01*
X73913095Y-106672023D01*
X73913095Y-106624404D01*
X73865476Y-106529166D01*
X73770238Y-106481547D01*
X73627380Y-106481547D01*
X73532142Y-106433928D01*
X73484523Y-106338690D01*
X73484523Y-106291071D01*
X73532142Y-106195833D01*
X73627380Y-106148214D01*
X73770238Y-106148214D01*
X73865476Y-106195833D01*
X74294047Y-106767261D02*
X74389285Y-106814880D01*
X74579761Y-106814880D01*
X74675000Y-106767261D01*
X74722619Y-106672023D01*
X74722619Y-106624404D01*
X74675000Y-106529166D01*
X74579761Y-106481547D01*
X74436904Y-106481547D01*
X74341666Y-106433928D01*
X74294047Y-106338690D01*
X74294047Y-106291071D01*
X74341666Y-106195833D01*
X74436904Y-106148214D01*
X74579761Y-106148214D01*
X74675000Y-106195833D01*
X75532142Y-106767261D02*
X75436904Y-106814880D01*
X75246428Y-106814880D01*
X75151190Y-106767261D01*
X75103571Y-106672023D01*
X75103571Y-106291071D01*
X75151190Y-106195833D01*
X75246428Y-106148214D01*
X75436904Y-106148214D01*
X75532142Y-106195833D01*
X75579761Y-106291071D01*
X75579761Y-106386309D01*
X75103571Y-106481547D01*
X178434232Y-63568914D02*
X180200127Y-62629971D01*
X180200127Y-62629971D02*
X181139070Y-64395866D01*
X173472520Y-79797944D02*
X174411463Y-81563839D01*
X174411463Y-81563839D02*
X176177358Y-80624896D01*
X133664629Y-154493159D02*
X135577238Y-153908416D01*
X135577238Y-153908416D02*
X136161982Y-155821025D01*
X125697432Y-169477277D02*
X126282176Y-171389886D01*
X126282176Y-171389886D02*
X128194785Y-170805143D01*
X172369361Y-157410783D02*
X174281970Y-157995527D01*
X174281970Y-157995527D02*
X173697227Y-159908136D01*
X157385243Y-165377980D02*
X156800500Y-167290589D01*
X156800500Y-167290589D02*
X158713109Y-167875333D01*
X121866021Y-132333849D02*
X123562117Y-131274010D01*
X123562117Y-131274010D02*
X124621955Y-132970107D01*
X118048475Y-148869457D02*
X119108313Y-150565554D01*
X119108313Y-150565554D02*
X120804409Y-149505715D01*
X183080911Y-137626320D02*
X184777008Y-138686158D01*
X184777008Y-138686158D02*
X183717169Y-140382254D01*
X166545303Y-141443866D02*
X165485464Y-143139962D01*
X165485464Y-143139962D02*
X167181561Y-144199800D01*
X113086420Y-53599934D02*
X114852315Y-54538877D01*
X114852315Y-54538877D02*
X113913372Y-56304772D01*
X96857390Y-58561646D02*
X95918447Y-60327541D01*
X95918447Y-60327541D02*
X97684342Y-61266484D01*
X54219136Y-42580577D02*
X55985031Y-43519520D01*
X55985031Y-43519520D02*
X55046088Y-45285415D01*
X37990106Y-47542289D02*
X37051163Y-49308184D01*
X37051163Y-49308184D02*
X38817058Y-50247127D01*
X93463993Y-49926816D02*
X95229888Y-50865759D01*
X95229888Y-50865759D02*
X94290945Y-52631654D01*
X77234963Y-54888528D02*
X76296020Y-56654423D01*
X76296020Y-56654423D02*
X78061915Y-57593366D01*
X126865805Y-68262220D02*
X128631700Y-69201163D01*
X128631700Y-69201163D02*
X127692757Y-70967058D01*
X110636775Y-73223932D02*
X109697832Y-74989827D01*
X109697832Y-74989827D02*
X111463727Y-75928770D01*
X142553122Y-79336205D02*
X144319017Y-80275148D01*
X144319017Y-80275148D02*
X143380074Y-82041043D01*
X126324092Y-84297917D02*
X125385149Y-86063812D01*
X125385149Y-86063812D02*
X127151044Y-87002755D01*
X45275705Y-59400729D02*
X47041600Y-60339672D01*
X47041600Y-60339672D02*
X46102657Y-62105567D01*
X29046675Y-64362441D02*
X28107732Y-66128336D01*
X28107732Y-66128336D02*
X29873627Y-67067279D01*
X62095853Y-68344163D02*
X63861748Y-69283106D01*
X63861748Y-69283106D02*
X62922805Y-71049001D01*
X45866823Y-73305875D02*
X44927880Y-75071770D01*
X44927880Y-75071770D02*
X46693775Y-76010713D01*
X84520560Y-66746966D02*
X86286455Y-67685909D01*
X86286455Y-67685909D02*
X85347512Y-69451804D01*
X68291530Y-71708678D02*
X67352587Y-73474573D01*
X67352587Y-73474573D02*
X69118482Y-74413516D01*
X104142985Y-70420087D02*
X105908880Y-71359030D01*
X105908880Y-71359030D02*
X104969937Y-73124925D01*
X87913955Y-75381799D02*
X86975012Y-77147694D01*
X86975012Y-77147694D02*
X88740907Y-78086637D01*
X117922371Y-85082368D02*
X119688266Y-86021311D01*
X119688266Y-86021311D02*
X118749323Y-87787206D01*
X101693341Y-90044080D02*
X100754398Y-91809975D01*
X100754398Y-91809975D02*
X102520293Y-92748918D01*
X133609689Y-96156355D02*
X135375584Y-97095298D01*
X135375584Y-97095298D02*
X134436641Y-98861193D01*
X117380659Y-101118067D02*
X116441716Y-102883962D01*
X116441716Y-102883962D02*
X118207611Y-103822905D01*
X75577124Y-83567117D02*
X77343019Y-84506060D01*
X77343019Y-84506060D02*
X76404076Y-86271955D01*
X59348094Y-88528829D02*
X58409151Y-90294724D01*
X58409151Y-90294724D02*
X60175046Y-91233667D01*
X95199553Y-87240237D02*
X96965448Y-88179180D01*
X96965448Y-88179180D02*
X96026505Y-89945075D01*
X78970523Y-92201949D02*
X78031580Y-93967844D01*
X78031580Y-93967844D02*
X79797475Y-94906787D01*
X108978939Y-101902524D02*
X110744834Y-102841467D01*
X110744834Y-102841467D02*
X109805891Y-104607362D01*
X92749909Y-106864236D02*
X91810966Y-108630131D01*
X91810966Y-108630131D02*
X93576861Y-109569074D01*
X124666253Y-112976508D02*
X126432148Y-113915451D01*
X126432148Y-113915451D02*
X125493205Y-115681346D01*
X108437223Y-117938220D02*
X107498280Y-119704115D01*
X107498280Y-119704115D02*
X109264175Y-120643058D01*
X44208989Y-101984465D02*
X45974884Y-102923408D01*
X45974884Y-102923408D02*
X45035941Y-104689303D01*
X27979959Y-106946177D02*
X27041016Y-108712072D01*
X27041016Y-108712072D02*
X28806911Y-109651015D01*
X107863596Y-127785139D02*
X109326303Y-129149136D01*
X109326303Y-129149136D02*
X107962307Y-130611843D01*
X90903371Y-128377403D02*
X89539375Y-129840110D01*
X89539375Y-129840110D02*
X91002082Y-131204107D01*
X192214232Y-48908915D02*
X193980127Y-47969972D01*
X193980127Y-47969972D02*
X194919070Y-49735867D01*
X187252520Y-65137945D02*
X188191463Y-66903840D01*
X188191463Y-66903840D02*
X189957358Y-65964897D01*
X211829498Y-45229951D02*
X213595393Y-44291008D01*
X213595393Y-44291008D02*
X214534336Y-46056903D01*
X206867786Y-61458981D02*
X207806729Y-63224876D01*
X207806729Y-63224876D02*
X209572624Y-62285933D01*
X234264229Y-46828915D02*
X236030124Y-45889972D01*
X236030124Y-45889972D02*
X236969067Y-47655867D01*
X229302517Y-63057945D02*
X230241460Y-64823840D01*
X230241460Y-64823840D02*
X232007355Y-63884897D01*
X251084230Y-37888911D02*
X252850125Y-36949968D01*
X252850125Y-36949968D02*
X253789068Y-38715863D01*
X246122518Y-54117941D02*
X247061461Y-55883836D01*
X247061461Y-55883836D02*
X248827356Y-54944893D01*
X171693424Y-91461628D02*
X173459319Y-90522685D01*
X173459319Y-90522685D02*
X174398262Y-92288580D01*
X166731712Y-107690658D02*
X167670655Y-109456553D01*
X167670655Y-109456553D02*
X169436550Y-108517610D01*
X187374230Y-80388915D02*
X189140125Y-79449972D01*
X189140125Y-79449972D02*
X190079068Y-81215867D01*
X182412518Y-96617945D02*
X183351461Y-98383840D01*
X183351461Y-98383840D02*
X185117356Y-97444897D01*
X201154232Y-65728914D02*
X202920127Y-64789971D01*
X202920127Y-64789971D02*
X203859070Y-66555866D01*
X196192520Y-81957944D02*
X197131463Y-83723839D01*
X197131463Y-83723839D02*
X198897358Y-82784896D01*
X220784230Y-62048914D02*
X222550125Y-61109971D01*
X222550125Y-61109971D02*
X223489068Y-62875866D01*
X215822518Y-78277944D02*
X216761461Y-80043839D01*
X216761461Y-80043839D02*
X218527356Y-79104896D01*
X243204231Y-63648915D02*
X244970126Y-62709972D01*
X244970126Y-62709972D02*
X245909069Y-64475867D01*
X238242519Y-79877945D02*
X239181462Y-81643840D01*
X239181462Y-81643840D02*
X240947357Y-80704897D01*
X260024229Y-54708915D02*
X261790124Y-53769972D01*
X261790124Y-53769972D02*
X262729067Y-55535867D01*
X255062517Y-70937945D02*
X256001460Y-72703840D01*
X256001460Y-72703840D02*
X257767355Y-71764897D01*
X180635734Y-108282376D02*
X182401629Y-107343433D01*
X182401629Y-107343433D02*
X183340572Y-109109328D01*
X175674022Y-124511406D02*
X176612965Y-126277301D01*
X176612965Y-126277301D02*
X178378860Y-125338358D01*
X196324231Y-97208915D02*
X198090126Y-96269972D01*
X198090126Y-96269972D02*
X199029069Y-98035867D01*
X191362519Y-113437945D02*
X192301462Y-115203840D01*
X192301462Y-115203840D02*
X194067357Y-114264897D01*
X252144229Y-80468916D02*
X253910124Y-79529973D01*
X253910124Y-79529973D02*
X254849067Y-81295868D01*
X247182517Y-96697946D02*
X248121460Y-98463841D01*
X248121460Y-98463841D02*
X249887355Y-97524898D01*
X268964230Y-71528915D02*
X270730125Y-70589972D01*
X270730125Y-70589972D02*
X271669068Y-72355867D01*
X264002518Y-87757945D02*
X264941461Y-89523840D01*
X264941461Y-89523840D02*
X266707356Y-88584897D01*
X36332269Y-76220879D02*
X38098164Y-77159822D01*
X38098164Y-77159822D02*
X37159221Y-78925717D01*
X20103239Y-81182591D02*
X19164296Y-82948486D01*
X19164296Y-82948486D02*
X20930191Y-83887429D01*
X210104228Y-82548913D02*
X211870123Y-81609970D01*
X211870123Y-81609970D02*
X212809066Y-83375865D01*
X205142516Y-98777943D02*
X206081459Y-100543838D01*
X206081459Y-100543838D02*
X207847354Y-99604895D01*
X53152422Y-85164312D02*
X54918317Y-86103255D01*
X54918317Y-86103255D02*
X53979374Y-87869150D01*
X36923392Y-90126024D02*
X35984449Y-91891919D01*
X35984449Y-91891919D02*
X37750344Y-92830862D01*
X195913579Y-120965141D02*
X197376286Y-119601145D01*
X197376286Y-119601145D02*
X198740283Y-121063852D01*
X195321315Y-137925366D02*
X196685312Y-139388073D01*
X196685312Y-139388073D02*
X198148019Y-138024077D01*
X162739991Y-74641478D02*
X164505886Y-73702535D01*
X164505886Y-73702535D02*
X165444829Y-75468430D01*
X157778279Y-90870508D02*
X158717222Y-92636403D01*
X158717222Y-92636403D02*
X160483117Y-91697460D01*
X261094230Y-97288915D02*
X262860125Y-96349972D01*
X262860125Y-96349972D02*
X263799068Y-98115867D01*
X256132518Y-113517945D02*
X257071461Y-115283840D01*
X257071461Y-115283840D02*
X258837356Y-114344897D01*
X71039291Y-51524011D02*
X72805186Y-52462954D01*
X72805186Y-52462954D02*
X71866243Y-54228849D01*
X54810261Y-56485723D02*
X53871318Y-58251618D01*
X53871318Y-58251618D02*
X55637213Y-59190561D01*
X229724231Y-78868914D02*
X231490126Y-77929971D01*
X231490126Y-77929971D02*
X232429069Y-79695866D01*
X224762519Y-95097944D02*
X225701462Y-96863839D01*
X225701462Y-96863839D02*
X227467357Y-95924896D01*
D11*
X154585793Y-36076905D02*
X157125793Y-36076905D01*
X139345793Y-33536905D02*
X157125793Y-33536905D01*
X157125793Y-33536905D02*
X157125793Y-66556905D01*
X157125793Y-66556905D02*
X139345793Y-66556905D01*
X139345793Y-66556905D02*
X139345793Y-33536905D01*
D10*
G36*
X142391158Y-41965935D02*
G01*
X142391158Y-42065935D01*
X141891158Y-42065935D01*
X141891158Y-41965935D01*
X142391158Y-41965935D01*
G37*
X142391158Y-41965935D02*
X142391158Y-42065935D01*
X141891158Y-42065935D01*
X141891158Y-41965935D01*
X142391158Y-41965935D01*
G36*
X142391158Y-41965935D02*
G01*
X142391158Y-42265935D01*
X142291158Y-42265935D01*
X142291158Y-41965935D01*
X142391158Y-41965935D01*
G37*
X142391158Y-41965935D02*
X142391158Y-42265935D01*
X142291158Y-42265935D01*
X142291158Y-41965935D01*
X142391158Y-41965935D01*
G36*
X142391158Y-42565935D02*
G01*
X142391158Y-42765935D01*
X142291158Y-42765935D01*
X142291158Y-42565935D01*
X142391158Y-42565935D01*
G37*
X142391158Y-42565935D02*
X142391158Y-42765935D01*
X142291158Y-42765935D01*
X142291158Y-42565935D01*
X142391158Y-42565935D01*
G36*
X141991158Y-41965935D02*
G01*
X141991158Y-42765935D01*
X141891158Y-42765935D01*
X141891158Y-41965935D01*
X141991158Y-41965935D01*
G37*
X141991158Y-41965935D02*
X141991158Y-42765935D01*
X141891158Y-42765935D01*
X141891158Y-41965935D01*
X141991158Y-41965935D01*
G36*
X142191158Y-42365935D02*
G01*
X142191158Y-42465935D01*
X142091158Y-42465935D01*
X142091158Y-42365935D01*
X142191158Y-42365935D01*
G37*
X142191158Y-42365935D02*
X142191158Y-42465935D01*
X142091158Y-42465935D01*
X142091158Y-42365935D01*
X142191158Y-42365935D01*
D11*
X154585793Y-36076905D02*
X154585793Y-38616905D01*
X154585793Y-38616905D02*
X157125793Y-38616905D01*
D12*
X153375793Y-103796904D02*
X153375793Y-105126904D01*
X152045793Y-103796904D02*
X153375793Y-103796904D01*
X150775793Y-103796904D02*
X150775793Y-106456904D01*
X150775793Y-106456904D02*
X143095793Y-106456904D01*
X150775793Y-103796904D02*
X143095793Y-103796904D01*
X143095793Y-103796904D02*
X143095793Y-106456904D01*
D13*
X141442093Y-37346905D02*
G75*
G03X141442093Y-37346905I-826300J0D01*
G01*
X156682093Y-65286905D02*
G75*
G03X156682093Y-65286905I-826300J0D01*
G01*
X141442093Y-39886905D02*
G75*
G03X141442093Y-39886905I-826300J0D01*
G01*
X141442093Y-42426905D02*
G75*
G03X141442093Y-42426905I-826300J0D01*
G01*
X141442093Y-44966905D02*
G75*
G03X141442093Y-44966905I-826300J0D01*
G01*
X141442093Y-47506905D02*
G75*
G03X141442093Y-47506905I-826300J0D01*
G01*
X141442093Y-50046905D02*
G75*
G03X141442093Y-50046905I-826300J0D01*
G01*
X141442093Y-52586905D02*
G75*
G03X141442093Y-52586905I-826300J0D01*
G01*
X141442093Y-55126905D02*
G75*
G03X141442093Y-55126905I-826300J0D01*
G01*
X141442093Y-57666905D02*
G75*
G03X141442093Y-57666905I-826300J0D01*
G01*
X141442093Y-60206905D02*
G75*
G03X141442093Y-60206905I-826300J0D01*
G01*
X141442093Y-62746905D02*
G75*
G03X141442093Y-62746905I-826300J0D01*
G01*
X141442093Y-65286905D02*
G75*
G03X141442093Y-65286905I-826300J0D01*
G01*
X156682093Y-62746905D02*
G75*
G03X156682093Y-62746905I-826300J0D01*
G01*
X156682093Y-60206905D02*
G75*
G03X156682093Y-60206905I-826300J0D01*
G01*
X156682093Y-57666905D02*
G75*
G03X156682093Y-57666905I-826300J0D01*
G01*
X156682093Y-55126905D02*
G75*
G03X156682093Y-55126905I-826300J0D01*
G01*
X156682093Y-52586905D02*
G75*
G03X156682093Y-52586905I-826300J0D01*
G01*
X156682093Y-50046905D02*
G75*
G03X156682093Y-50046905I-826300J0D01*
G01*
X156682093Y-47506905D02*
G75*
G03X156682093Y-47506905I-826300J0D01*
G01*
X156682093Y-44966905D02*
G75*
G03X156682093Y-44966905I-826300J0D01*
G01*
X156682093Y-42426905D02*
G75*
G03X156682093Y-42426905I-826300J0D01*
G01*
X156682093Y-39886905D02*
G75*
G03X156682093Y-39886905I-826300J0D01*
G01*
X155029493Y-36520605D02*
X155029493Y-38173205D01*
X156682093Y-38173205D01*
X156682093Y-36520605D01*
X155029493Y-36520605D01*
D10*
X177873528Y-75903298D02*
X177404057Y-75020351D01*
X178033709Y-75494537D01*
X177992688Y-74707370D01*
X178462160Y-75590317D01*
X178329049Y-74528524D02*
X179387153Y-75098490D01*
X178917681Y-74215542D02*
X178798521Y-75411471D01*
X179581379Y-74348035D02*
X179474933Y-74350701D01*
X179410533Y-74331012D01*
X179323776Y-74269278D01*
X179301420Y-74227232D01*
X179298754Y-74120786D01*
X179318443Y-74056386D01*
X179380177Y-73969629D01*
X179548358Y-73880206D01*
X179654804Y-73877539D01*
X179719205Y-73897229D01*
X179805962Y-73958963D01*
X179828317Y-74001008D01*
X179830984Y-74107454D01*
X179811294Y-74171855D01*
X179749560Y-74258612D01*
X179581379Y-74348035D01*
X179519645Y-74434792D01*
X179499956Y-74499193D01*
X179502622Y-74605639D01*
X179592045Y-74773819D01*
X179678802Y-74835554D01*
X179743203Y-74855243D01*
X179849649Y-74852576D01*
X180017829Y-74763153D01*
X180079564Y-74676397D01*
X180099253Y-74611996D01*
X180096587Y-74505550D01*
X180007164Y-74337369D01*
X179920407Y-74275635D01*
X179856006Y-74255945D01*
X179749560Y-74258612D01*
X173581518Y-65599715D02*
X173076976Y-65867985D01*
X173329247Y-65733850D02*
X172859776Y-64850902D01*
X172842753Y-65021749D01*
X172803374Y-65150551D01*
X172741640Y-65237308D01*
X173490452Y-64515565D02*
X173870501Y-65230333D01*
X173957258Y-65292067D01*
X174021658Y-65311756D01*
X174128104Y-65309090D01*
X174296285Y-65219667D01*
X174358019Y-65132910D01*
X174377709Y-65068509D01*
X174375042Y-64962063D01*
X173994994Y-64247296D01*
X130305332Y-166633164D02*
X130012960Y-165676859D01*
X130540565Y-166262476D01*
X130650497Y-165481944D01*
X130942868Y-166438249D01*
X131014803Y-165370565D02*
X131944712Y-166131955D01*
X131652340Y-165175650D02*
X131307175Y-166326869D01*
X132523949Y-165257737D02*
X132718863Y-165895273D01*
X132184877Y-164963042D02*
X132166023Y-165715730D01*
X132758021Y-165534738D01*
X133109566Y-164730131D02*
X133200643Y-164702287D01*
X133305642Y-164719980D01*
X133365103Y-164751596D01*
X133438486Y-164828750D01*
X133539714Y-164996981D01*
X133609326Y-165224672D01*
X133619478Y-165420748D01*
X133601785Y-165525747D01*
X133570169Y-165585208D01*
X133493015Y-165658591D01*
X133401938Y-165686436D01*
X133296939Y-165668743D01*
X133237478Y-165637127D01*
X133164095Y-165559973D01*
X133062867Y-165391742D01*
X132993254Y-165164050D01*
X132983103Y-164967975D01*
X133000796Y-164862976D01*
X133032412Y-164803515D01*
X133109566Y-164730131D01*
X127830503Y-155769545D02*
X127284044Y-155936614D01*
X127557274Y-155853080D02*
X127264902Y-154896775D01*
X127215593Y-155061235D01*
X127152361Y-155180156D01*
X127075207Y-155253540D01*
X128212503Y-155553166D02*
X128271964Y-155584782D01*
X128240348Y-155644243D01*
X128180888Y-155612627D01*
X128212503Y-155553166D01*
X128240348Y-155644243D01*
X128858743Y-154409489D02*
X128403360Y-154548713D01*
X128497046Y-155018019D01*
X128528662Y-154958558D01*
X128605816Y-154885175D01*
X128833508Y-154815563D01*
X128938507Y-154833256D01*
X128997968Y-154864872D01*
X129071351Y-154942026D01*
X129140963Y-155169718D01*
X129123270Y-155274717D01*
X129091654Y-155334178D01*
X129014500Y-155407561D01*
X128786808Y-155477173D01*
X128681809Y-155459480D01*
X128622348Y-155427864D01*
X129314126Y-154270264D02*
X129550808Y-155044415D01*
X129624191Y-155121570D01*
X129683652Y-155153186D01*
X129788651Y-155170879D01*
X129970805Y-155115189D01*
X130047959Y-155041806D01*
X130079575Y-154982345D01*
X130097268Y-154877346D01*
X129860586Y-154103194D01*
X162795773Y-165596808D02*
X163088145Y-164640504D01*
X163198076Y-165421036D01*
X163725681Y-164835418D01*
X163433310Y-165791723D01*
X164089988Y-164946798D02*
X164435153Y-166098017D01*
X164727524Y-165141712D02*
X163797616Y-165903103D01*
X165404219Y-165697162D02*
X165209304Y-166334699D01*
X165287907Y-165263244D02*
X164851378Y-165876706D01*
X165443376Y-166057698D01*
X166211147Y-166640993D02*
X165664687Y-166473924D01*
X165937917Y-166557458D02*
X166230289Y-165601154D01*
X166097445Y-165709924D01*
X165978524Y-165773155D01*
X165873524Y-165790849D01*
X166818905Y-155206553D02*
X166272445Y-155039484D01*
X166545675Y-155123019D02*
X166838046Y-154166714D01*
X166705202Y-154275484D01*
X166586281Y-154338716D01*
X166481282Y-154356409D01*
X167256594Y-155240779D02*
X167288210Y-155300240D01*
X167228750Y-155331855D01*
X167197134Y-155272395D01*
X167256594Y-155240779D01*
X167228750Y-155331855D01*
X168431888Y-154654000D02*
X167976504Y-154514775D01*
X167791742Y-154956236D01*
X167851202Y-154924620D01*
X167956201Y-154906927D01*
X168183893Y-154976539D01*
X168261047Y-155049922D01*
X168292663Y-155109383D01*
X168310356Y-155214382D01*
X168240744Y-155442074D01*
X168167361Y-155519228D01*
X168107900Y-155550844D01*
X168002901Y-155568537D01*
X167775209Y-155498925D01*
X167698055Y-155425542D01*
X167666439Y-155366081D01*
X168887271Y-154793225D02*
X168650589Y-155567376D01*
X168668282Y-155672375D01*
X168699898Y-155731836D01*
X168777053Y-155805219D01*
X168959206Y-155860909D01*
X169064205Y-155843216D01*
X169123666Y-155811600D01*
X169197049Y-155734446D01*
X169433731Y-154960294D01*
X121763254Y-144929643D02*
X121233335Y-144081594D01*
X121894531Y-144510703D01*
X121798700Y-143728315D01*
X122328619Y-144576363D01*
X122121766Y-143526441D02*
X123217051Y-144021210D01*
X122687131Y-143173161D02*
X122651685Y-144374489D01*
X122929431Y-143021756D02*
X123454413Y-142693711D01*
X123373604Y-143193416D01*
X123494754Y-143117714D01*
X123600755Y-143107628D01*
X123666372Y-143122777D01*
X123757224Y-143178310D01*
X123883395Y-143380226D01*
X123893481Y-143486227D01*
X123878332Y-143551844D01*
X123822799Y-143642696D01*
X123580500Y-143794101D01*
X123474499Y-143804187D01*
X123408882Y-143789038D01*
X124388165Y-143289416D02*
X124549698Y-143188479D01*
X124605230Y-143097628D01*
X124620379Y-143032010D01*
X124625443Y-142860392D01*
X124564889Y-142673625D01*
X124363015Y-142350559D01*
X124272163Y-142295026D01*
X124206546Y-142279877D01*
X124100545Y-142289963D01*
X123939012Y-142390900D01*
X123883480Y-142481751D01*
X123868331Y-142547369D01*
X123878416Y-142653370D01*
X124004587Y-142855286D01*
X124095439Y-142910818D01*
X124161056Y-142925967D01*
X124267057Y-142915882D01*
X124428590Y-142814945D01*
X124484122Y-142724093D01*
X124499271Y-142658476D01*
X124489186Y-142552475D01*
X116157209Y-135329068D02*
X115672610Y-135631879D01*
X115914909Y-135480473D02*
X115384990Y-134632425D01*
X115379926Y-134804043D01*
X115349628Y-134935278D01*
X115294096Y-135026130D01*
X116470189Y-135021193D02*
X116535807Y-135036342D01*
X116520658Y-135101960D01*
X116455040Y-135086811D01*
X116470189Y-135021193D01*
X116520658Y-135101960D01*
X116313804Y-134052037D02*
X116879170Y-133698758D01*
X117045640Y-134773914D01*
X117606068Y-133244541D02*
X117202236Y-133496884D01*
X117414195Y-133925951D01*
X117429344Y-133860333D01*
X117484876Y-133769481D01*
X117686793Y-133643310D01*
X117792793Y-133633225D01*
X117858411Y-133648374D01*
X117949262Y-133703906D01*
X118075434Y-133905822D01*
X118085519Y-134011823D01*
X118070370Y-134077441D01*
X118014838Y-134168292D01*
X117812922Y-134294464D01*
X117706921Y-134304549D01*
X117641303Y-134289400D01*
X118009901Y-132992199D02*
X118438883Y-133678714D01*
X118529735Y-133734246D01*
X118595352Y-133749395D01*
X118701353Y-133739310D01*
X118862886Y-133638373D01*
X118918418Y-133547521D01*
X118933567Y-133481904D01*
X118923482Y-133375903D01*
X118494500Y-132689388D01*
X171714836Y-143055586D02*
X172244755Y-142207538D01*
X172148924Y-142989926D01*
X172810121Y-142560817D01*
X172280202Y-143408866D01*
X173133187Y-142762691D02*
X173168633Y-143964019D01*
X173698552Y-143115971D02*
X172603267Y-143610740D01*
X174208428Y-143827636D02*
X173855148Y-144393001D01*
X174208385Y-143378399D02*
X173627955Y-143857976D01*
X174152937Y-144186021D01*
X174738431Y-143878062D02*
X174804049Y-143862913D01*
X174910049Y-143872998D01*
X175111966Y-143999170D01*
X175167498Y-144090021D01*
X175182647Y-144155639D01*
X175172562Y-144261640D01*
X175122093Y-144342406D01*
X175006007Y-144438322D01*
X174218597Y-144620110D01*
X174743579Y-144948155D01*
X177886247Y-133808291D02*
X177401648Y-133505480D01*
X177643947Y-133656885D02*
X178173867Y-132808837D01*
X178017397Y-132879518D01*
X177886162Y-132909816D01*
X177780162Y-132899731D01*
X178300165Y-133954633D02*
X178315314Y-134020250D01*
X178249696Y-134035399D01*
X178234547Y-133969782D01*
X178300165Y-133954633D01*
X178249696Y-134035399D01*
X179102681Y-133389225D02*
X179668047Y-133742504D01*
X178774678Y-134363444D01*
X180394945Y-134196721D02*
X179991113Y-133944378D01*
X179698387Y-134322977D01*
X179764004Y-134307828D01*
X179870005Y-134317913D01*
X180071921Y-134444084D01*
X180127453Y-134534936D01*
X180142602Y-134600553D01*
X180132517Y-134706554D01*
X180006346Y-134908470D01*
X179915494Y-134964003D01*
X179849877Y-134979152D01*
X179743876Y-134969066D01*
X179541960Y-134842895D01*
X179486428Y-134752043D01*
X179471279Y-134686426D01*
X180798777Y-134449063D02*
X180369795Y-135135579D01*
X180359710Y-135241579D01*
X180374859Y-135307197D01*
X180430391Y-135398049D01*
X180591924Y-135498986D01*
X180697925Y-135509071D01*
X180763542Y-135493922D01*
X180854394Y-135438390D01*
X181283376Y-134751874D01*
X102547210Y-60032390D02*
X103016682Y-59149442D01*
X102975661Y-59936610D01*
X103605313Y-59462423D01*
X103135842Y-60345371D01*
X103941674Y-59641270D02*
X104060835Y-60837198D01*
X104530306Y-59954251D02*
X103472203Y-60524217D01*
X105088583Y-60628615D02*
X104775602Y-61217247D01*
X105057203Y-60180475D02*
X104511641Y-60699373D01*
X105058228Y-60989998D01*
X108689206Y-50712461D02*
X108184664Y-50444192D01*
X108436935Y-50578326D02*
X108906407Y-49695379D01*
X108755249Y-49776803D01*
X108626447Y-49816181D01*
X108520001Y-49813515D01*
X109537084Y-50030716D02*
X109157035Y-50745483D01*
X109154369Y-50851929D01*
X109174058Y-50916330D01*
X109235792Y-51003086D01*
X109403973Y-51092510D01*
X109510419Y-51095176D01*
X109574820Y-51075487D01*
X109661577Y-51013752D01*
X110041625Y-50298985D01*
X43679926Y-49013033D02*
X44149398Y-48130085D01*
X44108377Y-48917253D01*
X44738029Y-48443066D01*
X44268558Y-49326014D01*
X45074390Y-48621913D02*
X45193551Y-49817841D01*
X45663022Y-48934894D02*
X44604919Y-49504860D01*
X45992408Y-50242601D02*
X45487866Y-49974332D01*
X45740137Y-50108467D02*
X46209609Y-49225519D01*
X46058451Y-49306943D01*
X45929649Y-49346321D01*
X45823203Y-49343655D01*
X49821922Y-39693104D02*
X49317380Y-39424835D01*
X49569651Y-39558969D02*
X50039123Y-38676022D01*
X49887965Y-38757446D01*
X49759163Y-38796824D01*
X49652717Y-38794158D01*
X50669800Y-39011359D02*
X50289751Y-39726126D01*
X50287085Y-39832572D01*
X50306774Y-39896973D01*
X50368508Y-39983729D01*
X50536689Y-40073153D01*
X50643135Y-40075819D01*
X50707536Y-40056130D01*
X50794293Y-39994395D01*
X51174341Y-39279628D01*
X82924783Y-56359272D02*
X83394255Y-55476324D01*
X83353234Y-56263492D01*
X83982886Y-55789305D01*
X83513415Y-56672253D01*
X84319247Y-55968152D02*
X84438408Y-57164080D01*
X84907879Y-56281133D02*
X83849776Y-56851099D01*
X85160150Y-56415267D02*
X85706737Y-56705893D01*
X85233574Y-56885763D01*
X85359710Y-56952830D01*
X85421444Y-57039587D01*
X85441134Y-57103988D01*
X85438467Y-57210434D01*
X85326688Y-57420660D01*
X85239931Y-57482394D01*
X85175531Y-57502084D01*
X85069084Y-57499417D01*
X84816814Y-57365282D01*
X84755079Y-57278526D01*
X84735390Y-57214125D01*
X89066779Y-47039343D02*
X88562237Y-46771074D01*
X88814508Y-46905208D02*
X89283980Y-46022261D01*
X89132822Y-46103685D01*
X89004020Y-46143063D01*
X88897574Y-46140397D01*
X89914657Y-46357598D02*
X89534608Y-47072365D01*
X89531942Y-47178811D01*
X89551631Y-47243212D01*
X89613365Y-47329968D01*
X89781546Y-47419392D01*
X89887992Y-47422058D01*
X89952393Y-47402369D01*
X90039150Y-47340634D01*
X90419198Y-46625867D01*
X116326595Y-74694676D02*
X116796067Y-73811728D01*
X116755046Y-74598896D01*
X117384698Y-74124709D01*
X116915227Y-75007657D01*
X117721059Y-74303556D02*
X117840220Y-75499484D01*
X118309691Y-74616537D02*
X117251588Y-75186503D01*
X119066503Y-75018941D02*
X118646052Y-74795383D01*
X118380449Y-75193478D01*
X118444850Y-75173789D01*
X118551296Y-75176456D01*
X118761522Y-75288234D01*
X118823256Y-75374991D01*
X118842946Y-75439392D01*
X118840279Y-75545838D01*
X118728500Y-75756064D01*
X118641743Y-75817798D01*
X118577343Y-75837488D01*
X118470896Y-75834821D01*
X118260671Y-75723042D01*
X118198936Y-75636285D01*
X118179247Y-75571885D01*
X122468591Y-65374747D02*
X121964049Y-65106478D01*
X122216320Y-65240612D02*
X122685792Y-64357665D01*
X122534634Y-64439089D01*
X122405832Y-64478467D01*
X122299386Y-64475801D01*
X123316469Y-64693002D02*
X122936420Y-65407769D01*
X122933754Y-65514215D01*
X122953443Y-65578616D01*
X123015177Y-65665372D01*
X123183358Y-65754796D01*
X123289804Y-65757462D01*
X123354205Y-65737773D01*
X123440962Y-65676038D01*
X123821010Y-64961271D01*
X132013912Y-85768661D02*
X132483384Y-84885713D01*
X132442363Y-85672881D01*
X133072015Y-85198694D01*
X132602544Y-86081642D01*
X133408376Y-85377541D02*
X133527537Y-86573469D01*
X133997008Y-85690522D02*
X132938905Y-86260488D01*
X134711775Y-86070570D02*
X134543595Y-85981147D01*
X134437149Y-85978480D01*
X134372748Y-85998170D01*
X134221590Y-86079594D01*
X134090122Y-86225418D01*
X133911276Y-86561779D01*
X133908609Y-86668225D01*
X133928299Y-86732626D01*
X133990033Y-86819383D01*
X134158213Y-86908806D01*
X134264660Y-86911473D01*
X134329060Y-86891783D01*
X134415817Y-86830049D01*
X134527596Y-86619823D01*
X134530263Y-86513377D01*
X134510573Y-86448976D01*
X134448839Y-86362219D01*
X134280658Y-86272796D01*
X134174212Y-86270130D01*
X134109811Y-86289819D01*
X134023055Y-86351554D01*
X138155908Y-76448732D02*
X137651366Y-76180463D01*
X137903637Y-76314597D02*
X138373109Y-75431650D01*
X138221951Y-75513074D01*
X138093149Y-75552452D01*
X137986703Y-75549786D01*
X139003786Y-75766987D02*
X138623737Y-76481754D01*
X138621071Y-76588200D01*
X138640760Y-76652601D01*
X138702494Y-76739357D01*
X138870675Y-76828781D01*
X138977121Y-76831447D01*
X139041522Y-76811758D01*
X139128279Y-76750023D01*
X139508327Y-76035256D01*
X34316044Y-65609627D02*
X34785516Y-64726679D01*
X34744495Y-65513847D01*
X35374147Y-65039660D01*
X34904676Y-65922608D01*
X35710508Y-65218507D02*
X35829668Y-66414435D01*
X36299140Y-65531488D02*
X35241037Y-66101454D01*
X36628526Y-66839195D02*
X36123984Y-66570926D01*
X36376255Y-66705061D02*
X36845727Y-65822113D01*
X36694569Y-65903537D01*
X36565767Y-65942916D01*
X36459321Y-65940249D01*
X37392313Y-66112738D02*
X37938900Y-66403364D01*
X37465738Y-66583234D01*
X37591873Y-66650301D01*
X37653607Y-66737058D01*
X37673297Y-66801459D01*
X37670630Y-66907905D01*
X37558851Y-67118131D01*
X37472095Y-67179865D01*
X37407694Y-67199554D01*
X37301248Y-67196888D01*
X37048977Y-67062753D01*
X36987243Y-66975997D01*
X36967553Y-66911596D01*
X40878491Y-56513256D02*
X40373949Y-56244987D01*
X40626220Y-56379121D02*
X41095692Y-55496174D01*
X40944534Y-55577598D01*
X40815732Y-55616976D01*
X40709286Y-55614310D01*
X41726369Y-55831511D02*
X41346320Y-56546278D01*
X41343654Y-56652724D01*
X41363343Y-56717125D01*
X41425077Y-56803881D01*
X41593258Y-56893305D01*
X41699704Y-56895971D01*
X41764105Y-56876282D01*
X41850862Y-56814547D01*
X42230910Y-56099780D01*
X51136192Y-74553061D02*
X51605664Y-73670113D01*
X51564643Y-74457281D01*
X52194295Y-73983094D01*
X51724824Y-74866042D01*
X52530656Y-74161941D02*
X52649816Y-75357869D01*
X53119288Y-74474922D02*
X52061185Y-75044888D01*
X53448674Y-75782629D02*
X52944132Y-75514360D01*
X53196403Y-75648495D02*
X53665875Y-74765547D01*
X53514717Y-74846971D01*
X53385915Y-74886350D01*
X53279469Y-74883683D01*
X54518467Y-75596402D02*
X54205486Y-76185034D01*
X54487088Y-75148262D02*
X53941525Y-75667160D01*
X54488112Y-75957785D01*
X57698639Y-65456690D02*
X57194097Y-65188421D01*
X57446368Y-65322555D02*
X57915840Y-64439608D01*
X57764682Y-64521032D01*
X57635880Y-64560410D01*
X57529434Y-64557744D01*
X58546517Y-64774945D02*
X58166468Y-65489712D01*
X58163802Y-65596158D01*
X58183491Y-65660559D01*
X58245225Y-65747315D01*
X58413406Y-65836739D01*
X58519852Y-65839405D01*
X58584253Y-65819716D01*
X58671010Y-65757981D01*
X59051058Y-65043214D01*
X73560899Y-72955864D02*
X74030371Y-72072916D01*
X73989350Y-72860084D01*
X74619002Y-72385897D01*
X74149531Y-73268845D01*
X74955363Y-72564744D02*
X75074523Y-73760672D01*
X75543995Y-72877725D02*
X74485892Y-73447691D01*
X75873381Y-74185432D02*
X75368839Y-73917163D01*
X75621110Y-74051298D02*
X76090582Y-73168350D01*
X75939424Y-73249774D01*
X75810622Y-73289153D01*
X75704176Y-73286486D01*
X77141710Y-73727245D02*
X76721258Y-73503687D01*
X76455655Y-73901782D01*
X76520056Y-73882093D01*
X76626502Y-73884759D01*
X76836728Y-73996538D01*
X76898462Y-74083295D01*
X76918152Y-74147696D01*
X76915485Y-74254142D01*
X76803706Y-74464368D01*
X76716950Y-74526102D01*
X76652549Y-74545791D01*
X76546103Y-74543125D01*
X76335877Y-74431346D01*
X76274143Y-74344589D01*
X76254453Y-74280188D01*
X80123346Y-63859493D02*
X79618804Y-63591224D01*
X79871075Y-63725358D02*
X80340547Y-62842411D01*
X80189389Y-62923835D01*
X80060587Y-62963213D01*
X79954141Y-62960547D01*
X80971224Y-63177748D02*
X80591175Y-63892515D01*
X80588509Y-63998961D01*
X80608198Y-64063362D01*
X80669932Y-64150118D01*
X80838113Y-64239542D01*
X80944559Y-64242208D01*
X81008960Y-64222519D01*
X81095717Y-64160784D01*
X81475765Y-63446017D01*
X93183324Y-76628985D02*
X93652796Y-75746037D01*
X93611775Y-76533205D01*
X94241427Y-76059018D01*
X93771956Y-76941966D01*
X94577788Y-76237865D02*
X94696948Y-77433793D01*
X95166420Y-76550846D02*
X94108317Y-77120812D01*
X95495806Y-77858553D02*
X94991264Y-77590284D01*
X95243535Y-77724419D02*
X95713007Y-76841471D01*
X95561849Y-76922895D01*
X95433047Y-76962274D01*
X95326601Y-76959607D01*
X96722090Y-77378010D02*
X96553909Y-77288587D01*
X96447463Y-77285920D01*
X96383062Y-77305610D01*
X96231904Y-77387033D01*
X96100436Y-77532858D01*
X95921590Y-77869219D01*
X95918923Y-77975665D01*
X95938613Y-78040066D01*
X96000347Y-78126823D01*
X96168528Y-78216246D01*
X96274974Y-78218912D01*
X96339375Y-78199223D01*
X96426131Y-78137489D01*
X96537910Y-77927263D01*
X96540577Y-77820817D01*
X96520887Y-77756416D01*
X96459153Y-77669659D01*
X96290972Y-77580236D01*
X96184526Y-77577570D01*
X96120126Y-77597259D01*
X96033369Y-77658994D01*
X99745771Y-67532614D02*
X99241229Y-67264345D01*
X99493500Y-67398479D02*
X99962972Y-66515532D01*
X99811814Y-66596956D01*
X99683012Y-66636334D01*
X99576566Y-66633668D01*
X100593649Y-66850869D02*
X100213600Y-67565636D01*
X100210934Y-67672082D01*
X100230623Y-67736483D01*
X100292357Y-67823239D01*
X100460538Y-67912663D01*
X100566984Y-67915329D01*
X100631385Y-67895640D01*
X100718142Y-67833905D01*
X101098190Y-67119138D01*
X106962710Y-91291266D02*
X107432182Y-90408318D01*
X107391161Y-91195486D01*
X108020813Y-90721299D01*
X107551342Y-91604247D01*
X108357174Y-90900146D02*
X108476334Y-92096074D01*
X108945806Y-91213127D02*
X107887703Y-91783093D01*
X109275192Y-92520834D02*
X108770650Y-92252565D01*
X109022921Y-92386700D02*
X109492393Y-91503752D01*
X109341235Y-91585176D01*
X109212433Y-91624555D01*
X109105987Y-91621888D01*
X110038979Y-91794377D02*
X110627611Y-92107358D01*
X109779733Y-92789104D01*
X113525157Y-82194895D02*
X113020615Y-81926626D01*
X113272886Y-82060760D02*
X113742358Y-81177813D01*
X113591200Y-81259237D01*
X113462398Y-81298615D01*
X113355952Y-81295949D01*
X114373035Y-81513150D02*
X113992986Y-82227917D01*
X113990320Y-82334363D01*
X114010009Y-82398764D01*
X114071743Y-82485520D01*
X114239924Y-82574944D01*
X114346370Y-82577610D01*
X114410771Y-82557921D01*
X114497528Y-82496186D01*
X114877576Y-81781419D01*
X122650028Y-102365253D02*
X123119500Y-101482305D01*
X123078479Y-102269473D01*
X123708131Y-101795286D01*
X123238660Y-102678234D01*
X124044492Y-101974133D02*
X124163652Y-103170061D01*
X124633124Y-102287114D02*
X123575021Y-102857080D01*
X124962510Y-103594821D02*
X124457968Y-103326552D01*
X124710239Y-103460687D02*
X125179711Y-102577739D01*
X125028553Y-102659163D01*
X124899751Y-102698542D01*
X124793305Y-102695875D01*
X125735321Y-103358549D02*
X125673586Y-103271793D01*
X125653897Y-103207392D01*
X125656563Y-103100946D01*
X125678919Y-103058901D01*
X125765676Y-102997166D01*
X125830077Y-102977477D01*
X125936523Y-102980143D01*
X126104703Y-103069566D01*
X126166438Y-103156323D01*
X126186127Y-103220724D01*
X126183461Y-103327170D01*
X126161105Y-103369215D01*
X126074348Y-103430950D01*
X126009947Y-103450639D01*
X125903501Y-103447973D01*
X125735321Y-103358549D01*
X125628875Y-103355883D01*
X125564474Y-103375572D01*
X125477717Y-103437307D01*
X125388294Y-103605487D01*
X125385627Y-103711933D01*
X125405317Y-103776334D01*
X125467051Y-103863091D01*
X125635232Y-103952514D01*
X125741678Y-103955180D01*
X125806079Y-103935491D01*
X125892835Y-103873757D01*
X125982259Y-103705576D01*
X125984925Y-103599130D01*
X125965236Y-103534729D01*
X125903501Y-103447973D01*
X129212475Y-93268882D02*
X128707933Y-93000613D01*
X128960204Y-93134747D02*
X129429676Y-92251800D01*
X129278518Y-92333224D01*
X129149716Y-92372602D01*
X129043270Y-92369936D01*
X130060353Y-92587137D02*
X129680304Y-93301904D01*
X129677638Y-93408350D01*
X129697327Y-93472751D01*
X129759061Y-93559507D01*
X129927242Y-93648931D01*
X130033688Y-93651597D01*
X130098089Y-93631908D01*
X130184846Y-93570173D01*
X130564894Y-92855406D01*
X64617463Y-89776015D02*
X65086935Y-88893067D01*
X65045914Y-89680235D01*
X65675566Y-89206048D01*
X65206095Y-90088996D01*
X66011927Y-89384895D02*
X66131087Y-90580823D01*
X66600559Y-89697876D02*
X65542456Y-90267842D01*
X66850163Y-89938457D02*
X66914564Y-89918767D01*
X67021010Y-89921434D01*
X67231236Y-90033213D01*
X67292970Y-90119969D01*
X67312660Y-90184370D01*
X67309993Y-90290816D01*
X67265282Y-90374907D01*
X67156169Y-90478686D01*
X66383358Y-90714958D01*
X66929945Y-91005583D01*
X67693732Y-90279126D02*
X68282364Y-90592107D01*
X67434486Y-91273853D01*
X71179910Y-80679644D02*
X70675368Y-80411375D01*
X70927639Y-80545509D02*
X71397111Y-79662562D01*
X71245953Y-79743986D01*
X71117151Y-79783364D01*
X71010705Y-79780698D01*
X72027788Y-79997899D02*
X71647739Y-80712666D01*
X71645073Y-80819112D01*
X71664762Y-80883513D01*
X71726496Y-80970269D01*
X71894677Y-81059693D01*
X72001123Y-81062359D01*
X72065524Y-81042670D01*
X72152281Y-80980935D01*
X72532329Y-80266168D01*
X84239892Y-93449135D02*
X84709364Y-92566187D01*
X84668343Y-93353355D01*
X85297995Y-92879168D01*
X84828524Y-93762116D01*
X85634356Y-93058015D02*
X85753516Y-94253943D01*
X86222988Y-93370996D02*
X85164885Y-93940962D01*
X86472592Y-93611577D02*
X86536993Y-93591887D01*
X86643439Y-93594554D01*
X86853665Y-93706333D01*
X86915399Y-93793089D01*
X86935089Y-93857490D01*
X86932422Y-93963936D01*
X86887711Y-94048027D01*
X86778598Y-94151806D01*
X86005787Y-94388078D01*
X86552374Y-94678703D01*
X87325185Y-94442431D02*
X87263450Y-94355675D01*
X87243761Y-94291274D01*
X87246427Y-94184828D01*
X87268783Y-94142783D01*
X87355540Y-94081048D01*
X87419941Y-94061359D01*
X87526387Y-94064025D01*
X87694567Y-94153448D01*
X87756302Y-94240205D01*
X87775991Y-94304606D01*
X87773325Y-94411052D01*
X87750969Y-94453097D01*
X87664212Y-94514832D01*
X87599811Y-94534521D01*
X87493365Y-94531855D01*
X87325185Y-94442431D01*
X87218739Y-94439765D01*
X87154338Y-94459454D01*
X87067581Y-94521189D01*
X86978158Y-94689369D01*
X86975491Y-94795815D01*
X86995181Y-94860216D01*
X87056915Y-94946973D01*
X87225096Y-95036396D01*
X87331542Y-95039062D01*
X87395943Y-95019373D01*
X87482699Y-94957639D01*
X87572123Y-94789458D01*
X87574789Y-94683012D01*
X87555100Y-94618611D01*
X87493365Y-94531855D01*
X90802339Y-84352764D02*
X90297797Y-84084495D01*
X90550068Y-84218629D02*
X91019540Y-83335682D01*
X90868382Y-83417106D01*
X90739580Y-83456484D01*
X90633134Y-83453818D01*
X91650217Y-83671019D02*
X91270168Y-84385786D01*
X91267502Y-84492232D01*
X91287191Y-84556633D01*
X91348925Y-84643389D01*
X91517106Y-84732813D01*
X91623552Y-84735479D01*
X91687953Y-84715790D01*
X91774710Y-84654055D01*
X92154758Y-83939288D01*
X98019278Y-108111422D02*
X98488750Y-107228474D01*
X98447729Y-108015642D01*
X99077381Y-107541455D01*
X98607910Y-108424403D01*
X99413742Y-107720302D02*
X99532902Y-108916230D01*
X100002374Y-108033283D02*
X98944271Y-108603249D01*
X100251978Y-108273864D02*
X100316379Y-108254174D01*
X100422825Y-108256841D01*
X100633051Y-108368620D01*
X100694785Y-108455376D01*
X100714475Y-108519777D01*
X100711808Y-108626223D01*
X100667097Y-108710314D01*
X100557984Y-108814093D01*
X99785173Y-109050365D01*
X100331760Y-109340990D01*
X100752211Y-109564548D02*
X100920391Y-109653971D01*
X101026837Y-109656638D01*
X101091238Y-109636949D01*
X101242396Y-109555525D01*
X101373864Y-109409700D01*
X101552711Y-109073339D01*
X101555377Y-108966893D01*
X101535688Y-108902492D01*
X101473953Y-108815735D01*
X101305773Y-108726312D01*
X101199327Y-108723646D01*
X101134926Y-108743335D01*
X101048169Y-108805070D01*
X100936390Y-109015295D01*
X100933724Y-109121741D01*
X100953413Y-109186142D01*
X101015148Y-109272899D01*
X101183328Y-109362322D01*
X101289774Y-109364988D01*
X101354175Y-109345299D01*
X101440932Y-109283565D01*
X104581725Y-99015051D02*
X104077183Y-98746782D01*
X104329454Y-98880916D02*
X104798926Y-97997969D01*
X104647768Y-98079393D01*
X104518966Y-98118771D01*
X104412520Y-98116105D01*
X105429603Y-98333306D02*
X105049554Y-99048073D01*
X105046888Y-99154519D01*
X105066577Y-99218920D01*
X105128311Y-99305676D01*
X105296492Y-99395100D01*
X105402938Y-99397766D01*
X105467339Y-99378077D01*
X105554096Y-99316342D01*
X105934144Y-98601575D01*
X113706592Y-119185406D02*
X114176064Y-118302458D01*
X114135043Y-119089626D01*
X114764695Y-118615439D01*
X114295224Y-119498387D01*
X115101056Y-118794286D02*
X115220216Y-119990214D01*
X115689688Y-119107267D02*
X114631585Y-119677233D01*
X115941959Y-119241402D02*
X116488545Y-119532027D01*
X116015383Y-119711897D01*
X116141518Y-119778965D01*
X116203253Y-119865721D01*
X116222942Y-119930122D01*
X116220276Y-120036568D01*
X116108497Y-120246794D01*
X116021740Y-120308528D01*
X115957339Y-120328218D01*
X115850893Y-120325551D01*
X115598622Y-120191416D01*
X115536888Y-120104660D01*
X115517199Y-120040259D01*
X117035132Y-119822652D02*
X117119222Y-119867364D01*
X117180957Y-119954120D01*
X117200646Y-120018521D01*
X117197979Y-120124967D01*
X117150601Y-120315504D01*
X117038823Y-120525729D01*
X116907354Y-120671554D01*
X116820598Y-120733288D01*
X116756197Y-120752978D01*
X116649751Y-120750311D01*
X116565660Y-120705600D01*
X116503926Y-120618843D01*
X116484237Y-120554442D01*
X116486903Y-120447996D01*
X116534281Y-120257460D01*
X116646060Y-120047234D01*
X116777528Y-119901409D01*
X116864285Y-119839675D01*
X116928686Y-119819986D01*
X117035132Y-119822652D01*
X120269039Y-110089035D02*
X119764497Y-109820766D01*
X120016768Y-109954900D02*
X120486240Y-109071953D01*
X120335082Y-109153377D01*
X120206280Y-109192755D01*
X120099834Y-109190089D01*
X121116917Y-109407290D02*
X120736868Y-110122057D01*
X120734202Y-110228503D01*
X120753891Y-110292904D01*
X120815625Y-110379660D01*
X120983806Y-110469084D01*
X121090252Y-110471750D01*
X121154653Y-110452061D01*
X121241410Y-110390326D01*
X121621458Y-109675559D01*
X33249328Y-108193363D02*
X33718800Y-107310415D01*
X33677779Y-108097583D01*
X34307431Y-107623396D01*
X33837960Y-108506344D01*
X34643792Y-107802243D02*
X34762952Y-108998171D01*
X35232424Y-108115224D02*
X34174321Y-108685190D01*
X35484695Y-108249359D02*
X36031281Y-108539984D01*
X35558119Y-108719854D01*
X35684254Y-108786922D01*
X35745989Y-108873678D01*
X35765678Y-108938079D01*
X35763012Y-109044525D01*
X35651233Y-109254751D01*
X35564476Y-109316485D01*
X35500075Y-109336175D01*
X35393629Y-109333508D01*
X35141358Y-109199373D01*
X35079624Y-109112617D01*
X35059935Y-109048216D01*
X36325597Y-108696474D02*
X36914229Y-109009455D01*
X36066351Y-109691201D01*
X39811775Y-99096992D02*
X39307233Y-98828723D01*
X39559504Y-98962857D02*
X40028976Y-98079910D01*
X39877818Y-98161334D01*
X39749016Y-98200712D01*
X39642570Y-98198046D01*
X40659653Y-98415247D02*
X40279604Y-99130014D01*
X40276938Y-99236460D01*
X40296627Y-99300861D01*
X40358361Y-99387617D01*
X40526542Y-99477041D01*
X40632988Y-99479707D01*
X40697389Y-99460018D01*
X40784146Y-99398283D01*
X41164194Y-98683516D01*
X95670395Y-130945905D02*
X96352393Y-130214551D01*
X96109036Y-130964279D01*
X96839962Y-130669217D01*
X96157964Y-131400570D01*
X97118573Y-130929026D02*
X96924144Y-132115045D01*
X97606142Y-131383691D02*
X96436575Y-131660379D01*
X97815101Y-131578548D02*
X98267843Y-132000737D01*
X97764250Y-132052015D01*
X97868729Y-132149444D01*
X97905906Y-132249222D01*
X97908256Y-132316525D01*
X97878130Y-132418654D01*
X97715749Y-132592786D01*
X97615971Y-132629962D01*
X97548668Y-132632312D01*
X97446540Y-132602187D01*
X97237581Y-132407330D01*
X97200405Y-132307551D01*
X97198054Y-132240249D01*
X98393475Y-132703888D02*
X98356298Y-132604109D01*
X98353948Y-132536807D01*
X98384074Y-132434678D01*
X98416550Y-132399852D01*
X98516328Y-132362675D01*
X98583631Y-132360325D01*
X98685760Y-132390451D01*
X98825065Y-132520355D01*
X98862242Y-132620134D01*
X98864592Y-132687436D01*
X98834466Y-132789565D01*
X98801990Y-132824391D01*
X98702212Y-132861568D01*
X98634909Y-132863918D01*
X98532780Y-132833792D01*
X98393475Y-132703888D01*
X98291346Y-132673762D01*
X98224043Y-132676112D01*
X98124265Y-132713289D01*
X97994360Y-132852594D01*
X97964235Y-132954723D01*
X97966585Y-133022026D01*
X98003761Y-133121804D01*
X98143067Y-133251709D01*
X98245196Y-133281835D01*
X98312498Y-133279484D01*
X98412277Y-133242308D01*
X98542181Y-133103002D01*
X98572307Y-133000873D01*
X98569957Y-132933571D01*
X98532780Y-132833792D01*
X104363546Y-123857972D02*
X103945629Y-123468259D01*
X104154587Y-123663116D02*
X104836586Y-122931762D01*
X104669505Y-122971289D01*
X104534900Y-122975989D01*
X104432771Y-122945864D01*
X105358981Y-123418904D02*
X104806887Y-124010952D01*
X104776761Y-124113081D01*
X104779112Y-124180383D01*
X104816288Y-124280162D01*
X104955594Y-124410066D01*
X105057723Y-124440192D01*
X105125025Y-124437842D01*
X105224804Y-124400665D01*
X105776898Y-123808617D01*
X191653528Y-61243299D02*
X191184057Y-60360352D01*
X191813709Y-60834538D01*
X191772688Y-60047371D01*
X192242160Y-60930318D01*
X192109049Y-59868525D02*
X193167153Y-60438491D01*
X192697681Y-59555543D02*
X192578521Y-60751472D01*
X193545559Y-60237289D02*
X193713739Y-60147866D01*
X193775474Y-60061109D01*
X193795163Y-59996708D01*
X193812186Y-59825861D01*
X193764808Y-59635325D01*
X193585962Y-59298964D01*
X193499205Y-59237230D01*
X193434804Y-59217540D01*
X193328358Y-59220207D01*
X193160177Y-59309630D01*
X193098443Y-59396387D01*
X193078754Y-59460787D01*
X193081420Y-59567233D01*
X193193199Y-59777459D01*
X193279956Y-59839194D01*
X193344357Y-59858883D01*
X193450803Y-59856216D01*
X193618983Y-59766793D01*
X193680718Y-59680037D01*
X193700407Y-59615636D01*
X193697740Y-59509190D01*
X187361518Y-50939716D02*
X186856976Y-51207986D01*
X187109247Y-51073851D02*
X186639776Y-50190903D01*
X186622753Y-50361750D01*
X186583374Y-50490552D01*
X186521640Y-50577309D01*
X187270452Y-49855566D02*
X187650501Y-50570334D01*
X187737258Y-50632068D01*
X187801658Y-50651757D01*
X187908104Y-50649091D01*
X188076285Y-50559668D01*
X188138019Y-50472911D01*
X188157709Y-50408510D01*
X188155042Y-50302064D01*
X187774994Y-49587297D01*
X210848343Y-57787893D02*
X210378871Y-56904946D01*
X211008524Y-57379132D01*
X210967503Y-56591965D01*
X211436975Y-57474912D01*
X211303864Y-56413118D02*
X212361967Y-56983085D01*
X211892496Y-56100137D02*
X211773336Y-57296066D01*
X213160825Y-56558325D02*
X212656283Y-56826594D01*
X212908554Y-56692460D02*
X212439082Y-55809512D01*
X212422060Y-55980359D01*
X212382681Y-56109161D01*
X212320946Y-56195918D01*
X213237940Y-55384752D02*
X213322030Y-55340041D01*
X213428476Y-55337374D01*
X213492877Y-55357063D01*
X213579634Y-55418798D01*
X213711102Y-55564623D01*
X213822881Y-55774848D01*
X213870259Y-55965384D01*
X213872925Y-56071831D01*
X213853236Y-56136231D01*
X213791502Y-56222988D01*
X213707411Y-56267700D01*
X213600965Y-56270366D01*
X213536564Y-56250677D01*
X213449808Y-56188942D01*
X213318339Y-56043118D01*
X213206560Y-55832892D01*
X213159182Y-55642356D01*
X213156516Y-55535910D01*
X213176205Y-55471509D01*
X213237940Y-55384752D01*
X206976784Y-47260752D02*
X206472242Y-47529022D01*
X206724513Y-47394887D02*
X206255042Y-46511939D01*
X206238019Y-46682786D01*
X206198640Y-46811588D01*
X206136906Y-46898345D01*
X206885718Y-46176602D02*
X207265767Y-46891370D01*
X207352524Y-46953104D01*
X207416924Y-46972793D01*
X207523370Y-46970127D01*
X207691551Y-46880704D01*
X207753285Y-46793947D01*
X207772975Y-46729546D01*
X207770308Y-46623100D01*
X207390260Y-45908333D01*
X233283074Y-59386857D02*
X232813602Y-58503910D01*
X233443255Y-58978096D01*
X233402234Y-58190929D01*
X233871706Y-59073876D01*
X233738595Y-58012082D02*
X234796698Y-58582049D01*
X234327227Y-57699101D02*
X234208067Y-58895030D01*
X235595556Y-58157289D02*
X235091014Y-58425558D01*
X235343285Y-58291424D02*
X234873813Y-57408476D01*
X234856791Y-57579323D01*
X234817412Y-57708125D01*
X234755677Y-57794882D01*
X236436458Y-57710173D02*
X235931917Y-57978443D01*
X236184187Y-57844308D02*
X235714716Y-56961360D01*
X235697693Y-57132207D01*
X235658314Y-57261009D01*
X235596580Y-57347766D01*
X229411515Y-48859716D02*
X228906973Y-49127986D01*
X229159244Y-48993851D02*
X228689773Y-48110903D01*
X228672750Y-48281750D01*
X228633371Y-48410552D01*
X228571637Y-48497309D01*
X229320449Y-47775566D02*
X229700498Y-48490334D01*
X229787255Y-48552068D01*
X229851655Y-48571757D01*
X229958101Y-48569091D01*
X230126282Y-48479668D01*
X230188016Y-48392911D01*
X230207706Y-48328510D01*
X230205039Y-48222064D01*
X229824991Y-47507297D01*
X250103075Y-50446853D02*
X249633603Y-49563906D01*
X250263256Y-50038092D01*
X250222235Y-49250925D01*
X250691707Y-50133872D01*
X250558596Y-49072078D02*
X251616699Y-49642045D01*
X251147228Y-48759097D02*
X251028068Y-49955026D01*
X252415557Y-49217285D02*
X251911015Y-49485554D01*
X252163286Y-49351420D02*
X251693814Y-48468472D01*
X251676792Y-48639319D01*
X251637413Y-48768121D01*
X251575678Y-48854878D01*
X252327158Y-48239581D02*
X252346847Y-48175180D01*
X252408582Y-48088424D01*
X252618807Y-47976645D01*
X252725253Y-47973978D01*
X252789654Y-47993668D01*
X252876411Y-48055402D01*
X252921122Y-48139492D01*
X252946145Y-48287984D01*
X252709873Y-49060794D01*
X253256459Y-48770169D01*
X246231516Y-39919712D02*
X245726974Y-40187982D01*
X245979245Y-40053847D02*
X245509774Y-39170899D01*
X245492751Y-39341746D01*
X245453372Y-39470548D01*
X245391638Y-39557305D01*
X246140450Y-38835562D02*
X246520499Y-39550330D01*
X246607256Y-39612064D01*
X246671656Y-39631753D01*
X246778102Y-39629087D01*
X246946283Y-39539664D01*
X247008017Y-39452907D01*
X247027707Y-39388506D01*
X247025040Y-39282060D01*
X246644992Y-38567293D01*
X170712269Y-104019570D02*
X170242797Y-103136623D01*
X170872450Y-103610809D01*
X170831429Y-102823642D01*
X171300901Y-103706589D01*
X171167790Y-102644795D02*
X172225893Y-103214762D01*
X171756422Y-102331814D02*
X171637262Y-103527743D01*
X173024751Y-102790002D02*
X172520209Y-103058271D01*
X172772480Y-102924137D02*
X172303008Y-102041189D01*
X172285986Y-102212036D01*
X172246607Y-102340838D01*
X172184872Y-102427595D01*
X173445202Y-102566444D02*
X173613382Y-102477021D01*
X173675117Y-102390264D01*
X173694806Y-102325863D01*
X173711829Y-102155016D01*
X173664451Y-101964480D01*
X173485605Y-101628119D01*
X173398848Y-101566385D01*
X173334447Y-101546695D01*
X173228001Y-101549362D01*
X173059821Y-101638785D01*
X172998086Y-101725542D01*
X172978397Y-101789943D01*
X172981063Y-101896389D01*
X173092842Y-102106614D01*
X173179599Y-102168349D01*
X173244000Y-102188038D01*
X173350446Y-102185372D01*
X173518626Y-102095948D01*
X173580361Y-102009192D01*
X173600050Y-101944791D01*
X173597384Y-101838345D01*
X166840710Y-93492429D02*
X166336168Y-93760699D01*
X166588439Y-93626564D02*
X166118968Y-92743616D01*
X166101945Y-92914463D01*
X166062566Y-93043265D01*
X166000832Y-93130022D01*
X166749644Y-92408279D02*
X167129693Y-93123047D01*
X167216450Y-93184781D01*
X167280850Y-93204470D01*
X167387296Y-93201804D01*
X167555477Y-93112381D01*
X167617211Y-93025624D01*
X167636901Y-92961223D01*
X167634234Y-92854777D01*
X167254186Y-92140010D01*
X186393075Y-92946857D02*
X185923603Y-92063910D01*
X186553256Y-92538096D01*
X186512235Y-91750929D01*
X186981707Y-92633876D01*
X186848596Y-91572082D02*
X187906699Y-92142049D01*
X187437228Y-91259101D02*
X187318068Y-92455030D01*
X187776255Y-91186701D02*
X187795945Y-91122300D01*
X187857679Y-91035543D01*
X188067905Y-90923765D01*
X188174351Y-90921098D01*
X188238752Y-90940787D01*
X188325508Y-91002522D01*
X188370220Y-91086612D01*
X188395242Y-91235103D01*
X188158970Y-92007914D01*
X188705557Y-91717289D01*
X188782672Y-90543716D02*
X188866762Y-90499005D01*
X188973208Y-90496338D01*
X189037609Y-90516027D01*
X189124366Y-90577762D01*
X189255834Y-90723587D01*
X189367613Y-90933812D01*
X189414991Y-91124348D01*
X189417657Y-91230795D01*
X189397968Y-91295195D01*
X189336234Y-91381952D01*
X189252143Y-91426664D01*
X189145697Y-91429330D01*
X189081296Y-91409641D01*
X188994540Y-91347906D01*
X188863071Y-91202082D01*
X188751292Y-90991856D01*
X188703914Y-90801320D01*
X188701248Y-90694874D01*
X188720937Y-90630473D01*
X188782672Y-90543716D01*
X182521516Y-82419716D02*
X182016974Y-82687986D01*
X182269245Y-82553851D02*
X181799774Y-81670903D01*
X181782751Y-81841750D01*
X181743372Y-81970552D01*
X181681638Y-82057309D01*
X182430450Y-81335566D02*
X182810499Y-82050334D01*
X182897256Y-82112068D01*
X182961656Y-82131757D01*
X183068102Y-82129091D01*
X183236283Y-82039668D01*
X183298017Y-81952911D01*
X183317707Y-81888510D01*
X183315040Y-81782064D01*
X182934992Y-81067297D01*
X200173077Y-78286856D02*
X199703605Y-77403909D01*
X200333258Y-77878095D01*
X200292237Y-77090928D01*
X200761709Y-77973875D01*
X200628598Y-76912081D02*
X201686701Y-77482048D01*
X201217230Y-76599100D02*
X201098070Y-77795029D01*
X201556257Y-76526700D02*
X201575947Y-76462299D01*
X201637681Y-76375542D01*
X201847907Y-76263764D01*
X201954353Y-76261097D01*
X202018754Y-76280786D01*
X202105510Y-76342521D01*
X202150222Y-76426611D01*
X202175244Y-76575102D01*
X201938972Y-77347913D01*
X202485559Y-77057288D01*
X203326461Y-76610172D02*
X202821920Y-76878442D01*
X203074190Y-76744307D02*
X202604719Y-75861359D01*
X202587696Y-76032206D01*
X202548317Y-76161008D01*
X202486583Y-76247765D01*
X196301518Y-67759715D02*
X195796976Y-68027985D01*
X196049247Y-67893850D02*
X195579776Y-67010902D01*
X195562753Y-67181749D01*
X195523374Y-67310551D01*
X195461640Y-67397308D01*
X196210452Y-66675565D02*
X196590501Y-67390333D01*
X196677258Y-67452067D01*
X196741658Y-67471756D01*
X196848104Y-67469090D01*
X197016285Y-67379667D01*
X197078019Y-67292910D01*
X197097709Y-67228509D01*
X197095042Y-67122063D01*
X196714994Y-66407296D01*
X219803075Y-74606856D02*
X219333603Y-73723909D01*
X219963256Y-74198095D01*
X219922235Y-73410928D01*
X220391707Y-74293875D01*
X220258596Y-73232081D02*
X221316699Y-73802048D01*
X220847228Y-72919100D02*
X220728068Y-74115029D01*
X221186255Y-72846700D02*
X221205945Y-72782299D01*
X221267679Y-72695542D01*
X221477905Y-72583764D01*
X221584351Y-72581097D01*
X221648752Y-72600786D01*
X221735508Y-72662521D01*
X221780220Y-72746611D01*
X221805242Y-72895102D01*
X221568970Y-73667913D01*
X222115557Y-73377288D01*
X222027158Y-72399584D02*
X222046847Y-72335183D01*
X222108582Y-72248427D01*
X222318807Y-72136648D01*
X222425253Y-72133981D01*
X222489654Y-72153671D01*
X222576411Y-72215405D01*
X222621122Y-72299495D01*
X222646145Y-72447987D01*
X222409873Y-73220797D01*
X222956459Y-72930172D01*
X215931516Y-64079715D02*
X215426974Y-64347985D01*
X215679245Y-64213850D02*
X215209774Y-63330902D01*
X215192751Y-63501749D01*
X215153372Y-63630551D01*
X215091638Y-63717308D01*
X215840450Y-62995565D02*
X216220499Y-63710333D01*
X216307256Y-63772067D01*
X216371656Y-63791756D01*
X216478102Y-63789090D01*
X216646283Y-63699667D01*
X216708017Y-63612910D01*
X216727707Y-63548509D01*
X216725040Y-63442063D01*
X216344992Y-62727296D01*
X242223076Y-76206857D02*
X241753604Y-75323910D01*
X242383257Y-75798096D01*
X242342236Y-75010929D01*
X242811708Y-75893876D01*
X242678597Y-74832082D02*
X243736700Y-75402049D01*
X243267229Y-74519101D02*
X243148069Y-75715030D01*
X243606256Y-74446701D02*
X243625946Y-74382300D01*
X243687680Y-74295543D01*
X243897906Y-74183765D01*
X244004352Y-74181098D01*
X244068753Y-74200787D01*
X244155509Y-74262522D01*
X244200221Y-74346612D01*
X244225243Y-74495103D01*
X243988971Y-75267914D01*
X244535558Y-74977289D01*
X244360402Y-73937851D02*
X244906989Y-73647226D01*
X244791519Y-74140077D01*
X244917654Y-74073010D01*
X245024100Y-74070343D01*
X245088501Y-74090033D01*
X245175258Y-74151767D01*
X245287037Y-74361993D01*
X245289703Y-74468439D01*
X245270014Y-74532840D01*
X245208280Y-74619596D01*
X244956009Y-74753731D01*
X244849563Y-74756398D01*
X244785162Y-74736708D01*
X238351517Y-65679716D02*
X237846975Y-65947986D01*
X238099246Y-65813851D02*
X237629775Y-64930903D01*
X237612752Y-65101750D01*
X237573373Y-65230552D01*
X237511639Y-65317309D01*
X238260451Y-64595566D02*
X238640500Y-65310334D01*
X238727257Y-65372068D01*
X238791657Y-65391757D01*
X238898103Y-65389091D01*
X239066284Y-65299668D01*
X239128018Y-65212911D01*
X239147708Y-65148510D01*
X239145041Y-65042064D01*
X238764993Y-64327297D01*
X259043074Y-67266857D02*
X258573602Y-66383910D01*
X259203255Y-66858096D01*
X259162234Y-66070929D01*
X259631706Y-66953876D01*
X259498595Y-65892082D02*
X260556698Y-66462049D01*
X260087227Y-65579101D02*
X259968067Y-66775030D01*
X260426254Y-65506701D02*
X260445944Y-65442300D01*
X260507678Y-65355543D01*
X260717904Y-65243765D01*
X260824350Y-65241098D01*
X260888751Y-65260787D01*
X260975507Y-65322522D01*
X261020219Y-65406612D01*
X261045241Y-65555103D01*
X260808969Y-66327914D01*
X261355556Y-66037289D01*
X261799387Y-65046253D02*
X262112368Y-65634885D01*
X261410315Y-64821671D02*
X261535426Y-65564127D01*
X262082013Y-65273502D01*
X255171515Y-56739716D02*
X254666973Y-57007986D01*
X254919244Y-56873851D02*
X254449773Y-55990903D01*
X254432750Y-56161750D01*
X254393371Y-56290552D01*
X254331637Y-56377309D01*
X255080449Y-55655566D02*
X255460498Y-56370334D01*
X255547255Y-56432068D01*
X255611655Y-56451757D01*
X255718101Y-56449091D01*
X255886282Y-56359668D01*
X255948016Y-56272911D01*
X255967706Y-56208510D01*
X255965039Y-56102064D01*
X255584991Y-55387297D01*
X179654579Y-120840318D02*
X179185107Y-119957371D01*
X179814760Y-120431557D01*
X179773739Y-119644390D01*
X180243211Y-120527337D01*
X180110100Y-119465543D02*
X181168203Y-120035510D01*
X180698732Y-119152562D02*
X180579572Y-120348491D01*
X180951003Y-119018428D02*
X181497589Y-118727802D01*
X181382120Y-119220654D01*
X181508255Y-119153587D01*
X181614701Y-119150920D01*
X181679102Y-119170609D01*
X181765859Y-119232344D01*
X181877638Y-119442569D01*
X181880304Y-119549016D01*
X181860615Y-119613416D01*
X181798880Y-119700173D01*
X181546609Y-119834308D01*
X181440163Y-119836974D01*
X181375763Y-119817285D01*
X182807963Y-119163634D02*
X182303422Y-119431904D01*
X182555692Y-119297769D02*
X182086221Y-118414821D01*
X182069198Y-118585668D01*
X182029819Y-118714470D01*
X181968085Y-118801227D01*
X175783020Y-110313177D02*
X175278478Y-110581447D01*
X175530749Y-110447312D02*
X175061278Y-109564364D01*
X175044255Y-109735211D01*
X175004876Y-109864013D01*
X174943142Y-109950770D01*
X175691954Y-109229027D02*
X176072003Y-109943795D01*
X176158760Y-110005529D01*
X176223160Y-110025218D01*
X176329606Y-110022552D01*
X176497787Y-109933129D01*
X176559521Y-109846372D01*
X176579211Y-109781971D01*
X176576544Y-109675525D01*
X176196496Y-108960758D01*
X195343076Y-109766857D02*
X194873604Y-108883910D01*
X195503257Y-109358096D01*
X195462236Y-108570929D01*
X195931708Y-109453876D01*
X195798597Y-108392082D02*
X196856700Y-108962049D01*
X196387229Y-108079101D02*
X196268069Y-109275030D01*
X196639500Y-107944967D02*
X197186086Y-107654341D01*
X197070617Y-108147193D01*
X197196752Y-108080126D01*
X197303198Y-108077459D01*
X197367599Y-108097148D01*
X197454356Y-108158883D01*
X197566135Y-108369108D01*
X197568801Y-108475555D01*
X197549112Y-108539955D01*
X197487377Y-108626712D01*
X197235106Y-108760847D01*
X197128660Y-108763513D01*
X197064260Y-108743824D01*
X197567159Y-107559585D02*
X197586848Y-107495184D01*
X197648583Y-107408428D01*
X197858808Y-107296649D01*
X197965254Y-107293982D01*
X198029655Y-107313672D01*
X198116412Y-107375406D01*
X198161123Y-107459496D01*
X198186146Y-107607988D01*
X197949874Y-108380798D01*
X198496460Y-108090173D01*
X191471517Y-99239716D02*
X190966975Y-99507986D01*
X191219246Y-99373851D02*
X190749775Y-98490903D01*
X190732752Y-98661750D01*
X190693373Y-98790552D01*
X190631639Y-98877309D01*
X191380451Y-98155566D02*
X191760500Y-98870334D01*
X191847257Y-98932068D01*
X191911657Y-98951757D01*
X192018103Y-98949091D01*
X192186284Y-98859668D01*
X192248018Y-98772911D01*
X192267708Y-98708510D01*
X192265041Y-98602064D01*
X191884993Y-97887297D01*
X251163074Y-93026858D02*
X250693602Y-92143911D01*
X251323255Y-92618097D01*
X251282234Y-91830930D01*
X251751706Y-92713877D01*
X251618595Y-91652083D02*
X252676698Y-92222050D01*
X252207227Y-91339102D02*
X252088067Y-92535031D01*
X252459498Y-91204968D02*
X253006084Y-90914342D01*
X252890615Y-91407194D01*
X253016750Y-91340127D01*
X253123196Y-91337460D01*
X253187597Y-91357149D01*
X253274354Y-91418884D01*
X253386133Y-91629109D01*
X253388799Y-91735556D01*
X253369110Y-91799956D01*
X253307375Y-91886713D01*
X253055104Y-92020848D01*
X252948658Y-92023514D01*
X252884258Y-92003825D01*
X253804941Y-90489582D02*
X253384490Y-90713140D01*
X253566003Y-91155947D01*
X253585692Y-91091546D01*
X253647427Y-91004790D01*
X253857652Y-90893011D01*
X253964098Y-90890344D01*
X254028499Y-90910034D01*
X254115256Y-90971768D01*
X254227035Y-91181994D01*
X254229701Y-91288440D01*
X254210012Y-91352841D01*
X254148278Y-91439597D01*
X253938052Y-91551376D01*
X253831606Y-91554043D01*
X253767205Y-91534353D01*
X247291515Y-82499717D02*
X246786973Y-82767987D01*
X247039244Y-82633852D02*
X246569773Y-81750904D01*
X246552750Y-81921751D01*
X246513371Y-82050553D01*
X246451637Y-82137310D01*
X247200449Y-81415567D02*
X247580498Y-82130335D01*
X247667255Y-82192069D01*
X247731655Y-82211758D01*
X247838101Y-82209092D01*
X248006282Y-82119669D01*
X248068016Y-82032912D01*
X248087706Y-81968511D01*
X248085039Y-81862065D01*
X247704991Y-81147298D01*
X267983075Y-84086857D02*
X267513603Y-83203910D01*
X268143256Y-83678096D01*
X268102235Y-82890929D01*
X268571707Y-83773876D01*
X268438596Y-82712082D02*
X269496699Y-83282049D01*
X269027228Y-82399101D02*
X268908068Y-83595030D01*
X269279499Y-82264967D02*
X269826085Y-81974341D01*
X269710616Y-82467193D01*
X269836751Y-82400126D01*
X269943197Y-82397459D01*
X270007598Y-82417148D01*
X270094355Y-82478883D01*
X270206134Y-82689108D01*
X270208800Y-82795555D01*
X270189111Y-82859955D01*
X270127376Y-82946712D01*
X269875105Y-83080847D01*
X269768659Y-83083513D01*
X269704259Y-83063824D01*
X270582897Y-81571937D02*
X270414717Y-81661360D01*
X270352982Y-81748117D01*
X270333293Y-81812518D01*
X270316270Y-81983365D01*
X270363648Y-82173901D01*
X270542495Y-82510262D01*
X270629251Y-82571997D01*
X270693652Y-82591686D01*
X270800098Y-82589020D01*
X270968279Y-82499596D01*
X271030013Y-82412840D01*
X271049702Y-82348439D01*
X271047036Y-82241993D01*
X270935257Y-82031767D01*
X270848500Y-81970033D01*
X270784099Y-81950343D01*
X270677653Y-81953010D01*
X270509473Y-82042433D01*
X270447738Y-82129190D01*
X270428049Y-82193591D01*
X270430716Y-82300037D01*
X264111516Y-73559716D02*
X263606974Y-73827986D01*
X263859245Y-73693851D02*
X263389774Y-72810903D01*
X263372751Y-72981750D01*
X263333372Y-73110552D01*
X263271638Y-73197309D01*
X264020450Y-72475566D02*
X264400499Y-73190334D01*
X264487256Y-73252068D01*
X264551656Y-73271757D01*
X264658102Y-73269091D01*
X264826283Y-73179668D01*
X264888017Y-73092911D01*
X264907707Y-73028510D01*
X264905040Y-72922064D01*
X264524992Y-72207297D01*
X25372608Y-82429777D02*
X25842080Y-81546829D01*
X25801059Y-82333997D01*
X26430711Y-81859810D01*
X25961240Y-82742758D01*
X26767072Y-82038657D02*
X26886232Y-83234585D01*
X27355704Y-82351638D02*
X26297601Y-82921604D01*
X27605308Y-82592219D02*
X27669709Y-82572529D01*
X27776155Y-82575196D01*
X27986381Y-82686975D01*
X28048115Y-82773731D01*
X28067805Y-82838132D01*
X28065138Y-82944578D01*
X28020427Y-83028669D01*
X27911314Y-83132448D01*
X27138503Y-83368720D01*
X27685090Y-83659345D01*
X28953419Y-83201158D02*
X28532967Y-82977600D01*
X28267364Y-83375695D01*
X28331765Y-83356006D01*
X28438211Y-83358672D01*
X28648437Y-83470451D01*
X28710171Y-83557208D01*
X28729861Y-83621609D01*
X28727194Y-83728055D01*
X28615415Y-83938281D01*
X28528659Y-84000015D01*
X28464258Y-84019704D01*
X28357812Y-84017038D01*
X28147586Y-83905259D01*
X28085852Y-83818502D01*
X28066162Y-83754101D01*
X31935055Y-73333406D02*
X31430513Y-73065137D01*
X31682784Y-73199271D02*
X32152256Y-72316324D01*
X32001098Y-72397748D01*
X31872296Y-72437126D01*
X31765850Y-72434460D01*
X32782933Y-72651661D02*
X32402884Y-73366428D01*
X32400218Y-73472874D01*
X32419907Y-73537275D01*
X32481641Y-73624031D01*
X32649822Y-73713455D01*
X32756268Y-73716121D01*
X32820669Y-73696432D01*
X32907426Y-73634697D01*
X33287474Y-72919930D01*
X209123073Y-95106855D02*
X208653601Y-94223908D01*
X209283254Y-94698094D01*
X209242233Y-93910927D01*
X209711705Y-94793874D01*
X209578594Y-93732080D02*
X210636697Y-94302047D01*
X210167226Y-93419099D02*
X210048066Y-94615028D01*
X210419497Y-93284965D02*
X210966083Y-92994339D01*
X210850614Y-93487191D01*
X210976749Y-93420124D01*
X211083195Y-93417457D01*
X211147596Y-93437146D01*
X211234353Y-93498881D01*
X211346132Y-93709106D01*
X211348798Y-93815553D01*
X211329109Y-93879953D01*
X211267374Y-93966710D01*
X211015103Y-94100845D01*
X210908657Y-94103511D01*
X210844257Y-94083822D01*
X211260399Y-92837849D02*
X211806986Y-92547224D01*
X211691516Y-93040075D01*
X211817651Y-92973008D01*
X211924097Y-92970341D01*
X211988498Y-92990031D01*
X212075255Y-93051765D01*
X212187034Y-93261991D01*
X212189700Y-93368437D01*
X212170011Y-93432838D01*
X212108277Y-93519594D01*
X211856006Y-93653729D01*
X211749560Y-93656396D01*
X211685159Y-93636706D01*
X205251514Y-84579714D02*
X204746972Y-84847984D01*
X204999243Y-84713849D02*
X204529772Y-83830901D01*
X204512749Y-84001748D01*
X204473370Y-84130550D01*
X204411636Y-84217307D01*
X205160448Y-83495564D02*
X205540497Y-84210332D01*
X205627254Y-84272066D01*
X205691654Y-84291755D01*
X205798100Y-84289089D01*
X205966281Y-84199666D01*
X206028015Y-84112909D01*
X206047705Y-84048508D01*
X206045038Y-83942062D01*
X205664990Y-83227295D01*
X42192761Y-91373210D02*
X42662233Y-90490262D01*
X42621212Y-91277430D01*
X43250864Y-90803243D01*
X42781393Y-91686191D01*
X43587225Y-90982090D02*
X43706385Y-92178018D01*
X44175857Y-91295071D02*
X43117754Y-91865037D01*
X44425461Y-91535652D02*
X44489862Y-91515962D01*
X44596308Y-91518629D01*
X44806534Y-91630408D01*
X44868268Y-91717164D01*
X44887958Y-91781565D01*
X44885291Y-91888011D01*
X44840580Y-91972102D01*
X44731467Y-92075881D01*
X43958656Y-92312153D01*
X44505243Y-92602778D01*
X45731527Y-92122235D02*
X45563346Y-92032812D01*
X45456900Y-92030145D01*
X45392499Y-92049835D01*
X45241341Y-92131258D01*
X45109873Y-92277083D01*
X44931027Y-92613444D01*
X44928360Y-92719890D01*
X44948050Y-92784291D01*
X45009784Y-92871048D01*
X45177965Y-92960471D01*
X45284411Y-92963137D01*
X45348812Y-92943448D01*
X45435568Y-92881714D01*
X45547347Y-92671488D01*
X45550014Y-92565042D01*
X45530324Y-92500641D01*
X45468590Y-92413884D01*
X45300409Y-92324461D01*
X45193963Y-92321795D01*
X45129563Y-92341484D01*
X45042806Y-92403219D01*
X48755208Y-82276839D02*
X48250666Y-82008570D01*
X48502937Y-82142704D02*
X48972409Y-81259757D01*
X48821251Y-81341181D01*
X48692449Y-81380559D01*
X48586003Y-81377893D01*
X49603086Y-81595094D02*
X49223037Y-82309861D01*
X49220371Y-82416307D01*
X49240060Y-82480708D01*
X49301794Y-82567464D01*
X49469975Y-82656888D01*
X49576421Y-82659554D01*
X49640822Y-82639865D01*
X49727579Y-82578130D01*
X50107627Y-81863363D01*
X198216091Y-133349123D02*
X197534093Y-132617769D01*
X198265019Y-132912832D01*
X198021662Y-132163104D01*
X198703660Y-132894458D01*
X198300273Y-131903295D02*
X199469840Y-132179983D01*
X198787842Y-131448629D02*
X198982271Y-132634649D01*
X199607223Y-131140320D02*
X200061888Y-131627889D01*
X199173282Y-131024090D02*
X199486292Y-131708866D01*
X199939035Y-131286676D01*
X199693327Y-130604250D02*
X200146070Y-130182061D01*
X200162094Y-130688005D01*
X200266574Y-130590576D01*
X200368702Y-130560451D01*
X200436005Y-130562801D01*
X200535783Y-130599977D01*
X200698164Y-130774109D01*
X200728290Y-130876238D01*
X200725940Y-130943541D01*
X200688763Y-131043319D01*
X200479805Y-131238176D01*
X200377676Y-131268302D01*
X200310374Y-131265951D01*
X191751828Y-124182720D02*
X191333911Y-124572433D01*
X191542870Y-124377576D02*
X190860871Y-123646223D01*
X190888647Y-123815654D01*
X190883946Y-123950259D01*
X190846770Y-124050037D01*
X191383267Y-123159081D02*
X191935361Y-123751129D01*
X192035139Y-123788306D01*
X192102442Y-123790656D01*
X192204571Y-123760530D01*
X192343876Y-123630626D01*
X192381053Y-123530847D01*
X192383403Y-123463545D01*
X192353277Y-123361416D01*
X191801183Y-122769367D01*
X162179287Y-86975862D02*
X161709816Y-86092915D01*
X162339468Y-86567101D01*
X162298447Y-85779934D01*
X162767919Y-86662881D01*
X162634808Y-85601088D02*
X163692912Y-86171054D01*
X163223440Y-85288106D02*
X163104280Y-86484035D01*
X163475711Y-85153972D02*
X164064343Y-84840991D01*
X164155408Y-85925140D01*
X157887277Y-76672279D02*
X157382735Y-76940549D01*
X157635006Y-76806414D02*
X157165535Y-75923466D01*
X157148512Y-76094313D01*
X157109133Y-76223115D01*
X157047399Y-76309872D01*
X157796211Y-75588129D02*
X158176260Y-76302897D01*
X158263017Y-76364631D01*
X158327417Y-76384320D01*
X158433863Y-76381654D01*
X158602044Y-76292231D01*
X158663778Y-76205474D01*
X158683468Y-76141073D01*
X158680801Y-76034627D01*
X158300753Y-75319860D01*
X260113075Y-109846857D02*
X259643603Y-108963910D01*
X260273256Y-109438096D01*
X260232235Y-108650929D01*
X260701707Y-109533876D01*
X260568596Y-108472082D02*
X261626699Y-109042049D01*
X261157228Y-108159101D02*
X261038068Y-109355030D01*
X262028485Y-108073369D02*
X262341466Y-108662001D01*
X261639413Y-107848787D02*
X261764525Y-108591243D01*
X262311111Y-108300617D01*
X262869388Y-107626253D02*
X263182369Y-108214885D01*
X262480316Y-107401671D02*
X262605427Y-108144127D01*
X263152014Y-107853502D01*
X256241516Y-99319716D02*
X255736974Y-99587986D01*
X255989245Y-99453851D02*
X255519774Y-98570903D01*
X255502751Y-98741750D01*
X255463372Y-98870552D01*
X255401638Y-98957309D01*
X256150450Y-98235566D02*
X256530499Y-98950334D01*
X256617256Y-99012068D01*
X256681656Y-99031757D01*
X256788102Y-99029091D01*
X256956283Y-98939668D01*
X257018017Y-98852911D01*
X257037707Y-98788510D01*
X257035040Y-98682064D01*
X256654992Y-97967297D01*
X60500081Y-57956467D02*
X60969553Y-57073519D01*
X60928532Y-57860687D01*
X61558184Y-57386500D01*
X61088713Y-58269448D01*
X61894545Y-57565347D02*
X62013706Y-58761275D01*
X62483177Y-57878328D02*
X61425074Y-58448294D01*
X62732781Y-58118908D02*
X62797182Y-58099219D01*
X62903628Y-58101886D01*
X63113854Y-58213665D01*
X63175588Y-58300421D01*
X63195278Y-58364822D01*
X63192611Y-58471268D01*
X63147900Y-58555358D01*
X63038787Y-58659138D01*
X62265976Y-58895410D01*
X62812563Y-59186035D01*
X66642077Y-48636538D02*
X66137535Y-48368269D01*
X66389806Y-48502403D02*
X66859278Y-47619456D01*
X66708120Y-47700880D01*
X66579318Y-47740258D01*
X66472872Y-47737592D01*
X67489955Y-47954793D02*
X67109906Y-48669560D01*
X67107240Y-48776006D01*
X67126929Y-48840407D01*
X67188663Y-48927163D01*
X67356844Y-49016587D01*
X67463290Y-49019253D01*
X67527691Y-48999564D01*
X67614448Y-48937829D01*
X67994496Y-48223062D01*
X228743076Y-91426856D02*
X228273604Y-90543909D01*
X228903257Y-91018095D01*
X228862236Y-90230928D01*
X229331708Y-91113875D01*
X229198597Y-90052081D02*
X230256700Y-90622048D01*
X229787229Y-89739100D02*
X229668069Y-90935029D01*
X230039500Y-89604966D02*
X230586086Y-89314340D01*
X230470617Y-89807192D01*
X230596752Y-89740125D01*
X230703198Y-89737458D01*
X230767599Y-89757147D01*
X230854356Y-89818882D01*
X230966135Y-90029107D01*
X230968801Y-90135554D01*
X230949112Y-90199954D01*
X230887377Y-90286711D01*
X230635106Y-90420846D01*
X230528660Y-90423512D01*
X230464260Y-90403823D01*
X231499389Y-89206252D02*
X231812370Y-89794884D01*
X231110317Y-88981670D02*
X231235428Y-89724126D01*
X231782015Y-89433501D01*
X224871517Y-80899715D02*
X224366975Y-81167985D01*
X224619246Y-81033850D02*
X224149775Y-80150902D01*
X224132752Y-80321749D01*
X224093373Y-80450551D01*
X224031639Y-80537308D01*
X224780451Y-79815565D02*
X225160500Y-80530333D01*
X225247257Y-80592067D01*
X225311657Y-80611756D01*
X225418103Y-80609090D01*
X225586284Y-80519667D01*
X225648018Y-80432910D01*
X225667708Y-80368509D01*
X225665041Y-80262063D01*
X225284993Y-79547296D01*
X142662459Y-42730714D02*
X142776745Y-42768809D01*
X142967221Y-42768809D01*
X143043412Y-42730714D01*
X143081507Y-42692619D01*
X143119602Y-42616428D01*
X143119602Y-42540238D01*
X143081507Y-42464047D01*
X143043412Y-42425952D01*
X142967221Y-42387857D01*
X142814840Y-42349762D01*
X142738650Y-42311666D01*
X142700554Y-42273571D01*
X142662459Y-42197381D01*
X142662459Y-42121190D01*
X142700554Y-42045000D01*
X142738650Y-42006905D01*
X142814840Y-41968809D01*
X143005316Y-41968809D01*
X143119602Y-42006905D01*
X143348173Y-41968809D02*
X143805316Y-41968809D01*
X143576745Y-42768809D02*
X143576745Y-41968809D01*
X149617188Y-36908809D02*
X150074331Y-36908809D01*
X149845760Y-37708809D02*
X149845760Y-36908809D01*
X150264807Y-36908809D02*
X150798141Y-37708809D01*
X150798141Y-36908809D02*
X150264807Y-37708809D01*
X151255284Y-36908809D02*
X151331474Y-36908809D01*
X151407665Y-36946905D01*
X151445760Y-36985000D01*
X151483855Y-37061190D01*
X151521950Y-37213571D01*
X151521950Y-37404047D01*
X151483855Y-37556428D01*
X151445760Y-37632619D01*
X151407665Y-37670714D01*
X151331474Y-37708809D01*
X151255284Y-37708809D01*
X151179093Y-37670714D01*
X151140998Y-37632619D01*
X151102903Y-37556428D01*
X151064807Y-37404047D01*
X151064807Y-37213571D01*
X151102903Y-37061190D01*
X151140998Y-36985000D01*
X151179093Y-36946905D01*
X151255284Y-36908809D01*
X152436236Y-36870714D02*
X151750522Y-37899285D01*
X152702903Y-37708809D02*
X152702903Y-36908809D01*
X152893379Y-36908809D01*
X153007665Y-36946905D01*
X153083855Y-37023095D01*
X153121950Y-37099285D01*
X153160045Y-37251666D01*
X153160045Y-37365952D01*
X153121950Y-37518333D01*
X153083855Y-37594524D01*
X153007665Y-37670714D01*
X152893379Y-37708809D01*
X152702903Y-37708809D01*
X153426712Y-36908809D02*
X153921950Y-36908809D01*
X153655284Y-37213571D01*
X153769569Y-37213571D01*
X153845760Y-37251666D01*
X153883855Y-37289762D01*
X153921950Y-37365952D01*
X153921950Y-37556428D01*
X153883855Y-37632619D01*
X153845760Y-37670714D01*
X153769569Y-37708809D01*
X153540998Y-37708809D01*
X153464807Y-37670714D01*
X153426712Y-37632619D01*
X142450983Y-62689762D02*
X142565269Y-62727857D01*
X142603364Y-62765952D01*
X142641459Y-62842143D01*
X142641459Y-62956428D01*
X142603364Y-63032619D01*
X142565269Y-63070714D01*
X142489078Y-63108809D01*
X142184316Y-63108809D01*
X142184316Y-62308809D01*
X142450983Y-62308809D01*
X142527173Y-62346905D01*
X142565269Y-62385000D01*
X142603364Y-62461190D01*
X142603364Y-62537381D01*
X142565269Y-62613571D01*
X142527173Y-62651666D01*
X142450983Y-62689762D01*
X142184316Y-62689762D01*
X142946221Y-62385000D02*
X142984316Y-62346905D01*
X143060507Y-62308809D01*
X143250983Y-62308809D01*
X143327173Y-62346905D01*
X143365269Y-62385000D01*
X143403364Y-62461190D01*
X143403364Y-62537381D01*
X143365269Y-62651666D01*
X142908126Y-63108809D01*
X143403364Y-63108809D01*
X142508126Y-55069762D02*
X142241459Y-55069762D01*
X142241459Y-55488809D02*
X142241459Y-54688809D01*
X142622412Y-54688809D01*
X142850983Y-54688809D02*
X143384316Y-54688809D01*
X143041459Y-55488809D01*
X142508126Y-52529762D02*
X142241459Y-52529762D01*
X142241459Y-52948809D02*
X142241459Y-52148809D01*
X142622412Y-52148809D01*
X143270031Y-52148809D02*
X143117650Y-52148809D01*
X143041459Y-52186905D01*
X143003364Y-52225000D01*
X142927173Y-52339285D01*
X142889078Y-52491666D01*
X142889078Y-52796428D01*
X142927173Y-52872619D01*
X142965269Y-52910714D01*
X143041459Y-52948809D01*
X143193840Y-52948809D01*
X143270031Y-52910714D01*
X143308126Y-52872619D01*
X143346221Y-52796428D01*
X143346221Y-52605952D01*
X143308126Y-52529762D01*
X143270031Y-52491666D01*
X143193840Y-52453571D01*
X143041459Y-52453571D01*
X142965269Y-52491666D01*
X142927173Y-52529762D01*
X142889078Y-52605952D01*
X142508126Y-49989762D02*
X142241459Y-49989762D01*
X142241459Y-50408809D02*
X142241459Y-49608809D01*
X142622412Y-49608809D01*
X143308126Y-49608809D02*
X142927173Y-49608809D01*
X142889078Y-49989762D01*
X142927173Y-49951666D01*
X143003364Y-49913571D01*
X143193840Y-49913571D01*
X143270031Y-49951666D01*
X143308126Y-49989762D01*
X143346221Y-50065952D01*
X143346221Y-50256428D01*
X143308126Y-50332619D01*
X143270031Y-50370714D01*
X143193840Y-50408809D01*
X143003364Y-50408809D01*
X142927173Y-50370714D01*
X142889078Y-50332619D01*
X142222412Y-37708809D02*
X141955745Y-37327857D01*
X141765269Y-37708809D02*
X141765269Y-36908809D01*
X142070031Y-36908809D01*
X142146221Y-36946905D01*
X142184316Y-36985000D01*
X142222412Y-37061190D01*
X142222412Y-37175476D01*
X142184316Y-37251666D01*
X142146221Y-37289762D01*
X142070031Y-37327857D01*
X141765269Y-37327857D01*
X142527173Y-37480238D02*
X142908126Y-37480238D01*
X142450983Y-37708809D02*
X142717650Y-36908809D01*
X142984316Y-37708809D01*
X143174793Y-36908809D02*
X143365269Y-37708809D01*
X143517650Y-37137381D01*
X143670031Y-37708809D01*
X143860507Y-36908809D01*
X142165269Y-39486905D02*
X142089078Y-39448809D01*
X141974793Y-39448809D01*
X141860507Y-39486905D01*
X141784316Y-39563095D01*
X141746221Y-39639285D01*
X141708126Y-39791666D01*
X141708126Y-39905952D01*
X141746221Y-40058333D01*
X141784316Y-40134524D01*
X141860507Y-40210714D01*
X141974793Y-40248809D01*
X142050983Y-40248809D01*
X142165269Y-40210714D01*
X142203364Y-40172619D01*
X142203364Y-39905952D01*
X142050983Y-39905952D01*
X142546221Y-40248809D02*
X142546221Y-39448809D01*
X143003364Y-40248809D01*
X143003364Y-39448809D01*
X143384316Y-40248809D02*
X143384316Y-39448809D01*
X143574793Y-39448809D01*
X143689078Y-39486905D01*
X143765269Y-39563095D01*
X143803364Y-39639285D01*
X143841459Y-39791666D01*
X143841459Y-39905952D01*
X143803364Y-40058333D01*
X143765269Y-40134524D01*
X143689078Y-40210714D01*
X143574793Y-40248809D01*
X143384316Y-40248809D01*
X141708126Y-44528809D02*
X141974793Y-45328809D01*
X142241459Y-44528809D01*
X142965269Y-45252619D02*
X142927173Y-45290714D01*
X142812888Y-45328809D01*
X142736697Y-45328809D01*
X142622412Y-45290714D01*
X142546221Y-45214524D01*
X142508126Y-45138333D01*
X142470031Y-44985952D01*
X142470031Y-44871666D01*
X142508126Y-44719285D01*
X142546221Y-44643095D01*
X142622412Y-44566905D01*
X142736697Y-44528809D01*
X142812888Y-44528809D01*
X142927173Y-44566905D01*
X142965269Y-44605000D01*
X143765269Y-45252619D02*
X143727173Y-45290714D01*
X143612888Y-45328809D01*
X143536697Y-45328809D01*
X143422412Y-45290714D01*
X143346221Y-45214524D01*
X143308126Y-45138333D01*
X143270031Y-44985952D01*
X143270031Y-44871666D01*
X143308126Y-44719285D01*
X143346221Y-44643095D01*
X143422412Y-44566905D01*
X143536697Y-44528809D01*
X143612888Y-44528809D01*
X143727173Y-44566905D01*
X143765269Y-44605000D01*
X142508126Y-47449762D02*
X142241459Y-47449762D01*
X142241459Y-47868809D02*
X142241459Y-47068809D01*
X142622412Y-47068809D01*
X143270031Y-47335476D02*
X143270031Y-47868809D01*
X143079554Y-47030714D02*
X142889078Y-47602143D01*
X143384316Y-47602143D01*
X142450983Y-57609762D02*
X142565269Y-57647857D01*
X142603364Y-57685952D01*
X142641459Y-57762143D01*
X142641459Y-57876428D01*
X142603364Y-57952619D01*
X142565269Y-57990714D01*
X142489078Y-58028809D01*
X142184316Y-58028809D01*
X142184316Y-57228809D01*
X142450983Y-57228809D01*
X142527173Y-57266905D01*
X142565269Y-57305000D01*
X142603364Y-57381190D01*
X142603364Y-57457381D01*
X142565269Y-57533571D01*
X142527173Y-57571666D01*
X142450983Y-57609762D01*
X142184316Y-57609762D01*
X143403364Y-58028809D02*
X142946221Y-58028809D01*
X143174793Y-58028809D02*
X143174793Y-57228809D01*
X143098602Y-57343095D01*
X143022412Y-57419285D01*
X142946221Y-57457381D01*
X142450983Y-60149762D02*
X142565269Y-60187857D01*
X142603364Y-60225952D01*
X142641459Y-60302143D01*
X142641459Y-60416428D01*
X142603364Y-60492619D01*
X142565269Y-60530714D01*
X142489078Y-60568809D01*
X142184316Y-60568809D01*
X142184316Y-59768809D01*
X142450983Y-59768809D01*
X142527173Y-59806905D01*
X142565269Y-59845000D01*
X142603364Y-59921190D01*
X142603364Y-59997381D01*
X142565269Y-60073571D01*
X142527173Y-60111666D01*
X142450983Y-60149762D01*
X142184316Y-60149762D01*
X142908126Y-59768809D02*
X143403364Y-59768809D01*
X143136697Y-60073571D01*
X143250983Y-60073571D01*
X143327173Y-60111666D01*
X143365269Y-60149762D01*
X143403364Y-60225952D01*
X143403364Y-60416428D01*
X143365269Y-60492619D01*
X143327173Y-60530714D01*
X143250983Y-60568809D01*
X143022412Y-60568809D01*
X142946221Y-60530714D01*
X142908126Y-60492619D01*
X142450983Y-65229762D02*
X142565269Y-65267857D01*
X142603364Y-65305952D01*
X142641459Y-65382143D01*
X142641459Y-65496428D01*
X142603364Y-65572619D01*
X142565269Y-65610714D01*
X142489078Y-65648809D01*
X142184316Y-65648809D01*
X142184316Y-64848809D01*
X142450983Y-64848809D01*
X142527173Y-64886905D01*
X142565269Y-64925000D01*
X142603364Y-65001190D01*
X142603364Y-65077381D01*
X142565269Y-65153571D01*
X142527173Y-65191666D01*
X142450983Y-65229762D01*
X142184316Y-65229762D01*
X143327173Y-64848809D02*
X143174793Y-64848809D01*
X143098602Y-64886905D01*
X143060507Y-64925000D01*
X142984316Y-65039285D01*
X142946221Y-65191666D01*
X142946221Y-65496428D01*
X142984316Y-65572619D01*
X143022412Y-65610714D01*
X143098602Y-65648809D01*
X143250983Y-65648809D01*
X143327173Y-65610714D01*
X143365269Y-65572619D01*
X143403364Y-65496428D01*
X143403364Y-65305952D01*
X143365269Y-65229762D01*
X143327173Y-65191666D01*
X143250983Y-65153571D01*
X143098602Y-65153571D01*
X143022412Y-65191666D01*
X142984316Y-65229762D01*
X142946221Y-65305952D01*
X153372983Y-65229762D02*
X153487269Y-65267857D01*
X153525364Y-65305952D01*
X153563459Y-65382143D01*
X153563459Y-65496428D01*
X153525364Y-65572619D01*
X153487269Y-65610714D01*
X153411078Y-65648809D01*
X153106316Y-65648809D01*
X153106316Y-64848809D01*
X153372983Y-64848809D01*
X153449173Y-64886905D01*
X153487269Y-64925000D01*
X153525364Y-65001190D01*
X153525364Y-65077381D01*
X153487269Y-65153571D01*
X153449173Y-65191666D01*
X153372983Y-65229762D01*
X153106316Y-65229762D01*
X154287269Y-64848809D02*
X153906316Y-64848809D01*
X153868221Y-65229762D01*
X153906316Y-65191666D01*
X153982507Y-65153571D01*
X154172983Y-65153571D01*
X154249173Y-65191666D01*
X154287269Y-65229762D01*
X154325364Y-65305952D01*
X154325364Y-65496428D01*
X154287269Y-65572619D01*
X154249173Y-65610714D01*
X154172983Y-65648809D01*
X153982507Y-65648809D01*
X153906316Y-65610714D01*
X153868221Y-65572619D01*
X153372983Y-62689762D02*
X153487269Y-62727857D01*
X153525364Y-62765952D01*
X153563459Y-62842143D01*
X153563459Y-62956428D01*
X153525364Y-63032619D01*
X153487269Y-63070714D01*
X153411078Y-63108809D01*
X153106316Y-63108809D01*
X153106316Y-62308809D01*
X153372983Y-62308809D01*
X153449173Y-62346905D01*
X153487269Y-62385000D01*
X153525364Y-62461190D01*
X153525364Y-62537381D01*
X153487269Y-62613571D01*
X153449173Y-62651666D01*
X153372983Y-62689762D01*
X153106316Y-62689762D01*
X154249173Y-62575476D02*
X154249173Y-63108809D01*
X154058697Y-62270714D02*
X153868221Y-62842143D01*
X154363459Y-62842143D01*
X153144412Y-60149762D02*
X153411078Y-60149762D01*
X153525364Y-60568809D02*
X153144412Y-60568809D01*
X153144412Y-59768809D01*
X153525364Y-59768809D01*
X154211078Y-59768809D02*
X154058697Y-59768809D01*
X153982507Y-59806905D01*
X153944412Y-59845000D01*
X153868221Y-59959285D01*
X153830126Y-60111666D01*
X153830126Y-60416428D01*
X153868221Y-60492619D01*
X153906316Y-60530714D01*
X153982507Y-60568809D01*
X154134888Y-60568809D01*
X154211078Y-60530714D01*
X154249173Y-60492619D01*
X154287269Y-60416428D01*
X154287269Y-60225952D01*
X154249173Y-60149762D01*
X154211078Y-60111666D01*
X154134888Y-60073571D01*
X153982507Y-60073571D01*
X153906316Y-60111666D01*
X153868221Y-60149762D01*
X153830126Y-60225952D01*
X153106316Y-58028809D02*
X153106316Y-57228809D01*
X153296793Y-57228809D01*
X153411078Y-57266905D01*
X153487269Y-57343095D01*
X153525364Y-57419285D01*
X153563459Y-57571666D01*
X153563459Y-57685952D01*
X153525364Y-57838333D01*
X153487269Y-57914524D01*
X153411078Y-57990714D01*
X153296793Y-58028809D01*
X153106316Y-58028809D01*
X153830126Y-57228809D02*
X154363459Y-57228809D01*
X154020602Y-58028809D01*
X153563459Y-55412619D02*
X153525364Y-55450714D01*
X153411078Y-55488809D01*
X153334888Y-55488809D01*
X153220602Y-55450714D01*
X153144412Y-55374524D01*
X153106316Y-55298333D01*
X153068221Y-55145952D01*
X153068221Y-55031666D01*
X153106316Y-54879285D01*
X153144412Y-54803095D01*
X153220602Y-54726905D01*
X153334888Y-54688809D01*
X153411078Y-54688809D01*
X153525364Y-54726905D01*
X153563459Y-54765000D01*
X154249173Y-54688809D02*
X154096793Y-54688809D01*
X154020602Y-54726905D01*
X153982507Y-54765000D01*
X153906316Y-54879285D01*
X153868221Y-55031666D01*
X153868221Y-55336428D01*
X153906316Y-55412619D01*
X153944412Y-55450714D01*
X154020602Y-55488809D01*
X154172983Y-55488809D01*
X154249173Y-55450714D01*
X154287269Y-55412619D01*
X154325364Y-55336428D01*
X154325364Y-55145952D01*
X154287269Y-55069762D01*
X154249173Y-55031666D01*
X154172983Y-54993571D01*
X154020602Y-54993571D01*
X153944412Y-55031666D01*
X153906316Y-55069762D01*
X153868221Y-55145952D01*
X153106316Y-52948809D02*
X153106316Y-52148809D01*
X153296793Y-52148809D01*
X153411078Y-52186905D01*
X153487269Y-52263095D01*
X153525364Y-52339285D01*
X153563459Y-52491666D01*
X153563459Y-52605952D01*
X153525364Y-52758333D01*
X153487269Y-52834524D01*
X153411078Y-52910714D01*
X153296793Y-52948809D01*
X153106316Y-52948809D01*
X154249173Y-52415476D02*
X154249173Y-52948809D01*
X154058697Y-52110714D02*
X153868221Y-52682143D01*
X154363459Y-52682143D01*
X153087269Y-42026905D02*
X153011078Y-41988809D01*
X152896793Y-41988809D01*
X152782507Y-42026905D01*
X152706316Y-42103095D01*
X152668221Y-42179285D01*
X152630126Y-42331666D01*
X152630126Y-42445952D01*
X152668221Y-42598333D01*
X152706316Y-42674524D01*
X152782507Y-42750714D01*
X152896793Y-42788809D01*
X152972983Y-42788809D01*
X153087269Y-42750714D01*
X153125364Y-42712619D01*
X153125364Y-42445952D01*
X152972983Y-42445952D01*
X153468221Y-42788809D02*
X153468221Y-41988809D01*
X153925364Y-42788809D01*
X153925364Y-41988809D01*
X154306316Y-42788809D02*
X154306316Y-41988809D01*
X154496793Y-41988809D01*
X154611078Y-42026905D01*
X154687269Y-42103095D01*
X154725364Y-42179285D01*
X154763459Y-42331666D01*
X154763459Y-42445952D01*
X154725364Y-42598333D01*
X154687269Y-42674524D01*
X154611078Y-42750714D01*
X154496793Y-42788809D01*
X154306316Y-42788809D01*
X153087269Y-44566905D02*
X153011078Y-44528809D01*
X152896793Y-44528809D01*
X152782507Y-44566905D01*
X152706316Y-44643095D01*
X152668221Y-44719285D01*
X152630126Y-44871666D01*
X152630126Y-44985952D01*
X152668221Y-45138333D01*
X152706316Y-45214524D01*
X152782507Y-45290714D01*
X152896793Y-45328809D01*
X152972983Y-45328809D01*
X153087269Y-45290714D01*
X153125364Y-45252619D01*
X153125364Y-44985952D01*
X152972983Y-44985952D01*
X153468221Y-45328809D02*
X153468221Y-44528809D01*
X153925364Y-45328809D01*
X153925364Y-44528809D01*
X154306316Y-45328809D02*
X154306316Y-44528809D01*
X154496793Y-44528809D01*
X154611078Y-44566905D01*
X154687269Y-44643095D01*
X154725364Y-44719285D01*
X154763459Y-44871666D01*
X154763459Y-44985952D01*
X154725364Y-45138333D01*
X154687269Y-45214524D01*
X154611078Y-45290714D01*
X154496793Y-45328809D01*
X154306316Y-45328809D01*
X153106316Y-47868809D02*
X153106316Y-47068809D01*
X153296793Y-47068809D01*
X153411078Y-47106905D01*
X153487269Y-47183095D01*
X153525364Y-47259285D01*
X153563459Y-47411666D01*
X153563459Y-47525952D01*
X153525364Y-47678333D01*
X153487269Y-47754524D01*
X153411078Y-47830714D01*
X153296793Y-47868809D01*
X153106316Y-47868809D01*
X154325364Y-47868809D02*
X153868221Y-47868809D01*
X154096793Y-47868809D02*
X154096793Y-47068809D01*
X154020602Y-47183095D01*
X153944412Y-47259285D01*
X153868221Y-47297381D01*
X153106316Y-50408809D02*
X153106316Y-49608809D01*
X153296793Y-49608809D01*
X153411078Y-49646905D01*
X153487269Y-49723095D01*
X153525364Y-49799285D01*
X153563459Y-49951666D01*
X153563459Y-50065952D01*
X153525364Y-50218333D01*
X153487269Y-50294524D01*
X153411078Y-50370714D01*
X153296793Y-50408809D01*
X153106316Y-50408809D01*
X154058697Y-49608809D02*
X154134888Y-49608809D01*
X154211078Y-49646905D01*
X154249173Y-49685000D01*
X154287269Y-49761190D01*
X154325364Y-49913571D01*
X154325364Y-50104047D01*
X154287269Y-50256428D01*
X154249173Y-50332619D01*
X154211078Y-50370714D01*
X154134888Y-50408809D01*
X154058697Y-50408809D01*
X153982507Y-50370714D01*
X153944412Y-50332619D01*
X153906316Y-50256428D01*
X153868221Y-50104047D01*
X153868221Y-49913571D01*
X153906316Y-49761190D01*
X153944412Y-49685000D01*
X153982507Y-49646905D01*
X154058697Y-49608809D01*
X153106316Y-40248809D02*
X153106316Y-39448809D01*
X153296793Y-39448809D01*
X153411078Y-39486905D01*
X153487269Y-39563095D01*
X153525364Y-39639285D01*
X153563459Y-39791666D01*
X153563459Y-39905952D01*
X153525364Y-40058333D01*
X153487269Y-40134524D01*
X153411078Y-40210714D01*
X153296793Y-40248809D01*
X153106316Y-40248809D01*
X153868221Y-39525000D02*
X153906316Y-39486905D01*
X153982507Y-39448809D01*
X154172983Y-39448809D01*
X154249173Y-39486905D01*
X154287269Y-39525000D01*
X154325364Y-39601190D01*
X154325364Y-39677381D01*
X154287269Y-39791666D01*
X153830126Y-40248809D01*
X154325364Y-40248809D01*
X153828173Y-105460237D02*
X154542459Y-105460237D01*
X154685316Y-105507856D01*
X154780554Y-105603094D01*
X154828173Y-105745951D01*
X154828173Y-105841189D01*
X154828173Y-104460237D02*
X154828173Y-105031665D01*
X154828173Y-104745951D02*
X153828173Y-104745951D01*
X153971031Y-104841189D01*
X154066269Y-104936427D01*
X154113888Y-105031665D01*
%LPC*%
D14*
X177305795Y-72096905D03*
D15*
X172820421Y-74481821D03*
X181791169Y-69711989D03*
D16*
X225194793Y-44113907D03*
X167664794Y-53503904D03*
X128804793Y-53503907D03*
X71274492Y-44113905D03*
X19684495Y-96883905D03*
X75714495Y-113583902D03*
X220754793Y-113583902D03*
X276784792Y-96883905D03*
X148234794Y-144774405D03*
D14*
X130929707Y-162649151D03*
D15*
X126071679Y-164134399D03*
X135787735Y-161163903D03*
D14*
X165541235Y-162643058D03*
D15*
X160683207Y-161157810D03*
X170399263Y-164128306D03*
D14*
X121335215Y-140919782D03*
D15*
X117027131Y-143611772D03*
X125643299Y-138227792D03*
D14*
X175131236Y-140913060D03*
D15*
X170823152Y-138221070D03*
X179439320Y-143605050D03*
D14*
X105385381Y-57433209D03*
D15*
X100900007Y-55048293D03*
X109870755Y-59818125D03*
D14*
X46518097Y-46413852D03*
D15*
X42032723Y-44028936D03*
X51003471Y-48798768D03*
D14*
X85762954Y-53760091D03*
D15*
X81277580Y-51375175D03*
X90248328Y-56145007D03*
D14*
X119164766Y-72095495D03*
D15*
X114679392Y-69710579D03*
X123650140Y-74480411D03*
D14*
X134852083Y-83169480D03*
D15*
X130366709Y-80784564D03*
X139337457Y-85554396D03*
D14*
X37574666Y-63234004D03*
D15*
X33089292Y-60849088D03*
X42060040Y-65618920D03*
D14*
X54394814Y-72177438D03*
D15*
X49909440Y-69792522D03*
X58880188Y-74562354D03*
D14*
X76819521Y-70580241D03*
D15*
X72334147Y-68195325D03*
X81304895Y-72965157D03*
D14*
X96441946Y-74253362D03*
D15*
X91956572Y-71868446D03*
X100927320Y-76638278D03*
D14*
X110221332Y-88915643D03*
D15*
X105735958Y-86530727D03*
X114706706Y-91300559D03*
D14*
X125908650Y-99989630D03*
D15*
X121423276Y-97604714D03*
X130394024Y-102374546D03*
D14*
X67876085Y-87400392D03*
D15*
X63390711Y-85015476D03*
X72361459Y-89785308D03*
D14*
X87498514Y-91073512D03*
D15*
X83013140Y-88688596D03*
X91983888Y-93458428D03*
D14*
X101277900Y-105735799D03*
D15*
X96792526Y-103350883D03*
X105763274Y-108120715D03*
D14*
X116965214Y-116809783D03*
D15*
X112479840Y-114424867D03*
X121450588Y-119194699D03*
D14*
X36507950Y-105817740D03*
D15*
X32022576Y-103432824D03*
X40993324Y-108202656D03*
D14*
X99432839Y-129494623D03*
D15*
X95717562Y-126030071D03*
X103148116Y-132959175D03*
D14*
X191085795Y-57436906D03*
D15*
X186600421Y-59821822D03*
X195571169Y-55051990D03*
D14*
X210701061Y-53757942D03*
D15*
X206215687Y-56142858D03*
X215186435Y-51373026D03*
D14*
X233135792Y-55356906D03*
D15*
X228650418Y-57741822D03*
X237621166Y-52971990D03*
D14*
X249955793Y-46416902D03*
D15*
X245470419Y-48801818D03*
X254441167Y-44031986D03*
D14*
X170564987Y-99989619D03*
D15*
X166079613Y-102374535D03*
X175050361Y-97604703D03*
D14*
X186245793Y-88916906D03*
D15*
X181760419Y-91301822D03*
X190731167Y-86531990D03*
D14*
X200025795Y-74256905D03*
D15*
X195540421Y-76641821D03*
X204511169Y-71871989D03*
D14*
X219655793Y-70576905D03*
D15*
X215170419Y-72961821D03*
X224141167Y-68191989D03*
D14*
X242075794Y-72176906D03*
D15*
X237590420Y-74561822D03*
X246561168Y-69791990D03*
D14*
X258895792Y-63236906D03*
D15*
X254410418Y-65621822D03*
X263381166Y-60851990D03*
D14*
X179507297Y-116810367D03*
D15*
X175021923Y-119195283D03*
X183992671Y-114425451D03*
D14*
X195195794Y-105736906D03*
D15*
X190710420Y-108121822D03*
X199681168Y-103351990D03*
D14*
X251015792Y-88996907D03*
D15*
X246530418Y-91381823D03*
X255501166Y-86611991D03*
D14*
X267835793Y-80056906D03*
D15*
X263350419Y-82441822D03*
X272321167Y-77671990D03*
D14*
X28631230Y-80054154D03*
D15*
X24145856Y-77669238D03*
X33116604Y-82439070D03*
D14*
X208975791Y-91076904D03*
D15*
X204490417Y-93461820D03*
X213461165Y-88691988D03*
D14*
X45451383Y-88997587D03*
D15*
X40966009Y-86612671D03*
X49936757Y-91382503D03*
D14*
X197030799Y-129494609D03*
D15*
X193315522Y-132959161D03*
X200746076Y-126030057D03*
D14*
X161611554Y-83169469D03*
D15*
X157126180Y-85554385D03*
X166096928Y-80784553D03*
D14*
X259965793Y-105816906D03*
D15*
X255480419Y-108201822D03*
X264451167Y-103431990D03*
D14*
X63338252Y-55357286D03*
D15*
X58852878Y-52972370D03*
X67823626Y-57742202D03*
D14*
X228595794Y-87396905D03*
D15*
X224110420Y-89781821D03*
X233081168Y-85011989D03*
D17*
X140615793Y-37346905D03*
X155855793Y-65286905D03*
X140615793Y-39886905D03*
X140615793Y-42426905D03*
X140615793Y-44966905D03*
X140615793Y-47506905D03*
X140615793Y-50046905D03*
X140615793Y-52586905D03*
X140615793Y-55126905D03*
X140615793Y-57666905D03*
X140615793Y-60206905D03*
X140615793Y-62746905D03*
X140615793Y-65286905D03*
X155855793Y-62746905D03*
X155855793Y-60206905D03*
X155855793Y-57666905D03*
X155855793Y-55126905D03*
X155855793Y-52586905D03*
X155855793Y-50046905D03*
X155855793Y-47506905D03*
X155855793Y-44966905D03*
X155855793Y-42426905D03*
X155855793Y-39886905D03*
D18*
X155855793Y-37346905D03*
D19*
X144425793Y-105126904D03*
X146965793Y-105126904D03*
X149505793Y-105126904D03*
D20*
X152045793Y-105126904D03*
M02*
