G04 #@! TF.GenerationSoftware,KiCad,Pcbnew,5.1.5-52549c5~86~ubuntu18.04.1*
G04 #@! TF.CreationDate,2020-04-17T17:36:02+02:00*
G04 #@! TF.ProjectId,first-pcb,66697273-742d-4706-9362-2e6b69636164,0.1.1*
G04 #@! TF.SameCoordinates,Original*
G04 #@! TF.FileFunction,Profile,NP*
%FSLAX46Y46*%
G04 Gerber Fmt 4.6, Leading zero omitted, Abs format (unit mm)*
G04 Created by KiCad (PCBNEW 5.1.5-52549c5~86~ubuntu18.04.1) date 2020-04-17 17:36:02*
%MOMM*%
%LPD*%
G04 APERTURE LIST*
%ADD10C,0.200000*%
G04 APERTURE END LIST*
D10*
X121652665Y-176369463D02*
G75*
G02X118647531Y-175262327I-838871J2355057D01*
G01*
X157624794Y-33543906D02*
G75*
G02X158624794Y-34543906I0J-1000000D01*
G01*
X137844094Y-37043907D02*
G75*
G02X123256886Y-49032798I-12220301J0D01*
G01*
X42111324Y-34823227D02*
G75*
G02X44802909Y-33544247I2207369J-1173679D01*
G01*
X251666580Y-33544248D02*
G75*
G02X254358163Y-34823228I484215J-2452657D01*
G01*
X281719794Y-86282905D02*
X254357796Y-34822905D01*
X121652506Y-176369496D02*
G75*
G02X174816953Y-176369451I26582287J-74627009D01*
G01*
X173211704Y-49032796D02*
G75*
G02X158624493Y-37043906I-2366909J11988892D01*
G01*
X137844795Y-37043905D02*
X137844793Y-34543905D01*
X177822666Y-175262067D02*
G75*
G02X264149962Y-119254646I97934126J-56417017D01*
G01*
X137844795Y-34543903D02*
G75*
G02X138844796Y-33543904I1000000J-1D01*
G01*
X32319522Y-119254651D02*
G75*
G02X118647014Y-175262412I-11606828J-112424436D01*
G01*
X138844796Y-33543904D02*
X157624793Y-33543905D01*
X44802891Y-33543903D02*
X123257792Y-49032905D01*
X281719357Y-86283157D02*
G75*
G02X264149328Y-119254248I-19882565J-10571750D01*
G01*
X32319463Y-119254247D02*
G75*
G02X14749425Y-86283158I2312531J22399343D01*
G01*
X177822056Y-175262320D02*
G75*
G02X174816915Y-176369458I-2166263J1247915D01*
G01*
X173211793Y-49032905D02*
X251665795Y-33543905D01*
X158624795Y-37043904D02*
X158624794Y-34543906D01*
X14749494Y-86282905D02*
X42111294Y-34822905D01*
M02*
