G04 #@! TF.GenerationSoftware,KiCad,Pcbnew,5.1.5-52549c5~86~ubuntu18.04.1*
G04 #@! TF.CreationDate,2020-04-17T17:36:02+02:00*
G04 #@! TF.ProjectId,first-pcb,66697273-742d-4706-9362-2e6b69636164,0.1.1*
G04 #@! TF.SameCoordinates,Original*
G04 #@! TF.FileFunction,Copper,L2,Bot*
G04 #@! TF.FilePolarity,Positive*
%FSLAX46Y46*%
G04 Gerber Fmt 4.6, Leading zero omitted, Abs format (unit mm)*
G04 Created by KiCad (PCBNEW 5.1.5-52549c5~86~ubuntu18.04.1) date 2020-04-17 17:36:02*
%MOMM*%
%LPD*%
G04 APERTURE LIST*
%ADD10C,2.250000*%
%ADD11C,3.500000*%
%ADD12R,1.500000X1.000000*%
%ADD13C,1.752600*%
%ADD14R,1.752600X1.752600*%
%ADD15O,1.700000X1.700000*%
%ADD16R,1.700000X1.700000*%
%ADD17C,0.100000*%
%ADD18R,1.800000X1.100000*%
%ADD19C,0.800000*%
%ADD20C,0.381000*%
%ADD21C,0.254000*%
G04 APERTURE END LIST*
D10*
X177163566Y-66419073D03*
X172749307Y-71642905D03*
D11*
X225194793Y-44113907D03*
X167664794Y-53503904D03*
X128804793Y-53503907D03*
X71274492Y-44113905D03*
X19684495Y-96883905D03*
X75714495Y-113583902D03*
X220754793Y-113583902D03*
X276784792Y-96883905D03*
X148234794Y-144774405D03*
D10*
X131873473Y-157048499D03*
X126543562Y-161334073D03*
X169455497Y-158527654D03*
X162640338Y-159100108D03*
X120797267Y-135265703D03*
X116758157Y-140784732D03*
X179977268Y-137950971D03*
X173246168Y-136740025D03*
X110012983Y-54140293D03*
X103213808Y-53401835D03*
X51145699Y-43120936D03*
X44346524Y-42382478D03*
X90390556Y-50467175D03*
X83591381Y-49728717D03*
X123792368Y-68802579D03*
X116993193Y-68064121D03*
X139479685Y-79876564D03*
X132680510Y-79138106D03*
X42202268Y-59941088D03*
X35403093Y-59202630D03*
X59022416Y-68884522D03*
X52223241Y-68146064D03*
X81447123Y-67287325D03*
X74647948Y-66548867D03*
X101069548Y-70960446D03*
X94270373Y-70221988D03*
X114848934Y-85622727D03*
X108049759Y-84884269D03*
X130536252Y-96696714D03*
X123737077Y-95958256D03*
X72503687Y-84107476D03*
X65704512Y-83369018D03*
X92126116Y-87780596D03*
X85326941Y-87042138D03*
X105905502Y-102442883D03*
X99106327Y-101704425D03*
X121592816Y-113516867D03*
X114793641Y-112778409D03*
X41135552Y-102524824D03*
X34336377Y-101786366D03*
X104755029Y-127511622D03*
X98378657Y-125038571D03*
X190943566Y-51759074D03*
X186529307Y-56982906D03*
X210558832Y-48080110D03*
X206144573Y-53303942D03*
X232993563Y-49679074D03*
X228579304Y-54902906D03*
X249813564Y-40739070D03*
X245399305Y-45962902D03*
X170422758Y-94311787D03*
X166008499Y-99535619D03*
X186103564Y-83239074D03*
X181689305Y-88462906D03*
X199883566Y-68579073D03*
X195469307Y-73802905D03*
X219513564Y-64899073D03*
X215099305Y-70122905D03*
X241933565Y-66499074D03*
X237519306Y-71722906D03*
X258753563Y-57559074D03*
X254339304Y-62782906D03*
X179365068Y-111132535D03*
X174950809Y-116356367D03*
X195053565Y-100059074D03*
X190639306Y-105282906D03*
X250873563Y-83319075D03*
X246459304Y-88542907D03*
X267693564Y-74379074D03*
X263279305Y-79602906D03*
X33258832Y-76761238D03*
X26459657Y-76022780D03*
X208833562Y-85399072D03*
X204419303Y-90622904D03*
X50078985Y-85704671D03*
X43279810Y-84966213D03*
X195423886Y-124047056D03*
X192512066Y-130235384D03*
X161469325Y-77491637D03*
X157055066Y-82715469D03*
X259823564Y-100139074D03*
X255409305Y-105362906D03*
X67965854Y-52064370D03*
X61166679Y-51325912D03*
X228453565Y-81719073D03*
X224039306Y-86942905D03*
D12*
X145785793Y-50018751D03*
X145785793Y-46818751D03*
X150685793Y-50018751D03*
X150685793Y-46818751D03*
X201517500Y-62978750D03*
X201517500Y-59778750D03*
X206417500Y-62978750D03*
X206417500Y-59778750D03*
X243592500Y-60901250D03*
X243592500Y-57701250D03*
X248492500Y-60901250D03*
X248492500Y-57701250D03*
X261448750Y-94538750D03*
X261448750Y-91338750D03*
X266348750Y-94538750D03*
X266348750Y-91338750D03*
X231049999Y-111986250D03*
X231049999Y-115186250D03*
X226149999Y-111986250D03*
X226149999Y-115186250D03*
X150681249Y-150513750D03*
X150681249Y-153713750D03*
X145781249Y-150513750D03*
X145781249Y-153713750D03*
X70328750Y-111976250D03*
X70328750Y-115176250D03*
X65428750Y-111976250D03*
X65428750Y-115176250D03*
X35018750Y-91338750D03*
X35018750Y-94538750D03*
X30118750Y-91338750D03*
X30118750Y-94538750D03*
X48002499Y-60897500D03*
X48002499Y-57697500D03*
X52902499Y-60897500D03*
X52902499Y-57697500D03*
X90048751Y-62972500D03*
X90048751Y-59772500D03*
X94948751Y-62972500D03*
X94948751Y-59772500D03*
D13*
X140615793Y-37346905D03*
X155855793Y-65286905D03*
X140615793Y-39886905D03*
X140615793Y-42426905D03*
X140615793Y-44966905D03*
X140615793Y-47506905D03*
X140615793Y-50046905D03*
X140615793Y-52586905D03*
X140615793Y-55126905D03*
X140615793Y-57666905D03*
X140615793Y-60206905D03*
X140615793Y-62746905D03*
X140615793Y-65286905D03*
X155855793Y-62746905D03*
X155855793Y-60206905D03*
X155855793Y-57666905D03*
X155855793Y-55126905D03*
X155855793Y-52586905D03*
X155855793Y-50046905D03*
X155855793Y-47506905D03*
X155855793Y-44966905D03*
X155855793Y-42426905D03*
X155855793Y-39886905D03*
D14*
X155855793Y-37346905D03*
D15*
X144425793Y-105126904D03*
X146965793Y-105126904D03*
X149505793Y-105126904D03*
D16*
X152045793Y-105126904D03*
G04 #@! TA.AperFunction,SMDPad,CuDef*
D17*
G36*
X54616072Y-49504374D02*
G01*
X53556535Y-48941008D01*
X53979060Y-48146356D01*
X55038597Y-48709722D01*
X54616072Y-49504374D01*
G37*
G04 #@! TD.AperFunction*
G04 #@! TA.AperFunction,SMDPad,CuDef*
G36*
X53066816Y-52418102D02*
G01*
X52007279Y-51854736D01*
X52429804Y-51060084D01*
X53489341Y-51623450D01*
X53066816Y-52418102D01*
G37*
G04 #@! TD.AperFunction*
G04 #@! TA.AperFunction,SMDPad,CuDef*
G36*
X266897547Y-100736947D02*
G01*
X265838010Y-101300313D01*
X265415485Y-100505661D01*
X266475022Y-99942295D01*
X266897547Y-100736947D01*
G37*
G04 #@! TD.AperFunction*
G04 #@! TA.AperFunction,SMDPad,CuDef*
G36*
X268446803Y-103650675D02*
G01*
X267387266Y-104214041D01*
X266964741Y-103419389D01*
X268024278Y-102856023D01*
X268446803Y-103650675D01*
G37*
G04 #@! TD.AperFunction*
G04 #@! TA.AperFunction,SMDPad,CuDef*
G36*
X202533646Y-122848782D02*
G01*
X201656022Y-123667180D01*
X201042224Y-123008962D01*
X201919848Y-122190564D01*
X202533646Y-122848782D01*
G37*
G04 #@! TD.AperFunction*
G04 #@! TA.AperFunction,SMDPad,CuDef*
G36*
X204784240Y-125262250D02*
G01*
X203906616Y-126080648D01*
X203292818Y-125422430D01*
X204170442Y-124604032D01*
X204784240Y-125262250D01*
G37*
G04 #@! TD.AperFunction*
G04 #@! TA.AperFunction,SMDPad,CuDef*
G36*
X185365527Y-145922948D02*
G01*
X184347869Y-145287045D01*
X184824797Y-144523802D01*
X185842455Y-145159705D01*
X185365527Y-145922948D01*
G37*
G04 #@! TD.AperFunction*
G04 #@! TA.AperFunction,SMDPad,CuDef*
G36*
X183616793Y-148721506D02*
G01*
X182599135Y-148085603D01*
X183076063Y-147322360D01*
X184093721Y-147958263D01*
X183616793Y-148721506D01*
G37*
G04 #@! TD.AperFunction*
G04 #@! TA.AperFunction,SMDPad,CuDef*
G36*
X164555437Y-168978533D02*
G01*
X164906283Y-167830967D01*
X165766957Y-168094101D01*
X165416111Y-169241667D01*
X164555437Y-168978533D01*
G37*
G04 #@! TD.AperFunction*
G04 #@! TA.AperFunction,SMDPad,CuDef*
G36*
X161399631Y-168013707D02*
G01*
X161750477Y-166866141D01*
X162611151Y-167129275D01*
X162260305Y-168276841D01*
X161399631Y-168013707D01*
G37*
G04 #@! TD.AperFunction*
G04 #@! TA.AperFunction,SMDPad,CuDef*
G36*
X271751015Y-84305909D02*
G01*
X271187649Y-83246372D01*
X271982301Y-82823847D01*
X272545667Y-83883384D01*
X271751015Y-84305909D01*
G37*
G04 #@! TD.AperFunction*
G04 #@! TA.AperFunction,SMDPad,CuDef*
G36*
X268837287Y-85855165D02*
G01*
X268273921Y-84795628D01*
X269068573Y-84373103D01*
X269631939Y-85432640D01*
X268837287Y-85855165D01*
G37*
G04 #@! TD.AperFunction*
G04 #@! TA.AperFunction,SMDPad,CuDef*
G36*
X257967238Y-83873855D02*
G01*
X256907701Y-84437221D01*
X256485176Y-83642569D01*
X257544713Y-83079203D01*
X257967238Y-83873855D01*
G37*
G04 #@! TD.AperFunction*
G04 #@! TA.AperFunction,SMDPad,CuDef*
G36*
X259516494Y-86787583D02*
G01*
X258456957Y-87350949D01*
X258034432Y-86556297D01*
X259093969Y-85992931D01*
X259516494Y-86787583D01*
G37*
G04 #@! TD.AperFunction*
G04 #@! TA.AperFunction,SMDPad,CuDef*
G36*
X235568795Y-82190785D02*
G01*
X234509258Y-82754151D01*
X234086733Y-81959499D01*
X235146270Y-81396133D01*
X235568795Y-82190785D01*
G37*
G04 #@! TD.AperFunction*
G04 #@! TA.AperFunction,SMDPad,CuDef*
G36*
X237118051Y-85104513D02*
G01*
X236058514Y-85667879D01*
X235635989Y-84873227D01*
X236695526Y-84309861D01*
X237118051Y-85104513D01*
G37*
G04 #@! TD.AperFunction*
G04 #@! TA.AperFunction,SMDPad,CuDef*
G36*
X215847359Y-85880585D02*
G01*
X214787822Y-86443951D01*
X214365297Y-85649299D01*
X215424834Y-85085933D01*
X215847359Y-85880585D01*
G37*
G04 #@! TD.AperFunction*
G04 #@! TA.AperFunction,SMDPad,CuDef*
G36*
X217396615Y-88794313D02*
G01*
X216337078Y-89357679D01*
X215914553Y-88563027D01*
X216974090Y-87999661D01*
X217396615Y-88794313D01*
G37*
G04 #@! TD.AperFunction*
G04 #@! TA.AperFunction,SMDPad,CuDef*
G36*
X202114250Y-100575798D02*
G01*
X201054713Y-101139164D01*
X200632188Y-100344512D01*
X201691725Y-99781146D01*
X202114250Y-100575798D01*
G37*
G04 #@! TD.AperFunction*
G04 #@! TA.AperFunction,SMDPad,CuDef*
G36*
X203663506Y-103489526D02*
G01*
X202603969Y-104052892D01*
X202181444Y-103258240D01*
X203240981Y-102694874D01*
X203663506Y-103489526D01*
G37*
G04 #@! TD.AperFunction*
G04 #@! TA.AperFunction,SMDPad,CuDef*
G36*
X186482101Y-111742715D02*
G01*
X185422564Y-112306081D01*
X185000039Y-111511429D01*
X186059576Y-110948063D01*
X186482101Y-111742715D01*
G37*
G04 #@! TD.AperFunction*
G04 #@! TA.AperFunction,SMDPad,CuDef*
G36*
X188031357Y-114656443D02*
G01*
X186971820Y-115219809D01*
X186549295Y-114425157D01*
X187608832Y-113861791D01*
X188031357Y-114656443D01*
G37*
G04 #@! TD.AperFunction*
G04 #@! TA.AperFunction,SMDPad,CuDef*
G36*
X262581615Y-67668909D02*
G01*
X262018249Y-66609372D01*
X262812901Y-66186847D01*
X263376267Y-67246384D01*
X262581615Y-67668909D01*
G37*
G04 #@! TD.AperFunction*
G04 #@! TA.AperFunction,SMDPad,CuDef*
G36*
X259667887Y-69218165D02*
G01*
X259104521Y-68158628D01*
X259899173Y-67736103D01*
X260462539Y-68795640D01*
X259667887Y-69218165D01*
G37*
G04 #@! TD.AperFunction*
G04 #@! TA.AperFunction,SMDPad,CuDef*
G36*
X249038714Y-67081738D02*
G01*
X247979177Y-67645104D01*
X247556652Y-66850452D01*
X248616189Y-66287086D01*
X249038714Y-67081738D01*
G37*
G04 #@! TD.AperFunction*
G04 #@! TA.AperFunction,SMDPad,CuDef*
G36*
X250587970Y-69995466D02*
G01*
X249528433Y-70558832D01*
X249105908Y-69764180D01*
X250165445Y-69200814D01*
X250587970Y-69995466D01*
G37*
G04 #@! TD.AperFunction*
G04 #@! TA.AperFunction,SMDPad,CuDef*
G36*
X226640268Y-65398667D02*
G01*
X225580731Y-65962033D01*
X225158206Y-65167381D01*
X226217743Y-64604015D01*
X226640268Y-65398667D01*
G37*
G04 #@! TD.AperFunction*
G04 #@! TA.AperFunction,SMDPad,CuDef*
G36*
X228189524Y-68312395D02*
G01*
X227129987Y-68875761D01*
X226707462Y-68081109D01*
X227766999Y-67517743D01*
X228189524Y-68312395D01*
G37*
G04 #@! TD.AperFunction*
G04 #@! TA.AperFunction,SMDPad,CuDef*
G36*
X206974902Y-69058657D02*
G01*
X205915365Y-69622023D01*
X205492840Y-68827371D01*
X206552377Y-68264005D01*
X206974902Y-69058657D01*
G37*
G04 #@! TD.AperFunction*
G04 #@! TA.AperFunction,SMDPad,CuDef*
G36*
X208524158Y-71972385D02*
G01*
X207464621Y-72535751D01*
X207042096Y-71741099D01*
X208101633Y-71177733D01*
X208524158Y-71972385D01*
G37*
G04 #@! TD.AperFunction*
G04 #@! TA.AperFunction,SMDPad,CuDef*
G36*
X193395303Y-83758545D02*
G01*
X192335766Y-84321911D01*
X191913241Y-83527259D01*
X192972778Y-82963893D01*
X193395303Y-83758545D01*
G37*
G04 #@! TD.AperFunction*
G04 #@! TA.AperFunction,SMDPad,CuDef*
G36*
X194944559Y-86672273D02*
G01*
X193885022Y-87235639D01*
X193462497Y-86440987D01*
X194522034Y-85877621D01*
X194944559Y-86672273D01*
G37*
G04 #@! TD.AperFunction*
G04 #@! TA.AperFunction,SMDPad,CuDef*
G36*
X177595852Y-94892156D02*
G01*
X176536315Y-95455522D01*
X176113790Y-94660870D01*
X177173327Y-94097504D01*
X177595852Y-94892156D01*
G37*
G04 #@! TD.AperFunction*
G04 #@! TA.AperFunction,SMDPad,CuDef*
G36*
X179145108Y-97805884D02*
G01*
X178085571Y-98369250D01*
X177663046Y-97574598D01*
X178722583Y-97011232D01*
X179145108Y-97805884D01*
G37*
G04 #@! TD.AperFunction*
G04 #@! TA.AperFunction,SMDPad,CuDef*
G36*
X253818616Y-50650910D02*
G01*
X253255250Y-49591373D01*
X254049902Y-49168848D01*
X254613268Y-50228385D01*
X253818616Y-50650910D01*
G37*
G04 #@! TD.AperFunction*
G04 #@! TA.AperFunction,SMDPad,CuDef*
G36*
X250904888Y-52200166D02*
G01*
X250341522Y-51140629D01*
X251136174Y-50718104D01*
X251699540Y-51777641D01*
X250904888Y-52200166D01*
G37*
G04 #@! TD.AperFunction*
G04 #@! TA.AperFunction,SMDPad,CuDef*
G36*
X240106628Y-50147675D02*
G01*
X239047091Y-50711041D01*
X238624566Y-49916389D01*
X239684103Y-49353023D01*
X240106628Y-50147675D01*
G37*
G04 #@! TD.AperFunction*
G04 #@! TA.AperFunction,SMDPad,CuDef*
G36*
X241655884Y-53061403D02*
G01*
X240596347Y-53624769D01*
X240173822Y-52830117D01*
X241233359Y-52266751D01*
X241655884Y-53061403D01*
G37*
G04 #@! TD.AperFunction*
G04 #@! TA.AperFunction,SMDPad,CuDef*
G36*
X217629417Y-48722238D02*
G01*
X216569880Y-49285604D01*
X216147355Y-48490952D01*
X217206892Y-47927586D01*
X217629417Y-48722238D01*
G37*
G04 #@! TD.AperFunction*
G04 #@! TA.AperFunction,SMDPad,CuDef*
G36*
X219178673Y-51635966D02*
G01*
X218119136Y-52199332D01*
X217696611Y-51404680D01*
X218756148Y-50841314D01*
X219178673Y-51635966D01*
G37*
G04 #@! TD.AperFunction*
G04 #@! TA.AperFunction,SMDPad,CuDef*
G36*
X197894854Y-52454982D02*
G01*
X196835317Y-53018348D01*
X196412792Y-52223696D01*
X197472329Y-51660330D01*
X197894854Y-52454982D01*
G37*
G04 #@! TD.AperFunction*
G04 #@! TA.AperFunction,SMDPad,CuDef*
G36*
X199444110Y-55368710D02*
G01*
X198384573Y-55932076D01*
X197962048Y-55137424D01*
X199021585Y-54574058D01*
X199444110Y-55368710D01*
G37*
G04 #@! TD.AperFunction*
G04 #@! TA.AperFunction,SMDPad,CuDef*
G36*
X184339740Y-66998020D02*
G01*
X183280203Y-67561386D01*
X182857678Y-66766734D01*
X183917215Y-66203368D01*
X184339740Y-66998020D01*
G37*
G04 #@! TD.AperFunction*
G04 #@! TA.AperFunction,SMDPad,CuDef*
G36*
X185888996Y-69911748D02*
G01*
X184829459Y-70475114D01*
X184406934Y-69680462D01*
X185466471Y-69117096D01*
X185888996Y-69911748D01*
G37*
G04 #@! TD.AperFunction*
G04 #@! TA.AperFunction,SMDPad,CuDef*
G36*
X168512256Y-78146534D02*
G01*
X167452719Y-78709900D01*
X167030194Y-77915248D01*
X168089731Y-77351882D01*
X168512256Y-78146534D01*
G37*
G04 #@! TD.AperFunction*
G04 #@! TA.AperFunction,SMDPad,CuDef*
G36*
X170061512Y-81060262D02*
G01*
X169001975Y-81623628D01*
X168579450Y-80828976D01*
X169638987Y-80265610D01*
X170061512Y-81060262D01*
G37*
G04 #@! TD.AperFunction*
D18*
X151335795Y-43326905D03*
X145135795Y-39626905D03*
X151335795Y-39626905D03*
X145135795Y-43326905D03*
G04 #@! TA.AperFunction,SMDPad,CuDef*
D17*
G36*
X140376739Y-158801542D02*
G01*
X139229173Y-159152388D01*
X138966039Y-158291714D01*
X140113605Y-157940868D01*
X140376739Y-158801542D01*
G37*
G04 #@! TD.AperFunction*
G04 #@! TA.AperFunction,SMDPad,CuDef*
G36*
X141341565Y-161957348D02*
G01*
X140193999Y-162308194D01*
X139930865Y-161447520D01*
X141078431Y-161096674D01*
X141341565Y-161957348D01*
G37*
G04 #@! TD.AperFunction*
G04 #@! TA.AperFunction,SMDPad,CuDef*
G36*
X124820660Y-145709959D02*
G01*
X124184757Y-144692301D01*
X124948000Y-144215373D01*
X125583903Y-145233031D01*
X124820660Y-145709959D01*
G37*
G04 #@! TD.AperFunction*
G04 #@! TA.AperFunction,SMDPad,CuDef*
G36*
X122022102Y-147458693D02*
G01*
X121386199Y-146441035D01*
X122149442Y-145964107D01*
X122785345Y-146981765D01*
X122022102Y-147458693D01*
G37*
G04 #@! TD.AperFunction*
G04 #@! TA.AperFunction,SMDPad,CuDef*
G36*
X106404520Y-134509851D02*
G01*
X105526896Y-133691453D01*
X106140694Y-133033235D01*
X107018318Y-133851633D01*
X106404520Y-134509851D01*
G37*
G04 #@! TD.AperFunction*
G04 #@! TA.AperFunction,SMDPad,CuDef*
G36*
X104153926Y-136923319D02*
G01*
X103276302Y-136104921D01*
X103890100Y-135446703D01*
X104767724Y-136265101D01*
X104153926Y-136923319D01*
G37*
G04 #@! TD.AperFunction*
G04 #@! TA.AperFunction,SMDPad,CuDef*
G36*
X44777682Y-108855750D02*
G01*
X43718145Y-108292384D01*
X44140670Y-107497732D01*
X45200207Y-108061098D01*
X44777682Y-108855750D01*
G37*
G04 #@! TD.AperFunction*
G04 #@! TA.AperFunction,SMDPad,CuDef*
G36*
X43228426Y-111769478D02*
G01*
X42168889Y-111206112D01*
X42591414Y-110411460D01*
X43650951Y-110974826D01*
X43228426Y-111769478D01*
G37*
G04 #@! TD.AperFunction*
G04 #@! TA.AperFunction,SMDPad,CuDef*
G36*
X125175326Y-119959928D02*
G01*
X124115789Y-119396562D01*
X124538314Y-118601910D01*
X125597851Y-119165276D01*
X125175326Y-119959928D01*
G37*
G04 #@! TD.AperFunction*
G04 #@! TA.AperFunction,SMDPad,CuDef*
G36*
X123626070Y-122873656D02*
G01*
X122566533Y-122310290D01*
X122989058Y-121515638D01*
X124048595Y-122079004D01*
X123626070Y-122873656D01*
G37*
G04 #@! TD.AperFunction*
G04 #@! TA.AperFunction,SMDPad,CuDef*
G36*
X109211224Y-108594938D02*
G01*
X108151687Y-108031572D01*
X108574212Y-107236920D01*
X109633749Y-107800286D01*
X109211224Y-108594938D01*
G37*
G04 #@! TD.AperFunction*
G04 #@! TA.AperFunction,SMDPad,CuDef*
G36*
X107661968Y-111508666D02*
G01*
X106602431Y-110945300D01*
X107024956Y-110150648D01*
X108084493Y-110714014D01*
X107661968Y-111508666D01*
G37*
G04 #@! TD.AperFunction*
G04 #@! TA.AperFunction,SMDPad,CuDef*
G36*
X95768249Y-94111522D02*
G01*
X94708712Y-93548156D01*
X95131237Y-92753504D01*
X96190774Y-93316870D01*
X95768249Y-94111522D01*
G37*
G04 #@! TD.AperFunction*
G04 #@! TA.AperFunction,SMDPad,CuDef*
G36*
X94218993Y-97025250D02*
G01*
X93159456Y-96461884D01*
X93581981Y-95667232D01*
X94641518Y-96230598D01*
X94218993Y-97025250D01*
G37*
G04 #@! TD.AperFunction*
G04 #@! TA.AperFunction,SMDPad,CuDef*
G36*
X75921553Y-90319155D02*
G01*
X74862016Y-89755789D01*
X75284541Y-88961137D01*
X76344078Y-89524503D01*
X75921553Y-90319155D01*
G37*
G04 #@! TD.AperFunction*
G04 #@! TA.AperFunction,SMDPad,CuDef*
G36*
X74372297Y-93232883D02*
G01*
X73312760Y-92669517D01*
X73735285Y-91874865D01*
X74794822Y-92438231D01*
X74372297Y-93232883D01*
G37*
G04 #@! TD.AperFunction*
G04 #@! TA.AperFunction,SMDPad,CuDef*
G36*
X53608984Y-91975974D02*
G01*
X52549447Y-91412608D01*
X52971972Y-90617956D01*
X54031509Y-91181322D01*
X53608984Y-91975974D01*
G37*
G04 #@! TD.AperFunction*
G04 #@! TA.AperFunction,SMDPad,CuDef*
G36*
X52059728Y-94889702D02*
G01*
X51000191Y-94326336D01*
X51422716Y-93531684D01*
X52482253Y-94095050D01*
X52059728Y-94889702D01*
G37*
G04 #@! TD.AperFunction*
G04 #@! TA.AperFunction,SMDPad,CuDef*
G36*
X36749823Y-82335438D02*
G01*
X35690286Y-81772072D01*
X36112811Y-80977420D01*
X37172348Y-81540786D01*
X36749823Y-82335438D01*
G37*
G04 #@! TD.AperFunction*
G04 #@! TA.AperFunction,SMDPad,CuDef*
G36*
X35200567Y-85249166D02*
G01*
X34141030Y-84685800D01*
X34563555Y-83891148D01*
X35623092Y-84454514D01*
X35200567Y-85249166D01*
G37*
G04 #@! TD.AperFunction*
G04 #@! TA.AperFunction,SMDPad,CuDef*
G36*
X134178380Y-103027642D02*
G01*
X133118843Y-102464276D01*
X133541368Y-101669624D01*
X134600905Y-102232990D01*
X134178380Y-103027642D01*
G37*
G04 #@! TD.AperFunction*
G04 #@! TA.AperFunction,SMDPad,CuDef*
G36*
X132629124Y-105941370D02*
G01*
X131569587Y-105378004D01*
X131992112Y-104583352D01*
X133051649Y-105146718D01*
X132629124Y-105941370D01*
G37*
G04 #@! TD.AperFunction*
G04 #@! TA.AperFunction,SMDPad,CuDef*
G36*
X118378932Y-91894035D02*
G01*
X117319395Y-91330669D01*
X117741920Y-90536017D01*
X118801457Y-91099383D01*
X118378932Y-91894035D01*
G37*
G04 #@! TD.AperFunction*
G04 #@! TA.AperFunction,SMDPad,CuDef*
G36*
X116829676Y-94807763D02*
G01*
X115770139Y-94244397D01*
X116192664Y-93449745D01*
X117252201Y-94013111D01*
X116829676Y-94807763D01*
G37*
G04 #@! TD.AperFunction*
G04 #@! TA.AperFunction,SMDPad,CuDef*
G36*
X104724502Y-76226274D02*
G01*
X103664965Y-75662908D01*
X104087490Y-74868256D01*
X105147027Y-75431622D01*
X104724502Y-76226274D01*
G37*
G04 #@! TD.AperFunction*
G04 #@! TA.AperFunction,SMDPad,CuDef*
G36*
X103175246Y-79140002D02*
G01*
X102115709Y-78576636D01*
X102538234Y-77781984D01*
X103597771Y-78345350D01*
X103175246Y-79140002D01*
G37*
G04 #@! TD.AperFunction*
G04 #@! TA.AperFunction,SMDPad,CuDef*
G36*
X84999719Y-72916081D02*
G01*
X83940182Y-72352715D01*
X84362707Y-71558063D01*
X85422244Y-72121429D01*
X84999719Y-72916081D01*
G37*
G04 #@! TD.AperFunction*
G04 #@! TA.AperFunction,SMDPad,CuDef*
G36*
X83450463Y-75829809D02*
G01*
X82390926Y-75266443D01*
X82813451Y-74471791D01*
X83872988Y-75035157D01*
X83450463Y-75829809D01*
G37*
G04 #@! TD.AperFunction*
G04 #@! TA.AperFunction,SMDPad,CuDef*
G36*
X62552413Y-75155824D02*
G01*
X61492876Y-74592458D01*
X61915401Y-73797806D01*
X62974938Y-74361172D01*
X62552413Y-75155824D01*
G37*
G04 #@! TD.AperFunction*
G04 #@! TA.AperFunction,SMDPad,CuDef*
G36*
X61003157Y-78069552D02*
G01*
X59943620Y-77506186D01*
X60366145Y-76711534D01*
X61425682Y-77274900D01*
X61003157Y-78069552D01*
G37*
G04 #@! TD.AperFunction*
G04 #@! TA.AperFunction,SMDPad,CuDef*
G36*
X45395859Y-66033522D02*
G01*
X44336322Y-65470156D01*
X44758847Y-64675504D01*
X45818384Y-65238870D01*
X45395859Y-66033522D01*
G37*
G04 #@! TD.AperFunction*
G04 #@! TA.AperFunction,SMDPad,CuDef*
G36*
X43846603Y-68947250D02*
G01*
X42787066Y-68383884D01*
X43209591Y-67589232D01*
X44269128Y-68152598D01*
X43846603Y-68947250D01*
G37*
G04 #@! TD.AperFunction*
G04 #@! TA.AperFunction,SMDPad,CuDef*
G36*
X143062191Y-86319624D02*
G01*
X142002654Y-85756258D01*
X142425179Y-84961606D01*
X143484716Y-85524972D01*
X143062191Y-86319624D01*
G37*
G04 #@! TD.AperFunction*
G04 #@! TA.AperFunction,SMDPad,CuDef*
G36*
X141512935Y-89233352D02*
G01*
X140453398Y-88669986D01*
X140875923Y-87875334D01*
X141935460Y-88438700D01*
X141512935Y-89233352D01*
G37*
G04 #@! TD.AperFunction*
G04 #@! TA.AperFunction,SMDPad,CuDef*
G36*
X127068469Y-74503580D02*
G01*
X126008932Y-73940214D01*
X126431457Y-73145562D01*
X127490994Y-73708928D01*
X127068469Y-74503580D01*
G37*
G04 #@! TD.AperFunction*
G04 #@! TA.AperFunction,SMDPad,CuDef*
G36*
X125519213Y-77417308D02*
G01*
X124459676Y-76853942D01*
X124882201Y-76059290D01*
X125941738Y-76622656D01*
X125519213Y-77417308D01*
G37*
G04 #@! TD.AperFunction*
G04 #@! TA.AperFunction,SMDPad,CuDef*
G36*
X113318710Y-60292349D02*
G01*
X112259173Y-59728983D01*
X112681698Y-58934331D01*
X113741235Y-59497697D01*
X113318710Y-60292349D01*
G37*
G04 #@! TD.AperFunction*
G04 #@! TA.AperFunction,SMDPad,CuDef*
G36*
X111769454Y-63206077D02*
G01*
X110709917Y-62642711D01*
X111132442Y-61848059D01*
X112191979Y-62411425D01*
X111769454Y-63206077D01*
G37*
G04 #@! TD.AperFunction*
G04 #@! TA.AperFunction,SMDPad,CuDef*
G36*
X80978395Y-59231866D02*
G01*
X80415029Y-60291403D01*
X79620377Y-59868878D01*
X80183743Y-58809341D01*
X80978395Y-59231866D01*
G37*
G04 #@! TD.AperFunction*
G04 #@! TA.AperFunction,SMDPad,CuDef*
G36*
X83892123Y-60781122D02*
G01*
X83328757Y-61840659D01*
X82534105Y-61418134D01*
X83097471Y-60358597D01*
X83892123Y-60781122D01*
G37*
G04 #@! TD.AperFunction*
G04 #@! TA.AperFunction,SMDPad,CuDef*
G36*
X71495844Y-58335670D02*
G01*
X70436307Y-57772304D01*
X70858832Y-56977652D01*
X71918369Y-57541018D01*
X71495844Y-58335670D01*
G37*
G04 #@! TD.AperFunction*
G04 #@! TA.AperFunction,SMDPad,CuDef*
G36*
X69946588Y-61249398D02*
G01*
X68887051Y-60686032D01*
X69309576Y-59891380D01*
X70369113Y-60454746D01*
X69946588Y-61249398D01*
G37*
G04 #@! TD.AperFunction*
D19*
X199404817Y-63673567D03*
X195262500Y-60325000D03*
X208756250Y-60325000D03*
X146304000Y-51689000D03*
D20*
X144055792Y-43326905D02*
X140615792Y-39886906D01*
X145135795Y-43326905D02*
X144055792Y-43326905D01*
X155855793Y-42426906D02*
X155855794Y-44966906D01*
X152548196Y-38686404D02*
X154979494Y-41117702D01*
X143055570Y-38686404D02*
X152548196Y-38686404D01*
X154979494Y-41117702D02*
X154979494Y-41550607D01*
X141855068Y-39886906D02*
X143055570Y-38686404D01*
X154979494Y-41550607D02*
X155855793Y-42426906D01*
X140615792Y-39886906D02*
X141855068Y-39886906D01*
X103704597Y-64874759D02*
X107460606Y-61118750D01*
X93082010Y-64874759D02*
X103704597Y-64874759D01*
X91179751Y-62972500D02*
X93082010Y-64874759D01*
X144417936Y-46233706D02*
X145684737Y-44966905D01*
X140007728Y-46233706D02*
X144417936Y-46233706D01*
X145684737Y-44966905D02*
X154616518Y-44966905D01*
X125122684Y-61118750D02*
X140007728Y-46233706D01*
X107460606Y-61118750D02*
X125122684Y-61118750D01*
X154616518Y-44966905D02*
X155855793Y-44966905D01*
X149956639Y-44966905D02*
X154616518Y-44966905D01*
X145785793Y-49137751D02*
X149956639Y-44966905D01*
X145785793Y-50018751D02*
X145785793Y-49137751D01*
X241875624Y-61487126D02*
X242461500Y-60901250D01*
X204140124Y-61487126D02*
X241875624Y-61487126D01*
X242461500Y-60901250D02*
X243592500Y-60901250D01*
X202648500Y-62978750D02*
X204140124Y-61487126D01*
X201517500Y-62978750D02*
X202648500Y-62978750D01*
X150681249Y-111382360D02*
X144425793Y-105126904D01*
X150681249Y-150513750D02*
X150681249Y-111382360D01*
X261698750Y-94538750D02*
X261448750Y-94538750D01*
X262579750Y-93657750D02*
X261698750Y-94538750D01*
X276909189Y-83704406D02*
X265642173Y-89695185D01*
X260519992Y-53920003D02*
X261860789Y-54329926D01*
X261860789Y-54329926D02*
X277117388Y-83023418D01*
X250384760Y-59309000D02*
X260519992Y-53920003D01*
X277117388Y-83023418D02*
X276909189Y-83704406D01*
X248147348Y-59309000D02*
X250384760Y-59309000D01*
X243592500Y-60901250D02*
X243592500Y-60020250D01*
X242451999Y-58879749D02*
X242451999Y-57014001D01*
X265642173Y-89695185D02*
X262579750Y-92757608D01*
X243592500Y-60020250D02*
X242451999Y-58879749D01*
X262579750Y-92757608D02*
X262579750Y-93657750D01*
X242451999Y-57014001D02*
X243078000Y-56388000D01*
X243078000Y-56388000D02*
X245226348Y-56388000D01*
X245226348Y-56388000D02*
X248147348Y-59309000D01*
X260663494Y-111986250D02*
X231049999Y-111986250D01*
X268837313Y-103812431D02*
X260663494Y-111986250D01*
X262579750Y-94538750D02*
X268837313Y-100796313D01*
X268837313Y-100796313D02*
X268837313Y-103812431D01*
X261448750Y-94538750D02*
X262579750Y-94538750D01*
X69596500Y-110363000D02*
X70328750Y-111095250D01*
X57973882Y-110363000D02*
X69596500Y-110363000D01*
X42283108Y-116163740D02*
X52173142Y-116163740D01*
X35018750Y-92219750D02*
X39243000Y-96444000D01*
X70328750Y-111095250D02*
X70328750Y-111976250D01*
X39243000Y-96444000D02*
X39243000Y-113123632D01*
X39243000Y-113123632D02*
X42283108Y-116163740D01*
X35018750Y-91338750D02*
X35018750Y-92219750D01*
X52173142Y-116163740D02*
X57973882Y-110363000D01*
X33750520Y-84151916D02*
X34844436Y-83058000D01*
X33750520Y-91201520D02*
X33750520Y-84151916D01*
X35018750Y-91338750D02*
X33887750Y-91338750D01*
X33887750Y-91338750D02*
X33750520Y-91201520D01*
X36579528Y-83058000D02*
X41910000Y-77727528D01*
X34844436Y-83058000D02*
X36579528Y-83058000D01*
X48002499Y-63979149D02*
X48002499Y-60897500D01*
X45557616Y-66424032D02*
X48002499Y-63979149D01*
X43822524Y-66424032D02*
X45557616Y-66424032D01*
X41910000Y-68336556D02*
X43822524Y-66424032D01*
X41910000Y-77727528D02*
X41910000Y-68336556D01*
X91179751Y-62972500D02*
X90048751Y-62972500D01*
X201517500Y-62978750D02*
X200099634Y-62978750D01*
X200099634Y-62978750D02*
X199404817Y-63673567D01*
X90546702Y-47742490D02*
X66000358Y-47742490D01*
X66000358Y-47742490D02*
X59409293Y-41151425D01*
X92360067Y-49555855D02*
X90546702Y-47742490D01*
X92360067Y-61792184D02*
X92360067Y-49555855D01*
X50234379Y-41151425D02*
X49176188Y-42209616D01*
X91179751Y-62972500D02*
X92360067Y-61792184D01*
X49176188Y-42209616D02*
X49176188Y-52289307D01*
X49176188Y-52289307D02*
X50744391Y-53857510D01*
X51300630Y-58730369D02*
X49133499Y-60897500D01*
X50744391Y-53857510D02*
X53434053Y-53857510D01*
X53434053Y-53857510D02*
X56079584Y-55264165D01*
X49133499Y-60897500D02*
X48002499Y-60897500D01*
X56124490Y-55309071D02*
X56124490Y-57951642D01*
X56079584Y-55264165D02*
X56124490Y-55309071D01*
X56124490Y-57951642D02*
X55345763Y-58730369D01*
X59409293Y-41151425D02*
X50234379Y-41151425D01*
X55345763Y-58730369D02*
X51300630Y-58730369D01*
D21*
X54628077Y-48203771D02*
X54297568Y-48825365D01*
X53448429Y-44345318D02*
X54628077Y-48203771D01*
X51145701Y-43120937D02*
X53448429Y-44345318D01*
X67921945Y-60460550D02*
X68874045Y-60169461D01*
X53740924Y-52920364D02*
X67921945Y-60460550D01*
X68874045Y-60169461D02*
X69628084Y-60570389D01*
X53502348Y-52140019D02*
X53740924Y-52920364D01*
X52748312Y-51739094D02*
X53502348Y-52140019D01*
X111120440Y-63148663D02*
X111450945Y-62527067D01*
X139704808Y-88378302D02*
X140440390Y-88153412D01*
X127388779Y-81829752D02*
X139704808Y-88378302D01*
X140440390Y-88153412D02*
X141194432Y-88554339D01*
X125954740Y-77139228D02*
X127388779Y-81829752D01*
X125200706Y-76738300D02*
X125954740Y-77139228D01*
X111120440Y-63148663D02*
X114620365Y-74596403D01*
X124870199Y-77359894D02*
X125200707Y-76738299D01*
X114620365Y-74596403D02*
X121662275Y-78340654D01*
X121662275Y-78340654D02*
X124870199Y-77359894D01*
X147089350Y-56520463D02*
X140615793Y-50046906D01*
X147089350Y-82754926D02*
X147089350Y-56520463D01*
X141622670Y-88221605D02*
X147089350Y-82754926D01*
X141194429Y-88554344D02*
X141527166Y-88221606D01*
X141527166Y-88221606D02*
X141622670Y-88221605D01*
X82812185Y-61853665D02*
X83213114Y-61099628D01*
X75973686Y-63944405D02*
X82812185Y-61853665D01*
X69628082Y-60570388D02*
X75973686Y-63944405D01*
X111120440Y-63148664D02*
X111450948Y-62527068D01*
X95848241Y-67817844D02*
X111120440Y-63148664D01*
X83213114Y-61099628D02*
X95848241Y-67817844D01*
X71507847Y-57035067D02*
X71177339Y-57656662D01*
X70380714Y-53348371D02*
X71507847Y-57035067D01*
X67965853Y-52064368D02*
X70380714Y-53348371D01*
X59930614Y-76989613D02*
X60684653Y-77390542D01*
X59023274Y-77267014D02*
X59930614Y-76989613D01*
X44559533Y-69576510D02*
X59023274Y-77267014D01*
X44282133Y-68669168D02*
X44559533Y-69576510D01*
X43528097Y-68268242D02*
X44282133Y-68669168D01*
X82801448Y-75772396D02*
X83131956Y-75150800D01*
X66826745Y-80656352D02*
X82801448Y-75772396D01*
X60684653Y-77390542D02*
X66826745Y-80656352D01*
X102526233Y-79082588D02*
X102856739Y-78460991D01*
X94907382Y-81411907D02*
X102526233Y-79082588D01*
X83131956Y-75150800D02*
X94907382Y-81411907D01*
X131556580Y-104861430D02*
X132310619Y-105262359D01*
X130649243Y-105138832D02*
X131556580Y-104861430D01*
X117164694Y-97968969D02*
X130649243Y-105138832D01*
X116180659Y-94750347D02*
X117164694Y-97968969D01*
X116511168Y-94128750D02*
X116180659Y-94750347D01*
X102283188Y-79539684D02*
X105960391Y-91567274D01*
X102856740Y-78460992D02*
X102283188Y-79539684D01*
X105960391Y-91567274D02*
X111531264Y-94529358D01*
X115171488Y-93416430D02*
X116511170Y-94128753D01*
X111531264Y-94529358D02*
X115171488Y-93416430D01*
X132990159Y-105262360D02*
X138949446Y-105262358D01*
X147543359Y-54434472D02*
X140615793Y-47506906D01*
X147543359Y-96668447D02*
X147543359Y-54434472D01*
X138949446Y-105262358D02*
X147543359Y-96668447D01*
X80971903Y-58285553D02*
X80299387Y-59550372D01*
X90390556Y-50467175D02*
X87254797Y-56364680D01*
X87254797Y-56364680D02*
X80971903Y-58285553D01*
X113330712Y-58991742D02*
X113000203Y-59613341D01*
X112203577Y-55305052D02*
X113330712Y-58991742D01*
X110012983Y-54140293D02*
X112203577Y-55305052D01*
D20*
X93808250Y-63784901D02*
X94317099Y-64293750D01*
X93808250Y-61794001D02*
X93808250Y-63784901D01*
X94948751Y-59772500D02*
X94948751Y-60653500D01*
X94948751Y-60653500D02*
X93808250Y-61794001D01*
X94317099Y-64293750D02*
X102393750Y-64293750D01*
X102393750Y-64293750D02*
X107950000Y-58737500D01*
X107950000Y-53960334D02*
X110592824Y-51317510D01*
X107950000Y-58737500D02*
X107950000Y-53960334D01*
X132770609Y-51317510D02*
X133985000Y-50103118D01*
X110592824Y-51317510D02*
X132770609Y-51317510D01*
X139121213Y-44966905D02*
X140615793Y-44966905D01*
X133985000Y-50103118D02*
X139121213Y-44966905D01*
X150685793Y-46818751D02*
X150685793Y-47699751D01*
X151759748Y-48773706D02*
X160692456Y-48773706D01*
X150685793Y-47699751D02*
X151759748Y-48773706D01*
X192230308Y-55052505D02*
X195262500Y-58084697D01*
X184943750Y-51593750D02*
X188402505Y-55052505D01*
X188402505Y-55052505D02*
X192230308Y-55052505D01*
X195262500Y-58084697D02*
X195262500Y-60325000D01*
X206963750Y-60325000D02*
X206417500Y-59778750D01*
X208756250Y-60325000D02*
X206963750Y-60325000D01*
X209337366Y-60906116D02*
X236750134Y-60906116D01*
X208756250Y-60325000D02*
X209337366Y-60906116D01*
X236750134Y-60906116D02*
X242030250Y-55626000D01*
X248492500Y-56820250D02*
X248492500Y-57701250D01*
X247298250Y-55626000D02*
X248492500Y-56820250D01*
X242030250Y-55626000D02*
X247298250Y-55626000D01*
X146912249Y-153713750D02*
X148606999Y-152019000D01*
X145781249Y-153713750D02*
X146912249Y-153713750D01*
X148606999Y-152019000D02*
X152654000Y-152019000D01*
X152654000Y-152019000D02*
X154940000Y-149733000D01*
X154940000Y-113101111D02*
X146965793Y-105126904D01*
X154940000Y-149733000D02*
X154940000Y-113101111D01*
X266707010Y-89787034D02*
X266348750Y-90145294D01*
X277394447Y-84104424D02*
X266707010Y-89787034D01*
X249623500Y-57701250D02*
X250215250Y-58293000D01*
X248492500Y-57701250D02*
X249623500Y-57701250D01*
X266348750Y-90145294D02*
X266348750Y-91338750D01*
X277743372Y-82963142D02*
X277394447Y-84104424D01*
X262260807Y-53844668D02*
X277743372Y-82963142D01*
X250215250Y-58293000D02*
X251057996Y-58293000D01*
X260459716Y-53294019D02*
X262260807Y-53844668D01*
X251057996Y-58293000D02*
X260459716Y-53294019D01*
X234569000Y-117475000D02*
X227557749Y-117475000D01*
X226149999Y-116067250D02*
X226149999Y-115186250D01*
X266348750Y-91338750D02*
X267479750Y-91338750D01*
X261073972Y-113039510D02*
X239004490Y-113039510D01*
X267479750Y-91338750D02*
X269875000Y-93734000D01*
X269875000Y-93734000D02*
X269875000Y-104238482D01*
X269875000Y-104238482D02*
X261073972Y-113039510D01*
X227557749Y-117475000D02*
X226149999Y-116067250D01*
X239004490Y-113039510D02*
X234569000Y-117475000D01*
X54624368Y-115176250D02*
X65428750Y-115176250D01*
X30118750Y-95419750D02*
X30099000Y-95439500D01*
X30099000Y-95439500D02*
X30099000Y-105443368D01*
X30118750Y-94538750D02*
X30118750Y-95419750D01*
X30099000Y-105443368D02*
X41854391Y-117198760D01*
X41854391Y-117198760D02*
X52601859Y-117198760D01*
X52601859Y-117198760D02*
X54624368Y-115176250D01*
X144650249Y-153713750D02*
X145781249Y-153713750D01*
X142186085Y-163345784D02*
X142186085Y-156177914D01*
X137533110Y-167998757D02*
X142186085Y-163345784D01*
X123421760Y-167998758D02*
X137533110Y-167998757D01*
X142186085Y-156177914D02*
X144650249Y-153713750D01*
X65428750Y-115176250D02*
X65428750Y-116057250D01*
X66719500Y-117348000D02*
X72772633Y-117348000D01*
X83312000Y-127887367D02*
X83312000Y-127889000D01*
X65428750Y-116057250D02*
X66719500Y-117348000D01*
X72772633Y-117348000D02*
X83312000Y-127887367D01*
X83312000Y-127889000D02*
X123421760Y-167998758D01*
X93817751Y-59772500D02*
X93037010Y-58991759D01*
X94948751Y-59772500D02*
X93817751Y-59772500D01*
X93037009Y-49411125D02*
X90787364Y-47161480D01*
X93037010Y-58991759D02*
X93037009Y-49411125D01*
X90787364Y-47161480D02*
X66241020Y-47161480D01*
X66241020Y-47161480D02*
X59649955Y-40570415D01*
X59649955Y-40570415D02*
X49993716Y-40570416D01*
X44133696Y-50059697D02*
X51771499Y-57697500D01*
X44133696Y-45269339D02*
X44133696Y-50059697D01*
X45373584Y-44029451D02*
X44133696Y-45269339D01*
X51771499Y-57697500D02*
X52902499Y-57697500D01*
X46534681Y-44029451D02*
X45373584Y-44029451D01*
X49993716Y-40570416D02*
X46534681Y-44029451D01*
X150685793Y-47699751D02*
X146696544Y-51689000D01*
X146696544Y-51689000D02*
X146304000Y-51689000D01*
X184943750Y-51593750D02*
X170656250Y-51593750D01*
X170656250Y-51593750D02*
X169862500Y-50800000D01*
X162718750Y-50800000D02*
X160692456Y-48773706D01*
X169862500Y-50800000D02*
X162718750Y-50800000D01*
D21*
X126112255Y-70036080D02*
X127080471Y-73202977D01*
X127080471Y-73202977D02*
X126749962Y-73824573D01*
X123792368Y-68802577D02*
X126112255Y-70036080D01*
X143074194Y-85019019D02*
X142743685Y-85640615D01*
X141894547Y-81160568D02*
X143074194Y-85019019D01*
X139479684Y-79876562D02*
X141894547Y-81160568D01*
X167440716Y-77409296D02*
X167771225Y-78030892D01*
X163747670Y-76280220D02*
X167440716Y-77409296D01*
X161469327Y-77491635D02*
X163747670Y-76280220D01*
X183268201Y-66260781D02*
X183598708Y-66882377D01*
X179581252Y-65133567D02*
X183268201Y-66260781D01*
X177163565Y-66419071D02*
X179581252Y-65133567D01*
X196823316Y-51717743D02*
X197153822Y-52339335D01*
X193139485Y-50591483D02*
X196823316Y-51717743D01*
X190943565Y-51759075D02*
X193139485Y-50591483D01*
X216557878Y-47984999D02*
X216888386Y-48606592D01*
X212862523Y-46855216D02*
X216557878Y-47984999D01*
X210558833Y-48080112D02*
X212862523Y-46855216D01*
X239035092Y-49410437D02*
X239365600Y-50032032D01*
X235519973Y-48335759D02*
X239035092Y-49410437D01*
X232993560Y-49679074D02*
X235519973Y-48335759D01*
X254210077Y-49007709D02*
X253934258Y-49909878D01*
X249813566Y-40739072D02*
X254210077Y-49007709D01*
X45407861Y-64732918D02*
X45077354Y-65354513D01*
X44280725Y-61046224D02*
X45407861Y-64732918D01*
X42202266Y-59941088D02*
X44280725Y-61046224D01*
X50987183Y-93809767D02*
X51741221Y-94210693D01*
X35636102Y-84971088D02*
X36160427Y-86686082D01*
X50079844Y-94087167D02*
X50987183Y-93809767D01*
X36160427Y-86686082D02*
X50079844Y-94087167D01*
X34882062Y-84570158D02*
X35636102Y-84971088D01*
X86449492Y-99144787D02*
X93569979Y-96967837D01*
X74053789Y-92553876D02*
X86449492Y-99144787D01*
X58530204Y-97820459D02*
X73723281Y-93175473D01*
X73723281Y-93175473D02*
X74053789Y-92553876D01*
X51741221Y-94210693D02*
X58530204Y-97820459D01*
X93900484Y-96346242D02*
X93569979Y-96967837D01*
X129741118Y-115112752D02*
X130007073Y-114846799D01*
X129741117Y-116548570D02*
X129741118Y-115112752D01*
X123307562Y-122194645D02*
X124095042Y-122194647D01*
X124095042Y-122194647D02*
X129741117Y-116548570D01*
X147997371Y-70605332D02*
X154979495Y-63623205D01*
X154979495Y-63623205D02*
X155855794Y-62746907D01*
X147997369Y-96856505D02*
X147997371Y-70605332D01*
X130007073Y-114846799D02*
X147997369Y-96856505D01*
X94654524Y-96747170D02*
X95462385Y-99389563D01*
X93900486Y-96346240D02*
X94654524Y-96747170D01*
X95462385Y-99389563D02*
X93938450Y-102255666D01*
X93938450Y-102255666D02*
X95579434Y-107623080D01*
X107012954Y-111451251D02*
X107343462Y-110829656D01*
X104324836Y-112273092D02*
X107012954Y-111451251D01*
X95579434Y-107623080D02*
X104324836Y-112273092D01*
X122553526Y-121793717D02*
X123307563Y-122194646D01*
X108097504Y-111230586D02*
X109372621Y-115401310D01*
X109372621Y-115401310D02*
X109384789Y-115407780D01*
X109384789Y-115407780D02*
X110118963Y-117809160D01*
X110118963Y-117809160D02*
X119416565Y-122752782D01*
X107343465Y-110829656D02*
X108097504Y-111230586D01*
X119416565Y-122752782D02*
X122553526Y-121793717D01*
X62564417Y-73855221D02*
X62233908Y-74476816D01*
X61437281Y-70168526D02*
X62564417Y-73855221D01*
X59022418Y-68884523D02*
X61437281Y-70168526D01*
X85011719Y-71615477D02*
X84681213Y-72237071D01*
X84123550Y-68710405D02*
X85011719Y-71615477D01*
X81447123Y-67287324D02*
X84123550Y-68710405D01*
X104736507Y-74925671D02*
X104405997Y-75547268D01*
X104000702Y-72518966D02*
X104736507Y-74925671D01*
X101069552Y-70960447D02*
X104000702Y-72518966D01*
X118390934Y-90593428D02*
X118060426Y-91215026D01*
X117263798Y-86906738D02*
X118390934Y-90593428D01*
X114848933Y-85622729D02*
X117263798Y-86906738D01*
X133063249Y-98040343D02*
X134190384Y-101727037D01*
X134190384Y-101727037D02*
X133859874Y-102348632D01*
X130536251Y-96696715D02*
X133063249Y-98040343D01*
X176524317Y-94154916D02*
X176854824Y-94776513D01*
X172837618Y-93027783D02*
X176524317Y-94154916D01*
X170422759Y-94311788D02*
X172837618Y-93027783D01*
X87273427Y-100097081D02*
X94359854Y-123275729D01*
X74070132Y-94076433D02*
X75263856Y-93711477D01*
X73434563Y-93738495D02*
X74070132Y-94076433D01*
X94359854Y-123275729D02*
X93852062Y-124230750D01*
X58842785Y-98199650D02*
X73434563Y-93738495D01*
X103473553Y-135893390D02*
X104022012Y-136185011D01*
X51681526Y-97634616D02*
X55193972Y-96560753D01*
X93852062Y-124230750D02*
X96242154Y-132048387D01*
X42909920Y-111090466D02*
X43663958Y-111491397D01*
X43663958Y-111491397D02*
X44439876Y-111254172D01*
X75263856Y-93711477D02*
X87273427Y-100097081D01*
X44439876Y-111254172D02*
X51681526Y-97634616D01*
X96242154Y-132048387D02*
X103473553Y-135893390D01*
X55193972Y-96560753D02*
X58483105Y-98309615D01*
X58483105Y-98309615D02*
X58842785Y-98199650D01*
X121640258Y-146847608D02*
X122085771Y-146711401D01*
X105254320Y-138713409D02*
X120949632Y-147058752D01*
X120949632Y-147058752D02*
X121640258Y-146847608D01*
X104570467Y-136476630D02*
X105254320Y-138713409D01*
X104022012Y-136185011D02*
X104570467Y-136476630D01*
X140062433Y-161877857D02*
X140636217Y-161702435D01*
X136575263Y-162943992D02*
X140062433Y-161877857D01*
X124740506Y-156651338D02*
X136575263Y-162943992D01*
X121841830Y-147170193D02*
X124740506Y-156651338D01*
X122085771Y-146711401D02*
X121841830Y-147170193D01*
X148451378Y-72691322D02*
X155855794Y-65286908D01*
X140636213Y-161702434D02*
X141116724Y-161221927D01*
X141116724Y-141303656D02*
X130195130Y-130382059D01*
X130195130Y-130382059D02*
X130195127Y-115300810D01*
X141116724Y-161221927D02*
X141116724Y-141303656D01*
X130195127Y-115300810D02*
X148451379Y-97044560D01*
X148451379Y-97044560D02*
X148451378Y-72691322D01*
X192323766Y-83021308D02*
X192654271Y-83642903D01*
X188634458Y-81893375D02*
X192323766Y-83021308D01*
X186103568Y-83239072D02*
X188634458Y-81893375D01*
X205903362Y-68321419D02*
X206233869Y-68943013D01*
X202388925Y-67246948D02*
X205903362Y-68321419D01*
X199883564Y-68579072D02*
X202388925Y-67246948D01*
X225568726Y-64661429D02*
X225899235Y-65283025D01*
X222007945Y-63572787D02*
X225568726Y-64661429D01*
X219513565Y-64899073D02*
X222007945Y-63572787D01*
X247967175Y-66344500D02*
X248297682Y-66966096D01*
X244320881Y-65229717D02*
X247967175Y-66344500D01*
X241933566Y-66499074D02*
X244320881Y-65229717D01*
X262990374Y-65551352D02*
X262616160Y-66775353D01*
X262616160Y-66775353D02*
X262697259Y-66927877D01*
X262811505Y-65214949D02*
X262990374Y-65551352D01*
X258753564Y-57559075D02*
X262816165Y-65199714D01*
X262816165Y-65199714D02*
X262811505Y-65214949D01*
X36761825Y-81034833D02*
X36431318Y-81656431D01*
X35881614Y-78155796D02*
X36761825Y-81034833D01*
X33258833Y-76761238D02*
X35881614Y-78155796D01*
X53620984Y-90675372D02*
X53290478Y-91296966D01*
X52493852Y-86988678D02*
X53620984Y-90675372D01*
X50078987Y-85704672D02*
X52493852Y-86988678D01*
X75933555Y-89018553D02*
X75603047Y-89640148D01*
X74806419Y-85331861D02*
X75933555Y-89018553D01*
X72503689Y-84107478D02*
X74806419Y-85331861D01*
X95780248Y-92810917D02*
X95449743Y-93432513D01*
X94653114Y-89124225D02*
X95780248Y-92810917D01*
X92126115Y-87780594D02*
X94653114Y-89124225D01*
X109223228Y-107294335D02*
X108892722Y-107915929D01*
X108096094Y-103607639D02*
X109223228Y-107294335D01*
X105905503Y-102442884D02*
X108096094Y-103607639D01*
X125187325Y-118659324D02*
X124856818Y-119280920D01*
X124007680Y-114800873D02*
X125187325Y-118659324D01*
X121592820Y-113516864D02*
X124007680Y-114800873D01*
X185410563Y-111005477D02*
X185741070Y-111627073D01*
X181723867Y-109878342D02*
X185410563Y-111005477D01*
X179365071Y-111132533D02*
X181723867Y-109878342D01*
X201042713Y-99838560D02*
X201373220Y-100460157D01*
X197503384Y-98756482D02*
X201042713Y-99838560D01*
X195053566Y-100059074D02*
X197503384Y-98756482D01*
X211308316Y-84083223D02*
X214775820Y-85143347D01*
X214775820Y-85143347D02*
X215106328Y-85764943D01*
X208833564Y-85399072D02*
X211308316Y-84083223D01*
X234497256Y-81453546D02*
X234827765Y-82075141D01*
X230977051Y-80377312D02*
X234497256Y-81453546D01*
X228453566Y-81719072D02*
X230977051Y-80377312D01*
X256895697Y-83136619D02*
X257226209Y-83758211D01*
X253289988Y-82034239D02*
X256895697Y-83136619D01*
X250873565Y-83319075D02*
X253289988Y-82034239D01*
X272126259Y-82715760D02*
X271866658Y-83564877D01*
X267693563Y-74379074D02*
X272126259Y-82715760D01*
X43662550Y-103868454D02*
X44789685Y-107555146D01*
X44789685Y-107555146D02*
X44459177Y-108176741D01*
X41135552Y-102524825D02*
X43662550Y-103868454D01*
X106491321Y-133360199D02*
X106272605Y-133771542D01*
X107271132Y-131893585D02*
X106491321Y-133360199D01*
X106159790Y-128258543D02*
X107271132Y-131893585D01*
X104755028Y-127511620D02*
X106159790Y-128258543D01*
X125128276Y-144503873D02*
X124884333Y-144962664D01*
X121262428Y-136787174D02*
X123061502Y-137743757D01*
X123061502Y-137743757D02*
X125128276Y-144503873D01*
X120797267Y-135265703D02*
X121262428Y-136787174D01*
X136509257Y-159513391D02*
X139671389Y-158546629D01*
X131873473Y-157048500D02*
X136509257Y-159513391D01*
X166635149Y-167752601D02*
X169455497Y-158527656D01*
X165161197Y-168536320D02*
X166635149Y-167752601D01*
X181471210Y-138407713D02*
X179977267Y-137950971D01*
X185095159Y-145223373D02*
X181471210Y-138407713D01*
X198129323Y-124874191D02*
X195423886Y-124047055D01*
X201787933Y-122928872D02*
X198129323Y-124874191D01*
X265826008Y-99999709D02*
X266156515Y-100621305D01*
X262181341Y-98885422D02*
X265826008Y-99999709D01*
X259823565Y-100139073D02*
X262181341Y-98885422D01*
X152489795Y-39626905D02*
X152908000Y-40045110D01*
X151335795Y-39626905D02*
X152489795Y-39626905D01*
X142392793Y-44203906D02*
X140615793Y-42426905D01*
X152497396Y-44203906D02*
X142392793Y-44203906D01*
X152908000Y-43793302D02*
X152497396Y-44203906D01*
X152908000Y-40045110D02*
X152908000Y-43793302D01*
X185478471Y-70417698D02*
X185147966Y-69796101D01*
X184771841Y-72728985D02*
X185478471Y-70417698D01*
X169320480Y-80944620D02*
X184771841Y-72728985D01*
X199033586Y-55874659D02*
X198703077Y-55253064D01*
X196646590Y-63682173D02*
X199033586Y-55874659D01*
X185147966Y-69796101D02*
X196646590Y-63682173D01*
X199033586Y-55874659D02*
X209759834Y-59154002D01*
X217956846Y-54795576D02*
X218768149Y-52141916D01*
X218768149Y-52141916D02*
X218437641Y-51520322D01*
X209759834Y-59154002D02*
X217956846Y-54795576D01*
X221240525Y-56791782D02*
X232874182Y-60348547D01*
X218437641Y-51520322D02*
X221240525Y-56791782D01*
X240394676Y-56349831D02*
X241245363Y-53567352D01*
X232874182Y-60348547D02*
X240394676Y-56349831D01*
X250398934Y-51789641D02*
X251020530Y-51459133D01*
X244934375Y-54695200D02*
X250398934Y-51789641D01*
X241245363Y-53567352D02*
X244934375Y-54695200D01*
X240914854Y-52945759D02*
X241245363Y-53567352D01*
X169320481Y-66051594D02*
X155855794Y-52586906D01*
X169320481Y-80944619D02*
X169320481Y-66051594D01*
X194534038Y-87178226D02*
X194203527Y-86556628D01*
X193827406Y-89489512D02*
X194534038Y-87178226D01*
X178404079Y-97690241D02*
X193827406Y-89489512D01*
X208113636Y-72478336D02*
X207783127Y-71856742D01*
X205674128Y-80457607D02*
X208113636Y-72478336D01*
X194203527Y-86556628D02*
X205674128Y-80457607D01*
X208113636Y-72478336D02*
X219011638Y-75810190D01*
X227778998Y-68818345D02*
X227448490Y-68196750D01*
X226928310Y-71600821D02*
X227778998Y-68818345D01*
X219011638Y-75810190D02*
X226928310Y-71600821D01*
X230356286Y-73665517D02*
X241816544Y-77169269D01*
X227448490Y-68196750D02*
X230356286Y-73665517D01*
X249366143Y-73155076D02*
X250177448Y-70501419D01*
X241816544Y-77169269D02*
X249366143Y-73155076D01*
X259161937Y-68807642D02*
X259783532Y-68477133D01*
X253859336Y-71627084D02*
X259161937Y-68807642D01*
X250177448Y-70501419D02*
X253859336Y-71627084D01*
X249846940Y-69879823D02*
X250177448Y-70501419D01*
X172817007Y-98806703D02*
X170261113Y-96250809D01*
X178404079Y-97690242D02*
X177287618Y-98806705D01*
X177287618Y-98806705D02*
X172817007Y-98806703D01*
X170261113Y-96250809D02*
X159563878Y-96250809D01*
X159563878Y-96250809D02*
X154801379Y-91488310D01*
X154801379Y-91488310D02*
X154801379Y-79582060D01*
X154801379Y-79582060D02*
X160357627Y-74025811D01*
X160357628Y-59628741D02*
X155855793Y-55126906D01*
X160357627Y-74025811D02*
X160357628Y-59628741D01*
X203252985Y-103995478D02*
X202922476Y-103373885D01*
X202501718Y-106452759D02*
X203252985Y-103995478D01*
X187290326Y-114540798D02*
X202501718Y-106452759D01*
X214578089Y-97176484D02*
X216986092Y-89300265D01*
X202922476Y-103373885D02*
X214578089Y-97176484D01*
X216986092Y-89300265D02*
X216655585Y-88678669D01*
X216986092Y-89300265D02*
X227927036Y-92645246D01*
X236707528Y-85610464D02*
X236377021Y-84988866D01*
X235843713Y-88435878D02*
X236707528Y-85610464D01*
X227927036Y-92645246D02*
X235843713Y-88435878D01*
X239300290Y-90486741D02*
X250758905Y-93989989D01*
X236377021Y-84988866D02*
X239300290Y-90486741D01*
X258281539Y-89990135D02*
X259105972Y-87293535D01*
X250758905Y-93989989D02*
X258281539Y-89990135D01*
X268331336Y-85444641D02*
X268952931Y-85114134D01*
X262755570Y-88409329D02*
X268331336Y-85444641D01*
X259105972Y-87293535D02*
X262755570Y-88409329D01*
X258775465Y-86671940D02*
X259105972Y-87293535D01*
X181759318Y-115627451D02*
X178257676Y-112125810D01*
X187290326Y-114540798D02*
X186203674Y-115627452D01*
X186203674Y-115627452D02*
X181759318Y-115627451D01*
X174051926Y-112125810D02*
X169289428Y-107363309D01*
X178257676Y-112125810D02*
X174051926Y-112125810D01*
X169289428Y-107363309D02*
X165913880Y-107363308D01*
X165913880Y-107363308D02*
X158770129Y-100219558D01*
X158770128Y-96099125D02*
X154347368Y-91676368D01*
X158770129Y-100219558D02*
X158770128Y-96099125D01*
X154347367Y-79394002D02*
X159903620Y-73837753D01*
X154347368Y-91676368D02*
X154347367Y-79394002D01*
X159903620Y-61714733D02*
X155855793Y-57666906D01*
X159903620Y-73837753D02*
X159903620Y-61714733D01*
X265069902Y-104936549D02*
X267705771Y-103535030D01*
X250229788Y-94302977D02*
X254100586Y-101582893D01*
X234728440Y-89543077D02*
X234741560Y-89567752D01*
X254100586Y-101582893D02*
X265069902Y-104936549D01*
X234741560Y-89567752D02*
X250229788Y-94302977D01*
X227974138Y-93134403D02*
X234728440Y-89543077D01*
X216715443Y-91738373D02*
X219158719Y-90439257D01*
X214957278Y-97489064D02*
X216715443Y-91738373D01*
X204038528Y-125342343D02*
X205292418Y-121241051D01*
X205292418Y-121241051D02*
X201542969Y-114189358D01*
X219158719Y-90439257D02*
X227974138Y-93134403D01*
X204923817Y-102823950D02*
X214957278Y-97489064D01*
X201542969Y-114189358D02*
X204326075Y-105086225D01*
X204326075Y-105086225D02*
X204266453Y-104974090D01*
X204266453Y-104974090D02*
X204923817Y-102823950D01*
X183805221Y-147777989D02*
X183346426Y-148021932D01*
X200186709Y-139067796D02*
X183805221Y-147777989D01*
X204257245Y-125753684D02*
X200186709Y-139067796D01*
X204038528Y-125342343D02*
X204257245Y-125753684D01*
X183346426Y-148021932D02*
X178499613Y-163875149D01*
X166906547Y-170039294D02*
X162620865Y-168729029D01*
X162304161Y-168133396D02*
X162005391Y-167571493D01*
X162620865Y-168729029D02*
X162304161Y-168133396D01*
X178499613Y-163875149D02*
X166906547Y-170039294D01*
X159449608Y-63800721D02*
X155855793Y-60206906D01*
X153893360Y-79205945D02*
X159449608Y-73649697D01*
X153893360Y-91864423D02*
X153893360Y-79205945D01*
X157976379Y-95947443D02*
X153893360Y-91864423D01*
X157976379Y-96250809D02*
X157976379Y-95947443D01*
X158316117Y-96590549D02*
X157976379Y-96250809D01*
X157976380Y-163542477D02*
X157976379Y-142288309D01*
X162005391Y-167571489D02*
X157976380Y-163542477D01*
X165120128Y-107211627D02*
X158316119Y-100407617D01*
X157976379Y-142288309D02*
X165120128Y-135144560D01*
X165120128Y-135144560D02*
X165120128Y-107211627D01*
X159449608Y-73649697D02*
X159449608Y-63800721D01*
X158316119Y-100407617D02*
X158316117Y-96590549D01*
X49693698Y-42423975D02*
X49693698Y-52074948D01*
X90048751Y-59772500D02*
X90048752Y-59018500D01*
X90048752Y-59018500D02*
X91842557Y-57224694D01*
X53906500Y-60897500D02*
X52902500Y-60897500D01*
X91842557Y-57224694D02*
X91842557Y-49770214D01*
X50448738Y-41668935D02*
X49693698Y-42423975D01*
X91842557Y-49770214D02*
X90332343Y-48260000D01*
X90332343Y-48260000D02*
X65786000Y-48260000D01*
X50249837Y-41867836D02*
X50249837Y-41867837D01*
X65786000Y-48260000D02*
X59194935Y-41668935D01*
X50448738Y-41668935D02*
X50249837Y-41867836D01*
X59194935Y-41668935D02*
X50448738Y-41668935D01*
X49693698Y-52074948D02*
X50958750Y-53340000D01*
X50958750Y-53340000D02*
X53563081Y-53340000D01*
X53563081Y-53340000D02*
X56390826Y-54843539D01*
X56390826Y-54843539D02*
X56642000Y-55094713D01*
X56642000Y-58166000D02*
X55499000Y-59309000D01*
X56642000Y-55094713D02*
X56642000Y-58166000D01*
X55562500Y-59241500D02*
X55499000Y-59309000D01*
X55499000Y-59309000D02*
X53906500Y-60897500D01*
X95952751Y-62972500D02*
X108125251Y-50800000D01*
X94948751Y-62972500D02*
X95952751Y-62972500D01*
X108125251Y-50800000D02*
X132556250Y-50800000D01*
X132556250Y-50800000D02*
X138906250Y-44450000D01*
X138906250Y-37275562D02*
X140463062Y-35718750D01*
X138906250Y-44450000D02*
X138906250Y-37275562D01*
X155855793Y-36216605D02*
X155855793Y-37346905D01*
X155357938Y-35718750D02*
X155855793Y-36216605D01*
X140463062Y-35718750D02*
X155357938Y-35718750D01*
X42296894Y-57697500D02*
X48002500Y-57697500D01*
X39895569Y-60098827D02*
X42296894Y-57697500D01*
X30118750Y-91338750D02*
X30118750Y-87835252D01*
X30118750Y-87835252D02*
X31195751Y-86758251D01*
X31195751Y-75484249D02*
X39895567Y-66784433D01*
X31195751Y-86758251D02*
X31195751Y-75484249D01*
X39895567Y-66784433D02*
X39895567Y-66466933D01*
X39895567Y-66466933D02*
X39895569Y-60098827D01*
X35018750Y-95292750D02*
X30820575Y-99490926D01*
X42068750Y-116681250D02*
X52387500Y-116681250D01*
X30820575Y-99490926D02*
X30820575Y-105433075D01*
X35018749Y-94538750D02*
X35018750Y-95292750D01*
X57092500Y-111976250D02*
X65428750Y-111976250D01*
X52387500Y-116681250D02*
X57092500Y-111976250D01*
X30820575Y-105433075D02*
X42068750Y-116681250D01*
X71332750Y-115176250D02*
X123637751Y-167481250D01*
X70328749Y-115176250D02*
X71332750Y-115176250D01*
X123637751Y-167481250D02*
X137318750Y-167481249D01*
X144777250Y-150513750D02*
X145781250Y-150513750D01*
X141668575Y-153622425D02*
X144777250Y-150513750D01*
X141668575Y-163131425D02*
X141668575Y-153622425D01*
X137318750Y-167481249D02*
X141668575Y-163131425D01*
X158198556Y-167851747D02*
X166953648Y-170528447D01*
X150681249Y-153713749D02*
X158198556Y-167851747D01*
X166953648Y-170528447D02*
X178878801Y-164187728D01*
X178878801Y-164187728D02*
X183326430Y-149640189D01*
X183326430Y-149640189D02*
X200166712Y-140686052D01*
X200166712Y-140686052D02*
X204105072Y-127804260D01*
X225400000Y-112385032D02*
X226150000Y-111986250D01*
X223904454Y-117276741D02*
X225400000Y-112385032D01*
X204105072Y-127804260D02*
X223904454Y-117276741D01*
X266348750Y-94538750D02*
X267352750Y-94538750D01*
X267352750Y-94538750D02*
X269354823Y-96540823D01*
X269354823Y-96540823D02*
X269354823Y-104026790D01*
X269354823Y-104026790D02*
X260859613Y-112522000D01*
X260859613Y-112522000D02*
X232960249Y-112522000D01*
X232960249Y-112522000D02*
X231049999Y-114432250D01*
X231049999Y-114432250D02*
X231049999Y-115186250D01*
X261448751Y-91338751D02*
X276476966Y-83348107D01*
X276559819Y-83077106D02*
X261504490Y-54762149D01*
X276476966Y-83348107D02*
X276559819Y-83077106D01*
X260573679Y-54477572D02*
X248492500Y-60901249D01*
X261504490Y-54762149D02*
X260573679Y-54477572D01*
X244596500Y-57701250D02*
X245364000Y-58468750D01*
X243592500Y-57701250D02*
X244596500Y-57701250D01*
X245364000Y-58468750D02*
X245364000Y-61595000D01*
X243980250Y-62978750D02*
X206417500Y-62978750D01*
X245364000Y-61595000D02*
X243980250Y-62978750D01*
X201517500Y-60532750D02*
X201517500Y-59778750D01*
X168866522Y-81950638D02*
X180099612Y-81950638D01*
X168252440Y-81336556D02*
X168866522Y-81950638D01*
X180099612Y-81950638D02*
X201517500Y-60532750D01*
X168252440Y-80693522D02*
X168252440Y-81336556D01*
X150685793Y-50018751D02*
X150685793Y-50772751D01*
X150685793Y-50772751D02*
X153836646Y-53923604D01*
X153836646Y-53923604D02*
X156433378Y-53923604D01*
X156433378Y-53923604D02*
X168866471Y-66356697D01*
X168866471Y-80079491D02*
X168252440Y-80693522D01*
X168866471Y-66356697D02*
X168866471Y-80079491D01*
M02*
