M48
; DRILL file {KiCad 5.1.5-52549c5~86~ubuntu18.04.1} date Fri 17 Apr 2020 17:36:01 CEST
; FORMAT={-:-/ absolute / inch / decimal}
; #@! TF.CreationDate,2020-04-17T17:36:01+02:00
; #@! TF.GenerationSoftware,Kicad,Pcbnew,5.1.5-52549c5~86~ubuntu18.04.1
; #@! TF.FileFunction,NonPlated,1,2,NPTH
FMAT,2
INCH
T1C0.0689
T2C0.1570
%
G90
G05
T1
X4.5149Y-2.7445
X4.8681Y-2.9323
X6.8906Y-4.6927
X7.2438Y-4.5049
X3.6203Y-2.8295
X3.9735Y-3.0173
X8.0508Y-3.6796
X8.404Y-3.4918
X7.6108Y-5.2346
X7.9034Y-4.9618
X7.5083Y-4.2568
X7.8615Y-4.069
X8.4713Y-2.8725
X8.8245Y-2.6847
X6.3261Y-6.3448
X6.7086Y-6.4617
X9.354Y-2.9355
X9.7071Y-2.7477
X7.1559Y-3.5946
X7.5091Y-3.4068
X1.9649Y-2.7477
X2.3181Y-2.9355
X10.3681Y-3.2457
X10.7213Y-3.058
X1.6128Y-3.4099
X1.966Y-3.5977
X7.3465Y-2.3552
X7.6997Y-2.1674
X2.8478Y-2.6849
X3.201Y-2.8726
X3.9724Y-2.1673
X4.3256Y-2.355
X0.9506Y-3.0578
X1.3038Y-3.2456
X9.002Y-2.2733
X9.3552Y-2.0855
X2.4957Y-3.3471
X2.8489Y-3.5349
X9.7059Y-3.5977
X10.0591Y-3.4099
X8.8232Y-3.5347
X9.1764Y-3.3469
X5.1325Y-3.1805
X5.4857Y-3.3683
X6.804Y-2.9324
X7.1571Y-2.7446
X3.8107Y-4.0689
X4.1639Y-4.2567
X6.1861Y-3.3683
X6.5392Y-3.1805
X10.0162Y-2.5835
X10.3693Y-2.3957
X4.1628Y-3.4067
X4.516Y-3.5945
X9.6642Y-1.9213
X10.0174Y-1.7335
X6.5386Y-4.0305
X6.8917Y-3.8427
X3.2682Y-3.4917
X3.6214Y-3.6795
X7.6984Y-3.0174
X8.0516Y-2.8296
X4.7804Y-3.8427
X5.1336Y-4.0305
X3.7684Y-4.9618
X4.0609Y-5.2346
X4.9635Y-6.462
X5.346Y-6.345
X3.1999Y-2.0226
X3.5531Y-2.2104
X1.6548Y-1.7334
X2.008Y-1.9212
X4.6074Y-5.654
X4.9466Y-5.442
X8.1187Y-2.2103
X8.4719Y-2.0226
X6.7253Y-5.4418
X7.0645Y-5.6537
X2.317Y-2.0855
X2.6702Y-2.2733
X10.0583Y-4.2599
X10.4115Y-4.0721
X1.2607Y-4.0722
X1.6139Y-4.2599
X1.3027Y-2.3956
X1.6559Y-2.5834
X4.4283Y-4.5049
X4.7815Y-4.6927
T2
X4.6915Y-2.8384
X7.0672Y-4.5988
X3.7969Y-2.9234
X8.2274Y-3.5857
X7.7571Y-5.0982
X7.6849Y-4.1629
X8.6479Y-2.7786
X6.5174Y-6.4033
X9.5305Y-2.8416
X7.3325Y-3.5007
X2.1415Y-2.8416
X10.5447Y-3.1518
X1.7894Y-3.5038
X7.5231Y-2.2613
X3.0244Y-2.7787
X4.149Y-2.2611
X1.1272Y-3.1517
X9.1786Y-2.1794
X2.6723Y-3.441
X9.8825Y-3.5038
X8.9998Y-3.4408
X5.3091Y-3.2744
X6.9805Y-2.8385
X3.9873Y-4.1628
X6.3627Y-3.2744
X10.1927Y-2.4896
X4.3394Y-3.5006
X9.8408Y-1.8274
X6.7152Y-3.9366
X3.4448Y-3.5856
X7.875Y-2.9235
X4.957Y-3.9366
X3.9147Y-5.0982
X5.1547Y-6.4035
X3.3765Y-2.1165
X1.8314Y-1.8273
X4.777Y-5.548
X8.2953Y-2.1165
X6.8949Y-5.5478
X2.4936Y-2.1794
X10.2349Y-4.166
X1.4373Y-4.1661
X1.4793Y-2.4895
X4.6049Y-4.5988
T0
M30
