G04 #@! TF.GenerationSoftware,KiCad,Pcbnew,5.1.5-52549c5~86~ubuntu18.04.1*
G04 #@! TF.CreationDate,2020-04-17T17:36:02+02:00*
G04 #@! TF.ProjectId,first-pcb,66697273-742d-4706-9362-2e6b69636164,0.1.1*
G04 #@! TF.SameCoordinates,Original*
G04 #@! TF.FileFunction,Copper,L1,Top*
G04 #@! TF.FilePolarity,Positive*
%FSLAX46Y46*%
G04 Gerber Fmt 4.6, Leading zero omitted, Abs format (unit mm)*
G04 Created by KiCad (PCBNEW 5.1.5-52549c5~86~ubuntu18.04.1) date 2020-04-17 17:36:02*
%MOMM*%
%LPD*%
G04 APERTURE LIST*
%ADD10C,2.250000*%
%ADD11C,3.500000*%
%ADD12C,1.752600*%
%ADD13R,1.752600X1.752600*%
%ADD14O,1.700000X1.700000*%
%ADD15R,1.700000X1.700000*%
%ADD16C,0.800000*%
%ADD17C,0.381000*%
%ADD18C,0.254000*%
G04 APERTURE END LIST*
D10*
X177163566Y-66419073D03*
X172749307Y-71642905D03*
D11*
X225194793Y-44113907D03*
X167664794Y-53503904D03*
X128804793Y-53503907D03*
X71274492Y-44113905D03*
X19684495Y-96883905D03*
X75714495Y-113583902D03*
X220754793Y-113583902D03*
X276784792Y-96883905D03*
X148234794Y-144774405D03*
D10*
X131873473Y-157048499D03*
X126543562Y-161334073D03*
X169455497Y-158527654D03*
X162640338Y-159100108D03*
X120797267Y-135265703D03*
X116758157Y-140784732D03*
X179977268Y-137950971D03*
X173246168Y-136740025D03*
X110012983Y-54140293D03*
X103213808Y-53401835D03*
X51145699Y-43120936D03*
X44346524Y-42382478D03*
X90390556Y-50467175D03*
X83591381Y-49728717D03*
X123792368Y-68802579D03*
X116993193Y-68064121D03*
X139479685Y-79876564D03*
X132680510Y-79138106D03*
X42202268Y-59941088D03*
X35403093Y-59202630D03*
X59022416Y-68884522D03*
X52223241Y-68146064D03*
X81447123Y-67287325D03*
X74647948Y-66548867D03*
X101069548Y-70960446D03*
X94270373Y-70221988D03*
X114848934Y-85622727D03*
X108049759Y-84884269D03*
X130536252Y-96696714D03*
X123737077Y-95958256D03*
X72503687Y-84107476D03*
X65704512Y-83369018D03*
X92126116Y-87780596D03*
X85326941Y-87042138D03*
X105905502Y-102442883D03*
X99106327Y-101704425D03*
X121592816Y-113516867D03*
X114793641Y-112778409D03*
X41135552Y-102524824D03*
X34336377Y-101786366D03*
X104755029Y-127511622D03*
X98378657Y-125038571D03*
X190943566Y-51759074D03*
X186529307Y-56982906D03*
X210558832Y-48080110D03*
X206144573Y-53303942D03*
X232993563Y-49679074D03*
X228579304Y-54902906D03*
X249813564Y-40739070D03*
X245399305Y-45962902D03*
X170422758Y-94311787D03*
X166008499Y-99535619D03*
X186103564Y-83239074D03*
X181689305Y-88462906D03*
X199883566Y-68579073D03*
X195469307Y-73802905D03*
X219513564Y-64899073D03*
X215099305Y-70122905D03*
X241933565Y-66499074D03*
X237519306Y-71722906D03*
X258753563Y-57559074D03*
X254339304Y-62782906D03*
X179365068Y-111132535D03*
X174950809Y-116356367D03*
X195053565Y-100059074D03*
X190639306Y-105282906D03*
X250873563Y-83319075D03*
X246459304Y-88542907D03*
X267693564Y-74379074D03*
X263279305Y-79602906D03*
X33258832Y-76761238D03*
X26459657Y-76022780D03*
X208833562Y-85399072D03*
X204419303Y-90622904D03*
X50078985Y-85704671D03*
X43279810Y-84966213D03*
X195423886Y-124047056D03*
X192512066Y-130235384D03*
X161469325Y-77491637D03*
X157055066Y-82715469D03*
X259823564Y-100139074D03*
X255409305Y-105362906D03*
X67965854Y-52064370D03*
X61166679Y-51325912D03*
X228453565Y-81719073D03*
X224039306Y-86942905D03*
D12*
X140615793Y-37346905D03*
X155855793Y-65286905D03*
X140615793Y-39886905D03*
X140615793Y-42426905D03*
X140615793Y-44966905D03*
X140615793Y-47506905D03*
X140615793Y-50046905D03*
X140615793Y-52586905D03*
X140615793Y-55126905D03*
X140615793Y-57666905D03*
X140615793Y-60206905D03*
X140615793Y-62746905D03*
X140615793Y-65286905D03*
X155855793Y-62746905D03*
X155855793Y-60206905D03*
X155855793Y-57666905D03*
X155855793Y-55126905D03*
X155855793Y-52586905D03*
X155855793Y-50046905D03*
X155855793Y-47506905D03*
X155855793Y-44966905D03*
X155855793Y-42426905D03*
X155855793Y-39886905D03*
D13*
X155855793Y-37346905D03*
D14*
X144425793Y-105126904D03*
X146965793Y-105126904D03*
X149505793Y-105126904D03*
D15*
X152045793Y-105126904D03*
D16*
X199404817Y-63673567D03*
X195262500Y-60325000D03*
X208756250Y-60325000D03*
X146304000Y-51689000D03*
D17*
X144425793Y-56396906D02*
X155855794Y-44966906D01*
X144425793Y-105126904D02*
X144425793Y-56396906D01*
X186558093Y-54768750D02*
X173831250Y-54768750D01*
X188044808Y-56255465D02*
X186558093Y-54768750D01*
X173831250Y-54768750D02*
X169862500Y-50800000D01*
X188044808Y-57924833D02*
X188044808Y-56255465D01*
X169862500Y-50800000D02*
X163512500Y-50800000D01*
X193793542Y-63673567D02*
X188044808Y-57924833D01*
X163512500Y-50800000D02*
X157679405Y-44966905D01*
X199404817Y-63673567D02*
X193793542Y-63673567D01*
X157679405Y-44966905D02*
X155855793Y-44966905D01*
X141882594Y-46233707D02*
X140615793Y-44966906D01*
X143830352Y-106367405D02*
X141882594Y-104419647D01*
X145725292Y-106367405D02*
X143830352Y-106367405D01*
X146965794Y-105126904D02*
X145725292Y-106367405D01*
X195262500Y-60325000D02*
X208756250Y-60325000D01*
X141882594Y-104419647D02*
X141882594Y-46233707D01*
X145738315Y-51689000D02*
X144849315Y-50800000D01*
X146304000Y-51689000D02*
X145738315Y-51689000D01*
X144849315Y-49200427D02*
X140615793Y-44966905D01*
X144849315Y-50800000D02*
X144849315Y-49200427D01*
D18*
X44346530Y-42382477D02*
X35403093Y-59202629D01*
X26459661Y-76022779D02*
X26459658Y-76022781D01*
X35403093Y-59202629D02*
X26459661Y-76022779D01*
X254340529Y-62778899D02*
X254339303Y-62782906D01*
X245399306Y-45962903D02*
X254340529Y-62778899D01*
X263280530Y-79598899D02*
X263279304Y-79602907D01*
X254339303Y-62782906D02*
X263280530Y-79598899D01*
X261411694Y-81470517D02*
X263279305Y-79602906D01*
X262935694Y-87774150D02*
X261411694Y-86250151D01*
X261411694Y-86250151D02*
X261411694Y-81470517D01*
X262935693Y-108221151D02*
X262935694Y-87774150D01*
X261284693Y-109872151D02*
X262935693Y-108221151D01*
X255371786Y-109872150D02*
X261284693Y-109872151D01*
X250575434Y-100312956D02*
X250575433Y-103487957D01*
X229258455Y-97931706D02*
X238146010Y-89044150D01*
X228992501Y-98197660D02*
X229258455Y-97931706D01*
X252638439Y-107138804D02*
X255371786Y-109872150D01*
X214068683Y-98197660D02*
X228992501Y-98197660D01*
X207033454Y-105232889D02*
X214068683Y-98197660D01*
X207033454Y-128094207D02*
X207033454Y-105232889D01*
X26310329Y-99499539D02*
X39635691Y-112824901D01*
X239306628Y-89044150D02*
X250575434Y-100312956D01*
X26310329Y-78940121D02*
X26310329Y-99499539D01*
X238146010Y-89044150D02*
X239306628Y-89044150D01*
X39635691Y-112824901D02*
X43860693Y-112824900D01*
X26459657Y-76022780D02*
X26459657Y-78790794D01*
X173392587Y-166987956D02*
X184468714Y-155911830D01*
X55570217Y-101115377D02*
X83102855Y-101115377D01*
X83102855Y-101115377D02*
X88146522Y-106159044D01*
X250575433Y-103487957D02*
X252638439Y-105550962D01*
X124635136Y-167253909D02*
X173126633Y-167253911D01*
X252638439Y-105550962D02*
X252638439Y-107138804D01*
X88146522Y-106159044D02*
X93412516Y-123383348D01*
X26459657Y-78790794D02*
X26310329Y-78940121D01*
X93412516Y-123383348D02*
X93412515Y-136031289D01*
X93412515Y-136031289D02*
X124635136Y-167253909D01*
X43860693Y-112824900D02*
X55570217Y-101115377D01*
X184468714Y-150658946D02*
X207033454Y-128094207D01*
X173126633Y-167253911D02*
X173392587Y-166987956D01*
X184468714Y-155911830D02*
X184468714Y-150658946D01*
X130942564Y-58221635D02*
X132642459Y-55024599D01*
X128795599Y-58878028D02*
X130942564Y-58221635D01*
X132642459Y-55024599D02*
X140615793Y-52586906D01*
X51534021Y-40185041D02*
X67020096Y-48419134D01*
X67020096Y-48419134D02*
X83018789Y-43527842D01*
X83018789Y-43527842D02*
X97035582Y-50980703D01*
X97035582Y-50980703D02*
X107770409Y-47698737D01*
X44346526Y-42382479D02*
X51534021Y-40185041D01*
X107770409Y-47698737D02*
X128795599Y-58878028D01*
X52223243Y-68146063D02*
X52223244Y-68146065D01*
X61166679Y-51325911D02*
X52223243Y-68146063D01*
X52223244Y-68146065D02*
X43279812Y-84966213D01*
X42532886Y-86370977D02*
X34336377Y-101786365D01*
X43279812Y-84966213D02*
X42532886Y-86370977D01*
X237520533Y-71718903D02*
X237519306Y-71722906D01*
X228579303Y-54902904D02*
X237520533Y-71718903D01*
X246460530Y-88538902D02*
X246459302Y-88542905D01*
X237519306Y-71722906D02*
X246460530Y-88538902D01*
X255401368Y-105360478D02*
X255409304Y-105362904D01*
X246459302Y-88542905D02*
X255401368Y-105360478D01*
X251029444Y-100124900D02*
X251029444Y-103299902D01*
X93866526Y-135843232D02*
X124823194Y-166799900D01*
X88547594Y-105918052D02*
X93866526Y-123315497D01*
X83290911Y-100661367D02*
X88547594Y-105918052D01*
X251029444Y-103299902D02*
X253092450Y-105362906D01*
X172938578Y-166799900D02*
X184014704Y-155723773D01*
X238005187Y-88542907D02*
X239447451Y-88542907D01*
X93866526Y-123315497D02*
X93866526Y-135843232D01*
X34336377Y-101786366D02*
X35461376Y-100661367D01*
X206579444Y-105044833D02*
X213880627Y-97743650D01*
X228804444Y-97743652D02*
X238005187Y-88542907D01*
X124823194Y-166799900D02*
X172938578Y-166799900D01*
X206579444Y-127906150D02*
X206579444Y-105044833D01*
X184014704Y-155723773D02*
X184014704Y-150470888D01*
X35461376Y-100661367D02*
X83290911Y-100661367D01*
X184014704Y-150470888D02*
X206579444Y-127906150D01*
X213880627Y-97743650D02*
X228804444Y-97743652D01*
X253092450Y-105362906D02*
X255409306Y-105362906D01*
X239447451Y-88542907D02*
X251029444Y-100124900D01*
X131414039Y-58552246D02*
X131802662Y-57821351D01*
X128748498Y-59367183D02*
X131414039Y-58552246D01*
X107723307Y-48187891D02*
X128748498Y-59367183D01*
X66507783Y-49692974D02*
X66915693Y-48925806D01*
X61166679Y-51325913D02*
X66507783Y-49692974D01*
X131802662Y-57821351D02*
X140615793Y-55126906D01*
X96988482Y-51469857D02*
X97348162Y-51359891D01*
X66915693Y-48925806D02*
X82971688Y-44016997D01*
X82971688Y-44016997D02*
X96988482Y-51469857D01*
X97348162Y-51359891D02*
X107723307Y-48187891D01*
X66451439Y-81964258D02*
X74647950Y-66548867D01*
X65704515Y-83369019D02*
X66451439Y-81964258D01*
X75394873Y-65144105D02*
X83591383Y-49728717D01*
X74647950Y-66548867D02*
X75394873Y-65144105D01*
X215085059Y-70118548D02*
X215099304Y-70122904D01*
X206144574Y-53303942D02*
X215085059Y-70118548D01*
X224040529Y-86938904D02*
X224039303Y-86942902D01*
X215099304Y-70122904D02*
X224040529Y-86938904D01*
X205785693Y-127906150D02*
X205785694Y-105196517D01*
X183560693Y-150131151D02*
X205785693Y-127906150D01*
X172764328Y-166332081D02*
X183560694Y-155535716D01*
X125149127Y-166332081D02*
X172764328Y-166332081D01*
X205785694Y-105196517D02*
X224039305Y-86942905D01*
X94320536Y-135503493D02*
X125149127Y-166332081D01*
X94320536Y-123247648D02*
X94320536Y-135503493D01*
X65555184Y-88514426D02*
X75578159Y-98537402D01*
X65704511Y-84960009D02*
X65555183Y-85109337D01*
X65704512Y-83369018D02*
X65704511Y-84960009D01*
X75578159Y-98537402D02*
X85929444Y-98537400D01*
X87134183Y-99742138D02*
X94320536Y-123247648D01*
X65555183Y-85109337D02*
X65555184Y-88514426D01*
X183560694Y-155535716D02*
X183560693Y-150131151D01*
X85929444Y-98537400D02*
X87134183Y-99742138D01*
X107676207Y-48677046D02*
X130436645Y-60778984D01*
X130436645Y-60778984D02*
X140615793Y-57666907D01*
X96941380Y-51959012D02*
X107676207Y-48677046D01*
X83591381Y-49728718D02*
X89404367Y-47951509D01*
X89404367Y-47951509D02*
X96941380Y-51959012D01*
X103213810Y-53401838D02*
X94270375Y-70221988D01*
X86073868Y-85637375D02*
X94270375Y-70221988D01*
X85326941Y-87042138D02*
X86073868Y-85637375D01*
X96973896Y-124291646D02*
X98378656Y-125038571D01*
X94753529Y-123111055D02*
X96973896Y-124291646D01*
X84310567Y-88953659D02*
X94753529Y-123111055D01*
X85326941Y-87042138D02*
X84310567Y-88953659D01*
X195470530Y-73798904D02*
X195469304Y-73802902D01*
X186529307Y-56982906D02*
X195470530Y-73798904D01*
X204411369Y-90620478D02*
X204419306Y-90622904D01*
X195469304Y-73802902D02*
X204411369Y-90620478D01*
X191765141Y-128830624D02*
X192512066Y-130235384D01*
X193401663Y-123477799D02*
X191765141Y-128830624D01*
X205850706Y-93314977D02*
X197255484Y-121428684D01*
X197255484Y-121428684D02*
X193401663Y-123477799D01*
X204419306Y-90622904D02*
X205850706Y-93314977D01*
X181179443Y-141568005D02*
X192512066Y-130235384D01*
X181179443Y-157274900D02*
X181179443Y-141568005D01*
X98378656Y-126629560D02*
X97111937Y-127896279D01*
X97111936Y-137595687D02*
X125394322Y-165878073D01*
X98378657Y-125038571D02*
X98378656Y-126629560D01*
X97111937Y-127896279D02*
X97111936Y-137595687D01*
X125394322Y-165878073D02*
X172576272Y-165878072D01*
X172576272Y-165878072D02*
X181179443Y-157274900D01*
X103213808Y-53401836D02*
X105046032Y-49955923D01*
X105046032Y-49955923D02*
X107629105Y-49166199D01*
X132855686Y-62579409D02*
X140615794Y-60206906D01*
X107629105Y-49166199D02*
X132855686Y-62579409D01*
X116246267Y-69468883D02*
X108049757Y-84884274D01*
X116993196Y-68064120D02*
X116246267Y-69468883D01*
X108049757Y-84884274D02*
X99106325Y-101704427D01*
X181690531Y-88458904D02*
X181689308Y-88462904D01*
X172749308Y-71642901D02*
X181690531Y-88458904D01*
X190631369Y-105280478D02*
X190639305Y-105282904D01*
X181689308Y-88462904D02*
X190631369Y-105280478D01*
X174650928Y-135993099D02*
X173246168Y-136740024D01*
X181126527Y-132549964D02*
X174650928Y-135993099D01*
X189234546Y-106029830D02*
X181126527Y-132549964D01*
X190639305Y-105282904D02*
X189234546Y-106029830D01*
X98089952Y-103615948D02*
X102598163Y-118361642D01*
X99106326Y-101704426D02*
X98089952Y-103615948D01*
X111320658Y-122999475D02*
X116758158Y-140784733D01*
X102598163Y-118361642D02*
X111320658Y-122999475D01*
X172121168Y-137865024D02*
X173246167Y-136740025D01*
X158837983Y-165424063D02*
X172121168Y-152140878D01*
X125582378Y-165424062D02*
X158837983Y-165424063D01*
X115633160Y-155474843D02*
X125582378Y-165424062D01*
X172121168Y-152140878D02*
X172121168Y-137865024D01*
X115633160Y-141909731D02*
X115633160Y-155474843D01*
X116758159Y-140784731D02*
X115633160Y-141909731D01*
X116993192Y-68064122D02*
X120489905Y-61487763D01*
X120489905Y-61487763D02*
X126346280Y-59697289D01*
X135197353Y-64403489D02*
X140615792Y-62746906D01*
X126346280Y-59697289D02*
X135197353Y-64403489D01*
X132680512Y-79138106D02*
X123737076Y-95958257D01*
X123737076Y-95958257D02*
X114793642Y-112778408D01*
X165996559Y-99531968D02*
X166008498Y-99535618D01*
X157055067Y-82715470D02*
X165996559Y-99531968D01*
X166007974Y-99537335D02*
X166008498Y-99535618D01*
X174950812Y-116356367D02*
X166007974Y-99537335D01*
X161412396Y-156790688D02*
X162640338Y-159100111D01*
X173546051Y-117103290D02*
X161412396Y-156790688D01*
X174950812Y-116356367D02*
X173546051Y-117103290D01*
X125138800Y-160587152D02*
X126543563Y-161334074D01*
X124744134Y-160377302D02*
X125138800Y-160587152D01*
X114793640Y-112778409D02*
X111871759Y-118273667D01*
X111871759Y-118273667D02*
X124744134Y-160377302D01*
X127668560Y-162459072D02*
X126543562Y-161334073D01*
X127668560Y-163327018D02*
X127668560Y-162459072D01*
X129311596Y-164970055D02*
X127668560Y-163327018D01*
X158649927Y-164970053D02*
X129311596Y-164970055D01*
X162640337Y-160979642D02*
X158649927Y-164970053D01*
X162640338Y-159100111D02*
X162640337Y-160979642D01*
X139934588Y-65495171D02*
X140615793Y-65286906D01*
X132680510Y-79138107D02*
X139934588Y-65495171D01*
X149505793Y-56396906D02*
X155855793Y-50046906D01*
X149505792Y-105126904D02*
X149505793Y-56396906D01*
X152045793Y-105126904D02*
X152045793Y-71728207D01*
X157059094Y-48710207D02*
X155855793Y-47506906D01*
X157059095Y-66714906D02*
X157059094Y-48710207D01*
X152045793Y-71728207D02*
X157059095Y-66714906D01*
M02*
