999
FreeCAD v0.18 16146 (Git)
  0
SECTION
  2
HEADER
  9
$ACADVER
  1
AC1014
  9
$ACADMAINTVER
 70
     9
  9
$DWGCODEPAGE
  3
ANSI_1252
  9
$TEXTSTYLE
  7
STANDARD
  9
$DIMSTYLE
  2
STANDARD
  9
$DIMTXSTY
  7
STANDARD
  9
$CMLSTYLE
  2
STANDARD
  9
$HANDSEED
  5
FFF
  0
ENDSEC
  0
SECTION
  2
CLASSES
  0
CLASS
  1
ACDBDICTIONARYWDFLT
  2
AcDbDictionaryWithDefault
  3
ObjectDBX Classes
 90
        0
280
     0
281
     0
  0
CLASS
  1
XRECORD
  2
AcDbXrecord
  3
ObjectDBX Classes
 90
        0
280
     0
281
     0
  0
CLASS
  1
LWPOLYLINE
  2
AcDbPolyline
  3
ObjectDBX Classes
 90
        0
280
     0
281
     1
  0
ENDSEC
  0
SECTION
  2
TABLES
  0
TABLE
  2
VPORT
  5
20
330
0
100
AcDbSymbolTable
 70
     1
  0
VPORT
  5
21
330
20
100
AcDbSymbolTableRecord
100
AcDbViewportTableRecord
  2
*ACTIVE
 70
     0
  0
ENDTAB
  0
TABLE
  2
LTYPE
  5
22
330
0
100
AcDbSymbolTable
 70
     1
  0
LTYPE
  5
23
330
21
100
AcDbSymbolTableRecord
100
AcDbLinetypeTableRecord
  2
BYBLOCK
 70
     0
  3

 72
    65
 73
     0
 40
0.0
  0
LTYPE
  5
24
330
21
100
AcDbSymbolTableRecord
100
AcDbLinetypeTableRecord
  2
BYLAYER
 70
     0
  3

 72
    65
 73
     0
 40
0.0
  0
LTYPE
  5
25
330
21
100
AcDbSymbolTableRecord
100
AcDbLinetypeTableRecord
  2
CONTINUOUS
 70
     0
  3
Solid line
 72
    65
 73
     0
 40
0.0
  0
ENDTAB
  0
TABLE
  2
LAYER
  5
31
330
0
100
AcDbSymbolTable
 70
2
  0
LAYER
  5
32
330
31
100
AcDbSymbolTableRecord
100
AcDbLayerTableRecord
  2
0
 70
   0
 62
   7
  6
CONTINUOUS
  0
LAYER
  5
33
330
31
100
AcDbSymbolTableRecord
100
AcDbLayerTableRecord
  2
View001
 70
    0
 62
    7
  6
CONTINUOUS
  0
ENDTAB
  0
TABLE
  2
STYLE
  5
60
330
0
100
AcDbSymbolTable
 70
     2
  0
STYLE
  5
61
330
60
100
AcDbSymbolTableRecord
100
AcDbTextStyleTableRecord
  2
STANDARD
 70
     0
 40
0.0
 41
1.0
 50
0.0
 71
     0
 42
2.5
  3
arial.ttf
  4

  0
STYLE
  5
62
330
60
100
AcDbSymbolTableRecord
100
AcDbTextStyleTableRecord
  2
ANNOTATIVE
 70
     0
 40
0.0
 41
1.0
 50
0.0
 71
     0
 42
2.5
  3
arial.ttf
  4

  0
ENDTAB
  0
TABLE
  2
VIEW
  5
63
330
0
100
AcDbSymbolTable
 70
     0
  0
ENDTAB
  0
TABLE
  2
UCS
  5
64
330
0
100
AcDbSymbolTable
 70
     0
  0
ENDTAB
  0
TABLE
  2
APPID
  5
65
330
0
100
AcDbSymbolTable
 70
     2
  0
APPID
  5
66
330
65
100
AcDbSymbolTableRecord
100
AcDbRegAppTableRecord
  2
ACAD
 70
     0
  0
APPID
  5
67
330
65
100
AcDbSymbolTableRecord
100
AcDbRegAppTableRecord
  2
ACADANNOTATIVE
 70
     0
  0
ENDTAB
  0
TABLE
  2
DIMSTYLE
  5
68
330
0
100
AcDbSymbolTable
 70
     2
  0
DIMSTYLE
105
69
330
68
100
AcDbSymbolTableRecord
100
AcDbDimStyleTableRecord
  2
STANDARD
 70
     0
  3

  4

  5

  6

  7

 40
0.0
 41
2.5
 42
0.625
 43
3.75
 44
1.25
 45
0.0
 46
0.0
 47
0.0
 48
0.0
140
2.5
141
2.5
142
0.0
143
0.03937007874016
144
1.0
145
0.0
146
1.0
147
0.625
 71
     0
 72
     0
 73
     0
 74
     0
 75
     0
 76
     0
 77
     1
 78
     8
170
     0
171
     3
172
     1
173
     0
174
     0
175
     0
176
     0
177
     0
178
     0
270
     2
271
     2
272
     2
273
     2
274
     3
340
61
275
     0
280
     0
281
     0
282
     0
283
     0
284
     8
285
     0
286
     0
287
     3
288
     0
  0
ENDTAB
  0
TABLE
  2
BLOCK_RECORD
  5
111
330
0
100
AcDbSymbolTable
  70
5
  0
BLOCK_RECORD
  5
112
330
111
100
AcDbSymbolTableRecord
100
AcDbBlockTableRecord
  2
*MODEL_SPACE
  0
BLOCK_RECORD
  5
113
330
111
100
AcDbSymbolTableRecord
100
AcDbBlockTableRecord
  2
*PAPER_SPACE
  0
ENDTAB
  0
ENDSEC
  0
SECTION
  2
BLOCKS
  0
BLOCK
  5
211
330
112
100
AcDbEntity
  8
0
100
AcDbBlockBegin
  2
*MODEL_SPACE
 70
   0
 10
0
 20
0
 30
0
  3
*MODEL_SPACE
  1
 
  0
ENDBLK
  5
212
330
112
100
AcDbEntity
  8
0
100
AcDbBlockEnd
  0
BLOCK
  5
213
330
113
100
AcDbEntity
 67
1
  8
0
100
AcDbBlockBegin
  2
*PAPER_SPACE
 70
   0
 10
0
 20
0
 30
0
  3
*PAPER_SPACE
  1
 
  0
ENDBLK
  5
214
330
113
100
AcDbEntity
 67
    1
  8
0
100
AcDbBlockEnd
  0
ENDSEC
  0
SECTION
  2
ENTITIES
  0
LINE
  5
301
330
112
100
AcDbEntity
  8
View001
100
AcDbLine
 10
15.015
 20
139.347
 30
0
 11
42.3768
 21
190.807
 31
0
  0
ARC
  5
302
330
112
100
AcDbEntity
  8
View001
100
AcDbCircle
 10
44.5841
 20
189.633
 30
0
 40
2.5
100
AcDbArc
 50
78.832
 51
152
  0
LINE
  5
303
330
112
100
AcDbEntity
  8
View001
100
AcDbLine
 10
45.0684
 20
192.086
 30
0
 11
123.09
 21
176.682
 31
0
  0
ARC
  5
304
330
112
100
AcDbEntity
  8
View001
100
AcDbCircle
 10
125.445
 20
188.611
 30
0
 40
12.1584
100
AcDbArc
 50
-101.168
 51
-0.107705
  0
LINE
  5
305
330
112
100
AcDbEntity
  8
View001
100
AcDbLine
 10
137.603
 20
188.588
 30
0
 11
137.608
 21
191.088
 31
0
  0
ARC
  5
306
330
112
100
AcDbEntity
  8
View001
100
AcDbCircle
 10
138.608
 20
191.086
 30
0
 40
1
100
AcDbArc
 50
89.8923
 51
179.892
  0
LINE
  5
307
330
112
100
AcDbEntity
  8
View001
100
AcDbLine
 10
138.61
 20
192.086
 30
0
 11
138.61
 21
158.246
 31
0
  0
ARC
  5
308
330
112
100
AcDbEntity
  8
View001
100
AcDbCircle
 10
138.79
 20
158.246
 30
0
 40
0.18
100
AcDbArc
 50
180
 51
-90
  0
LINE
  5
309
330
112
100
AcDbEntity
  8
View001
100
AcDbLine
 10
138.79
 20
158.066
 30
0
 11
158.21
 21
158.066
 31
0
  0
ARC
  5
30A
330
112
100
AcDbEntity
  8
View001
100
AcDbCircle
 10
158.21
 20
158.246
 30
0
 40
0.18
100
AcDbArc
 50
-90
 51
0
  0
LINE
  5
30B
330
112
100
AcDbEntity
  8
View001
100
AcDbLine
 10
158.39
 20
192.086
 30
0
 11
158.39
 21
158.246
 31
0
  0
ARC
  5
30C
330
112
100
AcDbEntity
  8
View001
100
AcDbCircle
 10
158.392
 20
191.086
 30
0
 40
1
100
AcDbArc
 50
0.107705
 51
90.1077
  0
LINE
  5
30D
330
112
100
AcDbEntity
  8
View001
100
AcDbLine
 10
159.397
 20
188.588
 30
0
 11
159.392
 21
191.088
 31
0
  0
ARC
  5
30E
330
112
100
AcDbEntity
  8
View001
100
AcDbCircle
 10
171.555
 20
188.611
 30
0
 40
12.1584
100
AcDbArc
 50
-179.892
 51
-78.832
  0
LINE
  5
30F
330
112
100
AcDbEntity
  8
View001
100
AcDbLine
 10
173.91
 20
176.682
 30
0
 11
251.932
 21
192.086
 31
0
  0
ARC
  5
310
330
112
100
AcDbEntity
  8
View001
100
AcDbCircle
 10
252.416
 20
189.633
 30
0
 40
2.5
100
AcDbArc
 50
28
 51
101.168
  0
ARC
  5
311
330
112
100
AcDbEntity
  8
View001
100
AcDbCircle
 10
252.416
 20
189.633
 30
0
 40
2.5
100
AcDbArc
 50
28
 51
101.168
  0
ARC
  5
312
330
112
100
AcDbEntity
  8
View001
100
AcDbCircle
 10
252.416
 20
189.633
 30
0
 40
2.5
100
AcDbArc
 50
28
 51
101.168
  0
LINE
  5
313
330
112
100
AcDbEntity
  8
View001
100
AcDbLine
 10
281.985
 20
139.347
 30
0
 11
254.623
 21
190.807
 31
0
  0
LINE
  5
314
330
112
100
AcDbEntity
  8
View001
100
AcDbLine
 10
281.985
 20
139.347
 30
0
 11
254.623
 21
190.807
 31
0
  0
LINE
  5
315
330
112
100
AcDbEntity
  8
View001
100
AcDbLine
 10
281.985
 20
139.347
 30
0
 11
254.623
 21
190.807
 31
0
  0
LINE
  5
316
330
112
100
AcDbEntity
  8
View001
100
AcDbLine
 10
281.985
 20
139.347
 30
0
 11
254.623
 21
190.807
 31
0
  0
LINE
  5
317
330
112
100
AcDbEntity
  8
View001
100
AcDbLine
 10
281.985
 20
139.347
 30
0
 11
254.623
 21
190.807
 31
0
  0
ARC
  5
318
330
112
100
AcDbEntity
  8
View001
100
AcDbCircle
 10
262.102
 20
128.775
 30
0
 40
22.5184
100
AcDbArc
 50
-84.1056
 51
28
  0
ARC
  5
319
330
112
100
AcDbEntity
  8
View001
100
AcDbCircle
 10
276.022
 20
-6.04892
 30
0
 40
113.022
100
AcDbArc
 50
95.8944
 51
150.055
  0
ARC
  5
31A
330
112
100
AcDbEntity
  8
View001
100
AcDbCircle
 10
175.921
 20
51.6158
 30
0
 40
2.5
100
AcDbArc
 50
-109.606
 51
-29.9448
  0
ARC
  5
31B
330
112
100
AcDbEntity
  8
View001
100
AcDbCircle
 10
148.5
 20
-25.3663
 30
0
 40
79.22
100
AcDbArc
 50
70.3941
 51
109.606
  0
ARC
  5
31C
330
112
100
AcDbEntity
  8
View001
100
AcDbCircle
 10
121.079
 20
51.6158
 30
0
 40
2.5
100
AcDbArc
 50
-150.055
 51
-70.3941
  0
ARC
  5
31D
330
112
100
AcDbEntity
  8
View001
100
AcDbCircle
 10
20.9782
 20
-6.04892
 30
0
 40
113.022
100
AcDbArc
 50
29.9448
 51
84.1056
  0
ARC
  5
31E
330
112
100
AcDbEntity
  8
View001
100
AcDbCircle
 10
34.8975
 20
128.775
 30
0
 40
22.5184
100
AcDbArc
 50
152
 51
-95.8944
  0
LINE
  5
31F
330
112
100
AcDbEntity
  8
View001
100
AcDbLine
 10
15.015
 20
139.347
 30
0
 11
42.3768
 21
190.807
 31
0
  0
ARC
  5
320
330
112
100
AcDbEntity
  8
View001
100
AcDbCircle
 10
44.5841
 20
189.633
 30
0
 40
2.5
100
AcDbArc
 50
78.832
 51
152
  0
ARC
  5
321
330
112
100
AcDbEntity
  8
View001
100
AcDbCircle
 10
44.5841
 20
189.633
 30
0
 40
2.5
100
AcDbArc
 50
78.832
 51
152
  0
LINE
  5
322
330
112
100
AcDbEntity
  8
View001
100
AcDbLine
 10
15.015
 20
139.347
 30
0
 11
42.3768
 21
190.807
 31
0
  0
LINE
  5
323
330
112
100
AcDbEntity
  8
View001
100
AcDbLine
 10
15.015
 20
139.347
 30
0
 11
42.3768
 21
190.807
 31
0
  0
LINE
  5
324
330
112
100
AcDbEntity
  8
View001
100
AcDbLine
 10
15.015
 20
139.347
 30
0
 11
42.3768
 21
190.807
 31
0
  0
CIRCLE
  5
325
330
112
100
AcDbEntity
  8
View001
100
AcDbCircle
 10
75.98
 20
112.046
 40
1.2
  0
CIRCLE
  5
326
330
112
100
AcDbEntity
  8
View001
100
AcDbCircle
 10
75.98
 20
112.046
 40
1.2
  0
CIRCLE
  5
327
330
112
100
AcDbEntity
  8
View001
100
AcDbCircle
 10
75.98
 20
112.046
 40
1.2
  0
CIRCLE
  5
328
330
112
100
AcDbEntity
  8
View001
100
AcDbCircle
 10
75.98
 20
112.046
 40
1.2
  0
CIRCLE
  5
329
330
112
100
AcDbEntity
  8
View001
100
AcDbCircle
 10
75.98
 20
112.046
 40
1.2
  0
CIRCLE
  5
32A
330
112
100
AcDbEntity
  8
View001
100
AcDbCircle
 10
19.95
 20
128.746
 40
1.2
  0
CIRCLE
  5
32B
330
112
100
AcDbEntity
  8
View001
100
AcDbCircle
 10
19.95
 20
128.746
 40
1.2
  0
CIRCLE
  5
32C
330
112
100
AcDbEntity
  8
View001
100
AcDbCircle
 10
19.95
 20
128.746
 40
1.2
  0
CIRCLE
  5
32D
330
112
100
AcDbEntity
  8
View001
100
AcDbCircle
 10
19.95
 20
128.746
 40
1.2
  0
CIRCLE
  5
32E
330
112
100
AcDbEntity
  8
View001
100
AcDbCircle
 10
19.95
 20
128.746
 40
1.2
  0
CIRCLE
  5
32F
330
112
100
AcDbEntity
  8
View001
100
AcDbCircle
 10
71.54
 20
181.516
 40
1.2
  0
CIRCLE
  5
330
330
112
100
AcDbEntity
  8
View001
100
AcDbCircle
 10
71.54
 20
181.516
 40
1.2
  0
CIRCLE
  5
331
330
112
100
AcDbEntity
  8
View001
100
AcDbCircle
 10
71.54
 20
181.516
 40
1.2
  0
CIRCLE
  5
332
330
112
100
AcDbEntity
  8
View001
100
AcDbCircle
 10
71.54
 20
181.516
 40
1.2
  0
CIRCLE
  5
333
330
112
100
AcDbEntity
  8
View001
100
AcDbCircle
 10
71.54
 20
181.516
 40
1.2
  0
CIRCLE
  5
334
330
112
100
AcDbEntity
  8
View001
100
AcDbCircle
 10
129.07
 20
172.126
 40
1.2
  0
CIRCLE
  5
335
330
112
100
AcDbEntity
  8
View001
100
AcDbCircle
 10
129.07
 20
172.126
 40
1.2
  0
CIRCLE
  5
336
330
112
100
AcDbEntity
  8
View001
100
AcDbCircle
 10
129.07
 20
172.126
 40
1.2
  0
CIRCLE
  5
337
330
112
100
AcDbEntity
  8
View001
100
AcDbCircle
 10
129.07
 20
172.126
 40
1.2
  0
CIRCLE
  5
338
330
112
100
AcDbEntity
  8
View001
100
AcDbCircle
 10
129.07
 20
172.126
 40
1.2
  0
CIRCLE
  5
339
330
112
100
AcDbEntity
  8
View001
100
AcDbCircle
 10
148.5
 20
80.8558
 40
1.2
  0
CIRCLE
  5
33A
330
112
100
AcDbEntity
  8
View001
100
AcDbCircle
 10
148.5
 20
80.8558
 40
1.2
  0
CIRCLE
  5
33B
330
112
100
AcDbEntity
  8
View001
100
AcDbCircle
 10
148.5
 20
80.8558
 40
1.2
  0
CIRCLE
  5
33C
330
112
100
AcDbEntity
  8
View001
100
AcDbCircle
 10
148.5
 20
80.8558
 40
1.2
  0
CIRCLE
  5
33D
330
112
100
AcDbEntity
  8
View001
100
AcDbCircle
 10
148.5
 20
80.8558
 40
1.2
  0
CIRCLE
  5
33E
330
112
100
AcDbEntity
  8
View001
100
AcDbCircle
 10
167.93
 20
172.126
 40
1.2
  0
CIRCLE
  5
33F
330
112
100
AcDbEntity
  8
View001
100
AcDbCircle
 10
167.93
 20
172.126
 40
1.2
  0
CIRCLE
  5
340
330
112
100
AcDbEntity
  8
View001
100
AcDbCircle
 10
167.93
 20
172.126
 40
1.2
  0
CIRCLE
  5
341
330
112
100
AcDbEntity
  8
View001
100
AcDbCircle
 10
167.93
 20
172.126
 40
1.2
  0
CIRCLE
  5
342
330
112
100
AcDbEntity
  8
View001
100
AcDbCircle
 10
167.93
 20
172.126
 40
1.2
  0
CIRCLE
  5
343
330
112
100
AcDbEntity
  8
View001
100
AcDbCircle
 10
225.46
 20
181.516
 40
1.2
  0
CIRCLE
  5
344
330
112
100
AcDbEntity
  8
View001
100
AcDbCircle
 10
225.46
 20
181.516
 40
1.2
  0
CIRCLE
  5
345
330
112
100
AcDbEntity
  8
View001
100
AcDbCircle
 10
225.46
 20
181.516
 40
1.2
  0
CIRCLE
  5
346
330
112
100
AcDbEntity
  8
View001
100
AcDbCircle
 10
225.46
 20
181.516
 40
1.2
  0
CIRCLE
  5
347
330
112
100
AcDbEntity
  8
View001
100
AcDbCircle
 10
225.46
 20
181.516
 40
1.2
  0
CIRCLE
  5
348
330
112
100
AcDbEntity
  8
View001
100
AcDbCircle
 10
277.05
 20
128.746
 40
1.2
  0
CIRCLE
  5
349
330
112
100
AcDbEntity
  8
View001
100
AcDbCircle
 10
277.05
 20
128.746
 40
1.2
  0
CIRCLE
  5
34A
330
112
100
AcDbEntity
  8
View001
100
AcDbCircle
 10
277.05
 20
128.746
 40
1.2
  0
CIRCLE
  5
34B
330
112
100
AcDbEntity
  8
View001
100
AcDbCircle
 10
277.05
 20
128.746
 40
1.2
  0
CIRCLE
  5
34C
330
112
100
AcDbEntity
  8
View001
100
AcDbCircle
 10
277.05
 20
128.746
 40
1.2
  0
CIRCLE
  5
34D
330
112
100
AcDbEntity
  8
View001
100
AcDbCircle
 10
221.02
 20
112.046
 40
1.2
  0
CIRCLE
  5
34E
330
112
100
AcDbEntity
  8
View001
100
AcDbCircle
 10
221.02
 20
112.046
 40
1.2
  0
CIRCLE
  5
34F
330
112
100
AcDbEntity
  8
View001
100
AcDbCircle
 10
221.02
 20
112.046
 40
1.2
  0
CIRCLE
  5
350
330
112
100
AcDbEntity
  8
View001
100
AcDbCircle
 10
221.02
 20
112.046
 40
1.2
  0
CIRCLE
  5
351
330
112
100
AcDbEntity
  8
View001
100
AcDbCircle
 10
221.02
 20
112.046
 40
1.2
  0
CIRCLE
  5
352
330
112
100
AcDbEntity
  8
View001
100
AcDbCircle
 10
247.36
 20
181.271
 40
1
  0
CIRCLE
  5
353
330
112
100
AcDbEntity
  8
View001
100
AcDbCircle
 10
259.169
 20
162.392
 40
1
  0
CIRCLE
  5
354
330
112
100
AcDbEntity
  8
View001
100
AcDbCircle
 10
268.1
 20
145.576
 40
1
  0
CIRCLE
  5
355
330
112
100
AcDbEntity
  8
View001
100
AcDbCircle
 10
251.284
 20
136.645
 40
1
  0
CIRCLE
  5
356
330
112
100
AcDbEntity
  8
View001
100
AcDbCircle
 10
242.343
 20
153.451
 40
1
  0
CIRCLE
  5
357
330
112
100
AcDbEntity
  8
View001
100
AcDbCircle
 10
233.406
 20
170.269
 40
1
  0
CIRCLE
  5
358
330
112
100
AcDbEntity
  8
View001
100
AcDbCircle
 10
210.976
 20
171.869
 40
1
  0
CIRCLE
  5
359
330
112
100
AcDbEntity
  8
View001
100
AcDbCircle
 10
219.919
 20
155.049
 40
1
  0
CIRCLE
  5
35A
330
112
100
AcDbEntity
  8
View001
100
AcDbCircle
 10
228.863
 20
138.228
 40
1
  0
CIRCLE
  5
35B
330
112
100
AcDbEntity
  8
View001
100
AcDbCircle
 10
260.211
 20
119.816
 40
1
  0
CIRCLE
  5
35C
330
112
100
AcDbEntity
  8
View001
100
AcDbCircle
 10
191.356
 20
168.189
 40
1
  0
CIRCLE
  5
35D
330
112
100
AcDbEntity
  8
View001
100
AcDbCircle
 10
200.299
 20
151.369
 40
1
  0
CIRCLE
  5
35E
330
112
100
AcDbEntity
  8
View001
100
AcDbCircle
 10
177.576
 20
153.529
 40
1
  0
CIRCLE
  5
35F
330
112
100
AcDbEntity
  8
View001
100
AcDbCircle
 10
186.519
 20
136.709
 40
1
  0
CIRCLE
  5
360
330
112
100
AcDbEntity
  8
View001
100
AcDbCircle
 10
161.886
 20
142.459
 40
1
  0
CIRCLE
  5
361
330
112
100
AcDbEntity
  8
View001
100
AcDbCircle
 10
209.243
 20
134.548
 40
1
  0
CIRCLE
  5
362
330
112
100
AcDbEntity
  8
View001
100
AcDbCircle
 10
195.463
 20
119.888
 40
1
  0
CIRCLE
  5
363
330
112
100
AcDbEntity
  8
View001
100
AcDbCircle
 10
170.829
 20
125.639
 40
1
  0
CIRCLE
  5
364
330
112
100
AcDbEntity
  8
View001
100
AcDbCircle
 10
179.773
 20
108.818
 40
1
  0
CIRCLE
  5
365
330
112
100
AcDbEntity
  8
View001
100
AcDbCircle
 10
197.303
 20
96.1285
 40
1
  0
CIRCLE
  5
366
330
112
100
AcDbEntity
  8
View001
100
AcDbCircle
 10
175.393
 20
84.7185
 40
1
  0
CIRCLE
  5
367
330
112
100
AcDbEntity
  8
View001
100
AcDbCircle
 10
165.803
 20
62.9885
 40
1
  0
CIRCLE
  5
368
330
112
100
AcDbEntity
  8
View001
100
AcDbCircle
 10
63.597
 20
170.263
 40
1
  0
CIRCLE
  5
369
330
112
100
AcDbEntity
  8
View001
100
AcDbCircle
 10
46.7769
 20
179.206
 40
1
  0
CIRCLE
  5
36A
330
112
100
AcDbEntity
  8
View001
100
AcDbCircle
 10
37.8334
 20
162.386
 40
1
  0
CIRCLE
  5
36B
330
112
100
AcDbEntity
  8
View001
100
AcDbCircle
 10
28.89
 20
145.566
 40
1
  0
CIRCLE
  5
36C
330
112
100
AcDbEntity
  8
View001
100
AcDbCircle
 10
45.7102
 20
136.622
 40
1
  0
CIRCLE
  5
36D
330
112
100
AcDbEntity
  8
View001
100
AcDbCircle
 10
54.6536
 20
153.443
 40
1
  0
CIRCLE
  5
36E
330
112
100
AcDbEntity
  8
View001
100
AcDbCircle
 10
86.03
 20
171.866
 40
1
  0
CIRCLE
  5
36F
330
112
100
AcDbEntity
  8
View001
100
AcDbCircle
 10
77.0866
 20
155.046
 40
1
  0
CIRCLE
  5
370
330
112
100
AcDbEntity
  8
View001
100
AcDbCircle
 10
36.7667
 20
119.802
 40
1
  0
CIRCLE
  5
371
330
112
100
AcDbEntity
  8
View001
100
AcDbCircle
 10
68.1431
 20
138.226
 40
1
  0
CIRCLE
  5
372
330
112
100
AcDbEntity
  8
View001
100
AcDbCircle
 10
87.7631
 20
134.556
 40
1
  0
CIRCLE
  5
373
330
112
100
AcDbEntity
  8
View001
100
AcDbCircle
 10
96.7066
 20
151.376
 40
1
  0
CIRCLE
  5
374
330
112
100
AcDbEntity
  8
View001
100
AcDbCircle
 10
105.65
 20
168.196
 40
1
  0
CIRCLE
  5
375
330
112
100
AcDbEntity
  8
View001
100
AcDbCircle
 10
119.43
 20
153.536
 40
1
  0
CIRCLE
  5
376
330
112
100
AcDbEntity
  8
View001
100
AcDbCircle
 10
110.487
 20
136.716
 40
1
  0
CIRCLE
  5
377
330
112
100
AcDbEntity
  8
View001
100
AcDbCircle
 10
135.12
 20
142.466
 40
1
  0
CIRCLE
  5
378
330
112
100
AcDbEntity
  8
View001
100
AcDbCircle
 10
126.176
 20
125.646
 40
1
  0
CIRCLE
  5
379
330
112
100
AcDbEntity
  8
View001
100
AcDbCircle
 10
101.543
 20
119.896
 40
1
  0
CIRCLE
  5
37A
330
112
100
AcDbEntity
  8
View001
100
AcDbCircle
 10
117.233
 20
108.826
 40
1
  0
CIRCLE
  5
37B
330
112
100
AcDbEntity
  8
View001
100
AcDbCircle
 10
99.7029
 20
96.1462
 40
1
  0
CIRCLE
  5
37C
330
112
100
AcDbEntity
  8
View001
100
AcDbCircle
 10
121.603
 20
84.7162
 40
1
  0
CIRCLE
  5
37D
330
112
100
AcDbEntity
  8
View001
100
AcDbCircle
 10
131.193
 20
62.9862
 40
1
  0
ENDSEC
  0
SECTION
  2
OBJECTS
  0
DICTIONARY
  5
500
330
0
100
AcDbDictionary
  3
ACAD_GROUP
350
501
  0
DICTIONARY
  5
501
330
500
100
AcDbDictionary
  0
ENDSEC
  0
EOF