999
FreeCAD v0.18 16146 (Git)
  0
SECTION
  2
HEADER
  9
$ACADVER
  1
AC1014
  9
$ACADMAINTVER
 70
     9
  9
$DWGCODEPAGE
  3
ANSI_1252
  9
$TEXTSTYLE
  7
STANDARD
  9
$DIMSTYLE
  2
STANDARD
  9
$DIMTXSTY
  7
STANDARD
  9
$CMLSTYLE
  2
STANDARD
  9
$HANDSEED
  5
FFF
  0
ENDSEC
  0
SECTION
  2
CLASSES
  0
CLASS
  1
ACDBDICTIONARYWDFLT
  2
AcDbDictionaryWithDefault
  3
ObjectDBX Classes
 90
        0
280
     0
281
     0
  0
CLASS
  1
XRECORD
  2
AcDbXrecord
  3
ObjectDBX Classes
 90
        0
280
     0
281
     0
  0
CLASS
  1
LWPOLYLINE
  2
AcDbPolyline
  3
ObjectDBX Classes
 90
        0
280
     0
281
     1
  0
ENDSEC
  0
SECTION
  2
TABLES
  0
TABLE
  2
VPORT
  5
20
330
0
100
AcDbSymbolTable
 70
     1
  0
VPORT
  5
21
330
20
100
AcDbSymbolTableRecord
100
AcDbViewportTableRecord
  2
*ACTIVE
 70
     0
  0
ENDTAB
  0
TABLE
  2
LTYPE
  5
22
330
0
100
AcDbSymbolTable
 70
     1
  0
LTYPE
  5
23
330
21
100
AcDbSymbolTableRecord
100
AcDbLinetypeTableRecord
  2
BYBLOCK
 70
     0
  3

 72
    65
 73
     0
 40
0.0
  0
LTYPE
  5
24
330
21
100
AcDbSymbolTableRecord
100
AcDbLinetypeTableRecord
  2
BYLAYER
 70
     0
  3

 72
    65
 73
     0
 40
0.0
  0
LTYPE
  5
25
330
21
100
AcDbSymbolTableRecord
100
AcDbLinetypeTableRecord
  2
CONTINUOUS
 70
     0
  3
Solid line
 72
    65
 73
     0
 40
0.0
  0
ENDTAB
  0
TABLE
  2
LAYER
  5
31
330
0
100
AcDbSymbolTable
 70
2
  0
LAYER
  5
32
330
31
100
AcDbSymbolTableRecord
100
AcDbLayerTableRecord
  2
0
 70
   0
 62
   7
  6
CONTINUOUS
  0
LAYER
  5
33
330
31
100
AcDbSymbolTableRecord
100
AcDbLayerTableRecord
  2
View
 70
    0
 62
    7
  6
CONTINUOUS
  0
ENDTAB
  0
TABLE
  2
STYLE
  5
60
330
0
100
AcDbSymbolTable
 70
     2
  0
STYLE
  5
61
330
60
100
AcDbSymbolTableRecord
100
AcDbTextStyleTableRecord
  2
STANDARD
 70
     0
 40
0.0
 41
1.0
 50
0.0
 71
     0
 42
2.5
  3
arial.ttf
  4

  0
STYLE
  5
62
330
60
100
AcDbSymbolTableRecord
100
AcDbTextStyleTableRecord
  2
ANNOTATIVE
 70
     0
 40
0.0
 41
1.0
 50
0.0
 71
     0
 42
2.5
  3
arial.ttf
  4

  0
ENDTAB
  0
TABLE
  2
VIEW
  5
63
330
0
100
AcDbSymbolTable
 70
     0
  0
ENDTAB
  0
TABLE
  2
UCS
  5
64
330
0
100
AcDbSymbolTable
 70
     0
  0
ENDTAB
  0
TABLE
  2
APPID
  5
65
330
0
100
AcDbSymbolTable
 70
     2
  0
APPID
  5
66
330
65
100
AcDbSymbolTableRecord
100
AcDbRegAppTableRecord
  2
ACAD
 70
     0
  0
APPID
  5
67
330
65
100
AcDbSymbolTableRecord
100
AcDbRegAppTableRecord
  2
ACADANNOTATIVE
 70
     0
  0
ENDTAB
  0
TABLE
  2
DIMSTYLE
  5
68
330
0
100
AcDbSymbolTable
 70
     2
  0
DIMSTYLE
105
69
330
68
100
AcDbSymbolTableRecord
100
AcDbDimStyleTableRecord
  2
STANDARD
 70
     0
  3

  4

  5

  6

  7

 40
0.0
 41
2.5
 42
0.625
 43
3.75
 44
1.25
 45
0.0
 46
0.0
 47
0.0
 48
0.0
140
2.5
141
2.5
142
0.0
143
0.03937007874016
144
1.0
145
0.0
146
1.0
147
0.625
 71
     0
 72
     0
 73
     0
 74
     0
 75
     0
 76
     0
 77
     1
 78
     8
170
     0
171
     3
172
     1
173
     0
174
     0
175
     0
176
     0
177
     0
178
     0
270
     2
271
     2
272
     2
273
     2
274
     3
340
61
275
     0
280
     0
281
     0
282
     0
283
     0
284
     8
285
     0
286
     0
287
     3
288
     0
  0
ENDTAB
  0
TABLE
  2
BLOCK_RECORD
  5
111
330
0
100
AcDbSymbolTable
  70
5
  0
BLOCK_RECORD
  5
112
330
111
100
AcDbSymbolTableRecord
100
AcDbBlockTableRecord
  2
*MODEL_SPACE
  0
BLOCK_RECORD
  5
113
330
111
100
AcDbSymbolTableRecord
100
AcDbBlockTableRecord
  2
*PAPER_SPACE
  0
ENDTAB
  0
ENDSEC
  0
SECTION
  2
BLOCKS
  0
BLOCK
  5
211
330
112
100
AcDbEntity
  8
0
100
AcDbBlockBegin
  2
*MODEL_SPACE
 70
   0
 10
0
 20
0
 30
0
  3
*MODEL_SPACE
  1
 
  0
ENDBLK
  5
212
330
112
100
AcDbEntity
  8
0
100
AcDbBlockEnd
  0
BLOCK
  5
213
330
113
100
AcDbEntity
 67
1
  8
0
100
AcDbBlockBegin
  2
*PAPER_SPACE
 70
   0
 10
0
 20
0
 30
0
  3
*PAPER_SPACE
  1
 
  0
ENDBLK
  5
214
330
113
100
AcDbEntity
 67
    1
  8
0
100
AcDbBlockEnd
  0
ENDSEC
  0
SECTION
  2
ENTITIES
  0
LINE
  5
301
330
112
100
AcDbEntity
  8
View
100
AcDbLine
 10
100.717
 20
90.35
 30
0
 11
108.901
 21
99.1262
 31
0
  0
ARC
  5
302
330
112
100
AcDbEntity
  8
View
100
AcDbCircle
 10
99.986
 20
91.032
 30
0
 40
1
100
AcDbArc
 50
-133
 51
-43
  0
ARC
  5
303
330
112
100
AcDbEntity
  8
View
100
AcDbCircle
 10
108.17
 20
99.8082
 30
0
 40
1
100
AcDbArc
 50
-43
 51
47
  0
LINE
  5
304
330
112
100
AcDbEntity
  8
View
100
AcDbLine
 10
90.5277
 20
98.4846
 30
0
 11
99.304
 21
90.3006
 31
0
  0
LINE
  5
305
330
112
100
AcDbEntity
  8
View
100
AcDbLine
 10
108.852
 20
100.54
 30
0
 11
100.076
 21
108.724
 31
0
  0
ARC
  5
306
330
112
100
AcDbEntity
  8
View
100
AcDbCircle
 10
91.2097
 20
99.216
 30
0
 40
1
100
AcDbArc
 50
137
 51
-133
  0
ARC
  5
307
330
112
100
AcDbEntity
  8
View
100
AcDbCircle
 10
99.3937
 20
107.992
 30
0
 40
1
100
AcDbArc
 50
47
 51
137
  0
LINE
  5
308
330
112
100
AcDbEntity
  8
View
100
AcDbLine
 10
98.6624
 20
108.674
 30
0
 11
90.4784
 21
99.898
 31
0
  0
LINE
  5
309
330
112
100
AcDbEntity
  8
View
100
AcDbLine
 10
15.015
 20
142.737
 30
0
 11
42.3768
 21
194.197
 31
0
  0
ARC
  5
30A
330
112
100
AcDbEntity
  8
View
100
AcDbCircle
 10
44.5841
 20
193.023
 30
0
 40
2.5
100
AcDbArc
 50
78.832
 51
152
  0
LINE
  5
30B
330
112
100
AcDbEntity
  8
View
100
AcDbLine
 10
45.0684
 20
195.476
 30
0
 11
123.42
 21
180.007
 31
0
  0
ARC
  5
30C
330
112
100
AcDbEntity
  8
View
100
AcDbCircle
 10
125.787
 20
191.996
 30
0
 40
12.22
100
AcDbArc
 50
-101.168
 51
0
  0
LINE
  5
30D
330
112
100
AcDbEntity
  8
View
100
AcDbLine
 10
138.007
 20
191.996
 30
0
 11
138.007
 21
194.496
 31
0
  0
ARC
  5
30E
330
112
100
AcDbEntity
  8
View
100
AcDbCircle
 10
139.448
 20
194.496
 30
0
 40
1.4416
100
AcDbArc
 50
0
 51
180
  0
LINE
  5
30F
330
112
100
AcDbEntity
  8
View
100
AcDbLine
 10
140.89
 20
194.496
 30
0
 11
140.89
 21
164.456
 31
0
  0
ARC
  5
310
330
112
100
AcDbEntity
  8
View
100
AcDbCircle
 10
141.89
 20
164.456
 30
0
 40
1
100
AcDbArc
 50
180
 51
-90
  0
LINE
  5
311
330
112
100
AcDbEntity
  8
View
100
AcDbLine
 10
155.11
 20
163.456
 30
0
 11
141.89
 21
163.456
 31
0
  0
ARC
  5
312
330
112
100
AcDbEntity
  8
View
100
AcDbCircle
 10
155.11
 20
164.456
 30
0
 40
1
100
AcDbArc
 50
-90
 51
0
  0
LINE
  5
313
330
112
100
AcDbEntity
  8
View
100
AcDbLine
 10
156.11
 20
194.496
 30
0
 11
156.11
 21
164.456
 31
0
  0
ARC
  5
314
330
112
100
AcDbEntity
  8
View
100
AcDbCircle
 10
157.552
 20
194.496
 30
0
 40
1.4416
100
AcDbArc
 50
0
 51
180
  0
LINE
  5
315
330
112
100
AcDbEntity
  8
View
100
AcDbLine
 10
158.993
 20
191.996
 30
0
 11
158.993
 21
194.496
 31
0
  0
ARC
  5
316
330
112
100
AcDbEntity
  8
View
100
AcDbCircle
 10
171.213
 20
191.996
 30
0
 40
12.22
100
AcDbArc
 50
180
 51
-78.832
  0
LINE
  5
317
330
112
100
AcDbEntity
  8
View
100
AcDbLine
 10
173.58
 20
180.007
 30
0
 11
251.932
 21
195.476
 31
0
  0
ARC
  5
318
330
112
100
AcDbEntity
  8
View
100
AcDbCircle
 10
252.416
 20
193.023
 30
0
 40
2.5
100
AcDbArc
 50
28
 51
101.168
  0
LINE
  5
319
330
112
100
AcDbEntity
  8
View
100
AcDbLine
 10
281.985
 20
142.737
 30
0
 11
254.623
 21
194.197
 31
0
  0
ARC
  5
31A
330
112
100
AcDbEntity
  8
View
100
AcDbCircle
 10
262.102
 20
132.165
 30
0
 40
22.5184
100
AcDbArc
 50
-84.1056
 51
28
  0
ARC
  5
31B
330
112
100
AcDbEntity
  8
View
100
AcDbCircle
 10
276.022
 20
-2.65872
 30
0
 40
113.022
100
AcDbArc
 50
95.8944
 51
150.055
  0
ARC
  5
31C
330
112
100
AcDbEntity
  8
View
100
AcDbCircle
 10
175.921
 20
55.006
 30
0
 40
2.5
100
AcDbArc
 50
-109.606
 51
-29.9448
  0
ARC
  5
31D
330
112
100
AcDbEntity
  8
View
100
AcDbCircle
 10
148.5
 20
-21.9761
 30
0
 40
79.22
100
AcDbArc
 50
70.3941
 51
109.606
  0
ARC
  5
31E
330
112
100
AcDbEntity
  8
View
100
AcDbCircle
 10
121.079
 20
55.006
 30
0
 40
2.5
100
AcDbArc
 50
-150.055
 51
-70.3941
  0
ARC
  5
31F
330
112
100
AcDbEntity
  8
View
100
AcDbCircle
 10
20.9782
 20
-2.65872
 30
0
 40
113.022
100
AcDbArc
 50
29.9448
 51
84.1056
  0
ARC
  5
320
330
112
100
AcDbEntity
  8
View
100
AcDbCircle
 10
34.8975
 20
132.165
 30
0
 40
22.5184
100
AcDbArc
 50
152
 51
-95.8944
  0
ARC
  5
321
330
112
100
AcDbEntity
  8
View
100
AcDbCircle
 10
137.15
 20
100.156
 30
0
 40
1
100
AcDbArc
 50
180
 51
-90
  0
LINE
  5
322
330
112
100
AcDbEntity
  8
View
100
AcDbLine
 10
159.85
 20
99.156
 30
0
 11
137.15
 21
99.156
 31
0
  0
ARC
  5
323
330
112
100
AcDbEntity
  8
View
100
AcDbCircle
 10
159.85
 20
100.156
 30
0
 40
1
100
AcDbArc
 50
-90
 51
0
  0
LINE
  5
324
330
112
100
AcDbEntity
  8
View
100
AcDbLine
 10
160.85
 20
125.156
 30
0
 11
160.85
 21
100.156
 31
0
  0
ARC
  5
325
330
112
100
AcDbEntity
  8
View
100
AcDbCircle
 10
159.85
 20
125.156
 30
0
 40
1
100
AcDbArc
 50
0
 51
90
  0
LINE
  5
326
330
112
100
AcDbEntity
  8
View
100
AcDbLine
 10
137.15
 20
126.156
 30
0
 11
159.85
 21
126.156
 31
0
  0
ARC
  5
327
330
112
100
AcDbEntity
  8
View
100
AcDbCircle
 10
137.15
 20
125.156
 30
0
 40
1
100
AcDbArc
 50
90
 51
180
  0
LINE
  5
328
330
112
100
AcDbEntity
  8
View
100
AcDbLine
 10
136.15
 20
100.156
 30
0
 11
136.15
 21
125.156
 31
0
  0
CIRCLE
  5
329
330
112
100
AcDbEntity
  8
View
100
AcDbCircle
 10
71.54
 20
184.906
 40
1.2
  0
CIRCLE
  5
32A
330
112
100
AcDbEntity
  8
View
100
AcDbCircle
 10
225.46
 20
184.906
 40
1.2
  0
CIRCLE
  5
32B
330
112
100
AcDbEntity
  8
View
100
AcDbCircle
 10
148.5
 20
84.246
 40
1.2
  0
CIRCLE
  5
32C
330
112
100
AcDbEntity
  8
View
100
AcDbCircle
 10
221.02
 20
115.436
 40
1.2
  0
CIRCLE
  5
32D
330
112
100
AcDbEntity
  8
View
100
AcDbCircle
 10
75.98
 20
115.436
 40
1.2
  0
CIRCLE
  5
32E
330
112
100
AcDbEntity
  8
View
100
AcDbCircle
 10
167.93
 20
175.516
 40
1.2
  0
CIRCLE
  5
32F
330
112
100
AcDbEntity
  8
View
100
AcDbCircle
 10
129.07
 20
175.516
 40
1.2
  0
CIRCLE
  5
330
330
112
100
AcDbEntity
  8
View
100
AcDbCircle
 10
277.05
 20
132.136
 40
1.2
  0
CIRCLE
  5
331
330
112
100
AcDbEntity
  8
View
100
AcDbCircle
 10
19.95
 20
132.136
 40
1.2
  0
LINE
  5
332
330
112
100
AcDbEntity
  8
View
100
AcDbLine
 10
198.314
 20
108.688
 30
0
 11
206.498
 21
99.9116
 31
0
  0
ARC
  5
333
330
112
100
AcDbEntity
  8
View
100
AcDbCircle
 10
205.767
 20
99.2296
 30
0
 40
1
100
AcDbArc
 50
-47
 51
43
  0
ARC
  5
334
330
112
100
AcDbEntity
  8
View
100
AcDbCircle
 10
197.583
 20
108.006
 30
0
 40
1
100
AcDbArc
 50
43
 51
133
  0
LINE
  5
335
330
112
100
AcDbEntity
  8
View
100
AcDbLine
 10
206.449
 20
98.4982
 30
0
 11
197.673
 21
90.3142
 31
0
  0
LINE
  5
336
330
112
100
AcDbEntity
  8
View
100
AcDbLine
 10
188.125
 20
100.553
 30
0
 11
196.901
 21
108.737
 31
0
  0
ARC
  5
337
330
112
100
AcDbEntity
  8
View
100
AcDbCircle
 10
196.991
 20
91.0456
 30
0
 40
1
100
AcDbArc
 50
-137
 51
-47
  0
ARC
  5
338
330
112
100
AcDbEntity
  8
View
100
AcDbCircle
 10
188.807
 20
99.8218
 30
0
 40
1
100
AcDbArc
 50
133
 51
-137
  0
LINE
  5
339
330
112
100
AcDbEntity
  8
View
100
AcDbLine
 10
196.259
 20
90.3636
 30
0
 11
188.075
 21
99.1398
 31
0
  0
LINE
  5
33A
330
112
100
AcDbEntity
  8
View
100
AcDbLine
 10
184.503
 20
89.4845
 30
0
 11
178.144
 21
79.308
 31
0
  0
ARC
  5
33B
330
112
100
AcDbEntity
  8
View
100
AcDbCircle
 10
177.296
 20
79.8379
 30
0
 40
1
100
AcDbArc
 50
-122
 51
-32
  0
ARC
  5
33C
330
112
100
AcDbEntity
  8
View
100
AcDbCircle
 10
183.655
 20
90.0145
 30
0
 40
1
100
AcDbArc
 50
-32
 51
58
  0
LINE
  5
33D
330
112
100
AcDbEntity
  8
View
100
AcDbLine
 10
176.766
 20
78.9898
 30
0
 11
166.589
 21
85.3489
 31
0
  0
LINE
  5
33E
330
112
100
AcDbEntity
  8
View
100
AcDbLine
 10
174.008
 20
97.2215
 30
0
 11
184.185
 21
90.8625
 31
0
  0
ARC
  5
33F
330
112
100
AcDbEntity
  8
View
100
AcDbCircle
 10
167.119
 20
86.1969
 30
0
 40
1
100
AcDbArc
 50
148
 51
-122
  0
ARC
  5
340
330
112
100
AcDbEntity
  8
View
100
AcDbCircle
 10
173.478
 20
96.3735
 30
0
 40
1
100
AcDbArc
 50
58
 51
148
  0
LINE
  5
341
330
112
100
AcDbEntity
  8
View
100
AcDbLine
 10
166.271
 20
86.7268
 30
0
 11
172.63
 21
96.9034
 31
0
  0
LINE
  5
342
330
112
100
AcDbEntity
  8
View
100
AcDbLine
 10
130.706
 20
86.7033
 30
0
 11
124.347
 21
96.8798
 31
0
  0
ARC
  5
343
330
112
100
AcDbEntity
  8
View
100
AcDbCircle
 10
129.858
 20
86.1733
 30
0
 40
1
100
AcDbArc
 50
-58
 51
32
  0
ARC
  5
344
330
112
100
AcDbEntity
  8
View
100
AcDbCircle
 10
123.499
 20
96.3499
 30
0
 40
1
100
AcDbArc
 50
32
 51
122
  0
LINE
  5
345
330
112
100
AcDbEntity
  8
View
100
AcDbLine
 10
120.211
 20
78.9663
 30
0
 11
130.388
 21
85.3253
 31
0
  0
LINE
  5
346
330
112
100
AcDbEntity
  8
View
100
AcDbLine
 10
122.969
 20
97.198
 30
0
 11
112.792
 21
90.8389
 31
0
  0
ARC
  5
347
330
112
100
AcDbEntity
  8
View
100
AcDbCircle
 10
119.681
 20
79.8143
 30
0
 40
1
100
AcDbArc
 50
-148
 51
-58
  0
ARC
  5
348
330
112
100
AcDbEntity
  8
View
100
AcDbCircle
 10
113.322
 20
89.9909
 30
0
 40
1
100
AcDbArc
 50
122
 51
-148
  0
LINE
  5
349
330
112
100
AcDbEntity
  8
View
100
AcDbLine
 10
112.474
 20
89.461
 30
0
 11
118.833
 21
79.2844
 31
0
  0
LINE
  5
34A
330
112
100
AcDbEntity
  8
View
100
AcDbLine
 10
32.2569
 20
140.372
 30
0
 11
37.8906
 21
150.967
 31
0
  0
ARC
  5
34B
330
112
100
AcDbEntity
  8
View
100
AcDbCircle
 10
31.374
 20
140.841
 30
0
 40
1
100
AcDbArc
 50
-118
 51
-28
  0
ARC
  5
34C
330
112
100
AcDbEntity
  8
View
100
AcDbCircle
 10
37.0076
 20
151.437
 30
0
 40
1
100
AcDbArc
 50
-28
 51
62
  0
LINE
  5
34D
330
112
100
AcDbEntity
  8
View
100
AcDbLine
 10
20.3091
 20
145.592
 30
0
 11
30.9045
 21
139.958
 31
0
  0
LINE
  5
34E
330
112
100
AcDbEntity
  8
View
100
AcDbLine
 10
37.4771
 20
152.319
 30
0
 11
26.8817
 21
157.953
 31
0
  0
ARC
  5
34F
330
112
100
AcDbEntity
  8
View
100
AcDbCircle
 10
20.7786
 20
146.475
 30
0
 40
1
100
AcDbArc
 50
152
 51
-118
  0
ARC
  5
350
330
112
100
AcDbEntity
  8
View
100
AcDbCircle
 10
26.4123
 20
157.07
 30
0
 40
1
100
AcDbArc
 50
62
 51
152
  0
LINE
  5
351
330
112
100
AcDbEntity
  8
View
100
AcDbLine
 10
25.5293
 20
157.54
 30
0
 11
19.8957
 21
146.944
 31
0
  0
LINE
  5
352
330
112
100
AcDbEntity
  8
View
100
AcDbLine
 10
271.471
 20
157.55
 30
0
 11
277.104
 21
146.954
 31
0
  0
ARC
  5
353
330
112
100
AcDbEntity
  8
View
100
AcDbCircle
 10
276.221
 20
146.485
 30
0
 40
1
100
AcDbArc
 50
-62
 51
28
  0
ARC
  5
354
330
112
100
AcDbEntity
  8
View
100
AcDbCircle
 10
270.588
 20
157.08
 30
0
 40
1
100
AcDbArc
 50
28
 51
118
  0
LINE
  5
355
330
112
100
AcDbEntity
  8
View
100
AcDbLine
 10
276.691
 20
145.602
 30
0
 11
266.095
 21
139.968
 31
0
  0
LINE
  5
356
330
112
100
AcDbEntity
  8
View
100
AcDbLine
 10
259.523
 20
152.329
 30
0
 11
270.118
 21
157.963
 31
0
  0
ARC
  5
357
330
112
100
AcDbEntity
  8
View
100
AcDbCircle
 10
265.626
 20
140.851
 30
0
 40
1
100
AcDbArc
 50
-152
 51
-62
  0
ARC
  5
358
330
112
100
AcDbEntity
  8
View
100
AcDbCircle
 10
259.992
 20
151.447
 30
0
 40
1
100
AcDbArc
 50
118
 51
-152
  0
LINE
  5
359
330
112
100
AcDbEntity
  8
View
100
AcDbLine
 10
264.743
 20
140.382
 30
0
 11
259.109
 21
150.977
 31
0
  0
LINE
  5
35A
330
112
100
AcDbEntity
  8
View
100
AcDbLine
 10
120.597
 20
103.622
 30
0
 11
126.231
 21
114.217
 31
0
  0
ARC
  5
35B
330
112
100
AcDbEntity
  8
View
100
AcDbCircle
 10
119.714
 20
104.091
 30
0
 40
1
100
AcDbArc
 50
-118
 51
-28
  0
ARC
  5
35C
330
112
100
AcDbEntity
  8
View
100
AcDbCircle
 10
125.348
 20
114.687
 30
0
 40
1
100
AcDbArc
 50
-28
 51
62
  0
LINE
  5
35D
330
112
100
AcDbEntity
  8
View
100
AcDbLine
 10
108.649
 20
108.842
 30
0
 11
119.245
 21
103.208
 31
0
  0
LINE
  5
35E
330
112
100
AcDbEntity
  8
View
100
AcDbLine
 10
125.817
 20
115.569
 30
0
 11
115.222
 21
121.203
 31
0
  0
ARC
  5
35F
330
112
100
AcDbEntity
  8
View
100
AcDbCircle
 10
109.119
 20
109.725
 30
0
 40
1
100
AcDbArc
 50
152
 51
-118
  0
ARC
  5
360
330
112
100
AcDbEntity
  8
View
100
AcDbCircle
 10
114.752
 20
120.32
 30
0
 40
1
100
AcDbArc
 50
62
 51
152
  0
LINE
  5
361
330
112
100
AcDbEntity
  8
View
100
AcDbLine
 10
113.869
 20
120.79
 30
0
 11
108.236
 21
110.194
 31
0
  0
LINE
  5
362
330
112
100
AcDbEntity
  8
View
100
AcDbLine
 10
254.651
 20
148.606
 30
0
 11
260.284
 21
138.011
 31
0
  0
ARC
  5
363
330
112
100
AcDbEntity
  8
View
100
AcDbCircle
 10
259.401
 20
137.541
 30
0
 40
1
100
AcDbArc
 50
-62
 51
28
  0
ARC
  5
364
330
112
100
AcDbEntity
  8
View
100
AcDbCircle
 10
253.768
 20
148.137
 30
0
 40
1
100
AcDbArc
 50
28
 51
118
  0
LINE
  5
365
330
112
100
AcDbEntity
  8
View
100
AcDbLine
 10
259.871
 20
136.658
 30
0
 11
249.275
 21
131.025
 31
0
  0
LINE
  5
366
330
112
100
AcDbEntity
  8
View
100
AcDbLine
 10
242.703
 20
143.386
 30
0
 11
253.298
 21
149.02
 31
0
  0
ARC
  5
367
330
112
100
AcDbEntity
  8
View
100
AcDbCircle
 10
248.806
 20
131.908
 30
0
 40
1
100
AcDbArc
 50
-152
 51
-62
  0
ARC
  5
368
330
112
100
AcDbEntity
  8
View
100
AcDbCircle
 10
243.172
 20
142.503
 30
0
 40
1
100
AcDbArc
 50
118
 51
-152
  0
LINE
  5
369
330
112
100
AcDbEntity
  8
View
100
AcDbLine
 10
247.923
 20
131.438
 30
0
 11
242.289
 21
142.034
 31
0
  0
LINE
  5
36A
330
112
100
AcDbEntity
  8
View
100
AcDbLine
 10
40.1337
 20
114.608
 30
0
 11
45.7673
 21
125.203
 31
0
  0
ARC
  5
36B
330
112
100
AcDbEntity
  8
View
100
AcDbCircle
 10
39.2507
 20
115.078
 30
0
 40
1
100
AcDbArc
 50
-118
 51
-28
  0
ARC
  5
36C
330
112
100
AcDbEntity
  8
View
100
AcDbCircle
 10
44.8844
 20
125.673
 30
0
 40
1
100
AcDbArc
 50
-28
 51
62
  0
LINE
  5
36D
330
112
100
AcDbEntity
  8
View
100
AcDbLine
 10
28.1859
 20
119.828
 30
0
 11
38.7812
 21
114.195
 31
0
  0
LINE
  5
36E
330
112
100
AcDbEntity
  8
View
100
AcDbLine
 10
45.3538
 20
126.556
 30
0
 11
34.7585
 21
132.19
 31
0
  0
ARC
  5
36F
330
112
100
AcDbEntity
  8
View
100
AcDbCircle
 10
28.6553
 20
120.711
 30
0
 40
1
100
AcDbArc
 50
152
 51
-118
  0
ARC
  5
370
330
112
100
AcDbEntity
  8
View
100
AcDbCircle
 10
34.289
 20
131.307
 30
0
 40
1
100
AcDbArc
 50
62
 51
152
  0
LINE
  5
371
330
112
100
AcDbEntity
  8
View
100
AcDbLine
 10
33.406
 20
131.776
 30
0
 11
27.7724
 21
121.181
 31
0
  0
LINE
  5
372
330
112
100
AcDbEntity
  8
View
100
AcDbLine
 10
253.584
 20
191.19
 30
0
 11
259.217
 21
180.595
 31
0
  0
ARC
  5
373
330
112
100
AcDbEntity
  8
View
100
AcDbCircle
 10
258.335
 20
180.125
 30
0
 40
1
100
AcDbArc
 50
-62
 51
28
  0
ARC
  5
374
330
112
100
AcDbEntity
  8
View
100
AcDbCircle
 10
252.701
 20
190.721
 30
0
 40
1
100
AcDbArc
 50
28
 51
118
  0
LINE
  5
375
330
112
100
AcDbEntity
  8
View
100
AcDbLine
 10
258.804
 20
179.242
 30
0
 11
248.209
 21
173.609
 31
0
  0
LINE
  5
376
330
112
100
AcDbEntity
  8
View
100
AcDbLine
 10
241.636
 20
185.97
 30
0
 11
252.231
 21
191.603
 31
0
  0
ARC
  5
377
330
112
100
AcDbEntity
  8
View
100
AcDbCircle
 10
247.739
 20
174.491
 30
0
 40
1
100
AcDbArc
 50
-152
 51
-62
  0
ARC
  5
378
330
112
100
AcDbEntity
  8
View
100
AcDbCircle
 10
242.105
 20
185.087
 30
0
 40
1
100
AcDbArc
 50
118
 51
-152
  0
LINE
  5
379
330
112
100
AcDbEntity
  8
View
100
AcDbLine
 10
246.856
 20
174.022
 30
0
 11
241.223
 21
184.617
 31
0
  0
LINE
  5
37A
330
112
100
AcDbEntity
  8
View
100
AcDbLine
 10
41.2004
 20
157.192
 30
0
 11
46.834
 21
167.787
 31
0
  0
ARC
  5
37B
330
112
100
AcDbEntity
  8
View
100
AcDbCircle
 10
40.3174
 20
157.661
 30
0
 40
1
100
AcDbArc
 50
-118
 51
-28
  0
ARC
  5
37C
330
112
100
AcDbEntity
  8
View
100
AcDbCircle
 10
45.9511
 20
168.257
 30
0
 40
1
100
AcDbArc
 50
-28
 51
62
  0
LINE
  5
37D
330
112
100
AcDbEntity
  8
View
100
AcDbLine
 10
29.2526
 20
162.412
 30
0
 11
39.848
 21
156.778
 31
0
  0
LINE
  5
37E
330
112
100
AcDbEntity
  8
View
100
AcDbLine
 10
46.4206
 20
169.14
 30
0
 11
35.8252
 21
174.773
 31
0
  0
ARC
  5
37F
330
112
100
AcDbEntity
  8
View
100
AcDbCircle
 10
29.7221
 20
163.295
 30
0
 40
1
100
AcDbArc
 50
152
 51
-118
  0
ARC
  5
380
330
112
100
AcDbEntity
  8
View
100
AcDbCircle
 10
35.3557
 20
173.89
 30
0
 40
1
100
AcDbArc
 50
62
 51
152
  0
LINE
  5
381
330
112
100
AcDbEntity
  8
View
100
AcDbLine
 10
34.4728
 20
174.36
 30
0
 11
28.8391
 21
163.764
 31
0
  0
LINE
  5
382
330
112
100
AcDbEntity
  8
View
100
AcDbLine
 10
104.907
 20
114.702
 30
0
 11
110.541
 21
125.297
 31
0
  0
ARC
  5
383
330
112
100
AcDbEntity
  8
View
100
AcDbCircle
 10
104.024
 20
115.171
 30
0
 40
1
100
AcDbArc
 50
-118
 51
-28
  0
ARC
  5
384
330
112
100
AcDbEntity
  8
View
100
AcDbCircle
 10
109.658
 20
125.767
 30
0
 40
1
100
AcDbArc
 50
-28
 51
62
  0
LINE
  5
385
330
112
100
AcDbEntity
  8
View
100
AcDbLine
 10
92.9591
 20
119.922
 30
0
 11
103.555
 21
114.288
 31
0
  0
LINE
  5
386
330
112
100
AcDbEntity
  8
View
100
AcDbLine
 10
110.127
 20
126.649
 30
0
 11
99.5317
 21
132.283
 31
0
  0
ARC
  5
387
330
112
100
AcDbEntity
  8
View
100
AcDbCircle
 10
93.4286
 20
120.805
 30
0
 40
1
100
AcDbArc
 50
152
 51
-118
  0
ARC
  5
388
330
112
100
AcDbEntity
  8
View
100
AcDbCircle
 10
99.0623
 20
131.4
 30
0
 40
1
100
AcDbArc
 50
62
 51
152
  0
LINE
  5
389
330
112
100
AcDbEntity
  8
View
100
AcDbLine
 10
98.1793
 20
131.87
 30
0
 11
92.5457
 21
121.274
 31
0
  0
LINE
  5
38A
330
112
100
AcDbEntity
  8
View
100
AcDbLine
 10
262.527
 20
174.37
 30
0
 11
268.161
 21
163.774
 31
0
  0
ARC
  5
38B
330
112
100
AcDbEntity
  8
View
100
AcDbCircle
 10
267.278
 20
163.305
 30
0
 40
1
100
AcDbArc
 50
-62
 51
28
  0
ARC
  5
38C
330
112
100
AcDbEntity
  8
View
100
AcDbCircle
 10
261.644
 20
173.9
 30
0
 40
1
100
AcDbArc
 50
28
 51
118
  0
LINE
  5
38D
330
112
100
AcDbEntity
  8
View
100
AcDbLine
 10
267.747
 20
162.422
 30
0
 11
257.152
 21
156.788
 31
0
  0
LINE
  5
38E
330
112
100
AcDbEntity
  8
View
100
AcDbLine
 10
250.579
 20
169.15
 30
0
 11
261.175
 21
174.783
 31
0
  0
ARC
  5
38F
330
112
100
AcDbEntity
  8
View
100
AcDbCircle
 10
256.683
 20
157.671
 30
0
 40
1
100
AcDbArc
 50
-152
 51
-62
  0
ARC
  5
390
330
112
100
AcDbEntity
  8
View
100
AcDbCircle
 10
251.049
 20
168.267
 30
0
 40
1
100
AcDbArc
 50
118
 51
-152
  0
LINE
  5
391
330
112
100
AcDbEntity
  8
View
100
AcDbLine
 10
255.8
 20
157.202
 30
0
 11
250.166
 21
167.797
 31
0
  0
LINE
  5
392
330
112
100
AcDbEntity
  8
View
100
AcDbLine
 10
214.334
 20
183.85
 30
0
 11
219.967
 21
173.255
 31
0
  0
ARC
  5
393
330
112
100
AcDbEntity
  8
View
100
AcDbCircle
 10
219.085
 20
172.785
 30
0
 40
1
100
AcDbArc
 50
-62
 51
28
  0
ARC
  5
394
330
112
100
AcDbEntity
  8
View
100
AcDbCircle
 10
213.451
 20
183.381
 30
0
 40
1
100
AcDbArc
 50
28
 51
118
  0
LINE
  5
395
330
112
100
AcDbEntity
  8
View
100
AcDbLine
 10
219.554
 20
171.902
 30
0
 11
208.959
 21
166.269
 31
0
  0
LINE
  5
396
330
112
100
AcDbEntity
  8
View
100
AcDbLine
 10
202.386
 20
178.63
 30
0
 11
212.981
 21
184.263
 31
0
  0
ARC
  5
397
330
112
100
AcDbEntity
  8
View
100
AcDbCircle
 10
208.489
 20
167.151
 30
0
 40
1
100
AcDbArc
 50
-152
 51
-62
  0
ARC
  5
398
330
112
100
AcDbEntity
  8
View
100
AcDbCircle
 10
202.855
 20
177.747
 30
0
 40
1
100
AcDbArc
 50
118
 51
-152
  0
LINE
  5
399
330
112
100
AcDbEntity
  8
View
100
AcDbLine
 10
207.606
 20
166.682
 30
0
 11
201.973
 21
177.277
 31
0
  0
LINE
  5
39A
330
112
100
AcDbEntity
  8
View
100
AcDbLine
 10
236.764
 20
182.247
 30
0
 11
242.397
 21
171.651
 31
0
  0
ARC
  5
39B
330
112
100
AcDbEntity
  8
View
100
AcDbCircle
 10
241.514
 20
171.182
 30
0
 40
1
100
AcDbArc
 50
-62
 51
28
  0
ARC
  5
39C
330
112
100
AcDbEntity
  8
View
100
AcDbCircle
 10
235.881
 20
181.777
 30
0
 40
1
100
AcDbArc
 50
28
 51
118
  0
LINE
  5
39D
330
112
100
AcDbEntity
  8
View
100
AcDbLine
 10
241.984
 20
170.299
 30
0
 11
231.388
 21
164.665
 31
0
  0
LINE
  5
39E
330
112
100
AcDbEntity
  8
View
100
AcDbLine
 10
224.816
 20
177.026
 30
0
 11
235.411
 21
182.66
 31
0
  0
ARC
  5
39F
330
112
100
AcDbEntity
  8
View
100
AcDbCircle
 10
230.919
 20
165.548
 30
0
 40
1
100
AcDbArc
 50
-152
 51
-62
  0
ARC
  5
3A0
330
112
100
AcDbEntity
  8
View
100
AcDbCircle
 10
225.285
 20
176.143
 30
0
 40
1
100
AcDbArc
 50
118
 51
-152
  0
LINE
  5
3A1
330
112
100
AcDbEntity
  8
View
100
AcDbLine
 10
230.036
 20
165.079
 30
0
 11
224.402
 21
175.674
 31
0
  0
LINE
  5
3A2
330
112
100
AcDbEntity
  8
View
100
AcDbLine
 10
232.221
 20
150.21
 30
0
 11
237.854
 21
139.614
 31
0
  0
ARC
  5
3A3
330
112
100
AcDbEntity
  8
View
100
AcDbCircle
 10
236.971
 20
139.145
 30
0
 40
1
100
AcDbArc
 50
-62
 51
28
  0
ARC
  5
3A4
330
112
100
AcDbEntity
  8
View
100
AcDbCircle
 10
231.338
 20
149.74
 30
0
 40
1
100
AcDbArc
 50
28
 51
118
  0
LINE
  5
3A5
330
112
100
AcDbEntity
  8
View
100
AcDbLine
 10
237.441
 20
138.262
 30
0
 11
226.845
 21
132.628
 31
0
  0
LINE
  5
3A6
330
112
100
AcDbEntity
  8
View
100
AcDbLine
 10
220.273
 20
144.989
 30
0
 11
230.868
 21
150.623
 31
0
  0
ARC
  5
3A7
330
112
100
AcDbEntity
  8
View
100
AcDbCircle
 10
226.376
 20
133.511
 30
0
 40
1
100
AcDbArc
 50
-152
 51
-62
  0
ARC
  5
3A8
330
112
100
AcDbEntity
  8
View
100
AcDbCircle
 10
220.742
 20
144.107
 30
0
 40
1
100
AcDbArc
 50
118
 51
-152
  0
LINE
  5
3A9
330
112
100
AcDbEntity
  8
View
100
AcDbLine
 10
225.493
 20
133.042
 30
0
 11
219.859
 21
143.637
 31
0
  0
LINE
  5
3AA
330
112
100
AcDbEntity
  8
View
100
AcDbLine
 10
183.131
 20
120.79
 30
0
 11
188.764
 21
110.194
 31
0
  0
ARC
  5
3AB
330
112
100
AcDbEntity
  8
View
100
AcDbCircle
 10
187.881
 20
109.725
 30
0
 40
1
100
AcDbArc
 50
-62
 51
28
  0
ARC
  5
3AC
330
112
100
AcDbEntity
  8
View
100
AcDbCircle
 10
182.248
 20
120.32
 30
0
 40
1
100
AcDbArc
 50
28
 51
118
  0
LINE
  5
3AD
330
112
100
AcDbEntity
  8
View
100
AcDbLine
 10
188.351
 20
108.842
 30
0
 11
177.755
 21
103.208
 31
0
  0
LINE
  5
3AE
330
112
100
AcDbEntity
  8
View
100
AcDbLine
 10
171.183
 20
115.569
 30
0
 11
181.778
 21
121.203
 31
0
  0
ARC
  5
3AF
330
112
100
AcDbEntity
  8
View
100
AcDbCircle
 10
177.286
 20
104.091
 30
0
 40
1
100
AcDbArc
 50
-152
 51
-62
  0
ARC
  5
3B0
330
112
100
AcDbEntity
  8
View
100
AcDbCircle
 10
171.652
 20
114.687
 30
0
 40
1
100
AcDbArc
 50
118
 51
-152
  0
LINE
  5
3B1
330
112
100
AcDbEntity
  8
View
100
AcDbLine
 10
176.403
 20
103.622
 30
0
 11
170.769
 21
114.217
 31
0
  0
LINE
  5
3B2
330
112
100
AcDbEntity
  8
View
100
AcDbLine
 10
122.794
 20
148.342
 30
0
 11
128.427
 21
158.937
 31
0
  0
ARC
  5
3B3
330
112
100
AcDbEntity
  8
View
100
AcDbCircle
 10
121.911
 20
148.811
 30
0
 40
1
100
AcDbArc
 50
-118
 51
-28
  0
ARC
  5
3B4
330
112
100
AcDbEntity
  8
View
100
AcDbCircle
 10
127.545
 20
159.407
 30
0
 40
1
100
AcDbArc
 50
-28
 51
62
  0
LINE
  5
3B5
330
112
100
AcDbEntity
  8
View
100
AcDbLine
 10
110.846
 20
153.562
 30
0
 11
121.441
 21
147.929
 31
0
  0
LINE
  5
3B6
330
112
100
AcDbEntity
  8
View
100
AcDbLine
 10
128.014
 20
160.29
 30
0
 11
117.419
 21
165.923
 31
0
  0
ARC
  5
3B7
330
112
100
AcDbEntity
  8
View
100
AcDbCircle
 10
111.315
 20
154.445
 30
0
 40
1
100
AcDbArc
 50
152
 51
-118
  0
ARC
  5
3B8
330
112
100
AcDbEntity
  8
View
100
AcDbCircle
 10
116.949
 20
165.041
 30
0
 40
1
100
AcDbArc
 50
62
 51
152
  0
LINE
  5
3B9
330
112
100
AcDbEntity
  8
View
100
AcDbLine
 10
116.066
 20
165.51
 30
0
 11
110.433
 21
154.915
 31
0
  0
LINE
  5
3BA
330
112
100
AcDbEntity
  8
View
100
AcDbLine
 10
80.4504
 20
149.852
 30
0
 11
86.084
 21
160.447
 31
0
  0
ARC
  5
3BB
330
112
100
AcDbEntity
  8
View
100
AcDbCircle
 10
79.5674
 20
150.321
 30
0
 40
1
100
AcDbArc
 50
-118
 51
-28
  0
ARC
  5
3BC
330
112
100
AcDbEntity
  8
View
100
AcDbCircle
 10
85.2011
 20
160.917
 30
0
 40
1
100
AcDbArc
 50
-28
 51
62
  0
LINE
  5
3BD
330
112
100
AcDbEntity
  8
View
100
AcDbLine
 10
68.5026
 20
155.072
 30
0
 11
79.098
 21
149.438
 31
0
  0
LINE
  5
3BE
330
112
100
AcDbEntity
  8
View
100
AcDbLine
 10
85.6706
 20
161.8
 30
0
 11
75.0752
 21
167.433
 31
0
  0
ARC
  5
3BF
330
112
100
AcDbEntity
  8
View
100
AcDbCircle
 10
68.9721
 20
155.955
 30
0
 40
1
100
AcDbArc
 50
152
 51
-118
  0
ARC
  5
3C0
330
112
100
AcDbEntity
  8
View
100
AcDbCircle
 10
74.6057
 20
166.55
 30
0
 40
1
100
AcDbArc
 50
62
 51
152
  0
LINE
  5
3C1
330
112
100
AcDbEntity
  8
View
100
AcDbLine
 10
73.7228
 20
167.02
 30
0
 11
68.0891
 21
156.424
 31
0
  0
LINE
  5
3C2
330
112
100
AcDbEntity
  8
View
100
AcDbLine
 10
113.85
 20
131.522
 30
0
 11
119.484
 21
142.117
 31
0
  0
ARC
  5
3C3
330
112
100
AcDbEntity
  8
View
100
AcDbCircle
 10
112.967
 20
131.991
 30
0
 40
1
100
AcDbArc
 50
-118
 51
-28
  0
ARC
  5
3C4
330
112
100
AcDbEntity
  8
View
100
AcDbCircle
 10
118.601
 20
142.587
 30
0
 40
1
100
AcDbArc
 50
-28
 51
62
  0
LINE
  5
3C5
330
112
100
AcDbEntity
  8
View
100
AcDbLine
 10
101.903
 20
136.742
 30
0
 11
112.498
 21
131.108
 31
0
  0
LINE
  5
3C6
330
112
100
AcDbEntity
  8
View
100
AcDbLine
 10
119.071
 20
143.47
 30
0
 11
108.475
 21
149.103
 31
0
  0
ARC
  5
3C7
330
112
100
AcDbEntity
  8
View
100
AcDbCircle
 10
102.372
 20
137.625
 30
0
 40
1
100
AcDbArc
 50
152
 51
-118
  0
ARC
  5
3C8
330
112
100
AcDbEntity
  8
View
100
AcDbCircle
 10
108.006
 20
148.22
 30
0
 40
1
100
AcDbArc
 50
62
 51
152
  0
LINE
  5
3C9
330
112
100
AcDbEntity
  8
View
100
AcDbLine
 10
107.123
 20
148.69
 30
0
 11
101.489
 21
138.094
 31
0
  0
LINE
  5
3CA
330
112
100
AcDbEntity
  8
View
100
AcDbLine
 10
100.07
 20
146.182
 30
0
 11
105.704
 21
156.777
 31
0
  0
ARC
  5
3CB
330
112
100
AcDbEntity
  8
View
100
AcDbCircle
 10
99.1874
 20
146.651
 30
0
 40
1
100
AcDbArc
 50
-118
 51
-28
  0
ARC
  5
3CC
330
112
100
AcDbEntity
  8
View
100
AcDbCircle
 10
104.821
 20
157.247
 30
0
 40
1
100
AcDbArc
 50
-28
 51
62
  0
LINE
  5
3CD
330
112
100
AcDbEntity
  8
View
100
AcDbLine
 10
88.1226
 20
151.402
 30
0
 11
98.718
 21
145.768
 31
0
  0
LINE
  5
3CE
330
112
100
AcDbEntity
  8
View
100
AcDbLine
 10
105.291
 20
158.13
 30
0
 11
94.6952
 21
163.763
 31
0
  0
ARC
  5
3CF
330
112
100
AcDbEntity
  8
View
100
AcDbCircle
 10
88.5921
 20
152.285
 30
0
 40
1
100
AcDbArc
 50
152
 51
-118
  0
ARC
  5
3D0
330
112
100
AcDbEntity
  8
View
100
AcDbCircle
 10
94.2257
 20
162.88
 30
0
 40
1
100
AcDbArc
 50
62
 51
152
  0
LINE
  5
3D1
330
112
100
AcDbEntity
  8
View
100
AcDbLine
 10
93.3428
 20
163.35
 30
0
 11
87.7091
 21
152.754
 31
0
  0
LINE
  5
3D2
330
112
100
AcDbEntity
  8
View
100
AcDbLine
 10
194.714
 20
180.17
 30
0
 11
200.347
 21
169.575
 31
0
  0
ARC
  5
3D3
330
112
100
AcDbEntity
  8
View
100
AcDbCircle
 10
199.465
 20
169.105
 30
0
 40
1
100
AcDbArc
 50
-62
 51
28
  0
ARC
  5
3D4
330
112
100
AcDbEntity
  8
View
100
AcDbCircle
 10
193.831
 20
179.701
 30
0
 40
1
100
AcDbArc
 50
28
 51
118
  0
LINE
  5
3D5
330
112
100
AcDbEntity
  8
View
100
AcDbLine
 10
199.934
 20
168.222
 30
0
 11
189.339
 21
162.589
 31
0
  0
LINE
  5
3D6
330
112
100
AcDbEntity
  8
View
100
AcDbLine
 10
182.766
 20
174.95
 30
0
 11
193.361
 21
180.583
 31
0
  0
ARC
  5
3D7
330
112
100
AcDbEntity
  8
View
100
AcDbCircle
 10
188.869
 20
163.471
 30
0
 40
1
100
AcDbArc
 50
-152
 51
-62
  0
ARC
  5
3D8
330
112
100
AcDbEntity
  8
View
100
AcDbCircle
 10
183.235
 20
174.067
 30
0
 40
1
100
AcDbArc
 50
118
 51
-152
  0
LINE
  5
3D9
330
112
100
AcDbEntity
  8
View
100
AcDbLine
 10
187.986
 20
163.002
 30
0
 11
182.353
 21
173.597
 31
0
  0
LINE
  5
3DA
330
112
100
AcDbEntity
  8
View
100
AcDbLine
 10
203.657
 20
163.35
 30
0
 11
209.291
 21
152.754
 31
0
  0
ARC
  5
3DB
330
112
100
AcDbEntity
  8
View
100
AcDbCircle
 10
208.408
 20
152.285
 30
0
 40
1
100
AcDbArc
 50
-62
 51
28
  0
ARC
  5
3DC
330
112
100
AcDbEntity
  8
View
100
AcDbCircle
 10
202.774
 20
162.88
 30
0
 40
1
100
AcDbArc
 50
28
 51
118
  0
LINE
  5
3DD
330
112
100
AcDbEntity
  8
View
100
AcDbLine
 10
208.877
 20
151.402
 30
0
 11
198.282
 21
145.768
 31
0
  0
LINE
  5
3DE
330
112
100
AcDbEntity
  8
View
100
AcDbLine
 10
191.709
 20
158.13
 30
0
 11
202.305
 21
163.763
 31
0
  0
ARC
  5
3DF
330
112
100
AcDbEntity
  8
View
100
AcDbCircle
 10
197.813
 20
146.651
 30
0
 40
1
100
AcDbArc
 50
-152
 51
-62
  0
ARC
  5
3E0
330
112
100
AcDbEntity
  8
View
100
AcDbCircle
 10
192.179
 20
157.247
 30
0
 40
1
100
AcDbArc
 50
118
 51
-152
  0
LINE
  5
3E1
330
112
100
AcDbEntity
  8
View
100
AcDbLine
 10
196.93
 20
146.182
 30
0
 11
191.296
 21
156.777
 31
0
  0
LINE
  5
3E2
330
112
100
AcDbEntity
  8
View
100
AcDbLine
 10
205.873
 20
129.362
 30
0
 11
200.239
 21
139.957
 31
0
  0
ARC
  5
3E3
330
112
100
AcDbEntity
  8
View
100
AcDbCircle
 10
206.756
 20
129.831
 30
0
 40
1
100
AcDbArc
 50
-152
 51
-62
  0
ARC
  5
3E4
330
112
100
AcDbEntity
  8
View
100
AcDbCircle
 10
201.122
 20
140.427
 30
0
 40
1
100
AcDbArc
 50
118
 51
-152
  0
LINE
  5
3E5
330
112
100
AcDbEntity
  8
View
100
AcDbLine
 10
217.821
 20
134.582
 30
0
 11
207.225
 21
128.948
 31
0
  0
LINE
  5
3E6
330
112
100
AcDbEntity
  8
View
100
AcDbLine
 10
200.653
 20
141.309
 30
0
 11
211.248
 21
146.943
 31
0
  0
ARC
  5
3E7
330
112
100
AcDbEntity
  8
View
100
AcDbCircle
 10
217.351
 20
135.465
 30
0
 40
1
100
AcDbArc
 50
-62
 51
28
  0
ARC
  5
3E8
330
112
100
AcDbEntity
  8
View
100
AcDbCircle
 10
211.718
 20
146.06
 30
0
 40
1
100
AcDbArc
 50
28
 51
118
  0
LINE
  5
3E9
330
112
100
AcDbEntity
  8
View
100
AcDbLine
 10
212.601
 20
146.53
 30
0
 11
218.234
 21
135.934
 31
0
  0
LINE
  5
3EA
330
112
100
AcDbEntity
  8
View
100
AcDbLine
 10
180.934
 20
165.51
 30
0
 11
186.567
 21
154.915
 31
0
  0
ARC
  5
3EB
330
112
100
AcDbEntity
  8
View
100
AcDbCircle
 10
185.685
 20
154.445
 30
0
 40
1
100
AcDbArc
 50
-62
 51
28
  0
ARC
  5
3EC
330
112
100
AcDbEntity
  8
View
100
AcDbCircle
 10
180.051
 20
165.041
 30
0
 40
1
100
AcDbArc
 50
28
 51
118
  0
LINE
  5
3ED
330
112
100
AcDbEntity
  8
View
100
AcDbLine
 10
186.154
 20
153.562
 30
0
 11
175.559
 21
147.929
 31
0
  0
LINE
  5
3EE
330
112
100
AcDbEntity
  8
View
100
AcDbLine
 10
168.986
 20
160.29
 30
0
 11
179.581
 21
165.923
 31
0
  0
ARC
  5
3EF
330
112
100
AcDbEntity
  8
View
100
AcDbCircle
 10
175.089
 20
148.811
 30
0
 40
1
100
AcDbArc
 50
-152
 51
-62
  0
ARC
  5
3F0
330
112
100
AcDbEntity
  8
View
100
AcDbCircle
 10
169.455
 20
159.407
 30
0
 40
1
100
AcDbArc
 50
118
 51
-152
  0
LINE
  5
3F1
330
112
100
AcDbEntity
  8
View
100
AcDbLine
 10
174.206
 20
148.342
 30
0
 11
168.573
 21
158.937
 31
0
  0
LINE
  5
3F2
330
112
100
AcDbEntity
  8
View
100
AcDbLine
 10
189.877
 20
148.69
 30
0
 11
195.511
 21
138.094
 31
0
  0
ARC
  5
3F3
330
112
100
AcDbEntity
  8
View
100
AcDbCircle
 10
194.628
 20
137.625
 30
0
 40
1
100
AcDbArc
 50
-62
 51
28
  0
ARC
  5
3F4
330
112
100
AcDbEntity
  8
View
100
AcDbCircle
 10
188.994
 20
148.22
 30
0
 40
1
100
AcDbArc
 50
28
 51
118
  0
LINE
  5
3F5
330
112
100
AcDbEntity
  8
View
100
AcDbLine
 10
195.097
 20
136.742
 30
0
 11
184.502
 21
131.108
 31
0
  0
LINE
  5
3F6
330
112
100
AcDbEntity
  8
View
100
AcDbLine
 10
177.929
 20
143.47
 30
0
 11
188.525
 21
149.103
 31
0
  0
ARC
  5
3F7
330
112
100
AcDbEntity
  8
View
100
AcDbCircle
 10
184.033
 20
131.991
 30
0
 40
1
100
AcDbArc
 50
-152
 51
-62
  0
ARC
  5
3F8
330
112
100
AcDbEntity
  8
View
100
AcDbCircle
 10
178.399
 20
142.587
 30
0
 40
1
100
AcDbArc
 50
118
 51
-152
  0
LINE
  5
3F9
330
112
100
AcDbEntity
  8
View
100
AcDbLine
 10
183.15
 20
131.522
 30
0
 11
177.516
 21
142.117
 31
0
  0
LINE
  5
3FA
330
112
100
AcDbEntity
  8
View
100
AcDbLine
 10
198.821
 20
131.87
 30
0
 11
204.454
 21
121.274
 31
0
  0
ARC
  5
3FB
330
112
100
AcDbEntity
  8
View
100
AcDbCircle
 10
203.571
 20
120.805
 30
0
 40
1
100
AcDbArc
 50
-62
 51
28
  0
ARC
  5
3FC
330
112
100
AcDbEntity
  8
View
100
AcDbCircle
 10
197.938
 20
131.4
 30
0
 40
1
100
AcDbArc
 50
28
 51
118
  0
LINE
  5
3FD
330
112
100
AcDbEntity
  8
View
100
AcDbLine
 10
204.041
 20
119.922
 30
0
 11
193.445
 21
114.288
 31
0
  0
LINE
  5
3FE
330
112
100
AcDbEntity
  8
View
100
AcDbLine
 10
186.873
 20
126.649
 30
0
 11
197.468
 21
132.283
 31
0
  0
ARC
  5
3FF
330
112
100
AcDbEntity
  8
View
100
AcDbCircle
 10
192.976
 20
115.171
 30
0
 40
1
100
AcDbArc
 50
-152
 51
-62
  0
ARC
  5
400
330
112
100
AcDbEntity
  8
View
100
AcDbCircle
 10
187.342
 20
125.767
 30
0
 40
1
100
AcDbArc
 50
118
 51
-152
  0
LINE
  5
401
330
112
100
AcDbEntity
  8
View
100
AcDbLine
 10
192.093
 20
114.702
 30
0
 11
186.459
 21
125.297
 31
0
  0
LINE
  5
402
330
112
100
AcDbEntity
  8
View
100
AcDbLine
 10
174.187
 20
137.61
 30
0
 11
179.821
 21
127.014
 31
0
  0
ARC
  5
403
330
112
100
AcDbEntity
  8
View
100
AcDbCircle
 10
178.938
 20
126.545
 30
0
 40
1
100
AcDbArc
 50
-62
 51
28
  0
ARC
  5
404
330
112
100
AcDbEntity
  8
View
100
AcDbCircle
 10
173.304
 20
137.14
 30
0
 40
1
100
AcDbArc
 50
28
 51
118
  0
LINE
  5
405
330
112
100
AcDbEntity
  8
View
100
AcDbLine
 10
179.407
 20
125.662
 30
0
 11
168.812
 21
120.028
 31
0
  0
LINE
  5
406
330
112
100
AcDbEntity
  8
View
100
AcDbLine
 10
162.239
 20
132.39
 30
0
 11
172.835
 21
138.023
 31
0
  0
ARC
  5
407
330
112
100
AcDbEntity
  8
View
100
AcDbCircle
 10
168.343
 20
120.911
 30
0
 40
1
100
AcDbArc
 50
-152
 51
-62
  0
ARC
  5
408
330
112
100
AcDbEntity
  8
View
100
AcDbCircle
 10
162.709
 20
131.507
 30
0
 40
1
100
AcDbArc
 50
118
 51
-152
  0
LINE
  5
409
330
112
100
AcDbEntity
  8
View
100
AcDbLine
 10
167.46
 20
120.442
 30
0
 11
161.826
 21
131.037
 31
0
  0
LINE
  5
40A
330
112
100
AcDbEntity
  8
View
100
AcDbLine
 10
109.014
 20
163.002
 30
0
 11
114.647
 21
173.597
 31
0
  0
ARC
  5
40B
330
112
100
AcDbEntity
  8
View
100
AcDbCircle
 10
108.131
 20
163.471
 30
0
 40
1
100
AcDbArc
 50
-118
 51
-28
  0
ARC
  5
40C
330
112
100
AcDbEntity
  8
View
100
AcDbCircle
 10
113.765
 20
174.067
 30
0
 40
1
100
AcDbArc
 50
-28
 51
62
  0
LINE
  5
40D
330
112
100
AcDbEntity
  8
View
100
AcDbLine
 10
97.066
 20
168.222
 30
0
 11
107.661
 21
162.589
 31
0
  0
LINE
  5
40E
330
112
100
AcDbEntity
  8
View
100
AcDbLine
 10
114.234
 20
174.95
 30
0
 11
103.639
 21
180.583
 31
0
  0
ARC
  5
40F
330
112
100
AcDbEntity
  8
View
100
AcDbCircle
 10
97.5355
 20
169.105
 30
0
 40
1
100
AcDbArc
 50
152
 51
-118
  0
ARC
  5
410
330
112
100
AcDbEntity
  8
View
100
AcDbCircle
 10
103.169
 20
179.701
 30
0
 40
1
100
AcDbArc
 50
62
 51
152
  0
LINE
  5
411
330
112
100
AcDbEntity
  8
View
100
AcDbLine
 10
102.286
 20
180.17
 30
0
 11
96.6525
 21
169.575
 31
0
  0
LINE
  5
412
330
112
100
AcDbEntity
  8
View
100
AcDbLine
 10
129.54
 20
120.442
 30
0
 11
135.174
 21
131.037
 31
0
  0
ARC
  5
413
330
112
100
AcDbEntity
  8
View
100
AcDbCircle
 10
128.657
 20
120.911
 30
0
 40
1
100
AcDbArc
 50
-118
 51
-28
  0
ARC
  5
414
330
112
100
AcDbEntity
  8
View
100
AcDbCircle
 10
134.291
 20
131.507
 30
0
 40
1
100
AcDbArc
 50
-28
 51
62
  0
LINE
  5
415
330
112
100
AcDbEntity
  8
View
100
AcDbLine
 10
117.593
 20
125.662
 30
0
 11
128.188
 21
120.028
 31
0
  0
LINE
  5
416
330
112
100
AcDbEntity
  8
View
100
AcDbLine
 10
134.761
 20
132.39
 30
0
 11
124.165
 21
138.023
 31
0
  0
ARC
  5
417
330
112
100
AcDbEntity
  8
View
100
AcDbCircle
 10
118.062
 20
126.545
 30
0
 40
1
100
AcDbArc
 50
152
 51
-118
  0
ARC
  5
418
330
112
100
AcDbEntity
  8
View
100
AcDbCircle
 10
123.696
 20
137.14
 30
0
 40
1
100
AcDbArc
 50
62
 51
152
  0
LINE
  5
419
330
112
100
AcDbEntity
  8
View
100
AcDbLine
 10
122.813
 20
137.61
 30
0
 11
117.179
 21
127.014
 31
0
  0
LINE
  5
41A
330
112
100
AcDbEntity
  8
View
100
AcDbLine
 10
138.484
 20
137.262
 30
0
 11
144.117
 21
147.857
 31
0
  0
ARC
  5
41B
330
112
100
AcDbEntity
  8
View
100
AcDbCircle
 10
137.601
 20
137.731
 30
0
 40
1
100
AcDbArc
 50
-118
 51
-28
  0
ARC
  5
41C
330
112
100
AcDbEntity
  8
View
100
AcDbCircle
 10
143.235
 20
148.327
 30
0
 40
1
100
AcDbArc
 50
-28
 51
62
  0
LINE
  5
41D
330
112
100
AcDbEntity
  8
View
100
AcDbLine
 10
126.536
 20
142.482
 30
0
 11
137.131
 21
136.849
 31
0
  0
LINE
  5
41E
330
112
100
AcDbEntity
  8
View
100
AcDbLine
 10
143.704
 20
149.21
 30
0
 11
133.109
 21
154.843
 31
0
  0
ARC
  5
41F
330
112
100
AcDbEntity
  8
View
100
AcDbCircle
 10
127.005
 20
143.365
 30
0
 40
1
100
AcDbArc
 50
152
 51
-118
  0
ARC
  5
420
330
112
100
AcDbEntity
  8
View
100
AcDbCircle
 10
132.639
 20
153.961
 30
0
 40
1
100
AcDbArc
 50
62
 51
152
  0
LINE
  5
421
330
112
100
AcDbEntity
  8
View
100
AcDbLine
 10
131.756
 20
154.43
 30
0
 11
126.123
 21
143.835
 31
0
  0
LINE
  5
422
330
112
100
AcDbEntity
  8
View
100
AcDbLine
 10
50.1438
 20
174.012
 30
0
 11
55.7775
 21
184.607
 31
0
  0
ARC
  5
423
330
112
100
AcDbEntity
  8
View
100
AcDbCircle
 10
49.2609
 20
174.481
 30
0
 40
1
100
AcDbArc
 50
-118
 51
-28
  0
ARC
  5
424
330
112
100
AcDbEntity
  8
View
100
AcDbCircle
 10
54.8945
 20
185.077
 30
0
 40
1
100
AcDbArc
 50
-28
 51
62
  0
LINE
  5
425
330
112
100
AcDbEntity
  8
View
100
AcDbLine
 10
38.196
 20
179.232
 30
0
 11
48.7914
 21
173.599
 31
0
  0
LINE
  5
426
330
112
100
AcDbEntity
  8
View
100
AcDbLine
 10
55.364
 20
185.96
 30
0
 11
44.7686
 21
191.593
 31
0
  0
ARC
  5
427
330
112
100
AcDbEntity
  8
View
100
AcDbCircle
 10
38.6655
 20
180.115
 30
0
 40
1
100
AcDbArc
 50
152
 51
-118
  0
ARC
  5
428
330
112
100
AcDbEntity
  8
View
100
AcDbCircle
 10
44.2991
 20
190.711
 30
0
 40
1
100
AcDbArc
 50
62
 51
152
  0
LINE
  5
429
330
112
100
AcDbEntity
  8
View
100
AcDbLine
 10
43.4162
 20
191.18
 30
0
 11
37.7825
 21
180.585
 31
0
  0
LINE
  5
42A
330
112
100
AcDbEntity
  8
View
100
AcDbLine
 10
89.3938
 20
166.672
 30
0
 11
95.0275
 21
177.267
 31
0
  0
ARC
  5
42B
330
112
100
AcDbEntity
  8
View
100
AcDbCircle
 10
88.5109
 20
167.141
 30
0
 40
1
100
AcDbArc
 50
-118
 51
-28
  0
ARC
  5
42C
330
112
100
AcDbEntity
  8
View
100
AcDbCircle
 10
94.1445
 20
177.737
 30
0
 40
1
100
AcDbArc
 50
-28
 51
62
  0
LINE
  5
42D
330
112
100
AcDbEntity
  8
View
100
AcDbLine
 10
77.446
 20
171.892
 30
0
 11
88.0414
 21
166.259
 31
0
  0
LINE
  5
42E
330
112
100
AcDbEntity
  8
View
100
AcDbLine
 10
94.614
 20
178.62
 30
0
 11
84.0186
 21
184.253
 31
0
  0
ARC
  5
42F
330
112
100
AcDbEntity
  8
View
100
AcDbCircle
 10
77.9155
 20
172.775
 30
0
 40
1
100
AcDbArc
 50
152
 51
-118
  0
ARC
  5
430
330
112
100
AcDbEntity
  8
View
100
AcDbCircle
 10
83.5491
 20
183.371
 30
0
 40
1
100
AcDbArc
 50
62
 51
152
  0
LINE
  5
431
330
112
100
AcDbEntity
  8
View
100
AcDbLine
 10
82.6662
 20
183.84
 30
0
 11
77.0325
 21
173.245
 31
0
  0
LINE
  5
432
330
112
100
AcDbEntity
  8
View
100
AcDbLine
 10
84.3993
 20
146.53
 30
0
 11
78.7657
 21
135.934
 31
0
  0
ARC
  5
433
330
112
100
AcDbEntity
  8
View
100
AcDbCircle
 10
79.6486
 20
135.465
 30
0
 40
1
100
AcDbArc
 50
152
 51
-118
  0
ARC
  5
434
330
112
100
AcDbEntity
  8
View
100
AcDbCircle
 10
85.2823
 20
146.06
 30
0
 40
1
100
AcDbArc
 50
62
 51
152
  0
LINE
  5
435
330
112
100
AcDbEntity
  8
View
100
AcDbLine
 10
79.1791
 20
134.582
 30
0
 11
89.7745
 21
128.948
 31
0
  0
LINE
  5
436
330
112
100
AcDbEntity
  8
View
100
AcDbLine
 10
96.3471
 20
141.309
 30
0
 11
85.7517
 21
146.943
 31
0
  0
ARC
  5
437
330
112
100
AcDbEntity
  8
View
100
AcDbCircle
 10
90.244
 20
129.831
 30
0
 40
1
100
AcDbArc
 50
-118
 51
-28
  0
ARC
  5
438
330
112
100
AcDbEntity
  8
View
100
AcDbCircle
 10
95.8776
 20
140.427
 30
0
 40
1
100
AcDbArc
 50
-28
 51
62
  0
LINE
  5
439
330
112
100
AcDbEntity
  8
View
100
AcDbLine
 10
91.1269
 20
129.362
 30
0
 11
96.7606
 21
139.957
 31
0
  0
LINE
  5
43A
330
112
100
AcDbEntity
  8
View
100
AcDbLine
 10
263.594
 20
131.786
 30
0
 11
269.228
 21
121.191
 31
0
  0
ARC
  5
43B
330
112
100
AcDbEntity
  8
View
100
AcDbCircle
 10
268.345
 20
120.721
 30
0
 40
1
100
AcDbArc
 50
-62
 51
28
  0
ARC
  5
43C
330
112
100
AcDbEntity
  8
View
100
AcDbCircle
 10
262.711
 20
131.317
 30
0
 40
1
100
AcDbArc
 50
28
 51
118
  0
LINE
  5
43D
330
112
100
AcDbEntity
  8
View
100
AcDbLine
 10
268.814
 20
119.838
 30
0
 11
258.219
 21
114.205
 31
0
  0
LINE
  5
43E
330
112
100
AcDbEntity
  8
View
100
AcDbLine
 10
251.646
 20
126.566
 30
0
 11
262.242
 21
132.2
 31
0
  0
ARC
  5
43F
330
112
100
AcDbEntity
  8
View
100
AcDbCircle
 10
257.749
 20
115.088
 30
0
 40
1
100
AcDbArc
 50
-152
 51
-62
  0
ARC
  5
440
330
112
100
AcDbEntity
  8
View
100
AcDbCircle
 10
252.116
 20
125.683
 30
0
 40
1
100
AcDbArc
 50
118
 51
-152
  0
LINE
  5
441
330
112
100
AcDbEntity
  8
View
100
AcDbLine
 10
256.866
 20
114.618
 30
0
 11
251.233
 21
125.213
 31
0
  0
LINE
  5
442
330
112
100
AcDbEntity
  8
View
100
AcDbLine
 10
71.5069
 20
133.032
 30
0
 11
77.1406
 21
143.627
 31
0
  0
ARC
  5
443
330
112
100
AcDbEntity
  8
View
100
AcDbCircle
 10
70.624
 20
133.501
 30
0
 40
1
100
AcDbArc
 50
-118
 51
-28
  0
ARC
  5
444
330
112
100
AcDbEntity
  8
View
100
AcDbCircle
 10
76.2576
 20
144.097
 30
0
 40
1
100
AcDbArc
 50
-28
 51
62
  0
LINE
  5
445
330
112
100
AcDbEntity
  8
View
100
AcDbLine
 10
59.5591
 20
138.252
 30
0
 11
70.1545
 21
132.618
 31
0
  0
LINE
  5
446
330
112
100
AcDbEntity
  8
View
100
AcDbLine
 10
76.7271
 20
144.979
 30
0
 11
66.1317
 21
150.613
 31
0
  0
ARC
  5
447
330
112
100
AcDbEntity
  8
View
100
AcDbCircle
 10
60.0286
 20
139.135
 30
0
 40
1
100
AcDbArc
 50
152
 51
-118
  0
ARC
  5
448
330
112
100
AcDbEntity
  8
View
100
AcDbCircle
 10
65.6623
 20
149.73
 30
0
 40
1
100
AcDbArc
 50
62
 51
152
  0
LINE
  5
449
330
112
100
AcDbEntity
  8
View
100
AcDbLine
 10
64.7793
 20
150.2
 30
0
 11
59.1457
 21
139.604
 31
0
  0
LINE
  5
44A
330
112
100
AcDbEntity
  8
View
100
AcDbLine
 10
66.964
 20
165.069
 30
0
 11
72.5976
 21
175.664
 31
0
  0
ARC
  5
44B
330
112
100
AcDbEntity
  8
View
100
AcDbCircle
 10
66.081
 20
165.538
 30
0
 40
1
100
AcDbArc
 50
-118
 51
-28
  0
ARC
  5
44C
330
112
100
AcDbEntity
  8
View
100
AcDbCircle
 10
71.7147
 20
176.133
 30
0
 40
1
100
AcDbArc
 50
-28
 51
62
  0
LINE
  5
44D
330
112
100
AcDbEntity
  8
View
100
AcDbLine
 10
55.0162
 20
170.289
 30
0
 11
65.6115
 21
164.655
 31
0
  0
LINE
  5
44E
330
112
100
AcDbEntity
  8
View
100
AcDbLine
 10
72.1841
 20
177.016
 30
0
 11
61.5888
 21
182.65
 31
0
  0
ARC
  5
44F
330
112
100
AcDbEntity
  8
View
100
AcDbCircle
 10
55.4856
 20
171.172
 30
0
 40
1
100
AcDbArc
 50
152
 51
-118
  0
ARC
  5
450
330
112
100
AcDbEntity
  8
View
100
AcDbCircle
 10
61.1193
 20
181.767
 30
0
 40
1
100
AcDbArc
 50
62
 51
152
  0
LINE
  5
451
330
112
100
AcDbEntity
  8
View
100
AcDbLine
 10
60.2363
 20
182.237
 30
0
 11
54.6027
 21
171.641
 31
0
  0
LINE
  5
452
330
112
100
AcDbEntity
  8
View
100
AcDbLine
 10
58.0205
 20
148.248
 30
0
 11
63.6542
 21
158.844
 31
0
  0
ARC
  5
453
330
112
100
AcDbEntity
  8
View
100
AcDbCircle
 10
57.1376
 20
148.718
 30
0
 40
1
100
AcDbArc
 50
-118
 51
-28
  0
ARC
  5
454
330
112
100
AcDbEntity
  8
View
100
AcDbCircle
 10
62.7712
 20
159.313
 30
0
 40
1
100
AcDbArc
 50
-28
 51
62
  0
LINE
  5
455
330
112
100
AcDbEntity
  8
View
100
AcDbLine
 10
46.0727
 20
153.469
 30
0
 11
56.6681
 21
147.835
 31
0
  0
LINE
  5
456
330
112
100
AcDbEntity
  8
View
100
AcDbLine
 10
63.2407
 20
160.196
 30
0
 11
52.6453
 21
165.83
 31
0
  0
ARC
  5
457
330
112
100
AcDbEntity
  8
View
100
AcDbCircle
 10
46.5422
 20
154.352
 30
0
 40
1
100
AcDbArc
 50
152
 51
-118
  0
ARC
  5
458
330
112
100
AcDbEntity
  8
View
100
AcDbCircle
 10
52.1759
 20
164.947
 30
0
 40
1
100
AcDbArc
 50
62
 51
152
  0
LINE
  5
459
330
112
100
AcDbEntity
  8
View
100
AcDbLine
 10
51.2929
 20
165.416
 30
0
 11
45.6593
 21
154.821
 31
0
  0
LINE
  5
45A
330
112
100
AcDbEntity
  8
View
100
AcDbLine
 10
49.0771
 20
131.428
 30
0
 11
54.7107
 21
142.024
 31
0
  0
ARC
  5
45B
330
112
100
AcDbEntity
  8
View
100
AcDbCircle
 10
48.1941
 20
131.898
 30
0
 40
1
100
AcDbArc
 50
-118
 51
-28
  0
ARC
  5
45C
330
112
100
AcDbEntity
  8
View
100
AcDbCircle
 10
53.8278
 20
142.493
 30
0
 40
1
100
AcDbArc
 50
-28
 51
62
  0
LINE
  5
45D
330
112
100
AcDbEntity
  8
View
100
AcDbLine
 10
37.1293
 20
136.648
 30
0
 11
47.7247
 21
131.015
 31
0
  0
LINE
  5
45E
330
112
100
AcDbEntity
  8
View
100
AcDbLine
 10
54.2973
 20
143.376
 30
0
 11
43.7019
 21
149.01
 31
0
  0
ARC
  5
45F
330
112
100
AcDbEntity
  8
View
100
AcDbCircle
 10
37.5988
 20
137.531
 30
0
 40
1
100
AcDbArc
 50
152
 51
-118
  0
ARC
  5
460
330
112
100
AcDbEntity
  8
View
100
AcDbCircle
 10
43.2324
 20
148.127
 30
0
 40
1
100
AcDbArc
 50
62
 51
152
  0
LINE
  5
461
330
112
100
AcDbEntity
  8
View
100
AcDbLine
 10
42.3495
 20
148.596
 30
0
 11
36.7158
 21
138.001
 31
0
  0
LINE
  5
462
330
112
100
AcDbEntity
  8
View
100
AcDbLine
 10
165.244
 20
154.43
 30
0
 11
170.877
 21
143.835
 31
0
  0
ARC
  5
463
330
112
100
AcDbEntity
  8
View
100
AcDbCircle
 10
169.995
 20
143.365
 30
0
 40
1
100
AcDbArc
 50
-62
 51
28
  0
ARC
  5
464
330
112
100
AcDbEntity
  8
View
100
AcDbCircle
 10
164.361
 20
153.961
 30
0
 40
1
100
AcDbArc
 50
28
 51
118
  0
LINE
  5
465
330
112
100
AcDbEntity
  8
View
100
AcDbLine
 10
170.464
 20
142.482
 30
0
 11
159.869
 21
136.849
 31
0
  0
LINE
  5
466
330
112
100
AcDbEntity
  8
View
100
AcDbLine
 10
153.296
 20
149.21
 30
0
 11
163.891
 21
154.843
 31
0
  0
ARC
  5
467
330
112
100
AcDbEntity
  8
View
100
AcDbCircle
 10
159.399
 20
137.731
 30
0
 40
1
100
AcDbArc
 50
-152
 51
-62
  0
ARC
  5
468
330
112
100
AcDbEntity
  8
View
100
AcDbCircle
 10
153.765
 20
148.327
 30
0
 40
1
100
AcDbArc
 50
118
 51
-152
  0
LINE
  5
469
330
112
100
AcDbEntity
  8
View
100
AcDbLine
 10
158.516
 20
137.262
 30
0
 11
152.883
 21
147.857
 31
0
  0
LINE
  5
46A
330
112
100
AcDbEntity
  8
View
100
AcDbLine
 10
223.277
 20
167.03
 30
0
 11
228.911
 21
156.434
 31
0
  0
ARC
  5
46B
330
112
100
AcDbEntity
  8
View
100
AcDbCircle
 10
228.028
 20
155.965
 30
0
 40
1
100
AcDbArc
 50
-62
 51
28
  0
ARC
  5
46C
330
112
100
AcDbEntity
  8
View
100
AcDbCircle
 10
222.394
 20
166.56
 30
0
 40
1
100
AcDbArc
 50
28
 51
118
  0
LINE
  5
46D
330
112
100
AcDbEntity
  8
View
100
AcDbLine
 10
228.497
 20
155.082
 30
0
 11
217.902
 21
149.448
 31
0
  0
LINE
  5
46E
330
112
100
AcDbEntity
  8
View
100
AcDbLine
 10
211.329
 20
161.81
 30
0
 11
221.925
 21
167.443
 31
0
  0
ARC
  5
46F
330
112
100
AcDbEntity
  8
View
100
AcDbCircle
 10
217.433
 20
150.331
 30
0
 40
1
100
AcDbArc
 50
-152
 51
-62
  0
ARC
  5
470
330
112
100
AcDbEntity
  8
View
100
AcDbCircle
 10
211.799
 20
160.927
 30
0
 40
1
100
AcDbArc
 50
118
 51
-152
  0
LINE
  5
471
330
112
100
AcDbEntity
  8
View
100
AcDbLine
 10
216.55
 20
149.862
 30
0
 11
210.916
 21
160.457
 31
0
  0
LINE
  5
472
330
112
100
AcDbEntity
  8
View
100
AcDbLine
 10
245.707
 20
165.426
 30
0
 11
251.341
 21
154.831
 31
0
  0
ARC
  5
473
330
112
100
AcDbEntity
  8
View
100
AcDbCircle
 10
250.458
 20
154.362
 30
0
 40
1
100
AcDbArc
 50
-62
 51
28
  0
ARC
  5
474
330
112
100
AcDbEntity
  8
View
100
AcDbCircle
 10
244.824
 20
164.957
 30
0
 40
1
100
AcDbArc
 50
28
 51
118
  0
LINE
  5
475
330
112
100
AcDbEntity
  8
View
100
AcDbLine
 10
250.927
 20
153.479
 30
0
 11
240.332
 21
147.845
 31
0
  0
LINE
  5
476
330
112
100
AcDbEntity
  8
View
100
AcDbLine
 10
233.759
 20
160.206
 30
0
 11
244.355
 21
165.84
 31
0
  0
ARC
  5
477
330
112
100
AcDbEntity
  8
View
100
AcDbCircle
 10
239.862
 20
148.728
 30
0
 40
1
100
AcDbArc
 50
-152
 51
-62
  0
ARC
  5
478
330
112
100
AcDbEntity
  8
View
100
AcDbCircle
 10
234.229
 20
159.323
 30
0
 40
1
100
AcDbArc
 50
118
 51
-152
  0
LINE
  5
479
330
112
100
AcDbEntity
  8
View
100
AcDbLine
 10
238.979
 20
148.258
 30
0
 11
233.346
 21
158.854
 31
0
  0
LINE
  5
47A
330
112
100
AcDbEntity
  8
View
100
AcDbLine
 10
174.245
 20
70.0669
 30
0
 11
170.737
 21
58.5913
 31
0
  0
ARC
  5
47B
330
112
100
AcDbEntity
  8
View
100
AcDbCircle
 10
169.78
 20
58.8836
 30
0
 40
1
100
AcDbArc
 50
-107
 51
-17
  0
ARC
  5
47C
330
112
100
AcDbEntity
  8
View
100
AcDbCircle
 10
173.289
 20
70.3593
 30
0
 40
1
100
AcDbArc
 50
-17
 51
73
  0
LINE
  5
47D
330
112
100
AcDbEntity
  8
View
100
AcDbLine
 10
169.488
 20
57.9273
 30
0
 11
158.012
 21
61.4358
 31
0
  0
LINE
  5
47E
330
112
100
AcDbEntity
  8
View
100
AcDbLine
 10
162.106
 20
74.8241
 30
0
 11
173.581
 21
71.3156
 31
0
  0
ARC
  5
47F
330
112
100
AcDbEntity
  8
View
100
AcDbCircle
 10
158.305
 20
62.3921
 30
0
 40
1
100
AcDbArc
 50
163
 51
-107
  0
ARC
  5
480
330
112
100
AcDbEntity
  8
View
100
AcDbCircle
 10
161.813
 20
73.8678
 30
0
 40
1
100
AcDbArc
 50
73
 51
163
  0
LINE
  5
481
330
112
100
AcDbEntity
  8
View
100
AcDbLine
 10
157.349
 20
62.6845
 30
0
 11
160.857
 21
74.1601
 31
0
  0
LINE
  5
482
330
112
100
AcDbEntity
  8
View
100
AcDbLine
 10
139.628
 20
62.6609
 30
0
 11
136.12
 21
74.1365
 31
0
  0
ARC
  5
483
330
112
100
AcDbEntity
  8
View
100
AcDbCircle
 10
138.672
 20
62.3685
 30
0
 40
1
100
AcDbArc
 50
-73
 51
17
  0
ARC
  5
484
330
112
100
AcDbEntity
  8
View
100
AcDbCircle
 10
135.163
 20
73.8442
 30
0
 40
1
100
AcDbArc
 50
17
 51
107
  0
LINE
  5
485
330
112
100
AcDbEntity
  8
View
100
AcDbLine
 10
127.489
 20
57.9037
 30
0
 11
138.964
 21
61.4122
 31
0
  0
LINE
  5
486
330
112
100
AcDbEntity
  8
View
100
AcDbLine
 10
134.871
 20
74.8005
 30
0
 11
123.395
 21
71.292
 31
0
  0
ARC
  5
487
330
112
100
AcDbEntity
  8
View
100
AcDbCircle
 10
127.196
 20
58.8601
 30
0
 40
1
100
AcDbArc
 50
-163
 51
-73
  0
ARC
  5
488
330
112
100
AcDbEntity
  8
View
100
AcDbCircle
 10
123.688
 20
70.3357
 30
0
 40
1
100
AcDbArc
 50
107
 51
-163
  0
LINE
  5
489
330
112
100
AcDbEntity
  8
View
100
AcDbLine
 10
122.731
 20
70.0433
 30
0
 11
126.24
 21
58.5677
 31
0
  0
ENDSEC
  0
SECTION
  2
OBJECTS
  0
DICTIONARY
  5
500
330
0
100
AcDbDictionary
  3
ACAD_GROUP
350
501
  0
DICTIONARY
  5
501
330
500
100
AcDbDictionary
  0
ENDSEC
  0
EOF