0
SECTION
2
HEADER
9
$INSUNITS
70
4
9
$ACADVER
1
AC1014
9
$HANDSEED
5
FFFF
0
ENDSEC
0
SECTION
2
TABLES
0
TABLE
2
VPORT
5
8
100
AcDbSymbolTable
0
ENDTAB
0
TABLE
2
LTYPE
5
5
100
AcDbSymbolTable
0
LTYPE
5
14
100
AcDbSymbolTableRecord
100
AcDbLinetypeTableRecord
2
BYBLOCK
70
0
0
LTYPE
5
15
100
AcDbSymbolTableRecord
100
AcDbLinetypeTableRecord
2
BYLAYER
70
0
0
ENDTAB
0
TABLE
2
LAYER
5
2
100
AcDbSymbolTable
70
2
0
LAYER
5
50
100
AcDbSymbolTableRecord
100
AcDbLayerTableRecord
2
0
70
0
6
CONTINUOUS
0
ENDTAB
0
TABLE
2
STYLE
5
3
100
AcDbSymbolTable
70
1
0
STYLE
5
11
100
AcDbSymbolTableRecord
100
AcDbTextStyleTableRecord
2
STANDARD
70
0
0
ENDTAB
0
TABLE
2
VIEW
5
6
100
AcDbSymbolTable
70
0
0
ENDTAB
0
TABLE
2
UCS
5
7
100
AcDbSymbolTable
70
0
0
ENDTAB
0
TABLE
2
APPID
5
9
100
AcDbSymbolTable
70
2
0
APPID
5
12
100
AcDbSymbolTableRecord
100
AcDbRegAppTableRecord
2
ACAD
70
0
0
ENDTAB
0
TABLE
2
DIMSTYLE
5
A
100
AcDbSymbolTable
70
1
0
ENDTAB
0
TABLE
2
BLOCK_RECORD
5
1
100
AcDbSymbolTable
70
1
0
BLOCK_RECORD
5
1F
100
AcDbSymbolTableRecord
100
AcDbBlockTableRecord
2
*MODEL_SPACE
0
BLOCK_RECORD
5
1B
100
AcDbSymbolTableRecord
100
AcDbBlockTableRecord
2
*PAPER_SPACE
0
ENDTAB
0
ENDSEC
0
SECTION
2
BLOCKS
0
BLOCK
5
20
100
AcDbEntity
100
AcDbBlockBegin
2
*MODEL_SPACE
0
ENDBLK
5
21
100
AcDbEntity
100
AcDbBlockEnd
0
BLOCK
5
1C
100
AcDbEntity
100
AcDbBlockBegin
2
*PAPER_SPACE
0
ENDBLK
5
1D
100
AcDbEntity
100
AcDbBlockEnd
0
ENDSEC
0
SECTION
2
ENTITIES
0
LWPOLYLINE
5
100
100
AcDbEntity
8
0
100
AcDbPolyline
90
8
70
1
43
0.0
10
22.186013503345198
20
-20.43380377329715
10
32.781384617652321
20
-26.067462526727837
42
0.41421356237309503
10
34.133803773297139
20
-25.653986496654802
10
39.767462526727833
20
-15.058615382347678
42
0.41421356237309681
10
39.353986496654791
20
-13.706196226702861
10
28.758615382347664
20
-8.072537473272174
42
0.41421356237309642
10
27.406196226702853
20
-8.4860135033452071
10
21.772537473272155
20
-19.081384617652329
42
0.41421356237309476
0
LWPOLYLINE
5
101
100
AcDbEntity
8
0
100
AcDbPolyline
90
8
70
1
43
0.0
10
18.462762955631614
20
-25.30616514730777
10
12.829104202200913
20
-35.901536261614908
42
0.41421356237309814
10
13.242580232273939
20
-37.253955417259718
10
23.8379513465811
20
-42.887614170690426
42
0.41421356237308915
10
25.190370502225914
20
-42.47413814061737
10
30.824029255656594
20
-31.878767026310232
42
0.4142135623730922
10
30.410553225583577
20
-30.526347870665429
10
19.815182111276428
20
-24.892689117234728
42
0.41421356237309426
0
LWPOLYLINE
5
102
100
AcDbEntity
8
0
100
AcDbPolyline
90
8
70
1
43
0.0
10
9.5193296845604074
20
-42.126316791270312
10
3.8856709311297086
20
-52.721687905577454
42
0.41421356237309698
10
4.2991469612027444
20
-54.074107061222279
10
14.894518075509875
20
-59.707765814652944
42
0.41421356237309492
10
16.246937231154693
20
-59.294289784579924
10
21.880595984585383
20
-48.698918670272803
42
0.41421356237309326
10
21.467119954512356
20
-47.346499514627986
10
10.871748840205214
20
-41.71284076119727
42
0.41421356237309104
0
LWPOLYLINE
5
103
100
AcDbEntity
8
0
100
AcDbPolyline
90
8
70
1
43
0.0
10
56.174138140617345
20
-22.649629497774072
10
45.57876702631026
20
-17.015970744343399
42
0.41421356237309709
10
44.22634787066545
20
-17.429446774416441
10
38.592689117234748
20
-28.024817888723518
42
0.41421356237308438
10
39.006165147307762
20
-29.377237044368325
10
49.60153626161491
20
-35.010895797799009
42
0.41421356237309365
10
50.953955417259706
20
-34.597419767725967
10
56.587614170690401
20
-24.002048653418868
42
0.41421356237309431
0
LWPOLYLINE
5
104
100
AcDbEntity
8
0
100
AcDbPolyline
90
8
70
1
43
0.0
10
26.339481328523064
20
-51.069750062341456
10
20.705822575092405
20
-61.665121176648519
42
0.41421356237308632
10
21.119298605165429
20
-63.017540332293351
10
31.714669719472532
20
-68.651199085724045
42
0.41421356237308971
10
33.067088875117371
20
-68.237723055650989
10
38.700747628548015
20
-57.642351941343904
42
0.41421356237309254
10
38.28727159847498
20
-56.289932785699115
10
27.691900484167945
20
-50.656274032268456
42
0.41421356237312035
0
LWPOLYLINE
5
105
100
AcDbEntity
8
0
100
AcDbPolyline
90
8
70
1
43
0.0
10
35.282914599594207
20
-34.249598418378937
10
29.649255846163577
20
-44.844969532686036
42
0.41421356237309814
10
30.062731876236569
20
-46.197388688330875
10
40.658102990543661
20
-51.831047441761527
42
0.41421356237310331
10
42.010522146188521
20
-51.417571411688499
10
47.644180899619201
20
-40.8222002973814
42
0.41421356237310225
10
47.230704869546145
20
-39.469781141736583
10
36.635333755239039
20
-33.836122388305895
42
0.41421356237308476
0
LWPOLYLINE
5
106
100
AcDbEntity
8
0
100
AcDbPolyline
90
8
70
1
43
0.0
10
80.83398649665483
20
-16.856196226702853
10
70.238615382347646
20
-11.222537473272133
42
0.41421356237309703
10
68.886196226702808
20
-11.636013503345279
10
63.252537473272213
20
-22.231384617652328
42
0.41421356237309986
10
63.666013503345212
20
-23.583803773297131
10
74.261384617652311
20
-29.217462526727797
42
0.41421356237309959
10
75.613803773297164
20
-28.803986496654801
10
81.247462526727858
20
-18.208615382347684
42
0.41421356237309198
0
LWPOLYLINE
5
107
100
AcDbEntity
8
0
100
AcDbPolyline
90
8
70
1
43
0.0
10
50.999329684560443
20
-45.276316791270112
10
45.365670931129841
20
-55.871687905577296
42
0.41421356237310591
10
45.779146961202883
20
-57.224107061222114
10
56.374518075510018
20
-62.857765814652808
42
0.41421356237307527
10
57.726937231154807
20
-62.444289784579752
10
63.360595984585501
20
-51.84891867027261
42
0.41421356237307622
10
62.947119954512445
20
-50.496499514627828
10
52.351748840205261
20
-44.86284076119712
42
0.41421356237308293
0
LWPOLYLINE
5
108
100
AcDbEntity
8
0
100
AcDbPolyline
90
8
70
1
43
0.0
10
59.942762955631643
20
-28.456165147307683
10
54.309104202200999
20
-39.051536261614828
42
0.41421356237310686
10
54.722580232274041
20
-40.403955417259638
10
65.317951346581125
20
-46.037614170690311
42
0.41421356237308571
10
66.67037050222595
20
-45.624138140617283
10
72.304029255656644
20
-35.028767026310135
42
0.41421356237309842
10
71.890553225583602
20
-33.676347870665325
10
61.295182111276489
20
-28.042689117234648
42
0.41421356237310453
0
LWPOLYLINE
5
109
100
AcDbEntity
8
0
100
AcDbPolyline
90
8
70
1
43
0.0
10
100.45398649665478
20
-20.536196226702849
10
89.858615382347665
20
-14.902537473272165
42
0.41421356237311202
10
88.506196226702826
20
-15.316013503345268
10
82.87253747327216
20
-25.911384617652278
42
0.4142135623730992
10
83.286013503345202
20
-27.263803773297116
10
93.881384617652344
20
-32.897462526727814
42
0.41421356237307888
10
95.23380377329714
20
-32.483986496654786
10
100.86746252672781
20
-21.888615382347663
42
0.41421356237309287
0
LWPOLYLINE
5
110
100
AcDbEntity
8
0
100
AcDbPolyline
90
8
70
1
43
0.0
10
70.619329684560398
20
-48.956316791270169
10
64.985670931129732
20
-59.55168790557736
42
0.41421356237310081
10
65.399146961202831
20
-60.904107061222199
10
75.99451807550993
20
-66.537765814652857
42
0.41421356237309492
10
77.346937231154726
20
-66.124289784579858
10
82.980595984585349
20
-55.528918670272809
42
0.41421356237311441
10
82.567119954512378
20
-54.176499514627878
10
71.97174884020518
20
-48.542840761197169
42
0.41421356237307833
0
LWPOLYLINE
5
111
100
AcDbEntity
8
0
100
AcDbPolyline
90
8
70
1
43
0.0
10
79.562762955631612
20
-32.136165147307764
10
73.92910420220106
20
-42.731536261614764
42
0.41421356237311324
10
74.342580232273988
20
-44.083955417259652
10
84.937951346581002
20
-49.717614170690325
42
0.41421356237311557
10
86.290370502225869
20
-49.304138140617354
10
91.924029255656606
20
-38.708767026310149
42
0.41421356237309792
10
91.510553225583621
20
-37.356347870665395
10
80.915182111276437
20
-31.722689117234633
42
0.41421356237307833
0
LWPOLYLINE
5
112
100
AcDbEntity
8
0
100
AcDbPolyline
90
8
70
1
43
0.0
10
114.13398649665484
20
-35.196196226702895
10
103.53861538234759
20
-29.562537473272133
42
0.41421356237305529
10
102.18619622670282
20
-29.97601350334515
10
96.552537473272281
20
-40.571384617652356
42
0.41421356237311718
10
96.966013503345252
20
-41.923803773297188
10
107.56138461765231
20
-47.557462526727861
42
0.41421356237309687
10
108.91380377329713
20
-47.143986496654897
10
114.5474625267278
20
-36.54861538234772
42
0.41421356237310009
0
LWPOLYLINE
5
113
100
AcDbEntity
8
0
100
AcDbPolyline
90
8
70
1
43
0.0
10
84.299329684560433
20
-63.616316791270229
10
78.665670931129867
20
-74.211687905577335
42
0.41421356237310747
10
79.079146961202881
20
-75.564107061222131
10
89.674518075509866
20
-81.19776581465274
42
0.41421356237311313
10
91.026937231154648
20
-80.784289784579698
10
96.660595984585427
20
-70.188918670272585
42
0.41421356237308476
10
96.247119954512371
20
-68.836499514627818
10
85.651748840205244
20
-63.202840761197201
42
0.41421356237310347
0
LWPOLYLINE
5
114
100
AcDbEntity
8
0
100
AcDbPolyline
90
8
70
1
43
0.0
10
93.242762955631775
20
-46.796165147307711
10
87.609104202201024
20
-57.39153626161486
42
0.41421356237305801
10
88.022580232273882
20
-58.743955417259592
10
98.617951346581108
20
-64.377614170690336
42
0.41421356237308721
10
99.970370502225961
20
-63.964138140617379
10
105.60402925565677
20
-53.368767026310231
42
0.4142135623730735
10
105.19055322558371
20
-52.016347870665399
10
94.595182111276515
20
-46.38268911723469
42
0.41421356237310764
0
LWPOLYLINE
5
115
100
AcDbEntity
8
0
100
AcDbPolyline
90
8
70
1
43
0.0
10
129.92398649665478
20
-46.266196226702903
10
119.32861538234766
20
-40.632537473272208
42
0.41421356237308299
10
117.97619622670291
20
-41.046013503345264
10
112.34253747327224
20
-51.641384617652292
42
0.41421356237305251
10
112.75601350334517
20
-52.993803773297081
10
123.35138461765239
20
-58.627462526727754
42
0.41421356237310342
10
124.70380377329724
20
-58.21398649665479
10
130.33746252672779
20
-47.618615382347819
42
0.41421356237312523
0
LWPOLYLINE
5
116
100
AcDbEntity
8
0
100
AcDbPolyline
90
8
70
1
43
0.0
10
100.08932968456054
20
-74.686316791270229
10
94.455670931129873
20
-85.2816879055773
42
0.41421356237309503
10
94.869146961202915
20
-86.634107061222124
10
105.46451807550991
20
-92.267765814652847
42
0.41421356237309903
10
106.81693723115475
20
-91.854289784579763
10
112.45059598458545
20
-81.258918670272692
42
0.41421356237309503
10
112.03711995451242
20
-79.906499514627868
10
101.44174884020536
20
-74.272840761197202
42
0.41421356237309731
0
LWPOLYLINE
5
117
100
AcDbEntity
8
0
100
AcDbPolyline
90
7
70
1
43
0.0
10
109.03276295563168
20
-57.866165147307875
10
103.39910420220087
20
-68.461536261614782
42
0.41421356237308332
10
103.81258023227406
20
-69.813955417259592
10
114.40795134658106
20
-75.44761417069023
42
0.41421356237311896
10
115.76037050222583
20
-75.034138140617216
10
121.8635008184425
20
-63.555819433451262
10
110.38518211127661
20
-57.452689117234705
42
0.41421356237311791
0
LWPOLYLINE
5
118
100
AcDbEntity
8
0
100
AcDbPolyline
90
8
70
1
43
0.0
10
139.09253747327216
20
-47.618615382347677
10
144.72619622670283
20
-58.213986496654783
42
0.41421356237310419
10
146.07861538234766
20
-58.627462526727861
10
156.67398649665483
20
-52.993803773297145
42
0.41421356237308588
10
157.08746252672785
20
-51.641384617652307
10
151.45380377329718
20
-41.046013503345208
42
0.41421356237309387
10
150.10138461765234
20
-40.632537473272173
10
139.5060135033452
20
-46.266196226702846
42
0.41421356237309626
0
LWPOLYLINE
5
119
100
AcDbEntity
8
0
100
AcDbPolyline
90
8
70
1
43
0.0
10
167.98825115979486
20
-74.272840761197216
10
157.39288004548771
20
-79.90649951462791
42
0.4142135623730917
10
156.97940401541467
20
-81.25891867027272
10
162.61306276884537
20
-91.85428978457989
42
0.41421356237309287
10
163.96548192449018
20
-92.267765814652904
10
174.56085303879732
20
-86.634107061222224
42
0.4142135623730972
10
174.97432906887039
20
-85.281687905577414
10
169.34067031543964
20
-74.686316791270272
42
0.41421356237309015
0
LWPOLYLINE
5
120
100
AcDbEntity
8
0
100
AcDbPolyline
90
8
70
1
43
0.0
10
155.02204865341892
20
-75.447614170690343
10
165.61741976772601
20
-69.813955417259677
42
0.41421356237309354
10
166.03089579779913
20
-68.461536261614853
10
160.39723704436838
20
-57.866165147307733
42
0.41421356237311768
10
159.04481788872351
20
-57.452689117234712
10
148.44944677441649
20
-63.08634787066535
42
0.41421356237309398
10
148.03597074434344
20
-64.438767026310174
10
153.66962949777414
20
-75.034138140617316
42
0.41421356237308904
0
LWPOLYLINE
5
121
100
AcDbEntity
8
0
100
AcDbPolyline
90
8
70
1
43
0.0
10
190.76432906887038
20
-74.211687905577406
10
185.13067031543969
20
-63.616316791270286
42
0.41421356237309154
10
183.77825115979482
20
-63.202840761197258
10
173.18288004548776
20
-68.836499514627945
42
0.4142135623730871
10
172.76940401541469
20
-70.188918670272727
10
178.40306276884542
20
-80.78428978457984
42
0.41421356237310669
10
179.75548192449023
20
-81.197765814652911
10
190.35085303879737
20
-75.564107061222245
42
0.41421356237309265
0
LWPOLYLINE
5
122
100
AcDbEntity
8
0
100
AcDbPolyline
90
8
70
1
43
0.0
10
181.82089579779915
20
-57.391536261614831
10
176.18723704436835
20
-46.796165147307754
42
0.41421356237308449
10
174.83481788872359
20
-46.382689117234762
10
164.23944677441654
20
-52.016347870665385
42
0.41421356237309964
10
163.82597074434346
20
-53.368767026310223
10
169.45962949777413
20
-63.964138140617308
42
0.41421356237310419
10
170.812048653419
20
-64.377614170690379
10
181.40741976772614
20
-58.743955417259727
42
0.4142135623731053
0
LWPOLYLINE
5
123
100
AcDbEntity
8
0
100
AcDbPolyline
90
8
70
1
43
0.0
10
154.88253747327221
20
-36.548615382347684
10
160.51619622670287
20
-47.143986496654755
42
0.41421356237308449
10
161.86861538234766
20
-47.557462526727782
10
172.46398649665477
20
-41.923803773297138
42
0.41421356237310991
10
172.8774625267279
20
-40.571384617652271
10
167.24380377329715
20
-29.976013503345253
42
0.41421356237309431
10
165.89138461765231
20
-29.56253747327224
10
155.29601350334525
20
-35.196196226702853
42
0.41421356237309576
0
LWPOLYLINE
5
124
100
AcDbEntity
8
0
100
AcDbPolyline
90
8
70
1
43
0.0
10
204.44432906887039
20
-59.55168790557736
10
198.81067031543967
20
-48.956316791270218
42
0.41421356237309154
10
197.45825115979486
20
-48.542840761197155
10
186.86288004548769
20
-54.176499514627864
42
0.41421356237308438
10
186.44940401541459
20
-55.52891867027266
10
192.08306276884528
20
-66.124289784579759
42
0.41421356237310802
10
193.43548192449009
20
-66.537765814652872
10
204.03085303879732
20
-60.904107061222192
42
0.41421356237310053
0
LWPOLYLINE
5
125
100
AcDbEntity
8
0
100
AcDbPolyline
90
8
70
1
43
0.0
10
195.50089579779907
20
-42.731536261614771
10
189.86723704436838
20
-32.13616514730775
42
0.4142135623730851
10
188.5148178887236
20
-31.722689117234726
10
177.9194467744166
20
-37.356347870665353
42
0.4142135623730937
10
177.50597074434353
20
-38.708767026310156
10
183.13962949777419
20
-49.304138140617269
42
0.41421356237309276
10
184.49204865341898
20
-49.71761417069029
10
195.08741976772603
20
-44.083955417259645
42
0.41421356237312668
0
LWPOLYLINE
5
126
100
AcDbEntity
8
0
100
AcDbPolyline
90
8
70
1
43
0.0
10
168.56253747327216
20
-21.888615382347687
10
174.19619622670282
20
-32.483986496654765
42
0.41421356237309348
10
175.54861538234763
20
-32.897462526727807
10
186.14398649665475
20
-27.263803773297148
42
0.41421356237310691
10
186.55746252672787
20
-25.911384617652296
10
180.92380377329707
20
-15.316013503345275
42
0.41421356237308032
10
179.57138461765228
20
-14.902537473272234
10
168.97601350334523
20
-20.53619622670287
42
0.4142135623730972
0
LWPOLYLINE
5
127
100
AcDbEntity
8
0
100
AcDbPolyline
90
8
70
1
43
0.0
10
224.06432906887031
20
-55.871687905577289
10
218.43067031543956
20
-45.276316791270183
42
0.41421356237308249
10
217.07825115979483
20
-44.862840761197177
10
206.48288004548766
20
-50.496499514627821
42
0.41421356237308898
10
206.06940401541459
20
-51.848918670272624
10
211.70306276884529
20
-62.444289784579766
42
0.41421356237309426
10
213.05548192449012
20
-62.857765814652794
10
223.65085303879727
20
-57.224107061222114
42
0.41421356237309037
0
LWPOLYLINE
5
128
100
AcDbEntity
8
0
100
AcDbPolyline
90
8
70
1
43
0.0
10
215.12089579779905
20
-39.051536261614814
10
209.4872370443683
20
-28.456165147307697
42
0.41421356237308798
10
208.13481788872352
20
-28.042689117234669
10
197.53944677441652
20
-33.676347870665275
42
0.41421356237309553
10
197.12597074434345
20
-35.028767026310092
10
202.75962949777414
20
-45.624138140617248
42
0.41421356237310347
10
204.11204865341898
20
-46.037614170690276
10
214.70741976772604
20
-40.403955417259645
42
0.41421356237309642
0
LWPOLYLINE
5
129
100
AcDbEntity
8
0
100
AcDbPolyline
90
8
70
1
43
0.0
10
188.18253747327222
20
-18.208615382347762
10
193.81619622670289
20
-28.803986496654794
42
0.41421356237308699
10
195.1686153823477
20
-29.217462526727836
10
205.76398649665478
20
-23.58380377329717
42
0.41421356237309875
10
206.17746252672788
20
-22.231384617652324
10
200.54380377329721
20
-11.636013503345286
42
0.41421356237308959
10
199.1913846176524
20
-11.222537473272292
10
188.59601350334529
20
-16.856196226702934
42
0.41421356237311302
0
LWPOLYLINE
5
130
100
AcDbEntity
8
0
100
AcDbPolyline
90
8
70
1
43
0.0
10
248.72432906887019
20
-61.661687905577345
10
243.0906703154395
20
-51.06631679127026
42
0.41421356237308221
10
241.73825115979471
20
-50.652840761197169
10
231.14288004548757
20
-56.286499514627877
42
0.41421356237309365
10
230.72940401541447
20
-57.638918670272716
10
236.36306276884517
20
-68.234289784579872
42
0.41421356237308621
10
237.71548192449001
20
-68.647765814652914
10
248.31085303879718
20
-63.014107061222255
42
0.41421356237313056
0
LWPOLYLINE
5
131
100
AcDbEntity
8
0
100
AcDbPolyline
90
8
70
1
43
0.0
10
239.78089579779902
20
-44.841536261614777
10
234.1472370443683
20
-34.246165147307686
42
0.4142135623730851
10
232.79481788872351
20
-33.832689117234665
10
222.1994467744164
20
-39.466347870665345
42
0.4142135623730932
10
221.78597074434333
20
-40.818767026310148
10
227.41962949777411
20
-51.414138140617283
42
0.41421356237308082
10
228.77204865341884
20
-51.827614170690303
10
239.36741976772601
20
-46.193955417259602
42
0.41421356237309626
0
LWPOLYLINE
5
132
100
AcDbEntity
8
0
100
AcDbPolyline
90
8
70
1
43
0.0
10
212.84253747327222
20
-23.998615382347705
10
218.47619622670283
20
-34.593986496654772
42
0.41421356237310369
10
219.82861538234769
20
-35.007462526727828
10
230.42398649665475
20
-29.373803773297169
42
0.41421356237309281
10
230.8374625267279
20
-28.02138461765232
10
225.20380377329715
20
-17.426013503345267
42
0.41421356237309442
10
223.85138461765229
20
-17.012537473272264
10
213.25601350334526
20
-22.64619622670288
42
0.41421356237309892
0
LWPOLYLINE
5
133
100
AcDbEntity
8
0
100
AcDbPolyline
90
8
70
1
43
0.0
10
265.53432906887042
20
-52.721687905577255
10
259.9006703154397
20
-42.12631679127022
42
0.41421356237308815
10
258.54825115979497
20
-41.712840761197221
10
247.95288004548792
20
-47.346499514627823
42
0.41421356237309354
10
247.53940401541482
20
-48.698918670272647
10
253.17306276884545
20
-59.294289784579696
42
0.41421356237310192
10
254.52548192449029
20
-59.707765814652745
10
265.12085303879735
20
-54.074107061222072
42
0.41421356237308798
0
LWPOLYLINE
5
134
100
AcDbEntity
8
0
100
AcDbPolyline
90
8
70
1
43
0.0
10
256.59089579779908
20
-35.901536261614794
10
250.95723704436836
20
-25.30616514730772
42
0.41421356237308543
10
249.60481788872357
20
-24.892689117234717
10
239.0094467744166
20
-30.526347870665326
42
0.41421356237309664
10
238.59597074434356
20
-31.878767026310143
10
244.22962949777423
20
-42.474138140617235
42
0.41421356237308787
10
245.58204865341901
20
-42.887614170690291
10
256.17741976772606
20
-37.253955417259654
42
0.41421356237312817
0
LWPOLYLINE
5
135
100
AcDbEntity
8
0
100
AcDbPolyline
90
8
70
1
43
0.0
10
229.65253747327222
20
-15.058615382347716
10
235.28619622670288
20
-25.653986496654785
42
0.41421356237310958
10
236.63861538234767
20
-26.067462526727834
10
247.23398649665484
20
-20.433803773297168
42
0.41421356237309509
10
247.64746252672796
20
-19.081384617652308
10
242.01380377329718
20
-8.4860135033452728
42
0.4142135623730856
10
240.66138461765237
20
-8.0725374732722432
10
230.06601350334529
20
-13.706196226702891
42
0.4142135623730987
0
LWPOLYLINE
5
136
100
AcDbEntity
8
0
100
AcDbPolyline
90
8
70
1
43
0.0
10
65.129329684560403
20
-74.946316791270263
10
59.495670931129851
20
-85.541687905577362
42
0.41421356237308132
10
59.909146961202893
20
-86.894107061222101
10
70.504518075509935
20
-92.52776581465281
42
0.41421356237307655
10
71.85693723115476
20
-92.114289784579796
10
77.490595984585283
20
-81.518918670272726
42
0.4142135623731304
10
77.077119954512256
20
-80.166499514627873
10
66.481748840205256
20
-74.532840761197207
42
0.41421356237309026
0
LWPOLYLINE
5
137
100
AcDbEntity
8
0
100
AcDbPolyline
90
8
70
1
43
0.0
10
191.93940401541465
20
-81.518918670272683
10
197.57306276884532
20
-92.114289784579867
42
0.41421356237310913
10
198.92548192449016
20
-92.527765814652966
10
209.52085303879721
20
-86.894107061222257
42
0.41421356237312723
10
209.93432906887028
20
-85.541687905577419
10
204.30067031543959
20
-74.94631679127022
42
0.41421356237308588
10
202.94825115979478
20
-74.532840761197193
10
192.35288004548772
20
-80.166499514627873
42
0.41421356237310691
0
LWPOLYLINE
5
138
100
AcDbEntity
8
0
100
AcDbPolyline
90
8
70
1
43
0.0
10
76.761022727705154
20
-96.977789038884168
10
85.537267147135196
20
-105.16176935963416
42
0.41421356237308743
10
86.95061920881686
20
-105.11241401807752
10
95.134599529566856
20
-96.336169598647473
42
0.41421356237310264
10
95.085244188010165
20
-94.922817536965766
10
86.308999768580094
20
-86.738837216215842
42
0.41421356237309126
10
84.895647706898444
20
-86.788192557772533
10
76.711667386148491
20
-95.564436977202519
42
0.41421356237308743
0
LWPOLYLINE
5
139
100
AcDbEntity
8
0
100
AcDbPolyline
90
8
70
1
43
0.0
10
90.531794748614303
20
-110.71119538970555
10
97.753575026438909
20
-120.29482151027308
42
0.41421356237309503
10
99.154025559638242
20
-120.49164199716833
10
108.73765168020577
20
-113.26986171934372
42
0.41421356237308876
10
108.93447216710102
20
-111.86941118614442
10
101.71269188927639
20
-102.28578506557689
42
0.41421356237308676
10
100.31224135607708
20
-102.08896457868164
10
90.728615235509579
20
-109.31074485650619
42
0.41421356237310647
0
LINE
5
140
100
AcDbEntity
8
0
100
AcDbLine
10
125.17765168020583
20
-103.43986171934378
30
0
11
115.59402555963828
21
-110.66164199716839
31
0
0
LINE
5
141
100
AcDbEntity
8
0
100
AcDbLine
10
107.16861523550958
20
-99.480744856506291
30
0
11
116.75224135607712
21
-92.25896457868167
31
0
0
LWPOLYLINE
5
142
100
AcDbEntity
8
0
100
AcDbPolyline
90
8
70
1
43
0.0
10
119.73059598458551
20
-130.58168790557735
10
114.09693723115481
20
-119.98631679127024
42
0.41421356237309964
10
112.74451807550997
20
-119.57284076119721
10
102.14914696120289
20
-125.20649951462789
42
0.41421356237310669
10
101.73567093112987
20
-126.55891867027276
10
107.36932968456053
20
-137.15428978457987
42
0.41421356237308588
10
108.72174884020535
20
-137.56776581465286
10
119.31711995451245
20
-131.93410706122219
42
0.41421356237310669
0
LWPOLYLINE
5
143
100
AcDbEntity
8
0
100
AcDbPolyline
90
8
70
1
43
0.0
10
184.52435229310171
20
-86.788192557772575
10
192.70833261385178
20
-95.564436977202547
42
-0.41421356237310158
10
192.65897727229512
20
-96.977789038884325
10
183.88273285286502
20
-105.16176935963426
42
-0.41421356237309886
10
182.46938079118334
20
-105.11241401807759
10
174.2854004704333
20
-96.33616959864753
42
-0.41421356237309886
10
174.33475581198996
20
-94.922817536965823
10
183.11100023142004
20
-86.738837216215842
42
-0.41421356237310597
0
LWPOLYLINE
5
144
100
AcDbEntity
8
0
100
AcDbPolyline
90
8
70
1
43
0.0
10
178.88820525138584
20
-110.71119538970558
10
171.66642497356122
20
-120.29482151027315
42
-0.4142135623730846
10
170.2659744403619
20
-120.4916419971684
10
160.68234831979436
20
-113.26986171934377
42
-0.41421356237310031
10
160.48552783289915
20
-111.86941118614442
10
167.70730811072377
20
-102.28578506557693
42
-0.41421356237310231
10
169.10775864392309
20
-102.08896457868167
10
178.69138476449058
20
-109.31074485650628
42
-0.41421356237309614
0
LINE
5
145
100
AcDbEntity
8
0
100
AcDbLine
10
162.26138476449148
20
-99.480744856506959
30
0
11
152.67775864392209
21
-92.25896457868096
31
0
0
LINE
5
146
100
AcDbEntity
8
0
100
AcDbLine
10
144.25234831979347
20
-103.4398617193431
30
0
11
153.83597444036289
21
-110.66164199716903
31
0
0
LWPOLYLINE
5
147
100
AcDbEntity
8
0
100
AcDbPolyline
90
8
70
1
43
0.0
10
167.67432906887038
20
-126.55891867027267
10
162.04067031543963
20
-137.15428978457982
42
-0.4142135623730932
10
160.68825115979485
20
-137.56776581465283
10
150.09288004548762
20
-131.93410706122216
42
-0.41421356237307638
10
149.67940401541463
20
-130.58168790557738
10
155.31306276884538
20
-119.98631679127018
42
-0.41421356237309748
10
156.66548192449022
20
-119.57284076119718
10
167.26085303879734
20
-125.20649951462785
42
-0.41421356237309476
0
LWPOLYLINE
5
148
100
AcDbEntity
8
0
100
AcDbPolyline
90
26
70
1
43
0.0
10
0.47081256312654585
20
-53.765714881511826
10
26.362169250768432
20
-5.0711551353420372
42
-0.41421356237309576
10
27.714588406413249
20
-4.6576791052690147
42
0.20114585151067066
10
66.764044022560455
20
-8.2485061171499208
42
-0.12329555714692847
10
71.613291177993005
20
-7.957477335609239
10
108.23911362776158
20
-14.827152494383299
42
0.22546228095249454
10
121.38727659348982
20
-11.356203482513516
42
-0.63829277697642794
10
122.21000000000002
20
-11.738106091683003
10
122.21000000000002
20
-38.110000000000007
10
147.21000000000001
20
-38.110000000000007
10
147.20999999999975
20
-11.738453872232839
42
-0.63836695292414403
10
148.03280390716725
20
-11.356619303973421
42
0.22551766241976701
10
161.18088325229891
20
-14.829028716675738
10
197.81689723117034
20
-7.9574419968874901
42
-0.12328584834787822
10
202.66577953653265
20
-8.2483558040336646
42
0.20113590116756727
10
241.70541159358692
20
-4.6576791052689384
42
-0.41421356237308959
10
243.0578307492317
20
-5.0711551353419626
10
268.9491874368735
20
-53.765714881511812
42
-0.41421356237306611
10
268.53571140680049
20
-55.118134037156636
42
0.022281364148567732
10
212.93571140680035
20
-87.938134037156544
42
0.1633429052787557
10
163.08469729137391
20
-140.56914815258293
42
-0.41421356237312751
10
161.73227813572919
20
-140.982624182656
42
0.24932800284318363
10
107.67772186427092
20
-140.982624182656
42
-0.41421356237309503
10
106.3253027086261
20
-140.56914815258295
42
0.16344574996032563
10
56.494288593199613
20
-87.93813403715653
42
0.022241983330391082
10
0.88428859319957642
20
-55.118134037156665
42
-0.41421356237309925
0
CIRCLE
5
149
100
AcDbEntity
8
0
100
AcDbCircle
10
71.483133457857576
20
-70.940303287925019
30
0
40
1.1000000000000001
210
0
220
0
230
1
0
CIRCLE
5
150
100
AcDbEntity
8
0
100
AcDbCircle
10
134.7050000000001
20
-130.74117499744324
30
0
40
1.1000000000000001
210
0
220
0
230
1
0
CIRCLE
5
151
100
AcDbEntity
8
0
100
AcDbCircle
10
11.174216943380666
20
-39.013926526442603
30
0
40
1.1000000000000001
210
0
220
0
230
1
0
CIRCLE
5
152
100
AcDbEntity
8
0
100
AcDbCircle
10
58.737485965087743
20
-18.083002571027031
30
0
40
1.1000000000000001
210
0
220
0
230
1
0
CIRCLE
5
153
100
AcDbEntity
8
0
100
AcDbCircle
10
109.94367689318105
20
-18.374322446984117
30
0
40
1.1000000000000001
210
0
220
0
230
1
0
CIRCLE
5
154
100
AcDbEntity
8
0
100
AcDbCircle
10
134.71000000000001
20
-64.668286379557799
30
0
40
1.1000000000000001
210
0
220
0
230
1
0
CIRCLE
5
155
100
AcDbEntity
8
0
100
AcDbCircle
10
258.24578305661942
20
-39.013926526442539
30
0
40
1.1000000000000001
210
0
220
0
230
1
0
CIRCLE
5
156
100
AcDbEntity
8
0
100
AcDbCircle
10
210.69153416010448
20
-18.082766426912766
30
0
40
1.1000000000000001
210
0
220
0
230
1
0
CIRCLE
5
157
100
AcDbEntity
8
0
100
AcDbCircle
10
159.48632310681893
20
-18.374322446984138
30
0
40
1.1000000000000001
210
0
220
0
230
1
0
CIRCLE
5
158
100
AcDbEntity
8
0
100
AcDbCircle
10
197.94686654214246
20
-70.940303287925019
30
0
40
1.1000000000000001
210
0
220
0
230
1
0
ARC
5
159
100
AcDbEntity
8
0
100
AcDbCircle
10
107.77043025866162
20
-100.27938036655358
30
0
40
0.99999999999999967
210
0
220
0
230
1
100
AcDbArc
50
126.9999999999998
51
217.00000000000125
0
ARC
5
160
100
AcDbEntity
8
0
100
AcDbCircle
10
117.35405637922916
20
-93.057600088728961
30
0
40
0.99999999999999967
210
0
220
-0
230
1
100
AcDbArc
50
36.999999999999794
51
126.9999999999998
0
ARC
5
161
100
AcDbEntity
8
0
100
AcDbCircle
10
124.57583665705378
20
-102.64122620929648
30
0
40
1.0000000000000138
210
-0
220
0
230
1
100
AcDbArc
50
-53.000000000000668
51
36.999999999999794
0
ARC
5
162
100
AcDbEntity
8
0
100
AcDbCircle
10
114.99221053648624
20
-109.8630064871211
30
0
40
1.0000000000000102
210
0
220
0
230
1
100
AcDbArc
50
217.0000000000006
51
306.99999999999977
0
ARC
5
163
100
AcDbEntity
8
0
100
AcDbCircle
10
144.8541633429455
20
-102.64122620929577
30
0
40
0.99999999999999967
210
0
220
0
230
1
100
AcDbArc
50
143.00000000000023
51
233.00000000000227
0
ARC
5
164
100
AcDbEntity
8
0
100
AcDbCircle
10
154.43778946351492
20
-109.86300648712174
30
0
40
0.9999999999999889
210
0
220
0
230
1
100
AcDbArc
50
233.00000000000082
51
323.00000000000023
0
ARC
5
165
100
AcDbEntity
8
0
100
AcDbCircle
10
161.65956974133945
20
-100.27938036655429
30
0
40
0.99999999999998535
210
-0
220
0
230
1
100
AcDbArc
50
-37.000000000000753
51
53.000000000002316
0
ARC
5
166
100
AcDbEntity
8
0
100
AcDbCircle
10
152.07594362077006
20
-93.057600088728265
30
0
40
1.0000000000000031
210
0
220
-0
230
1
100
AcDbArc
50
53.000000000001343
51
143.00000000000023
0
LINE
5
167
100
AcDbEntity
8
0
100
AcDbLine
10
121.20529534758532
20
-93.598856430422828
30
0
11
125.1170929946295
21
-98.789987241159722
31
0
0
LINE
5
168
100
AcDbEntity
8
0
100
AcDbLine
10
120.15491737849692
20
-93.45127126165238
30
0
11
120.15503601215599
21
-93.451181852334571
31
0
0
LINE
5
169
100
AcDbEntity
8
0
100
AcDbLine
10
124.96943660454065
20
-99.840356053349311
30
0
11
124.96953233325856
21
-99.840283926865183
31
0
0
LINE
5
170
100
AcDbEntity
8
0
100
AcDbLine
10
118.15269188927645
20
-92.455785065576919
30
0
11
118.75450691242852
21
-93.254420575624209
31
0
0
LINE
5
171
100
AcDbEntity
8
0
100
AcDbLine
10
124.77265714538856
20
-101.24077567501237
30
0
11
125.37447216710108
21
-102.03941118614443
31
0
0
ARC
5
172
100
AcDbEntity
8
0
100
AcDbCircle
10
119.55314242247582
20
-92.652605552472167
30
0
40
0.99999999999999967
210
0
220
0
230
1
100
AcDbArc
50
216.99999999999977
51
307.00563673576767
0
ARC
5
173
100
AcDbEntity
8
0
100
AcDbCircle
10
125.57129265652097
20
-100.63896065329958
30
0
40
1.0000000000004257
210
0
220
0
230
1
100
AcDbArc
50
126.99607581691579
51
216.99999989672585
0
ARC
5
174
100
AcDbEntity
8
0
100
AcDbCircle
10
120.60631871504987
20
-94.050217697786849
30
0
40
0.7499999999999809
210
0
220
-0
230
1
100
AcDbArc
50
36.999999999999801
51
127.00383295968339
0
ARC
5
175
100
AcDbEntity
8
0
100
AcDbCircle
10
124.51811636209401
20
-99.241348508523771
30
0
40
0.75000000000000566
210
-0
220
0
230
1
100
AcDbArc
50
-53.003924183082653
51
36.999999999999588
0
LINE
5
176
100
AcDbEntity
8
0
100
AcDbLine
10
107.22917423402771
20
-104.13061974997837
30
0
11
111.14097156958663
21
-109.32175014736031
31
0
0
LINE
5
177
100
AcDbEntity
8
0
100
AcDbLine
10
107.37725250423232
20
-103.07993330639745
30
0
11
107.37617207816031
21
-103.08074615786077
31
0
0
LINE
5
178
100
AcDbEntity
8
0
100
AcDbLine
10
112.19134369550622
20
-109.46933971984251
30
0
11
112.19126383539425
21
-109.46939990590836
31
0
0
LINE
5
179
100
AcDbEntity
8
0
100
AcDbLine
10
106.97179474861437
20
-100.88119538970562
30
0
11
107.57360977176644
21
-101.67983089975293
31
0
0
LINE
5
180
100
AcDbEntity
8
0
100
AcDbLine
10
113.59176000328689
20
-109.66618600022586
30
0
11
114.19357502643894
21
-110.46482151027317
31
0
0
ARC
5
181
100
AcDbEntity
8
0
100
AcDbCircle
10
106.77497426171918
20
-102.28164592290499
30
0
40
0.99999999999999001
210
0
220
0
230
1
100
AcDbArc
50
-53.044266816930083
51
37.000000000001428
0
ARC
5
182
100
AcDbEntity
8
0
100
AcDbCircle
10
112.79312449323966
20
-110.26800102337789
30
0
40
0.99999999999994638
210
0
220
-0
230
1
100
AcDbArc
50
37.000000000001123
51
127.00327407889718
0
ARC
5
183
100
AcDbEntity
8
0
100
AcDbCircle
10
107.82815086656325
20
-103.67925848261433
30
0
40
0.75000000000006628
210
0
220
0
230
1
100
AcDbArc
50
126.95573318307332
51
216.99999999999673
0
ARC
5
184
100
AcDbEntity
8
0
100
AcDbCircle
10
111.73994820212212
20
-108.87038887999621
30
0
40
0.75000000000005218
210
0
220
0
230
1
100
AcDbArc
50
217.00000000000219
51
307.00327399870599
0
LINE
5
185
100
AcDbEntity
8
0
100
AcDbLine
10
144.31290700573811
20
-98.789987240669191
30
0
11
148.22470465271724
21
-93.598856430018628
31
0
0
LINE
5
186
100
AcDbEntity
8
0
100
AcDbLine
10
144.4604877971135
20
-99.840299085780174
30
0
11
144.46056846754973
21
-99.840359882615132
31
0
0
LINE
5
187
100
AcDbEntity
8
0
100
AcDbLine
10
149.27507712684655
20
-93.45126711996258
30
0
11
149.27499645539839
21
-93.451206322364897
31
0
0
LINE
5
188
100
AcDbEntity
8
0
100
AcDbLine
10
144.05552783289821
20
-102.03941118614372
30
0
11
144.65734285605026
21
-101.24077567609643
31
0
0
LINE
5
189
100
AcDbEntity
8
0
100
AcDbLine
10
150.67549308757071
20
-93.254420575623527
30
0
11
151.27730811072277
21
-92.455785065576222
31
0
0
ARC
5
190
100
AcDbEntity
8
0
100
AcDbCircle
10
143.85870734600297
20
-100.63896065294438
30
0
40
0.99999999999998535
210
-0
220
0
230
1
100
AcDbArc
50
-37.000000000000448
51
52.996692732952141
0
ARC
5
191
100
AcDbEntity
8
0
100
AcDbCircle
10
149.87685757752342
20
-92.652605552471471
30
0
40
0.99999999999999545
210
0
220
0
230
1
100
AcDbArc
50
232.99669269146378
51
322.99999999999955
0
ARC
5
192
100
AcDbEntity
8
0
100
AcDbCircle
10
148.82368128525275
20
-94.050217697382692
30
0
40
0.75000000000004718
210
0
220
-0
230
1
100
AcDbArc
50
52.996692691463629
51
143.00000000000023
0
ARC
5
193
100
AcDbEntity
8
0
100
AcDbCircle
10
144.91188363827359
20
-99.241348508033241
30
0
40
0.750000000000006
210
0
220
0
230
1
100
AcDbArc
50
142.99999999999974
51
232.99669273295086
0
LINE
5
194
100
AcDbEntity
8
0
100
AcDbLine
10
158.28902918163587
20
-109.32174915045746
30
0
11
162.20082608013865
21
-104.13061933306857
31
0
0
LINE
5
195
100
AcDbEntity
8
0
100
AcDbLine
10
162.05324494079929
20
-103.08030722571661
30
0
11
162.05316508068722
21
-103.08024703965083
31
0
0
LINE
5
196
100
AcDbEntity
8
0
100
AcDbLine
10
157.23940730528136
20
-109.46990340768247
30
0
11
157.23773583185354
21
-109.46864699059313
31
0
0
LINE
5
197
100
AcDbEntity
8
0
100
AcDbLine
10
155.23642497356221
20
-110.46482151027378
30
0
11
155.83823999671424
21
-109.66618600022647
31
0
0
LINE
5
198
100
AcDbEntity
8
0
100
AcDbLine
10
161.85639022823469
20
-101.67983089975364
30
0
11
162.45820525138672
21
-100.88119538970633
31
0
0
ARC
5
199
100
AcDbEntity
8
0
100
AcDbCircle
10
156.6368755067615
20
-110.2680010233785
30
0
40
0.99999999999996159
210
0
220
-0
230
1
100
AcDbArc
50
53.068461227777306
51
142.99999999999989
0
ARC
5
200
100
AcDbEntity
8
0
100
AcDbCircle
10
162.65502573828201
20
-102.2816459229057
30
0
40
1.0000000000000244
210
0
220
0
230
1
100
AcDbArc
50
143.00000000000054
51
232.99672590759022
0
ARC
5
201
100
AcDbEntity
8
0
100
AcDbCircle
10
161.60184944760317
20
-103.67925806570454
30
0
40
0.74999999999999523
210
-0
220
0
230
1
100
AcDbArc
50
-36.999999999998515
51
52.996726019274881
0
ARC
5
202
100
AcDbEntity
8
0
100
AcDbCircle
10
157.69005254910039
20
-108.87038788309341
30
0
40
0.75000000000001121
210
0
220
0
230
1
100
AcDbArc
50
233.0684612277787
51
322.99999999999977
0
ENDSEC
0
SECTION
2
OBJECTS
0
DICTIONARY
5
C
100
AcDbDictionary
3
ACAD_GROUP
350
D
3
ACAD_MLINESTYLE
350
17
0
DICTIONARY
5
D
100
AcDbDictionary
0
DICTIONARY
5
1A
330
C
100
AcDbDictionary
0
DICTIONARY
5
17
100
AcDbDictionary
0
ENDSEC
0
EOF
