999
FreeCAD v0.18 16146 (Git)
  0
SECTION
  2
HEADER
  9
$ACADVER
  1
AC1014
  9
$ACADMAINTVER
 70
     9
  9
$DWGCODEPAGE
  3
ANSI_1252
  9
$TEXTSTYLE
  7
STANDARD
  9
$DIMSTYLE
  2
STANDARD
  9
$DIMTXSTY
  7
STANDARD
  9
$CMLSTYLE
  2
STANDARD
  9
$HANDSEED
  5
FFF
  0
ENDSEC
  0
SECTION
  2
CLASSES
  0
CLASS
  1
ACDBDICTIONARYWDFLT
  2
AcDbDictionaryWithDefault
  3
ObjectDBX Classes
 90
        0
280
     0
281
     0
  0
CLASS
  1
XRECORD
  2
AcDbXrecord
  3
ObjectDBX Classes
 90
        0
280
     0
281
     0
  0
CLASS
  1
LWPOLYLINE
  2
AcDbPolyline
  3
ObjectDBX Classes
 90
        0
280
     0
281
     1
  0
ENDSEC
  0
SECTION
  2
TABLES
  0
TABLE
  2
VPORT
  5
20
330
0
100
AcDbSymbolTable
 70
     1
  0
VPORT
  5
21
330
20
100
AcDbSymbolTableRecord
100
AcDbViewportTableRecord
  2
*ACTIVE
 70
     0
  0
ENDTAB
  0
TABLE
  2
LTYPE
  5
22
330
0
100
AcDbSymbolTable
 70
     1
  0
LTYPE
  5
23
330
21
100
AcDbSymbolTableRecord
100
AcDbLinetypeTableRecord
  2
BYBLOCK
 70
     0
  3

 72
    65
 73
     0
 40
0.0
  0
LTYPE
  5
24
330
21
100
AcDbSymbolTableRecord
100
AcDbLinetypeTableRecord
  2
BYLAYER
 70
     0
  3

 72
    65
 73
     0
 40
0.0
  0
LTYPE
  5
25
330
21
100
AcDbSymbolTableRecord
100
AcDbLinetypeTableRecord
  2
CONTINUOUS
 70
     0
  3
Solid line
 72
    65
 73
     0
 40
0.0
  0
ENDTAB
  0
TABLE
  2
LAYER
  5
31
330
0
100
AcDbSymbolTable
 70
2
  0
LAYER
  5
32
330
31
100
AcDbSymbolTableRecord
100
AcDbLayerTableRecord
  2
0
 70
   0
 62
   7
  6
CONTINUOUS
  0
LAYER
  5
33
330
31
100
AcDbSymbolTableRecord
100
AcDbLayerTableRecord
  2
View001
 70
    0
 62
    7
  6
CONTINUOUS
  0
ENDTAB
  0
TABLE
  2
STYLE
  5
60
330
0
100
AcDbSymbolTable
 70
     2
  0
STYLE
  5
61
330
60
100
AcDbSymbolTableRecord
100
AcDbTextStyleTableRecord
  2
STANDARD
 70
     0
 40
0.0
 41
1.0
 50
0.0
 71
     0
 42
2.5
  3
arial.ttf
  4

  0
STYLE
  5
62
330
60
100
AcDbSymbolTableRecord
100
AcDbTextStyleTableRecord
  2
ANNOTATIVE
 70
     0
 40
0.0
 41
1.0
 50
0.0
 71
     0
 42
2.5
  3
arial.ttf
  4

  0
ENDTAB
  0
TABLE
  2
VIEW
  5
63
330
0
100
AcDbSymbolTable
 70
     0
  0
ENDTAB
  0
TABLE
  2
UCS
  5
64
330
0
100
AcDbSymbolTable
 70
     0
  0
ENDTAB
  0
TABLE
  2
APPID
  5
65
330
0
100
AcDbSymbolTable
 70
     2
  0
APPID
  5
66
330
65
100
AcDbSymbolTableRecord
100
AcDbRegAppTableRecord
  2
ACAD
 70
     0
  0
APPID
  5
67
330
65
100
AcDbSymbolTableRecord
100
AcDbRegAppTableRecord
  2
ACADANNOTATIVE
 70
     0
  0
ENDTAB
  0
TABLE
  2
DIMSTYLE
  5
68
330
0
100
AcDbSymbolTable
 70
     2
  0
DIMSTYLE
105
69
330
68
100
AcDbSymbolTableRecord
100
AcDbDimStyleTableRecord
  2
STANDARD
 70
     0
  3

  4

  5

  6

  7

 40
0.0
 41
2.5
 42
0.625
 43
3.75
 44
1.25
 45
0.0
 46
0.0
 47
0.0
 48
0.0
140
2.5
141
2.5
142
0.0
143
0.03937007874016
144
1.0
145
0.0
146
1.0
147
0.625
 71
     0
 72
     0
 73
     0
 74
     0
 75
     0
 76
     0
 77
     1
 78
     8
170
     0
171
     3
172
     1
173
     0
174
     0
175
     0
176
     0
177
     0
178
     0
270
     2
271
     2
272
     2
273
     2
274
     3
340
61
275
     0
280
     0
281
     0
282
     0
283
     0
284
     8
285
     0
286
     0
287
     3
288
     0
  0
ENDTAB
  0
TABLE
  2
BLOCK_RECORD
  5
111
330
0
100
AcDbSymbolTable
  70
5
  0
BLOCK_RECORD
  5
112
330
111
100
AcDbSymbolTableRecord
100
AcDbBlockTableRecord
  2
*MODEL_SPACE
  0
BLOCK_RECORD
  5
113
330
111
100
AcDbSymbolTableRecord
100
AcDbBlockTableRecord
  2
*PAPER_SPACE
  0
ENDTAB
  0
ENDSEC
  0
SECTION
  2
BLOCKS
  0
BLOCK
  5
211
330
112
100
AcDbEntity
  8
0
100
AcDbBlockBegin
  2
*MODEL_SPACE
 70
   0
 10
0
 20
0
 30
0
  3
*MODEL_SPACE
  1
 
  0
ENDBLK
  5
212
330
112
100
AcDbEntity
  8
0
100
AcDbBlockEnd
  0
BLOCK
  5
213
330
113
100
AcDbEntity
 67
1
  8
0
100
AcDbBlockBegin
  2
*PAPER_SPACE
 70
   0
 10
0
 20
0
 30
0
  3
*PAPER_SPACE
  1
 
  0
ENDBLK
  5
214
330
113
100
AcDbEntity
 67
    1
  8
0
100
AcDbBlockEnd
  0
ENDSEC
  0
SECTION
  2
ENTITIES
  0
LINE
  5
301
330
112
100
AcDbEntity
  8
View001
100
AcDbLine
 10
16.3483
 20
133.722
 30
0
 11
43.7101
 21
185.182
 31
0
  0
ARC
  5
302
330
112
100
AcDbEntity
  8
View001
100
AcDbCircle
 10
45.9175
 20
184.009
 30
0
 40
2.5
100
AcDbArc
 50
78.832
 51
152
  0
LINE
  5
303
330
112
100
AcDbEntity
  8
View001
100
AcDbLine
 10
46.4017
 20
186.461
 30
0
 11
124.856
 21
170.972
 31
0
  0
ARC
  5
304
330
112
100
AcDbEntity
  8
View001
100
AcDbCircle
 10
127.223
 20
182.961
 30
0
 40
12.2203
100
AcDbArc
 50
-101.168
 51
1.33257e-13
  0
LINE
  5
305
330
112
100
AcDbEntity
  8
View001
100
AcDbLine
 10
139.443
 20
182.961
 30
0
 11
139.443
 21
185.461
 31
0
  0
ARC
  5
306
330
112
100
AcDbEntity
  8
View001
100
AcDbCircle
 10
140.443
 20
185.461
 30
0
 40
1
100
AcDbArc
 50
90
 51
180
  0
LINE
  5
307
330
112
100
AcDbEntity
  8
View001
100
AcDbLine
 10
140.443
 20
186.461
 30
0
 11
159.223
 21
186.461
 31
0
  0
ARC
  5
308
330
112
100
AcDbEntity
  8
View001
100
AcDbCircle
 10
159.223
 20
185.461
 30
0
 40
1
100
AcDbArc
 50
0
 51
90
  0
LINE
  5
309
330
112
100
AcDbEntity
  8
View001
100
AcDbLine
 10
160.223
 20
182.961
 30
0
 11
160.223
 21
185.461
 31
0
  0
ARC
  5
30A
330
112
100
AcDbEntity
  8
View001
100
AcDbCircle
 10
172.444
 20
182.961
 30
0
 40
12.2203
100
AcDbArc
 50
180
 51
-78.832
  0
ARC
  5
30B
330
112
100
AcDbEntity
  8
View001
100
AcDbCircle
 10
172.444
 20
182.961
 30
0
 40
12.2203
100
AcDbArc
 50
180
 51
-78.832
  0
LINE
  5
30C
330
112
100
AcDbEntity
  8
View001
100
AcDbLine
 10
160.223
 20
182.961
 30
0
 11
160.223
 21
185.461
 31
0
  0
ARC
  5
30D
330
112
100
AcDbEntity
  8
View001
100
AcDbCircle
 10
159.223
 20
185.461
 30
0
 40
1
100
AcDbArc
 50
0
 51
90
  0
LINE
  5
30E
330
112
100
AcDbEntity
  8
View001
100
AcDbLine
 10
140.443
 20
186.461
 30
0
 11
159.223
 21
186.461
 31
0
  0
ARC
  5
30F
330
112
100
AcDbEntity
  8
View001
100
AcDbCircle
 10
140.443
 20
185.461
 30
0
 40
1
100
AcDbArc
 50
90
 51
180
  0
LINE
  5
310
330
112
100
AcDbEntity
  8
View001
100
AcDbLine
 10
139.443
 20
182.961
 30
0
 11
139.443
 21
185.461
 31
0
  0
ARC
  5
311
330
112
100
AcDbEntity
  8
View001
100
AcDbCircle
 10
127.223
 20
182.961
 30
0
 40
12.2203
100
AcDbArc
 50
-101.168
 51
0
  0
LINE
  5
312
330
112
100
AcDbEntity
  8
View001
100
AcDbLine
 10
46.4017
 20
186.461
 30
0
 11
124.856
 21
170.972
 31
0
  0
ARC
  5
313
330
112
100
AcDbEntity
  8
View001
100
AcDbCircle
 10
45.9175
 20
184.009
 30
0
 40
2.5
100
AcDbArc
 50
78.832
 51
152
  0
LINE
  5
314
330
112
100
AcDbEntity
  8
View001
100
AcDbLine
 10
16.3483
 20
133.722
 30
0
 11
43.7101
 21
185.182
 31
0
  0
ARC
  5
315
330
112
100
AcDbEntity
  8
View001
100
AcDbCircle
 10
36.2309
 20
123.151
 30
0
 40
22.5184
100
AcDbArc
 50
152
 51
-95.8944
  0
ARC
  5
316
330
112
100
AcDbEntity
  8
View001
100
AcDbCircle
 10
22.3115
 20
-11.6734
 30
0
 40
113.022
100
AcDbArc
 50
29.9448
 51
84.1056
  0
ARC
  5
317
330
112
100
AcDbEntity
  8
View001
100
AcDbCircle
 10
122.412
 20
45.9913
 30
0
 40
2.5
100
AcDbArc
 50
-150.055
 51
-70.3941
  0
ARC
  5
318
330
112
100
AcDbEntity
  8
View001
100
AcDbCircle
 10
149.833
 20
-30.9908
 30
0
 40
79.22
100
AcDbArc
 50
70.3941
 51
109.606
  0
ARC
  5
319
330
112
100
AcDbEntity
  8
View001
100
AcDbCircle
 10
177.254
 20
45.9913
 30
0
 40
2.5
100
AcDbArc
 50
-109.606
 51
-29.9448
  0
ARC
  5
31A
330
112
100
AcDbEntity
  8
View001
100
AcDbCircle
 10
277.355
 20
-11.6734
 30
0
 40
113.022
100
AcDbArc
 50
95.8944
 51
150.055
  0
ARC
  5
31B
330
112
100
AcDbEntity
  8
View001
100
AcDbCircle
 10
263.436
 20
123.151
 30
0
 40
22.5184
100
AcDbArc
 50
-84.1056
 51
28
  0
LINE
  5
31C
330
112
100
AcDbEntity
  8
View001
100
AcDbLine
 10
283.318
 20
133.722
 30
0
 11
255.957
 21
185.182
 31
0
  0
ARC
  5
31D
330
112
100
AcDbEntity
  8
View001
100
AcDbCircle
 10
253.749
 20
184.009
 30
0
 40
2.5
100
AcDbArc
 50
28
 51
101.168
  0
LINE
  5
31E
330
112
100
AcDbEntity
  8
View001
100
AcDbLine
 10
174.811
 20
170.972
 30
0
 11
253.265
 21
186.461
 31
0
  0
LINE
  5
31F
330
112
100
AcDbEntity
  8
View001
100
AcDbLine
 10
174.811
 20
170.972
 30
0
 11
253.265
 21
186.461
 31
0
  0
ARC
  5
320
330
112
100
AcDbEntity
  8
View001
100
AcDbCircle
 10
253.749
 20
184.009
 30
0
 40
2.5
100
AcDbArc
 50
28
 51
101.168
  0
LINE
  5
321
330
112
100
AcDbEntity
  8
View001
100
AcDbLine
 10
283.318
 20
133.722
 30
0
 11
255.957
 21
185.182
 31
0
  0
ARC
  5
322
330
112
100
AcDbEntity
  8
View001
100
AcDbCircle
 10
263.436
 20
123.151
 30
0
 40
22.5184
100
AcDbArc
 50
-84.1056
 51
28
  0
ARC
  5
323
330
112
100
AcDbEntity
  8
View001
100
AcDbCircle
 10
277.355
 20
-11.6734
 30
0
 40
113.022
100
AcDbArc
 50
95.8944
 51
150.055
  0
ARC
  5
324
330
112
100
AcDbEntity
  8
View001
100
AcDbCircle
 10
177.254
 20
45.9913
 30
0
 40
2.5
100
AcDbArc
 50
-109.606
 51
-29.9448
  0
ARC
  5
325
330
112
100
AcDbEntity
  8
View001
100
AcDbCircle
 10
149.833
 20
-30.9908
 30
0
 40
79.22
100
AcDbArc
 50
70.3941
 51
109.606
  0
ARC
  5
326
330
112
100
AcDbEntity
  8
View001
100
AcDbCircle
 10
122.412
 20
45.9913
 30
0
 40
2.5
100
AcDbArc
 50
-150.055
 51
-70.3941
  0
ARC
  5
327
330
112
100
AcDbEntity
  8
View001
100
AcDbCircle
 10
22.3115
 20
-11.6734
 30
0
 40
113.022
100
AcDbArc
 50
29.9448
 51
84.1056
  0
ARC
  5
328
330
112
100
AcDbEntity
  8
View001
100
AcDbCircle
 10
36.2309
 20
123.151
 30
0
 40
22.5184
100
AcDbArc
 50
152
 51
-95.8944
  0
CIRCLE
  5
329
330
112
100
AcDbEntity
  8
View001
100
AcDbCircle
 10
77.3133
 20
106.421
 40
1.2
  0
CIRCLE
  5
32A
330
112
100
AcDbEntity
  8
View001
100
AcDbCircle
 10
77.3133
 20
106.421
 40
1.2
  0
CIRCLE
  5
32B
330
112
100
AcDbEntity
  8
View001
100
AcDbCircle
 10
21.2833
 20
123.121
 40
1.2
  0
CIRCLE
  5
32C
330
112
100
AcDbEntity
  8
View001
100
AcDbCircle
 10
21.2833
 20
123.121
 40
1.2
  0
CIRCLE
  5
32D
330
112
100
AcDbEntity
  8
View001
100
AcDbCircle
 10
72.8733
 20
175.891
 40
1.2
  0
CIRCLE
  5
32E
330
112
100
AcDbEntity
  8
View001
100
AcDbCircle
 10
72.8733
 20
175.891
 40
1.2
  0
CIRCLE
  5
32F
330
112
100
AcDbEntity
  8
View001
100
AcDbCircle
 10
130.403
 20
166.501
 40
1.2
  0
CIRCLE
  5
330
330
112
100
AcDbEntity
  8
View001
100
AcDbCircle
 10
130.403
 20
166.501
 40
1.2
  0
CIRCLE
  5
331
330
112
100
AcDbEntity
  8
View001
100
AcDbCircle
 10
149.833
 20
75.2313
 40
1.2
  0
CIRCLE
  5
332
330
112
100
AcDbEntity
  8
View001
100
AcDbCircle
 10
149.833
 20
75.2313
 40
1.2
  0
CIRCLE
  5
333
330
112
100
AcDbEntity
  8
View001
100
AcDbCircle
 10
169.263
 20
166.501
 40
1.2
  0
CIRCLE
  5
334
330
112
100
AcDbEntity
  8
View001
100
AcDbCircle
 10
169.263
 20
166.501
 40
1.2
  0
CIRCLE
  5
335
330
112
100
AcDbEntity
  8
View001
100
AcDbCircle
 10
226.793
 20
175.891
 40
1.2
  0
CIRCLE
  5
336
330
112
100
AcDbEntity
  8
View001
100
AcDbCircle
 10
226.793
 20
175.891
 40
1.2
  0
CIRCLE
  5
337
330
112
100
AcDbEntity
  8
View001
100
AcDbCircle
 10
278.383
 20
123.121
 40
1.2
  0
CIRCLE
  5
338
330
112
100
AcDbEntity
  8
View001
100
AcDbCircle
 10
278.383
 20
123.121
 40
1.2
  0
CIRCLE
  5
339
330
112
100
AcDbEntity
  8
View001
100
AcDbCircle
 10
222.353
 20
106.421
 40
1.2
  0
CIRCLE
  5
33A
330
112
100
AcDbEntity
  8
View001
100
AcDbCircle
 10
222.353
 20
106.421
 40
1.2
  0
LINE
  5
33B
330
112
100
AcDbEntity
  8
View001
100
AcDbLine
 10
46.5826
 20
117.511
 30
0
 11
36.1197
 21
123.074
 31
0
  0
ARC
  5
33C
330
112
100
AcDbEntity
  8
View001
100
AcDbCircle
 10
35.6502
 20
122.191
 30
0
 40
1
100
AcDbArc
 50
62
 51
152
  0
LINE
  5
33D
330
112
100
AcDbEntity
  8
View001
100
AcDbLine
 10
34.7673
 20
122.66
 30
0
 11
29.204
 21
112.197
 31
0
  0
ARC
  5
33E
330
112
100
AcDbEntity
  8
View001
100
AcDbCircle
 10
30.087
 20
111.728
 30
0
 40
1
100
AcDbArc
 50
152
 51
-118
  0
LINE
  5
33F
330
112
100
AcDbEntity
  8
View001
100
AcDbLine
 10
29.6175
 20
110.845
 30
0
 11
40.0804
 21
105.282
 31
0
  0
ARC
  5
340
330
112
100
AcDbEntity
  8
View001
100
AcDbCircle
 10
40.5499
 20
106.165
 30
0
 40
1
100
AcDbArc
 50
-118
 51
-28
  0
LINE
  5
341
330
112
100
AcDbEntity
  8
View001
100
AcDbLine
 10
41.4328
 20
105.695
 30
0
 11
46.9961
 21
116.158
 31
0
  0
ARC
  5
342
330
112
100
AcDbEntity
  8
View001
100
AcDbCircle
 10
46.1131
 20
116.628
 30
0
 40
1
100
AcDbArc
 50
-28
 51
62
  0
LINE
  5
343
330
112
100
AcDbEntity
  8
View001
100
AcDbLine
 10
38.7059
 20
143.274
 30
0
 11
28.243
 21
148.837
 31
0
  0
ARC
  5
344
330
112
100
AcDbEntity
  8
View001
100
AcDbCircle
 10
27.7735
 20
147.954
 30
0
 40
1
100
AcDbArc
 50
62
 51
152
  0
LINE
  5
345
330
112
100
AcDbEntity
  8
View001
100
AcDbLine
 10
26.8905
 20
148.424
 30
0
 11
21.3273
 21
137.961
 31
0
  0
ARC
  5
346
330
112
100
AcDbEntity
  8
View001
100
AcDbCircle
 10
22.2102
 20
137.491
 30
0
 40
1
100
AcDbArc
 50
152
 51
-118
  0
LINE
  5
347
330
112
100
AcDbEntity
  8
View001
100
AcDbLine
 10
21.7408
 20
136.609
 30
0
 11
32.2037
 21
131.045
 31
0
  0
ARC
  5
348
330
112
100
AcDbEntity
  8
View001
100
AcDbCircle
 10
32.6732
 20
131.928
 30
0
 40
1
100
AcDbArc
 50
-118
 51
-28
  0
LINE
  5
349
330
112
100
AcDbEntity
  8
View001
100
AcDbLine
 10
33.5561
 20
131.459
 30
0
 11
39.1194
 21
141.922
 31
0
  0
ARC
  5
34A
330
112
100
AcDbEntity
  8
View001
100
AcDbCircle
 10
38.2364
 20
142.391
 30
0
 40
1
100
AcDbArc
 50
-28
 51
62
  0
LINE
  5
34B
330
112
100
AcDbEntity
  8
View001
100
AcDbLine
 10
47.6493
 20
160.094
 30
0
 11
37.1864
 21
165.658
 31
0
  0
ARC
  5
34C
330
112
100
AcDbEntity
  8
View001
100
AcDbCircle
 10
36.7169
 20
164.775
 30
0
 40
1
100
AcDbArc
 50
62
 51
152
  0
LINE
  5
34D
330
112
100
AcDbEntity
  8
View001
100
AcDbLine
 10
35.834
 20
165.244
 30
0
 11
30.2707
 21
154.781
 31
0
  0
ARC
  5
34E
330
112
100
AcDbEntity
  8
View001
100
AcDbCircle
 10
31.1537
 20
154.312
 30
0
 40
1
100
AcDbArc
 50
152
 51
-118
  0
LINE
  5
34F
330
112
100
AcDbEntity
  8
View001
100
AcDbLine
 10
30.6842
 20
153.429
 30
0
 11
41.1471
 21
147.865
 31
0
  0
ARC
  5
350
330
112
100
AcDbEntity
  8
View001
100
AcDbCircle
 10
41.6166
 20
148.748
 30
0
 40
1
100
AcDbArc
 50
-118
 51
-28
  0
LINE
  5
351
330
112
100
AcDbEntity
  8
View001
100
AcDbLine
 10
42.4996
 20
148.279
 30
0
 11
48.0628
 21
158.742
 31
0
  0
ARC
  5
352
330
112
100
AcDbEntity
  8
View001
100
AcDbCircle
 10
47.1799
 20
159.211
 30
0
 40
1
100
AcDbArc
 50
-28
 51
62
  0
ARC
  5
353
330
112
100
AcDbEntity
  8
View001
100
AcDbCircle
 10
40.0971
 20
171.132
 30
0
 40
1
100
AcDbArc
 50
152
 51
-118
  0
LINE
  5
354
330
112
100
AcDbEntity
  8
View001
100
AcDbLine
 10
39.6276
 20
170.249
 30
0
 11
50.0906
 21
164.686
 31
0
  0
ARC
  5
355
330
112
100
AcDbEntity
  8
View001
100
AcDbCircle
 10
50.56
 20
165.569
 30
0
 40
1
100
AcDbArc
 50
-118
 51
-28
  0
LINE
  5
356
330
112
100
AcDbEntity
  8
View001
100
AcDbLine
 10
51.443
 20
165.099
 30
0
 11
57.0062
 21
175.562
 31
0
  0
ARC
  5
357
330
112
100
AcDbEntity
  8
View001
100
AcDbCircle
 10
56.1233
 20
176.031
 30
0
 40
1
100
AcDbArc
 50
-28
 51
62
  0
LINE
  5
358
330
112
100
AcDbEntity
  8
View001
100
AcDbLine
 10
56.5928
 20
176.914
 30
0
 11
46.1298
 21
182.478
 31
0
  0
ARC
  5
359
330
112
100
AcDbEntity
  8
View001
100
AcDbCircle
 10
45.6604
 20
181.595
 30
0
 40
1
100
AcDbArc
 50
62
 51
152
  0
LINE
  5
35A
330
112
100
AcDbEntity
  8
View001
100
AcDbLine
 10
44.7774
 20
182.064
 30
0
 11
39.2142
 21
171.601
 31
0
  0
LINE
  5
35B
330
112
100
AcDbEntity
  8
View001
100
AcDbLine
 10
73.4129
 20
167.971
 30
0
 11
62.95
 21
173.534
 31
0
  0
ARC
  5
35C
330
112
100
AcDbEntity
  8
View001
100
AcDbCircle
 10
62.4805
 20
172.651
 30
0
 40
1
100
AcDbArc
 50
62
 51
152
  0
LINE
  5
35D
330
112
100
AcDbEntity
  8
View001
100
AcDbLine
 10
61.5976
 20
173.121
 30
0
 11
56.0343
 21
162.658
 31
0
  0
ARC
  5
35E
330
112
100
AcDbEntity
  8
View001
100
AcDbCircle
 10
56.9173
 20
162.188
 30
0
 40
1
100
AcDbArc
 50
152
 51
-118
  0
LINE
  5
35F
330
112
100
AcDbEntity
  8
View001
100
AcDbLine
 10
56.4478
 20
161.305
 30
0
 11
66.9107
 21
155.742
 31
0
  0
ARC
  5
360
330
112
100
AcDbEntity
  8
View001
100
AcDbCircle
 10
67.3802
 20
156.625
 30
0
 40
1
100
AcDbArc
 50
-118
 51
-28
  0
LINE
  5
361
330
112
100
AcDbEntity
  8
View001
100
AcDbLine
 10
68.2631
 20
156.156
 30
0
 11
73.8264
 21
166.619
 31
0
  0
ARC
  5
362
330
112
100
AcDbEntity
  8
View001
100
AcDbCircle
 10
72.9434
 20
167.088
 30
0
 40
1
100
AcDbArc
 50
-28
 51
62
  0
LINE
  5
363
330
112
100
AcDbEntity
  8
View001
100
AcDbLine
 10
64.4695
 20
151.151
 30
0
 11
54.0065
 21
156.714
 31
0
  0
ARC
  5
364
330
112
100
AcDbEntity
  8
View001
100
AcDbCircle
 10
53.5371
 20
155.831
 30
0
 40
1
100
AcDbArc
 50
62
 51
152
  0
LINE
  5
365
330
112
100
AcDbEntity
  8
View001
100
AcDbLine
 10
52.6541
 20
156.301
 30
0
 11
47.0909
 21
145.838
 31
0
  0
ARC
  5
366
330
112
100
AcDbEntity
  8
View001
100
AcDbCircle
 10
47.9738
 20
145.368
 30
0
 40
1
100
AcDbArc
 50
152
 51
-118
  0
LINE
  5
367
330
112
100
AcDbEntity
  8
View001
100
AcDbLine
 10
47.5044
 20
144.485
 30
0
 11
57.9673
 21
138.922
 31
0
  0
ARC
  5
368
330
112
100
AcDbEntity
  8
View001
100
AcDbCircle
 10
58.4368
 20
139.805
 30
0
 40
1
100
AcDbArc
 50
-118
 51
-28
  0
LINE
  5
369
330
112
100
AcDbEntity
  8
View001
100
AcDbLine
 10
59.3197
 20
139.335
 30
0
 11
64.8829
 21
149.798
 31
0
  0
ARC
  5
36A
330
112
100
AcDbEntity
  8
View001
100
AcDbCircle
 10
64
 20
150.268
 30
0
 40
1
100
AcDbArc
 50
-28
 51
62
  0
LINE
  5
36B
330
112
100
AcDbEntity
  8
View001
100
AcDbLine
 10
55.526
 20
134.331
 30
0
 11
45.0631
 21
139.894
 31
0
  0
ARC
  5
36C
330
112
100
AcDbEntity
  8
View001
100
AcDbCircle
 10
44.5936
 20
139.011
 30
0
 40
1
100
AcDbArc
 50
62
 51
152
  0
LINE
  5
36D
330
112
100
AcDbEntity
  8
View001
100
AcDbLine
 10
43.7107
 20
139.48
 30
0
 11
38.1475
 21
129.018
 31
0
  0
ARC
  5
36E
330
112
100
AcDbEntity
  8
View001
100
AcDbCircle
 10
39.0304
 20
128.548
 30
0
 40
1
100
AcDbArc
 50
152
 51
-118
  0
LINE
  5
36F
330
112
100
AcDbEntity
  8
View001
100
AcDbLine
 10
38.5609
 20
127.665
 30
0
 11
49.0239
 21
122.102
 31
0
  0
ARC
  5
370
330
112
100
AcDbEntity
  8
View001
100
AcDbCircle
 10
49.4933
 20
122.985
 30
0
 40
1
100
AcDbArc
 50
-118
 51
-28
  0
LINE
  5
371
330
112
100
AcDbEntity
  8
View001
100
AcDbLine
 10
50.3763
 20
122.515
 30
0
 11
55.9395
 21
132.978
 31
0
  0
ARC
  5
372
330
112
100
AcDbEntity
  8
View001
100
AcDbCircle
 10
55.0566
 20
133.448
 30
0
 40
1
100
AcDbArc
 50
-28
 51
62
  0
LINE
  5
373
330
112
100
AcDbEntity
  8
View001
100
AcDbLine
 10
95.8459
 20
169.574
 30
0
 11
85.383
 21
175.137
 31
0
  0
ARC
  5
374
330
112
100
AcDbEntity
  8
View001
100
AcDbCircle
 10
84.9135
 20
174.254
 30
0
 40
1
100
AcDbArc
 50
62
 51
152
  0
LINE
  5
375
330
112
100
AcDbEntity
  8
View001
100
AcDbLine
 10
84.0305
 20
174.724
 30
0
 11
78.4673
 21
164.261
 31
0
  0
ARC
  5
376
330
112
100
AcDbEntity
  8
View001
100
AcDbCircle
 10
79.3502
 20
163.791
 30
0
 40
1
100
AcDbArc
 50
152
 51
-118
  0
LINE
  5
377
330
112
100
AcDbEntity
  8
View001
100
AcDbLine
 10
78.8808
 20
162.909
 30
0
 11
89.3437
 21
157.345
 31
0
  0
ARC
  5
378
330
112
100
AcDbEntity
  8
View001
100
AcDbCircle
 10
89.8132
 20
158.228
 30
0
 40
1
100
AcDbArc
 50
-118
 51
-28
  0
LINE
  5
379
330
112
100
AcDbEntity
  8
View001
100
AcDbLine
 10
90.6961
 20
157.759
 30
0
 11
96.2594
 21
168.222
 31
0
  0
ARC
  5
37A
330
112
100
AcDbEntity
  8
View001
100
AcDbCircle
 10
95.3764
 20
168.691
 30
0
 40
1
100
AcDbArc
 50
-28
 51
62
  0
LINE
  5
37B
330
112
100
AcDbEntity
  8
View001
100
AcDbLine
 10
86.9025
 20
152.754
 30
0
 11
76.4395
 21
158.317
 31
0
  0
ARC
  5
37C
330
112
100
AcDbEntity
  8
View001
100
AcDbCircle
 10
75.9701
 20
157.434
 30
0
 40
1
100
AcDbArc
 50
62
 51
152
  0
LINE
  5
37D
330
112
100
AcDbEntity
  8
View001
100
AcDbLine
 10
75.0871
 20
157.904
 30
0
 11
69.5239
 21
147.441
 31
0
  0
ARC
  5
37E
330
112
100
AcDbEntity
  8
View001
100
AcDbCircle
 10
70.4068
 20
146.971
 30
0
 40
1
100
AcDbArc
 50
152
 51
-118
  0
LINE
  5
37F
330
112
100
AcDbEntity
  8
View001
100
AcDbLine
 10
69.9373
 20
146.088
 30
0
 11
80.4003
 21
140.525
 31
0
  0
ARC
  5
380
330
112
100
AcDbEntity
  8
View001
100
AcDbCircle
 10
80.8697
 20
141.408
 30
0
 40
1
100
AcDbArc
 50
-118
 51
-28
  0
LINE
  5
381
330
112
100
AcDbEntity
  8
View001
100
AcDbLine
 10
81.7527
 20
140.939
 30
0
 11
87.3159
 21
151.402
 31
0
  0
ARC
  5
382
330
112
100
AcDbEntity
  8
View001
100
AcDbCircle
 10
86.433
 20
151.871
 30
0
 40
1
100
AcDbArc
 50
-28
 51
62
  0
LINE
  5
383
330
112
100
AcDbEntity
  8
View001
100
AcDbLine
 10
77.959
 20
135.934
 30
0
 11
67.4961
 21
141.497
 31
0
  0
ARC
  5
384
330
112
100
AcDbEntity
  8
View001
100
AcDbCircle
 10
67.0266
 20
140.614
 30
0
 40
1
100
AcDbArc
 50
62
 51
152
  0
LINE
  5
385
330
112
100
AcDbEntity
  8
View001
100
AcDbLine
 10
66.1437
 20
141.084
 30
0
 11
60.5804
 21
130.621
 31
0
  0
ARC
  5
386
330
112
100
AcDbEntity
  8
View001
100
AcDbCircle
 10
61.4634
 20
130.151
 30
0
 40
1
100
AcDbArc
 50
152
 51
-118
  0
LINE
  5
387
330
112
100
AcDbEntity
  8
View001
100
AcDbLine
 10
60.9939
 20
129.268
 30
0
 11
71.4568
 21
123.705
 31
0
  0
ARC
  5
388
330
112
100
AcDbEntity
  8
View001
100
AcDbCircle
 10
71.9263
 20
124.588
 30
0
 40
1
100
AcDbArc
 50
-118
 51
-28
  0
LINE
  5
389
330
112
100
AcDbEntity
  8
View001
100
AcDbLine
 10
72.8093
 20
124.118
 30
0
 11
78.3725
 21
134.581
 31
0
  0
ARC
  5
38A
330
112
100
AcDbEntity
  8
View001
100
AcDbCircle
 10
77.4896
 20
135.051
 30
0
 40
1
100
AcDbArc
 50
-28
 51
62
  0
LINE
  5
38B
330
112
100
AcDbEntity
  8
View001
100
AcDbLine
 10
115.466
 20
165.904
 30
0
 11
105.003
 21
171.467
 31
0
  0
ARC
  5
38C
330
112
100
AcDbEntity
  8
View001
100
AcDbCircle
 10
104.533
 20
170.584
 30
0
 40
1
100
AcDbArc
 50
62
 51
152
  0
LINE
  5
38D
330
112
100
AcDbEntity
  8
View001
100
AcDbLine
 10
103.651
 20
171.054
 30
0
 11
98.0873
 21
160.591
 31
0
  0
ARC
  5
38E
330
112
100
AcDbEntity
  8
View001
100
AcDbCircle
 10
98.9702
 20
160.121
 30
0
 40
1
100
AcDbArc
 50
152
 51
-118
  0
LINE
  5
38F
330
112
100
AcDbEntity
  8
View001
100
AcDbLine
 10
98.5008
 20
159.239
 30
0
 11
108.964
 21
153.675
 31
0
  0
ARC
  5
390
330
112
100
AcDbEntity
  8
View001
100
AcDbCircle
 10
109.433
 20
154.558
 30
0
 40
1
100
AcDbArc
 50
-118
 51
-28
  0
LINE
  5
391
330
112
100
AcDbEntity
  8
View001
100
AcDbLine
 10
110.316
 20
154.089
 30
0
 11
115.879
 21
164.552
 31
0
  0
ARC
  5
392
330
112
100
AcDbEntity
  8
View001
100
AcDbCircle
 10
114.996
 20
165.021
 30
0
 40
1
100
AcDbArc
 50
-28
 51
62
  0
LINE
  5
393
330
112
100
AcDbEntity
  8
View001
100
AcDbLine
 10
106.522
 20
149.084
 30
0
 11
96.0595
 21
154.647
 31
0
  0
ARC
  5
394
330
112
100
AcDbEntity
  8
View001
100
AcDbCircle
 10
95.5901
 20
153.764
 30
0
 40
1
100
AcDbArc
 50
62
 51
152
  0
LINE
  5
395
330
112
100
AcDbEntity
  8
View001
100
AcDbLine
 10
94.7071
 20
154.234
 30
0
 11
89.1439
 21
143.771
 31
0
  0
ARC
  5
396
330
112
100
AcDbEntity
  8
View001
100
AcDbCircle
 10
90.0268
 20
143.301
 30
0
 40
1
100
AcDbArc
 50
152
 51
-118
  0
LINE
  5
397
330
112
100
AcDbEntity
  8
View001
100
AcDbLine
 10
89.5573
 20
142.418
 30
0
 11
100.02
 21
136.855
 31
0
  0
ARC
  5
398
330
112
100
AcDbEntity
  8
View001
100
AcDbCircle
 10
100.49
 20
137.738
 30
0
 40
1
100
AcDbArc
 50
-118
 51
-28
  0
LINE
  5
399
330
112
100
AcDbEntity
  8
View001
100
AcDbLine
 10
101.373
 20
137.269
 30
0
 11
106.936
 21
147.732
 31
0
  0
ARC
  5
39A
330
112
100
AcDbEntity
  8
View001
100
AcDbCircle
 10
106.053
 20
148.201
 30
0
 40
1
100
AcDbArc
 50
-28
 51
62
  0
LINE
  5
39B
330
112
100
AcDbEntity
  8
View001
100
AcDbLine
 10
97.579
 20
132.264
 30
0
 11
87.1161
 21
137.827
 31
0
  0
ARC
  5
39C
330
112
100
AcDbEntity
  8
View001
100
AcDbCircle
 10
86.6466
 20
136.944
 30
0
 40
1
100
AcDbArc
 50
62
 51
152
  0
LINE
  5
39D
330
112
100
AcDbEntity
  8
View001
100
AcDbLine
 10
85.7637
 20
137.414
 30
0
 11
80.2004
 21
126.951
 31
0
  0
ARC
  5
39E
330
112
100
AcDbEntity
  8
View001
100
AcDbCircle
 10
81.0834
 20
126.481
 30
0
 40
1
100
AcDbArc
 50
152
 51
-118
  0
LINE
  5
39F
330
112
100
AcDbEntity
  8
View001
100
AcDbLine
 10
80.6139
 20
125.598
 30
0
 11
91.0768
 21
120.035
 31
0
  0
ARC
  5
3A0
330
112
100
AcDbEntity
  8
View001
100
AcDbCircle
 10
91.5463
 20
120.918
 30
0
 40
1
100
AcDbArc
 50
-118
 51
-28
  0
LINE
  5
3A1
330
112
100
AcDbEntity
  8
View001
100
AcDbLine
 10
92.4293
 20
120.448
 30
0
 11
97.9925
 21
130.911
 31
0
  0
ARC
  5
3A2
330
112
100
AcDbEntity
  8
View001
100
AcDbCircle
 10
97.1096
 20
131.381
 30
0
 40
1
100
AcDbArc
 50
-28
 51
62
  0
LINE
  5
3A3
330
112
100
AcDbEntity
  8
View001
100
AcDbLine
 10
112.281
 20
144.579
 30
0
 11
122.744
 21
139.015
 31
0
  0
ARC
  5
3A4
330
112
100
AcDbEntity
  8
View001
100
AcDbCircle
 10
123.213
 20
139.898
 30
0
 40
1
100
AcDbArc
 50
-118
 51
-28
  0
LINE
  5
3A5
330
112
100
AcDbEntity
  8
View001
100
AcDbLine
 10
124.096
 20
139.429
 30
0
 11
129.659
 21
149.892
 31
0
  0
ARC
  5
3A6
330
112
100
AcDbEntity
  8
View001
100
AcDbCircle
 10
128.776
 20
150.361
 30
0
 40
1
100
AcDbArc
 50
-28
 51
62
  0
LINE
  5
3A7
330
112
100
AcDbEntity
  8
View001
100
AcDbLine
 10
129.246
 20
151.244
 30
0
 11
118.783
 21
156.807
 31
0
  0
ARC
  5
3A8
330
112
100
AcDbEntity
  8
View001
100
AcDbCircle
 10
118.313
 20
155.924
 30
0
 40
1
100
AcDbArc
 50
62
 51
152
  0
LINE
  5
3A9
330
112
100
AcDbEntity
  8
View001
100
AcDbLine
 10
117.431
 20
156.394
 30
0
 11
111.867
 21
145.931
 31
0
  0
ARC
  5
3AA
330
112
100
AcDbEntity
  8
View001
100
AcDbCircle
 10
112.75
 20
145.461
 30
0
 40
1
100
AcDbArc
 50
152
 51
-118
  0
LINE
  5
3AB
330
112
100
AcDbEntity
  8
View001
100
AcDbLine
 10
120.302
 20
134.424
 30
0
 11
109.84
 21
139.987
 31
0
  0
ARC
  5
3AC
330
112
100
AcDbEntity
  8
View001
100
AcDbCircle
 10
109.37
 20
139.104
 30
0
 40
1
100
AcDbArc
 50
62
 51
152
  0
LINE
  5
3AD
330
112
100
AcDbEntity
  8
View001
100
AcDbLine
 10
108.487
 20
139.574
 30
0
 11
102.924
 21
129.111
 31
0
  0
ARC
  5
3AE
330
112
100
AcDbEntity
  8
View001
100
AcDbCircle
 10
103.807
 20
128.641
 30
0
 40
1
100
AcDbArc
 50
152
 51
-118
  0
LINE
  5
3AF
330
112
100
AcDbEntity
  8
View001
100
AcDbLine
 10
103.337
 20
127.758
 30
0
 11
113.8
 21
122.195
 31
0
  0
ARC
  5
3B0
330
112
100
AcDbEntity
  8
View001
100
AcDbCircle
 10
114.27
 20
123.078
 30
0
 40
1
100
AcDbArc
 50
-118
 51
-28
  0
LINE
  5
3B1
330
112
100
AcDbEntity
  8
View001
100
AcDbLine
 10
115.153
 20
122.609
 30
0
 11
120.716
 21
133.072
 31
0
  0
ARC
  5
3B2
330
112
100
AcDbEntity
  8
View001
100
AcDbCircle
 10
119.833
 20
133.541
 30
0
 40
1
100
AcDbArc
 50
-28
 51
62
  0
LINE
  5
3B3
330
112
100
AcDbEntity
  8
View001
100
AcDbLine
 10
111.359
 20
117.604
 30
0
 11
100.896
 21
123.167
 31
0
  0
ARC
  5
3B4
330
112
100
AcDbEntity
  8
View001
100
AcDbCircle
 10
100.427
 20
122.284
 30
0
 40
1
100
AcDbArc
 50
62
 51
152
  0
LINE
  5
3B5
330
112
100
AcDbEntity
  8
View001
100
AcDbLine
 10
99.5437
 20
122.754
 30
0
 11
93.9804
 21
112.291
 31
0
  0
ARC
  5
3B6
330
112
100
AcDbEntity
  8
View001
100
AcDbCircle
 10
94.8634
 20
111.821
 30
0
 40
1
100
AcDbArc
 50
152
 51
-118
  0
LINE
  5
3B7
330
112
100
AcDbEntity
  8
View001
100
AcDbLine
 10
94.3939
 20
110.938
 30
0
 11
104.857
 21
105.375
 31
0
  0
ARC
  5
3B8
330
112
100
AcDbEntity
  8
View001
100
AcDbCircle
 10
105.326
 20
106.258
 30
0
 40
1
100
AcDbArc
 50
-118
 51
-28
  0
LINE
  5
3B9
330
112
100
AcDbEntity
  8
View001
100
AcDbLine
 10
106.209
 20
105.788
 30
0
 11
111.772
 21
116.251
 31
0
  0
ARC
  5
3BA
330
112
100
AcDbEntity
  8
View001
100
AcDbCircle
 10
110.89
 20
116.721
 30
0
 40
1
100
AcDbArc
 50
-28
 51
62
  0
LINE
  5
3BB
330
112
100
AcDbEntity
  8
View001
100
AcDbLine
 10
144.936
 20
140.174
 30
0
 11
134.473
 21
145.737
 31
0
  0
ARC
  5
3BC
330
112
100
AcDbEntity
  8
View001
100
AcDbCircle
 10
134.003
 20
144.854
 30
0
 40
1
100
AcDbArc
 50
62
 51
152
  0
LINE
  5
3BD
330
112
100
AcDbEntity
  8
View001
100
AcDbLine
 10
133.121
 20
145.324
 30
0
 11
127.557
 21
134.861
 31
0
  0
ARC
  5
3BE
330
112
100
AcDbEntity
  8
View001
100
AcDbCircle
 10
128.44
 20
134.391
 30
0
 40
1
100
AcDbArc
 50
152
 51
-118
  0
LINE
  5
3BF
330
112
100
AcDbEntity
  8
View001
100
AcDbLine
 10
127.971
 20
133.509
 30
0
 11
138.434
 21
127.945
 31
0
  0
ARC
  5
3C0
330
112
100
AcDbEntity
  8
View001
100
AcDbCircle
 10
138.903
 20
128.828
 30
0
 40
1
100
AcDbArc
 50
-118
 51
-28
  0
LINE
  5
3C1
330
112
100
AcDbEntity
  8
View001
100
AcDbLine
 10
139.786
 20
128.359
 30
0
 11
145.349
 21
138.822
 31
0
  0
ARC
  5
3C2
330
112
100
AcDbEntity
  8
View001
100
AcDbCircle
 10
144.466
 20
139.291
 30
0
 40
1
100
AcDbArc
 50
-28
 51
62
  0
LINE
  5
3C3
330
112
100
AcDbEntity
  8
View001
100
AcDbLine
 10
135.992
 20
123.354
 30
0
 11
125.53
 21
128.917
 31
0
  0
ARC
  5
3C4
330
112
100
AcDbEntity
  8
View001
100
AcDbCircle
 10
125.06
 20
128.034
 30
0
 40
1
100
AcDbArc
 50
62
 51
152
  0
LINE
  5
3C5
330
112
100
AcDbEntity
  8
View001
100
AcDbLine
 10
124.177
 20
128.504
 30
0
 11
118.614
 21
118.041
 31
0
  0
ARC
  5
3C6
330
112
100
AcDbEntity
  8
View001
100
AcDbCircle
 10
119.497
 20
117.571
 30
0
 40
1
100
AcDbArc
 50
152
 51
-118
  0
LINE
  5
3C7
330
112
100
AcDbEntity
  8
View001
100
AcDbLine
 10
119.027
 20
116.688
 30
0
 11
129.49
 21
111.125
 31
0
  0
ARC
  5
3C8
330
112
100
AcDbEntity
  8
View001
100
AcDbCircle
 10
129.96
 20
112.008
 30
0
 40
1
100
AcDbArc
 50
-118
 51
-28
  0
LINE
  5
3C9
330
112
100
AcDbEntity
  8
View001
100
AcDbLine
 10
130.843
 20
111.539
 30
0
 11
136.406
 21
122.002
 31
0
  0
ARC
  5
3CA
330
112
100
AcDbEntity
  8
View001
100
AcDbCircle
 10
135.523
 20
122.471
 30
0
 40
1
100
AcDbArc
 50
-28
 51
62
  0
LINE
  5
3CB
330
112
100
AcDbEntity
  8
View001
100
AcDbLine
 10
127.049
 20
106.534
 30
0
 11
116.586
 21
112.097
 31
0
  0
ARC
  5
3CC
330
112
100
AcDbEntity
  8
View001
100
AcDbCircle
 10
116.117
 20
111.214
 30
0
 40
1
100
AcDbArc
 50
62
 51
152
  0
LINE
  5
3CD
330
112
100
AcDbEntity
  8
View001
100
AcDbLine
 10
115.234
 20
111.684
 30
0
 11
109.67
 21
101.221
 31
0
  0
ARC
  5
3CE
330
112
100
AcDbEntity
  8
View001
100
AcDbCircle
 10
110.553
 20
100.751
 30
0
 40
1
100
AcDbArc
 50
152
 51
-118
  0
LINE
  5
3CF
330
112
100
AcDbEntity
  8
View001
100
AcDbLine
 10
110.084
 20
99.8682
 30
0
 11
120.547
 21
94.305
 31
0
  0
ARC
  5
3D0
330
112
100
AcDbEntity
  8
View001
100
AcDbCircle
 10
121.016
 20
95.1879
 30
0
 40
1
100
AcDbArc
 50
-118
 51
-28
  0
LINE
  5
3D1
330
112
100
AcDbEntity
  8
View001
100
AcDbLine
 10
121.899
 20
94.7185
 30
0
 11
127.462
 21
105.181
 31
0
  0
ARC
  5
3D2
330
112
100
AcDbEntity
  8
View001
100
AcDbCircle
 10
126.58
 20
105.651
 30
0
 40
1
100
AcDbArc
 50
-28
 51
62
  0
LINE
  5
3D3
330
112
100
AcDbEntity
  8
View001
100
AcDbLine
 10
110.093
 20
91.5448
 30
0
 11
101.426
 21
99.6265
 31
0
  0
ARC
  5
3D4
330
112
100
AcDbEntity
  8
View001
100
AcDbCircle
 10
100.744
 20
98.8951
 30
0
 40
1
100
AcDbArc
 50
47
 51
137
  0
LINE
  5
3D5
330
112
100
AcDbEntity
  8
View001
100
AcDbLine
 10
100.013
 20
99.5771
 30
0
 11
91.931
 21
90.9106
 31
0
  0
ARC
  5
3D6
330
112
100
AcDbEntity
  8
View001
100
AcDbCircle
 10
92.6624
 20
90.2286
 30
0
 40
1
100
AcDbArc
 50
137
 51
-133
  0
LINE
  5
3D7
330
112
100
AcDbEntity
  8
View001
100
AcDbLine
 10
91.9804
 20
89.4972
 30
0
 11
100.647
 21
81.4156
 31
0
  0
ARC
  5
3D8
330
112
100
AcDbEntity
  8
View001
100
AcDbCircle
 10
101.329
 20
82.1469
 30
0
 40
1
100
AcDbArc
 50
-133
 51
-43
  0
LINE
  5
3D9
330
112
100
AcDbEntity
  8
View001
100
AcDbLine
 10
102.06
 20
81.4649
 30
0
 11
110.142
 21
90.1315
 31
0
  0
ARC
  5
3DA
330
112
100
AcDbEntity
  8
View001
100
AcDbCircle
 10
109.411
 20
90.8135
 30
0
 40
1
100
AcDbArc
 50
-43
 51
47
  0
LINE
  5
3DB
330
112
100
AcDbEntity
  8
View001
100
AcDbLine
 10
131.949
 20
77.736
 30
0
 11
125.669
 21
87.7854
 31
0
  0
ARC
  5
3DC
330
112
100
AcDbEntity
  8
View001
100
AcDbCircle
 10
124.821
 20
87.2555
 30
0
 40
1
100
AcDbArc
 50
32
 51
122
  0
LINE
  5
3DD
330
112
100
AcDbEntity
  8
View001
100
AcDbLine
 10
124.291
 20
88.1035
 30
0
 11
114.242
 21
81.824
 31
0
  0
ARC
  5
3DE
330
112
100
AcDbEntity
  8
View001
100
AcDbCircle
 10
114.772
 20
80.9759
 30
0
 40
1
100
AcDbArc
 50
122
 51
-148
  0
LINE
  5
3DF
330
112
100
AcDbEntity
  8
View001
100
AcDbLine
 10
113.924
 20
80.446
 30
0
 11
120.204
 21
70.3967
 31
0
  0
ARC
  5
3E0
330
112
100
AcDbEntity
  8
View001
100
AcDbCircle
 10
121.052
 20
70.9266
 30
0
 40
1
100
AcDbArc
 50
-148
 51
-58
  0
LINE
  5
3E1
330
112
100
AcDbEntity
  8
View001
100
AcDbLine
 10
121.581
 20
70.0785
 30
0
 11
131.631
 21
76.3581
 31
0
  0
ARC
  5
3E2
330
112
100
AcDbEntity
  8
View001
100
AcDbCircle
 10
131.101
 20
77.2061
 30
0
 40
1
100
AcDbArc
 50
-58
 51
32
  0
LINE
  5
3E3
330
112
100
AcDbEntity
  8
View001
100
AcDbLine
 10
140.881
 20
53.7196
 30
0
 11
137.417
 21
65.0518
 31
0
  0
ARC
  5
3E4
330
112
100
AcDbEntity
  8
View001
100
AcDbCircle
 10
136.46
 20
64.7594
 30
0
 40
1
100
AcDbArc
 50
17
 51
107
  0
LINE
  5
3E5
330
112
100
AcDbEntity
  8
View001
100
AcDbLine
 10
136.168
 20
65.7157
 30
0
 11
124.836
 21
62.2511
 31
0
  0
ARC
  5
3E6
330
112
100
AcDbEntity
  8
View001
100
AcDbCircle
 10
125.128
 20
61.2948
 30
0
 40
1
100
AcDbArc
 50
107
 51
-163
  0
LINE
  5
3E7
330
112
100
AcDbEntity
  8
View001
100
AcDbLine
 10
124.172
 20
61.0025
 30
0
 11
127.636
 21
49.6702
 31
0
  0
ARC
  5
3E8
330
112
100
AcDbEntity
  8
View001
100
AcDbCircle
 10
128.593
 20
49.9626
 30
0
 40
1
100
AcDbArc
 50
-163
 51
-73
  0
LINE
  5
3E9
330
112
100
AcDbEntity
  8
View001
100
AcDbLine
 10
128.885
 20
49.0063
 30
0
 11
140.217
 21
52.4709
 31
0
  0
ARC
  5
3EA
330
112
100
AcDbEntity
  8
View001
100
AcDbCircle
 10
139.925
 20
53.4272
 30
0
 40
1
100
AcDbArc
 50
-73
 51
17
  0
LINE
  5
3EB
330
112
100
AcDbEntity
  8
View001
100
AcDbLine
 10
159.432
 20
52.4778
 30
0
 11
170.765
 21
49.0132
 31
0
  0
ARC
  5
3EC
330
112
100
AcDbEntity
  8
View001
100
AcDbCircle
 10
171.057
 20
49.9695
 30
0
 40
1
100
AcDbArc
 50
-107
 51
-17
  0
LINE
  5
3ED
330
112
100
AcDbEntity
  8
View001
100
AcDbLine
 10
172.013
 20
49.6771
 30
0
 11
175.478
 21
61.0093
 31
0
  0
ARC
  5
3EE
330
112
100
AcDbEntity
  8
View001
100
AcDbCircle
 10
174.522
 20
61.3017
 30
0
 40
1
100
AcDbArc
 50
-17
 51
73
  0
LINE
  5
3EF
330
112
100
AcDbEntity
  8
View001
100
AcDbLine
 10
174.814
 20
62.258
 30
0
 11
163.482
 21
65.7226
 31
0
  0
ARC
  5
3F0
330
112
100
AcDbEntity
  8
View001
100
AcDbCircle
 10
163.189
 20
64.7663
 30
0
 40
1
100
AcDbArc
 50
73
 51
163
  0
LINE
  5
3F1
330
112
100
AcDbEntity
  8
View001
100
AcDbLine
 10
162.233
 20
65.0587
 30
0
 11
158.768
 21
53.7265
 31
0
  0
ARC
  5
3F2
330
112
100
AcDbEntity
  8
View001
100
AcDbCircle
 10
159.725
 20
53.4341
 30
0
 40
1
100
AcDbArc
 50
163
 51
-107
  0
LINE
  5
3F3
330
112
100
AcDbEntity
  8
View001
100
AcDbLine
 10
271.414
 20
148.847
 30
0
 11
260.951
 21
143.284
 31
0
  0
ARC
  5
3F4
330
112
100
AcDbEntity
  8
View001
100
AcDbCircle
 10
261.42
 20
142.401
 30
0
 40
1
100
AcDbArc
 50
118
 51
-152
  0
LINE
  5
3F5
330
112
100
AcDbEntity
  8
View001
100
AcDbLine
 10
260.537
 20
141.932
 30
0
 11
266.101
 21
131.469
 31
0
  0
ARC
  5
3F6
330
112
100
AcDbEntity
  8
View001
100
AcDbCircle
 10
266.983
 20
131.938
 30
0
 40
1
100
AcDbArc
 50
-152
 51
-62
  0
LINE
  5
3F7
330
112
100
AcDbEntity
  8
View001
100
AcDbLine
 10
267.453
 20
131.055
 30
0
 11
277.916
 21
136.619
 31
0
  0
ARC
  5
3F8
330
112
100
AcDbEntity
  8
View001
100
AcDbCircle
 10
277.446
 20
137.501
 30
0
 40
1
100
AcDbArc
 50
-62
 51
28
  0
LINE
  5
3F9
330
112
100
AcDbEntity
  8
View001
100
AcDbLine
 10
278.329
 20
137.971
 30
0
 11
272.766
 21
148.434
 31
0
  0
ARC
  5
3FA
330
112
100
AcDbEntity
  8
View001
100
AcDbCircle
 10
271.883
 20
147.964
 30
0
 40
1
100
AcDbArc
 50
28
 51
118
  0
LINE
  5
3FB
330
112
100
AcDbEntity
  8
View001
100
AcDbLine
 10
262.47
 20
165.668
 30
0
 11
252.007
 21
160.104
 31
0
  0
ARC
  5
3FC
330
112
100
AcDbEntity
  8
View001
100
AcDbCircle
 10
252.477
 20
159.221
 30
0
 40
1
100
AcDbArc
 50
118
 51
-152
  0
LINE
  5
3FD
330
112
100
AcDbEntity
  8
View001
100
AcDbLine
 10
251.594
 20
158.752
 30
0
 11
257.157
 21
148.289
 31
0
  0
ARC
  5
3FE
330
112
100
AcDbEntity
  8
View001
100
AcDbCircle
 10
258.04
 20
148.758
 30
0
 40
1
100
AcDbArc
 50
-152
 51
-62
  0
LINE
  5
3FF
330
112
100
AcDbEntity
  8
View001
100
AcDbLine
 10
258.51
 20
147.875
 30
0
 11
268.972
 21
153.439
 31
0
  0
ARC
  5
400
330
112
100
AcDbEntity
  8
View001
100
AcDbCircle
 10
268.503
 20
154.322
 30
0
 40
1
100
AcDbArc
 50
-62
 51
28
  0
LINE
  5
401
330
112
100
AcDbEntity
  8
View001
100
AcDbLine
 10
269.386
 20
154.791
 30
0
 11
263.823
 21
165.254
 31
0
  0
ARC
  5
402
330
112
100
AcDbEntity
  8
View001
100
AcDbCircle
 10
262.94
 20
164.785
 30
0
 40
1
100
AcDbArc
 50
28
 51
118
  0
LINE
  5
403
330
112
100
AcDbEntity
  8
View001
100
AcDbLine
 10
260.442
 20
171.611
 30
0
 11
254.879
 21
182.074
 31
0
  0
ARC
  5
404
330
112
100
AcDbEntity
  8
View001
100
AcDbCircle
 10
253.996
 20
181.605
 30
0
 40
1
100
AcDbArc
 50
28
 51
118
  0
LINE
  5
405
330
112
100
AcDbEntity
  8
View001
100
AcDbLine
 10
253.527
 20
182.488
 30
0
 11
243.064
 21
176.924
 31
0
  0
ARC
  5
406
330
112
100
AcDbEntity
  8
View001
100
AcDbCircle
 10
243.533
 20
176.041
 30
0
 40
1
100
AcDbArc
 50
118
 51
-152
  0
LINE
  5
407
330
112
100
AcDbEntity
  8
View001
100
AcDbLine
 10
242.65
 20
175.572
 30
0
 11
248.214
 21
165.109
 31
0
  0
ARC
  5
408
330
112
100
AcDbEntity
  8
View001
100
AcDbCircle
 10
249.097
 20
165.579
 30
0
 40
1
100
AcDbArc
 50
-152
 51
-62
  0
LINE
  5
409
330
112
100
AcDbEntity
  8
View001
100
AcDbLine
 10
249.566
 20
164.696
 30
0
 11
260.029
 21
170.259
 31
0
  0
ARC
  5
40A
330
112
100
AcDbEntity
  8
View001
100
AcDbCircle
 10
259.56
 20
171.142
 30
0
 40
1
100
AcDbArc
 50
-62
 51
28
  0
LINE
  5
40B
330
112
100
AcDbEntity
  8
View001
100
AcDbLine
 10
243.622
 20
162.668
 30
0
 11
238.059
 21
173.131
 31
0
  0
ARC
  5
40C
330
112
100
AcDbEntity
  8
View001
100
AcDbCircle
 10
237.176
 20
172.661
 30
0
 40
1
100
AcDbArc
 50
28
 51
118
  0
LINE
  5
40D
330
112
100
AcDbEntity
  8
View001
100
AcDbLine
 10
236.707
 20
173.544
 30
0
 11
226.244
 21
167.981
 31
0
  0
ARC
  5
40E
330
112
100
AcDbEntity
  8
View001
100
AcDbCircle
 10
226.713
 20
167.098
 30
0
 40
1
100
AcDbArc
 50
118
 51
-152
  0
LINE
  5
40F
330
112
100
AcDbEntity
  8
View001
100
AcDbLine
 10
225.83
 20
166.629
 30
0
 11
231.394
 21
156.166
 31
0
  0
ARC
  5
410
330
112
100
AcDbEntity
  8
View001
100
AcDbCircle
 10
232.276
 20
156.635
 30
0
 40
1
100
AcDbArc
 50
-152
 51
-62
  0
LINE
  5
411
330
112
100
AcDbEntity
  8
View001
100
AcDbLine
 10
232.746
 20
155.752
 30
0
 11
243.209
 21
161.315
 31
0
  0
ARC
  5
412
330
112
100
AcDbEntity
  8
View001
100
AcDbCircle
 10
242.739
 20
162.198
 30
0
 40
1
100
AcDbArc
 50
-62
 51
28
  0
LINE
  5
413
330
112
100
AcDbEntity
  8
View001
100
AcDbLine
 10
254.594
 20
139.904
 30
0
 11
244.131
 21
134.341
 31
0
  0
ARC
  5
414
330
112
100
AcDbEntity
  8
View001
100
AcDbCircle
 10
244.6
 20
133.458
 30
0
 40
1
100
AcDbArc
 50
118
 51
-152
  0
LINE
  5
415
330
112
100
AcDbEntity
  8
View001
100
AcDbLine
 10
243.717
 20
132.988
 30
0
 11
249.28
 21
122.525
 31
0
  0
ARC
  5
416
330
112
100
AcDbEntity
  8
View001
100
AcDbCircle
 10
250.163
 20
122.995
 30
0
 40
1
100
AcDbArc
 50
-152
 51
-62
  0
LINE
  5
417
330
112
100
AcDbEntity
  8
View001
100
AcDbLine
 10
250.633
 20
122.112
 30
0
 11
261.096
 21
127.675
 31
0
  0
ARC
  5
418
330
112
100
AcDbEntity
  8
View001
100
AcDbCircle
 10
260.626
 20
128.558
 30
0
 40
1
100
AcDbArc
 50
-62
 51
28
  0
LINE
  5
419
330
112
100
AcDbEntity
  8
View001
100
AcDbLine
 10
261.509
 20
129.028
 30
0
 11
255.946
 21
139.49
 31
0
  0
ARC
  5
41A
330
112
100
AcDbEntity
  8
View001
100
AcDbCircle
 10
255.063
 20
139.021
 30
0
 40
1
100
AcDbArc
 50
28
 51
118
  0
LINE
  5
41B
330
112
100
AcDbEntity
  8
View001
100
AcDbLine
 10
245.65
 20
156.724
 30
0
 11
235.187
 21
151.161
 31
0
  0
ARC
  5
41C
330
112
100
AcDbEntity
  8
View001
100
AcDbCircle
 10
235.657
 20
150.278
 30
0
 40
1
100
AcDbArc
 50
118
 51
-152
  0
LINE
  5
41D
330
112
100
AcDbEntity
  8
View001
100
AcDbLine
 10
234.774
 20
149.808
 30
0
 11
240.337
 21
139.345
 31
0
  0
ARC
  5
41E
330
112
100
AcDbEntity
  8
View001
100
AcDbCircle
 10
241.22
 20
139.815
 30
0
 40
1
100
AcDbArc
 50
-152
 51
-62
  0
LINE
  5
41F
330
112
100
AcDbEntity
  8
View001
100
AcDbLine
 10
241.689
 20
138.932
 30
0
 11
252.152
 21
144.495
 31
0
  0
ARC
  5
420
330
112
100
AcDbEntity
  8
View001
100
AcDbCircle
 10
251.683
 20
145.378
 30
0
 40
1
100
AcDbArc
 50
-62
 51
28
  0
LINE
  5
421
330
112
100
AcDbEntity
  8
View001
100
AcDbLine
 10
252.566
 20
145.848
 30
0
 11
247.003
 21
156.311
 31
0
  0
ARC
  5
422
330
112
100
AcDbEntity
  8
View001
100
AcDbCircle
 10
246.12
 20
155.841
 30
0
 40
1
100
AcDbArc
 50
28
 51
118
  0
LINE
  5
423
330
112
100
AcDbEntity
  8
View001
100
AcDbLine
 10
221.192
 20
164.268
 30
0
 11
215.629
 21
174.731
 31
0
  0
ARC
  5
424
330
112
100
AcDbEntity
  8
View001
100
AcDbCircle
 10
214.746
 20
174.261
 30
0
 40
1
100
AcDbArc
 50
28
 51
118
  0
LINE
  5
425
330
112
100
AcDbEntity
  8
View001
100
AcDbLine
 10
214.277
 20
175.144
 30
0
 11
203.814
 21
169.581
 31
0
  0
ARC
  5
426
330
112
100
AcDbEntity
  8
View001
100
AcDbCircle
 10
204.283
 20
168.698
 30
0
 40
1
100
AcDbArc
 50
118
 51
-152
  0
LINE
  5
427
330
112
100
AcDbEntity
  8
View001
100
AcDbLine
 10
203.4
 20
168.229
 30
0
 11
208.964
 21
157.766
 31
0
  0
ARC
  5
428
330
112
100
AcDbEntity
  8
View001
100
AcDbCircle
 10
209.846
 20
158.235
 30
0
 40
1
100
AcDbArc
 50
-152
 51
-62
  0
LINE
  5
429
330
112
100
AcDbEntity
  8
View001
100
AcDbLine
 10
210.316
 20
157.352
 30
0
 11
220.779
 21
162.915
 31
0
  0
ARC
  5
42A
330
112
100
AcDbEntity
  8
View001
100
AcDbCircle
 10
220.309
 20
163.798
 30
0
 40
1
100
AcDbArc
 50
-62
 51
28
  0
LINE
  5
42B
330
112
100
AcDbEntity
  8
View001
100
AcDbLine
 10
223.22
 20
158.324
 30
0
 11
212.757
 21
152.761
 31
0
  0
ARC
  5
42C
330
112
100
AcDbEntity
  8
View001
100
AcDbCircle
 10
213.227
 20
151.878
 30
0
 40
1
100
AcDbArc
 50
118
 51
-152
  0
LINE
  5
42D
330
112
100
AcDbEntity
  8
View001
100
AcDbLine
 10
212.344
 20
151.408
 30
0
 11
217.907
 21
140.945
 31
0
  0
ARC
  5
42E
330
112
100
AcDbEntity
  8
View001
100
AcDbCircle
 10
218.79
 20
141.415
 30
0
 40
1
100
AcDbArc
 50
-152
 51
-62
  0
LINE
  5
42F
330
112
100
AcDbEntity
  8
View001
100
AcDbLine
 10
219.259
 20
140.532
 30
0
 11
229.722
 21
146.095
 31
0
  0
ARC
  5
430
330
112
100
AcDbEntity
  8
View001
100
AcDbCircle
 10
229.253
 20
146.978
 30
0
 40
1
100
AcDbArc
 50
-62
 51
28
  0
LINE
  5
431
330
112
100
AcDbEntity
  8
View001
100
AcDbLine
 10
230.136
 20
147.448
 30
0
 11
224.573
 21
157.911
 31
0
  0
ARC
  5
432
330
112
100
AcDbEntity
  8
View001
100
AcDbCircle
 10
223.69
 20
157.441
 30
0
 40
1
100
AcDbArc
 50
28
 51
118
  0
LINE
  5
433
330
112
100
AcDbEntity
  8
View001
100
AcDbLine
 10
232.164
 20
141.504
 30
0
 11
221.701
 21
135.941
 31
0
  0
ARC
  5
434
330
112
100
AcDbEntity
  8
View001
100
AcDbCircle
 10
222.17
 20
135.058
 30
0
 40
1
100
AcDbArc
 50
118
 51
-152
  0
LINE
  5
435
330
112
100
AcDbEntity
  8
View001
100
AcDbLine
 10
221.287
 20
134.588
 30
0
 11
226.85
 21
124.125
 31
0
  0
ARC
  5
436
330
112
100
AcDbEntity
  8
View001
100
AcDbCircle
 10
227.733
 20
124.595
 30
0
 40
1
100
AcDbArc
 50
-152
 51
-62
  0
LINE
  5
437
330
112
100
AcDbEntity
  8
View001
100
AcDbLine
 10
228.203
 20
123.712
 30
0
 11
238.666
 21
129.275
 31
0
  0
ARC
  5
438
330
112
100
AcDbEntity
  8
View001
100
AcDbCircle
 10
238.196
 20
130.158
 30
0
 40
1
100
AcDbArc
 50
-62
 51
28
  0
LINE
  5
439
330
112
100
AcDbEntity
  8
View001
100
AcDbLine
 10
239.079
 20
130.628
 30
0
 11
233.516
 21
141.09
 31
0
  0
ARC
  5
43A
330
112
100
AcDbEntity
  8
View001
100
AcDbCircle
 10
232.633
 20
140.621
 30
0
 40
1
100
AcDbArc
 50
28
 51
118
  0
LINE
  5
43B
330
112
100
AcDbEntity
  8
View001
100
AcDbLine
 10
263.537
 20
123.084
 30
0
 11
253.074
 21
117.521
 31
0
  0
ARC
  5
43C
330
112
100
AcDbEntity
  8
View001
100
AcDbCircle
 10
253.544
 20
116.638
 30
0
 40
1
100
AcDbArc
 50
118
 51
-152
  0
LINE
  5
43D
330
112
100
AcDbEntity
  8
View001
100
AcDbLine
 10
252.661
 20
116.168
 30
0
 11
258.224
 21
105.705
 31
0
  0
ARC
  5
43E
330
112
100
AcDbEntity
  8
View001
100
AcDbCircle
 10
259.107
 20
106.175
 30
0
 40
1
100
AcDbArc
 50
-152
 51
-62
  0
LINE
  5
43F
330
112
100
AcDbEntity
  8
View001
100
AcDbLine
 10
259.576
 20
105.292
 30
0
 11
270.039
 21
110.855
 31
0
  0
ARC
  5
440
330
112
100
AcDbEntity
  8
View001
100
AcDbCircle
 10
269.57
 20
111.738
 30
0
 40
1
100
AcDbArc
 50
-62
 51
28
  0
LINE
  5
441
330
112
100
AcDbEntity
  8
View001
100
AcDbLine
 10
270.453
 20
112.207
 30
0
 11
264.889
 21
122.67
 31
0
  0
ARC
  5
442
330
112
100
AcDbEntity
  8
View001
100
AcDbCircle
 10
264.006
 20
122.201
 30
0
 40
1
100
AcDbArc
 50
28
 51
118
  0
LINE
  5
443
330
112
100
AcDbEntity
  8
View001
100
AcDbLine
 10
194.657
 20
171.464
 30
0
 11
184.194
 21
165.901
 31
0
  0
ARC
  5
444
330
112
100
AcDbEntity
  8
View001
100
AcDbCircle
 10
184.663
 20
165.018
 30
0
 40
1
100
AcDbArc
 50
118
 51
-152
  0
LINE
  5
445
330
112
100
AcDbEntity
  8
View001
100
AcDbLine
 10
183.78
 20
164.549
 30
0
 11
189.344
 21
154.086
 31
0
  0
ARC
  5
446
330
112
100
AcDbEntity
  8
View001
100
AcDbCircle
 10
190.226
 20
154.555
 30
0
 40
1
100
AcDbArc
 50
-152
 51
-62
  0
LINE
  5
447
330
112
100
AcDbEntity
  8
View001
100
AcDbLine
 10
190.696
 20
153.672
 30
0
 11
201.159
 21
159.235
 31
0
  0
ARC
  5
448
330
112
100
AcDbEntity
  8
View001
100
AcDbCircle
 10
200.689
 20
160.118
 30
0
 40
1
100
AcDbArc
 50
-62
 51
28
  0
LINE
  5
449
330
112
100
AcDbEntity
  8
View001
100
AcDbLine
 10
201.572
 20
160.588
 30
0
 11
196.009
 21
171.051
 31
0
  0
ARC
  5
44A
330
112
100
AcDbEntity
  8
View001
100
AcDbCircle
 10
195.126
 20
170.581
 30
0
 40
1
100
AcDbArc
 50
28
 51
118
  0
LINE
  5
44B
330
112
100
AcDbEntity
  8
View001
100
AcDbLine
 10
203.6
 20
154.644
 30
0
 11
193.137
 21
149.081
 31
0
  0
ARC
  5
44C
330
112
100
AcDbEntity
  8
View001
100
AcDbCircle
 10
193.607
 20
148.198
 30
0
 40
1
100
AcDbArc
 50
118
 51
-152
  0
LINE
  5
44D
330
112
100
AcDbEntity
  8
View001
100
AcDbLine
 10
192.724
 20
147.728
 30
0
 11
198.287
 21
137.265
 31
0
  0
ARC
  5
44E
330
112
100
AcDbEntity
  8
View001
100
AcDbCircle
 10
199.17
 20
137.735
 30
0
 40
1
100
AcDbArc
 50
-152
 51
-62
  0
LINE
  5
44F
330
112
100
AcDbEntity
  8
View001
100
AcDbLine
 10
199.639
 20
136.852
 30
0
 11
210.102
 21
142.415
 31
0
  0
ARC
  5
450
330
112
100
AcDbEntity
  8
View001
100
AcDbCircle
 10
209.633
 20
143.298
 30
0
 40
1
100
AcDbArc
 50
-62
 51
28
  0
LINE
  5
451
330
112
100
AcDbEntity
  8
View001
100
AcDbLine
 10
210.516
 20
143.768
 30
0
 11
204.953
 21
154.231
 31
0
  0
ARC
  5
452
330
112
100
AcDbEntity
  8
View001
100
AcDbCircle
 10
204.07
 20
153.761
 30
0
 40
1
100
AcDbArc
 50
28
 51
118
  0
LINE
  5
453
330
112
100
AcDbEntity
  8
View001
100
AcDbLine
 10
212.544
 20
137.824
 30
0
 11
202.081
 21
132.261
 31
0
  0
ARC
  5
454
330
112
100
AcDbEntity
  8
View001
100
AcDbCircle
 10
202.55
 20
131.378
 30
0
 40
1
100
AcDbArc
 50
118
 51
-152
  0
LINE
  5
455
330
112
100
AcDbEntity
  8
View001
100
AcDbLine
 10
201.667
 20
130.908
 30
0
 11
207.23
 21
120.445
 31
0
  0
ARC
  5
456
330
112
100
AcDbEntity
  8
View001
100
AcDbCircle
 10
208.113
 20
120.915
 30
0
 40
1
100
AcDbArc
 50
-152
 51
-62
  0
LINE
  5
457
330
112
100
AcDbEntity
  8
View001
100
AcDbLine
 10
208.583
 20
120.032
 30
0
 11
219.046
 21
125.595
 31
0
  0
ARC
  5
458
330
112
100
AcDbEntity
  8
View001
100
AcDbCircle
 10
218.576
 20
126.478
 30
0
 40
1
100
AcDbArc
 50
-62
 51
28
  0
LINE
  5
459
330
112
100
AcDbEntity
  8
View001
100
AcDbLine
 10
219.459
 20
126.948
 30
0
 11
213.896
 21
137.41
 31
0
  0
ARC
  5
45A
330
112
100
AcDbEntity
  8
View001
100
AcDbCircle
 10
213.013
 20
136.941
 30
0
 40
1
100
AcDbArc
 50
28
 51
118
  0
LINE
  5
45B
330
112
100
AcDbEntity
  8
View001
100
AcDbLine
 10
180.877
 20
156.804
 30
0
 11
170.414
 21
151.241
 31
0
  0
ARC
  5
45C
330
112
100
AcDbEntity
  8
View001
100
AcDbCircle
 10
170.883
 20
150.358
 30
0
 40
1
100
AcDbArc
 50
118
 51
-152
  0
LINE
  5
45D
330
112
100
AcDbEntity
  8
View001
100
AcDbLine
 10
170
 20
149.889
 30
0
 11
175.564
 21
139.426
 31
0
  0
ARC
  5
45E
330
112
100
AcDbEntity
  8
View001
100
AcDbCircle
 10
176.446
 20
139.895
 30
0
 40
1
100
AcDbArc
 50
-152
 51
-62
  0
LINE
  5
45F
330
112
100
AcDbEntity
  8
View001
100
AcDbLine
 10
176.916
 20
139.012
 30
0
 11
187.379
 21
144.575
 31
0
  0
ARC
  5
460
330
112
100
AcDbEntity
  8
View001
100
AcDbCircle
 10
186.909
 20
145.458
 30
0
 40
1
100
AcDbArc
 50
-62
 51
28
  0
LINE
  5
461
330
112
100
AcDbEntity
  8
View001
100
AcDbLine
 10
187.792
 20
145.928
 30
0
 11
182.229
 21
156.391
 31
0
  0
ARC
  5
462
330
112
100
AcDbEntity
  8
View001
100
AcDbCircle
 10
181.346
 20
155.921
 30
0
 40
1
100
AcDbArc
 50
28
 51
118
  0
LINE
  5
463
330
112
100
AcDbEntity
  8
View001
100
AcDbLine
 10
165.187
 20
145.734
 30
0
 11
154.724
 21
140.171
 31
0
  0
ARC
  5
464
330
112
100
AcDbEntity
  8
View001
100
AcDbCircle
 10
155.193
 20
139.288
 30
0
 40
1
100
AcDbArc
 50
118
 51
-152
  0
LINE
  5
465
330
112
100
AcDbEntity
  8
View001
100
AcDbLine
 10
154.31
 20
138.819
 30
0
 11
159.874
 21
128.356
 31
0
  0
ARC
  5
466
330
112
100
AcDbEntity
  8
View001
100
AcDbCircle
 10
160.756
 20
128.825
 30
0
 40
1
100
AcDbArc
 50
-152
 51
-62
  0
LINE
  5
467
330
112
100
AcDbEntity
  8
View001
100
AcDbLine
 10
161.226
 20
127.942
 30
0
 11
171.689
 21
133.505
 31
0
  0
ARC
  5
468
330
112
100
AcDbEntity
  8
View001
100
AcDbCircle
 10
171.219
 20
134.388
 30
0
 40
1
100
AcDbArc
 50
-62
 51
28
  0
LINE
  5
469
330
112
100
AcDbEntity
  8
View001
100
AcDbLine
 10
172.102
 20
134.858
 30
0
 11
166.539
 21
145.321
 31
0
  0
ARC
  5
46A
330
112
100
AcDbEntity
  8
View001
100
AcDbCircle
 10
165.656
 20
144.851
 30
0
 40
1
100
AcDbArc
 50
28
 51
118
  0
LINE
  5
46B
330
112
100
AcDbEntity
  8
View001
100
AcDbLine
 10
198.764
 20
123.164
 30
0
 11
188.301
 21
117.601
 31
0
  0
ARC
  5
46C
330
112
100
AcDbEntity
  8
View001
100
AcDbCircle
 10
188.77
 20
116.718
 30
0
 40
1
100
AcDbArc
 50
118
 51
-152
  0
LINE
  5
46D
330
112
100
AcDbEntity
  8
View001
100
AcDbLine
 10
187.887
 20
116.248
 30
0
 11
193.45
 21
105.785
 31
0
  0
ARC
  5
46E
330
112
100
AcDbEntity
  8
View001
100
AcDbCircle
 10
194.333
 20
106.255
 30
0
 40
1
100
AcDbArc
 50
-152
 51
-62
  0
LINE
  5
46F
330
112
100
AcDbEntity
  8
View001
100
AcDbLine
 10
194.803
 20
105.372
 30
0
 11
205.266
 21
110.935
 31
0
  0
ARC
  5
470
330
112
100
AcDbEntity
  8
View001
100
AcDbCircle
 10
204.796
 20
111.818
 30
0
 40
1
100
AcDbArc
 50
-62
 51
28
  0
LINE
  5
471
330
112
100
AcDbEntity
  8
View001
100
AcDbLine
 10
205.679
 20
112.288
 30
0
 11
200.116
 21
122.75
 31
0
  0
ARC
  5
472
330
112
100
AcDbEntity
  8
View001
100
AcDbCircle
 10
199.233
 20
122.281
 30
0
 40
1
100
AcDbArc
 50
28
 51
118
  0
LINE
  5
473
330
112
100
AcDbEntity
  8
View001
100
AcDbLine
 10
183.074
 20
112.094
 30
0
 11
172.611
 21
106.531
 31
0
  0
ARC
  5
474
330
112
100
AcDbEntity
  8
View001
100
AcDbCircle
 10
173.08
 20
105.648
 30
0
 40
1
100
AcDbArc
 50
118
 51
-152
  0
LINE
  5
475
330
112
100
AcDbEntity
  8
View001
100
AcDbLine
 10
172.197
 20
105.178
 30
0
 11
177.76
 21
94.7153
 31
0
  0
ARC
  5
476
330
112
100
AcDbEntity
  8
View001
100
AcDbCircle
 10
178.643
 20
95.1848
 30
0
 40
1
100
AcDbArc
 50
-152
 51
-62
  0
LINE
  5
477
330
112
100
AcDbEntity
  8
View001
100
AcDbLine
 10
179.113
 20
94.3019
 30
0
 11
189.576
 21
99.8651
 31
0
  0
ARC
  5
478
330
112
100
AcDbEntity
  8
View001
100
AcDbCircle
 10
189.106
 20
100.748
 30
0
 40
1
100
AcDbArc
 50
-62
 51
28
  0
LINE
  5
479
330
112
100
AcDbEntity
  8
View001
100
AcDbLine
 10
189.989
 20
101.218
 30
0
 11
184.426
 21
111.68
 31
0
  0
ARC
  5
47A
330
112
100
AcDbEntity
  8
View001
100
AcDbCircle
 10
183.543
 20
111.211
 30
0
 40
1
100
AcDbArc
 50
28
 51
118
  0
LINE
  5
47B
330
112
100
AcDbEntity
  8
View001
100
AcDbLine
 10
174.13
 20
128.914
 30
0
 11
163.667
 21
123.351
 31
0
  0
ARC
  5
47C
330
112
100
AcDbEntity
  8
View001
100
AcDbCircle
 10
164.137
 20
122.468
 30
0
 40
1
100
AcDbArc
 50
118
 51
-152
  0
LINE
  5
47D
330
112
100
AcDbEntity
  8
View001
100
AcDbLine
 10
163.254
 20
121.998
 30
0
 11
168.817
 21
111.535
 31
0
  0
ARC
  5
47E
330
112
100
AcDbEntity
  8
View001
100
AcDbCircle
 10
169.7
 20
112.005
 30
0
 40
1
100
AcDbArc
 50
-152
 51
-62
  0
LINE
  5
47F
330
112
100
AcDbEntity
  8
View001
100
AcDbLine
 10
170.169
 20
111.122
 30
0
 11
180.632
 21
116.685
 31
0
  0
ARC
  5
480
330
112
100
AcDbEntity
  8
View001
100
AcDbCircle
 10
180.163
 20
117.568
 30
0
 40
1
100
AcDbArc
 50
-62
 51
28
  0
LINE
  5
481
330
112
100
AcDbEntity
  8
View001
100
AcDbLine
 10
181.046
 20
118.038
 30
0
 11
175.483
 21
128.501
 31
0
  0
ARC
  5
482
330
112
100
AcDbEntity
  8
View001
100
AcDbCircle
 10
174.6
 20
128.031
 30
0
 40
1
100
AcDbArc
 50
28
 51
118
  0
LINE
  5
483
330
112
100
AcDbEntity
  8
View001
100
AcDbLine
 10
189.82
 20
139.984
 30
0
 11
179.357
 21
134.421
 31
0
  0
ARC
  5
484
330
112
100
AcDbEntity
  8
View001
100
AcDbCircle
 10
179.827
 20
133.538
 30
0
 40
1
100
AcDbArc
 50
118
 51
-152
  0
LINE
  5
485
330
112
100
AcDbEntity
  8
View001
100
AcDbLine
 10
178.944
 20
133.068
 30
0
 11
184.507
 21
122.605
 31
0
  0
ARC
  5
486
330
112
100
AcDbEntity
  8
View001
100
AcDbCircle
 10
185.39
 20
123.075
 30
0
 40
1
100
AcDbArc
 50
-152
 51
-62
  0
LINE
  5
487
330
112
100
AcDbEntity
  8
View001
100
AcDbLine
 10
185.859
 20
122.192
 30
0
 11
196.322
 21
127.755
 31
0
  0
ARC
  5
488
330
112
100
AcDbEntity
  8
View001
100
AcDbCircle
 10
195.853
 20
128.638
 30
0
 40
1
100
AcDbArc
 50
-62
 51
28
  0
LINE
  5
489
330
112
100
AcDbEntity
  8
View001
100
AcDbLine
 10
196.736
 20
129.108
 30
0
 11
191.173
 21
139.571
 31
0
  0
ARC
  5
48A
330
112
100
AcDbEntity
  8
View001
100
AcDbCircle
 10
190.29
 20
139.101
 30
0
 40
1
100
AcDbArc
 50
28
 51
118
  0
LINE
  5
48B
330
112
100
AcDbEntity
  8
View001
100
AcDbLine
 10
197.599
 20
99.564
 30
0
 11
189.518
 21
90.8975
 31
0
  0
ARC
  5
48C
330
112
100
AcDbEntity
  8
View001
100
AcDbCircle
 10
190.249
 20
90.2155
 30
0
 40
1
100
AcDbArc
 50
137
 51
-133
  0
LINE
  5
48D
330
112
100
AcDbEntity
  8
View001
100
AcDbLine
 10
189.567
 20
89.4841
 30
0
 11
198.234
 21
81.4024
 31
0
  0
ARC
  5
48E
330
112
100
AcDbEntity
  8
View001
100
AcDbCircle
 10
198.916
 20
82.1338
 30
0
 40
1
100
AcDbArc
 50
-133
 51
-43
  0
LINE
  5
48F
330
112
100
AcDbEntity
  8
View001
100
AcDbLine
 10
199.647
 20
81.4518
 30
0
 11
207.729
 21
90.1183
 31
0
  0
ARC
  5
490
330
112
100
AcDbEntity
  8
View001
100
AcDbCircle
 10
206.997
 20
90.8003
 30
0
 40
1
100
AcDbArc
 50
-43
 51
47
  0
LINE
  5
491
330
112
100
AcDbEntity
  8
View001
100
AcDbLine
 10
207.679
 20
91.5317
 30
0
 11
199.013
 21
99.6134
 31
0
  0
ARC
  5
492
330
112
100
AcDbEntity
  8
View001
100
AcDbCircle
 10
198.331
 20
98.882
 30
0
 40
1
100
AcDbArc
 50
47
 51
137
  0
LINE
  5
493
330
112
100
AcDbEntity
  8
View001
100
AcDbLine
 10
185.408
 20
81.8309
 30
0
 11
175.358
 21
88.1104
 31
0
  0
ARC
  5
494
330
112
100
AcDbEntity
  8
View001
100
AcDbCircle
 10
174.828
 20
87.2624
 30
0
 40
1
100
AcDbArc
 50
58
 51
148
  0
LINE
  5
495
330
112
100
AcDbEntity
  8
View001
100
AcDbLine
 10
173.98
 20
87.7923
 30
0
 11
167.701
 21
77.7429
 31
0
  0
ARC
  5
496
330
112
100
AcDbEntity
  8
View001
100
AcDbCircle
 10
168.549
 20
77.213
 30
0
 40
1
100
AcDbArc
 50
148
 51
-122
  0
LINE
  5
497
330
112
100
AcDbEntity
  8
View001
100
AcDbLine
 10
168.019
 20
76.3649
 30
0
 11
178.068
 21
70.0854
 31
0
  0
ARC
  5
498
330
112
100
AcDbEntity
  8
View001
100
AcDbCircle
 10
178.598
 20
70.9334
 30
0
 40
1
100
AcDbArc
 50
-122
 51
-32
  0
LINE
  5
499
330
112
100
AcDbEntity
  8
View001
100
AcDbLine
 10
179.446
 20
70.4035
 30
0
 11
185.726
 21
80.4529
 31
0
  0
ARC
  5
49A
330
112
100
AcDbEntity
  8
View001
100
AcDbCircle
 10
184.878
 20
80.9828
 30
0
 40
1
100
AcDbArc
 50
-32
 51
58
  0
ENDSEC
  0
SECTION
  2
OBJECTS
  0
DICTIONARY
  5
500
330
0
100
AcDbDictionary
  3
ACAD_GROUP
350
501
  0
DICTIONARY
  5
501
330
500
100
AcDbDictionary
  0
ENDSEC
  0
EOF