999
FreeCAD v0.18 16146 (Git)
  0
SECTION
  2
HEADER
  9
$ACADVER
  1
AC1014
  9
$ACADMAINTVER
 70
     9
  9
$DWGCODEPAGE
  3
ANSI_1252
  9
$TEXTSTYLE
  7
STANDARD
  9
$DIMSTYLE
  2
STANDARD
  9
$DIMTXSTY
  7
STANDARD
  9
$CMLSTYLE
  2
STANDARD
  9
$HANDSEED
  5
FFF
  0
ENDSEC
  0
SECTION
  2
CLASSES
  0
CLASS
  1
ACDBDICTIONARYWDFLT
  2
AcDbDictionaryWithDefault
  3
ObjectDBX Classes
 90
        0
280
     0
281
     0
  0
CLASS
  1
XRECORD
  2
AcDbXrecord
  3
ObjectDBX Classes
 90
        0
280
     0
281
     0
  0
CLASS
  1
LWPOLYLINE
  2
AcDbPolyline
  3
ObjectDBX Classes
 90
        0
280
     0
281
     1
  0
ENDSEC
  0
SECTION
  2
TABLES
  0
TABLE
  2
VPORT
  5
20
330
0
100
AcDbSymbolTable
 70
     1
  0
VPORT
  5
21
330
20
100
AcDbSymbolTableRecord
100
AcDbViewportTableRecord
  2
*ACTIVE
 70
     0
  0
ENDTAB
  0
TABLE
  2
LTYPE
  5
22
330
0
100
AcDbSymbolTable
 70
     1
  0
LTYPE
  5
23
330
21
100
AcDbSymbolTableRecord
100
AcDbLinetypeTableRecord
  2
BYBLOCK
 70
     0
  3

 72
    65
 73
     0
 40
0.0
  0
LTYPE
  5
24
330
21
100
AcDbSymbolTableRecord
100
AcDbLinetypeTableRecord
  2
BYLAYER
 70
     0
  3

 72
    65
 73
     0
 40
0.0
  0
LTYPE
  5
25
330
21
100
AcDbSymbolTableRecord
100
AcDbLinetypeTableRecord
  2
CONTINUOUS
 70
     0
  3
Solid line
 72
    65
 73
     0
 40
0.0
  0
ENDTAB
  0
TABLE
  2
LAYER
  5
31
330
0
100
AcDbSymbolTable
 70
2
  0
LAYER
  5
32
330
31
100
AcDbSymbolTableRecord
100
AcDbLayerTableRecord
  2
0
 70
   0
 62
   7
  6
CONTINUOUS
  0
LAYER
  5
33
330
31
100
AcDbSymbolTableRecord
100
AcDbLayerTableRecord
  2
View
 70
    0
 62
    7
  6
CONTINUOUS
  0
ENDTAB
  0
TABLE
  2
STYLE
  5
60
330
0
100
AcDbSymbolTable
 70
     2
  0
STYLE
  5
61
330
60
100
AcDbSymbolTableRecord
100
AcDbTextStyleTableRecord
  2
STANDARD
 70
     0
 40
0.0
 41
1.0
 50
0.0
 71
     0
 42
2.5
  3
arial.ttf
  4

  0
STYLE
  5
62
330
60
100
AcDbSymbolTableRecord
100
AcDbTextStyleTableRecord
  2
ANNOTATIVE
 70
     0
 40
0.0
 41
1.0
 50
0.0
 71
     0
 42
2.5
  3
arial.ttf
  4

  0
ENDTAB
  0
TABLE
  2
VIEW
  5
63
330
0
100
AcDbSymbolTable
 70
     0
  0
ENDTAB
  0
TABLE
  2
UCS
  5
64
330
0
100
AcDbSymbolTable
 70
     0
  0
ENDTAB
  0
TABLE
  2
APPID
  5
65
330
0
100
AcDbSymbolTable
 70
     2
  0
APPID
  5
66
330
65
100
AcDbSymbolTableRecord
100
AcDbRegAppTableRecord
  2
ACAD
 70
     0
  0
APPID
  5
67
330
65
100
AcDbSymbolTableRecord
100
AcDbRegAppTableRecord
  2
ACADANNOTATIVE
 70
     0
  0
ENDTAB
  0
TABLE
  2
DIMSTYLE
  5
68
330
0
100
AcDbSymbolTable
 70
     2
  0
DIMSTYLE
105
69
330
68
100
AcDbSymbolTableRecord
100
AcDbDimStyleTableRecord
  2
STANDARD
 70
     0
  3

  4

  5

  6

  7

 40
0.0
 41
2.5
 42
0.625
 43
3.75
 44
1.25
 45
0.0
 46
0.0
 47
0.0
 48
0.0
140
2.5
141
2.5
142
0.0
143
0.03937007874016
144
1.0
145
0.0
146
1.0
147
0.625
 71
     0
 72
     0
 73
     0
 74
     0
 75
     0
 76
     0
 77
     1
 78
     8
170
     0
171
     3
172
     1
173
     0
174
     0
175
     0
176
     0
177
     0
178
     0
270
     2
271
     2
272
     2
273
     2
274
     3
340
61
275
     0
280
     0
281
     0
282
     0
283
     0
284
     8
285
     0
286
     0
287
     3
288
     0
  0
ENDTAB
  0
TABLE
  2
BLOCK_RECORD
  5
111
330
0
100
AcDbSymbolTable
  70
5
  0
BLOCK_RECORD
  5
112
330
111
100
AcDbSymbolTableRecord
100
AcDbBlockTableRecord
  2
*MODEL_SPACE
  0
BLOCK_RECORD
  5
113
330
111
100
AcDbSymbolTableRecord
100
AcDbBlockTableRecord
  2
*PAPER_SPACE
  0
ENDTAB
  0
ENDSEC
  0
SECTION
  2
BLOCKS
  0
BLOCK
  5
211
330
112
100
AcDbEntity
  8
0
100
AcDbBlockBegin
  2
*MODEL_SPACE
 70
   0
 10
0
 20
0
 30
0
  3
*MODEL_SPACE
  1
 
  0
ENDBLK
  5
212
330
112
100
AcDbEntity
  8
0
100
AcDbBlockEnd
  0
BLOCK
  5
213
330
113
100
AcDbEntity
 67
1
  8
0
100
AcDbBlockBegin
  2
*PAPER_SPACE
 70
   0
 10
0
 20
0
 30
0
  3
*PAPER_SPACE
  1
 
  0
ENDBLK
  5
214
330
113
100
AcDbEntity
 67
    1
  8
0
100
AcDbBlockEnd
  0
ENDSEC
  0
SECTION
  2
ENTITIES
  0
LINE
  5
301
330
112
100
AcDbEntity
  8
View
100
AcDbLine
 10
101.061
 20
90.5571
 30
0
 11
109.245
 21
99.3334
 31
0
  0
ARC
  5
302
330
112
100
AcDbEntity
  8
View
100
AcDbCircle
 10
100.329
 20
91.2391
 30
0
 40
1
100
AcDbArc
 50
-133
 51
-43
  0
ARC
  5
303
330
112
100
AcDbEntity
  8
View
100
AcDbCircle
 10
108.513
 20
100.015
 30
0
 40
1
100
AcDbArc
 50
-43
 51
47
  0
LINE
  5
304
330
112
100
AcDbEntity
  8
View
100
AcDbLine
 10
90.871
 20
98.6918
 30
0
 11
99.6472
 21
90.5078
 31
0
  0
LINE
  5
305
330
112
100
AcDbEntity
  8
View
100
AcDbLine
 10
109.195
 20
100.747
 30
0
 11
100.419
 21
108.931
 31
0
  0
ARC
  5
306
330
112
100
AcDbEntity
  8
View
100
AcDbCircle
 10
91.553
 20
99.4231
 30
0
 40
1
100
AcDbArc
 50
137
 51
-133
  0
ARC
  5
307
330
112
100
AcDbEntity
  8
View
100
AcDbCircle
 10
99.737
 20
108.199
 30
0
 40
1
100
AcDbArc
 50
47
 51
137
  0
LINE
  5
308
330
112
100
AcDbEntity
  8
View
100
AcDbLine
 10
99.0056
 20
108.881
 30
0
 11
90.8216
 21
100.105
 31
0
  0
LINE
  5
309
330
112
100
AcDbEntity
  8
View
100
AcDbLine
 10
15.3582
 20
142.944
 30
0
 11
42.72
 21
194.404
 31
0
  0
ARC
  5
30A
330
112
100
AcDbEntity
  8
View
100
AcDbCircle
 10
44.9274
 20
193.23
 30
0
 40
2.5
100
AcDbArc
 50
78.832
 51
152
  0
LINE
  5
30B
330
112
100
AcDbEntity
  8
View
100
AcDbLine
 10
45.4116
 20
195.683
 30
0
 11
123.866
 21
180.194
 31
0
  0
ARC
  5
30C
330
112
100
AcDbEntity
  8
View
100
AcDbCircle
 10
126.233
 20
192.183
 30
0
 40
12.2203
100
AcDbArc
 50
-101.168
 51
-5.33029e-13
  0
LINE
  5
30D
330
112
100
AcDbEntity
  8
View
100
AcDbLine
 10
138.453
 20
192.183
 30
0
 11
138.453
 21
194.683
 31
0
  0
ARC
  5
30E
330
112
100
AcDbEntity
  8
View
100
AcDbCircle
 10
139.453
 20
194.683
 30
0
 40
1
100
AcDbArc
 50
90
 51
180
  0
LINE
  5
30F
330
112
100
AcDbEntity
  8
View
100
AcDbLine
 10
139.453
 20
195.683
 30
0
 11
158.233
 21
195.683
 31
0
  0
ARC
  5
310
330
112
100
AcDbEntity
  8
View
100
AcDbCircle
 10
158.233
 20
194.683
 30
0
 40
1
100
AcDbArc
 50
0
 51
90
  0
LINE
  5
311
330
112
100
AcDbEntity
  8
View
100
AcDbLine
 10
159.233
 20
192.183
 30
0
 11
159.233
 21
194.683
 31
0
  0
ARC
  5
312
330
112
100
AcDbEntity
  8
View
100
AcDbCircle
 10
171.454
 20
192.183
 30
0
 40
12.2203
100
AcDbArc
 50
180
 51
-78.832
  0
LINE
  5
313
330
112
100
AcDbEntity
  8
View
100
AcDbLine
 10
173.82
 20
180.194
 30
0
 11
252.275
 21
195.683
 31
0
  0
ARC
  5
314
330
112
100
AcDbEntity
  8
View
100
AcDbCircle
 10
252.759
 20
193.23
 30
0
 40
2.5
100
AcDbArc
 50
28
 51
101.168
  0
LINE
  5
315
330
112
100
AcDbEntity
  8
View
100
AcDbLine
 10
282.328
 20
142.944
 30
0
 11
254.966
 21
194.404
 31
0
  0
ARC
  5
316
330
112
100
AcDbEntity
  8
View
100
AcDbCircle
 10
262.446
 20
132.372
 30
0
 40
22.5184
100
AcDbArc
 50
-84.1056
 51
28
  0
ARC
  5
317
330
112
100
AcDbEntity
  8
View
100
AcDbCircle
 10
276.365
 20
-2.4516
 30
0
 40
113.022
100
AcDbArc
 50
95.8944
 51
150.055
  0
ARC
  5
318
330
112
100
AcDbEntity
  8
View
100
AcDbCircle
 10
176.264
 20
55.2131
 30
0
 40
2.5
100
AcDbArc
 50
-109.606
 51
-29.9448
  0
ARC
  5
319
330
112
100
AcDbEntity
  8
View
100
AcDbCircle
 10
148.843
 20
-21.769
 30
0
 40
79.22
100
AcDbArc
 50
70.3941
 51
109.606
  0
ARC
  5
31A
330
112
100
AcDbEntity
  8
View
100
AcDbCircle
 10
121.422
 20
55.2131
 30
0
 40
2.5
100
AcDbArc
 50
-150.055
 51
-70.3941
  0
ARC
  5
31B
330
112
100
AcDbEntity
  8
View
100
AcDbCircle
 10
21.3214
 20
-2.4516
 30
0
 40
113.022
100
AcDbArc
 50
29.9448
 51
84.1056
  0
ARC
  5
31C
330
112
100
AcDbEntity
  8
View
100
AcDbCircle
 10
35.2408
 20
132.372
 30
0
 40
22.5184
100
AcDbArc
 50
152
 51
-95.8944
  0
CIRCLE
  5
31D
330
112
100
AcDbEntity
  8
View
100
AcDbCircle
 10
71.8832
 20
185.113
 40
1.2
  0
CIRCLE
  5
31E
330
112
100
AcDbEntity
  8
View
100
AcDbCircle
 10
225.803
 20
185.113
 40
1.2
  0
CIRCLE
  5
31F
330
112
100
AcDbEntity
  8
View
100
AcDbCircle
 10
148.843
 20
84.4531
 40
1.2
  0
CIRCLE
  5
320
330
112
100
AcDbEntity
  8
View
100
AcDbCircle
 10
221.363
 20
115.643
 40
1.2
  0
CIRCLE
  5
321
330
112
100
AcDbEntity
  8
View
100
AcDbCircle
 10
76.3232
 20
115.643
 40
1.2
  0
CIRCLE
  5
322
330
112
100
AcDbEntity
  8
View
100
AcDbCircle
 10
168.273
 20
175.723
 40
1.2
  0
CIRCLE
  5
323
330
112
100
AcDbEntity
  8
View
100
AcDbCircle
 10
129.413
 20
175.723
 40
1.2
  0
CIRCLE
  5
324
330
112
100
AcDbEntity
  8
View
100
AcDbCircle
 10
277.393
 20
132.343
 40
1.2
  0
CIRCLE
  5
325
330
112
100
AcDbEntity
  8
View
100
AcDbCircle
 10
20.2932
 20
132.343
 40
1.2
  0
LINE
  5
326
330
112
100
AcDbEntity
  8
View
100
AcDbLine
 10
206.792
 20
98.7053
 30
0
 11
198.016
 21
90.5214
 31
0
  0
ARC
  5
327
330
112
100
AcDbEntity
  8
View
100
AcDbCircle
 10
197.334
 20
91.2527
 30
0
 40
1
100
AcDbArc
 50
-137
 51
-47
  0
ARC
  5
328
330
112
100
AcDbEntity
  8
View
100
AcDbCircle
 10
206.11
 20
99.4367
 30
0
 40
1
100
AcDbArc
 50
-47
 51
43
  0
LINE
  5
329
330
112
100
AcDbEntity
  8
View
100
AcDbLine
 10
196.603
 20
90.5707
 30
0
 11
188.419
 21
99.347
 31
0
  0
LINE
  5
32A
330
112
100
AcDbEntity
  8
View
100
AcDbLine
 10
198.658
 20
108.895
 30
0
 11
206.842
 21
100.119
 31
0
  0
ARC
  5
32B
330
112
100
AcDbEntity
  8
View
100
AcDbCircle
 10
189.15
 20
100.029
 30
0
 40
1
100
AcDbArc
 50
133
 51
-137
  0
ARC
  5
32C
330
112
100
AcDbEntity
  8
View
100
AcDbCircle
 10
197.926
 20
108.213
 30
0
 40
1
100
AcDbArc
 50
43
 51
133
  0
LINE
  5
32D
330
112
100
AcDbEntity
  8
View
100
AcDbLine
 10
188.468
 20
100.76
 30
0
 11
197.244
 21
108.944
 31
0
  0
LINE
  5
32E
330
112
100
AcDbEntity
  8
View
100
AcDbLine
 10
184.846
 20
89.6917
 30
0
 11
178.487
 21
79.5151
 31
0
  0
ARC
  5
32F
330
112
100
AcDbEntity
  8
View
100
AcDbCircle
 10
177.639
 20
80.045
 30
0
 40
1
100
AcDbArc
 50
-122
 51
-32
  0
ARC
  5
330
330
112
100
AcDbEntity
  8
View
100
AcDbCircle
 10
183.998
 20
90.2216
 30
0
 40
1
100
AcDbArc
 50
-32
 51
58
  0
LINE
  5
331
330
112
100
AcDbEntity
  8
View
100
AcDbLine
 10
177.109
 20
79.197
 30
0
 11
166.932
 21
85.556
 31
0
  0
LINE
  5
332
330
112
100
AcDbEntity
  8
View
100
AcDbLine
 10
174.351
 20
97.4287
 30
0
 11
184.528
 21
91.0696
 31
0
  0
ARC
  5
333
330
112
100
AcDbEntity
  8
View
100
AcDbCircle
 10
167.462
 20
86.404
 30
0
 40
1
100
AcDbArc
 50
148
 51
-122
  0
ARC
  5
334
330
112
100
AcDbEntity
  8
View
100
AcDbCircle
 10
173.821
 20
96.5806
 30
0
 40
1
100
AcDbArc
 50
58
 51
148
  0
LINE
  5
335
330
112
100
AcDbEntity
  8
View
100
AcDbLine
 10
166.614
 20
86.934
 30
0
 11
172.973
 21
97.1105
 31
0
  0
LINE
  5
336
330
112
100
AcDbEntity
  8
View
100
AcDbLine
 10
131.049
 20
86.9104
 30
0
 11
124.69
 21
97.087
 31
0
  0
ARC
  5
337
330
112
100
AcDbEntity
  8
View
100
AcDbCircle
 10
130.201
 20
86.3805
 30
0
 40
1
100
AcDbArc
 50
-58
 51
32
  0
ARC
  5
338
330
112
100
AcDbEntity
  8
View
100
AcDbCircle
 10
123.842
 20
96.557
 30
0
 40
1
100
AcDbArc
 50
32
 51
122
  0
LINE
  5
339
330
112
100
AcDbEntity
  8
View
100
AcDbLine
 10
120.554
 20
79.1734
 30
0
 11
130.731
 21
85.5324
 31
0
  0
LINE
  5
33A
330
112
100
AcDbEntity
  8
View
100
AcDbLine
 10
123.312
 20
97.4051
 30
0
 11
113.135
 21
91.0461
 31
0
  0
ARC
  5
33B
330
112
100
AcDbEntity
  8
View
100
AcDbCircle
 10
120.024
 20
80.0214
 30
0
 40
1
100
AcDbArc
 50
-148
 51
-58
  0
ARC
  5
33C
330
112
100
AcDbEntity
  8
View
100
AcDbCircle
 10
113.665
 20
90.198
 30
0
 40
1
100
AcDbArc
 50
122
 51
-148
  0
LINE
  5
33D
330
112
100
AcDbEntity
  8
View
100
AcDbLine
 10
112.817
 20
89.6681
 30
0
 11
119.176
 21
79.4915
 31
0
  0
LINE
  5
33E
330
112
100
AcDbEntity
  8
View
100
AcDbLine
 10
32.6002
 20
140.579
 30
0
 11
38.2338
 21
151.174
 31
0
  0
ARC
  5
33F
330
112
100
AcDbEntity
  8
View
100
AcDbCircle
 10
31.7172
 20
141.048
 30
0
 40
1
100
AcDbArc
 50
-118
 51
-28
  0
ARC
  5
340
330
112
100
AcDbEntity
  8
View
100
AcDbCircle
 10
37.3509
 20
151.644
 30
0
 40
1
100
AcDbArc
 50
-28
 51
62
  0
LINE
  5
341
330
112
100
AcDbEntity
  8
View
100
AcDbLine
 10
20.6524
 20
145.799
 30
0
 11
31.2478
 21
140.165
 31
0
  0
LINE
  5
342
330
112
100
AcDbEntity
  8
View
100
AcDbLine
 10
37.8204
 20
152.527
 30
0
 11
27.225
 21
158.16
 31
0
  0
ARC
  5
343
330
112
100
AcDbEntity
  8
View
100
AcDbCircle
 10
21.1219
 20
146.682
 30
0
 40
1
100
AcDbArc
 50
152
 51
-118
  0
ARC
  5
344
330
112
100
AcDbEntity
  8
View
100
AcDbCircle
 10
26.7555
 20
157.277
 30
0
 40
1
100
AcDbArc
 50
62
 51
152
  0
LINE
  5
345
330
112
100
AcDbEntity
  8
View
100
AcDbLine
 10
25.8726
 20
157.747
 30
0
 11
20.2389
 21
147.151
 31
0
  0
LINE
  5
346
330
112
100
AcDbEntity
  8
View
100
AcDbLine
 10
271.814
 20
157.757
 30
0
 11
277.448
 21
147.161
 31
0
  0
ARC
  5
347
330
112
100
AcDbEntity
  8
View
100
AcDbCircle
 10
276.565
 20
146.692
 30
0
 40
1
100
AcDbArc
 50
-62
 51
28
  0
ARC
  5
348
330
112
100
AcDbEntity
  8
View
100
AcDbCircle
 10
270.931
 20
157.287
 30
0
 40
1
100
AcDbArc
 50
28
 51
118
  0
LINE
  5
349
330
112
100
AcDbEntity
  8
View
100
AcDbLine
 10
277.034
 20
145.809
 30
0
 11
266.439
 21
140.175
 31
0
  0
LINE
  5
34A
330
112
100
AcDbEntity
  8
View
100
AcDbLine
 10
259.866
 20
152.537
 30
0
 11
270.461
 21
158.17
 31
0
  0
ARC
  5
34B
330
112
100
AcDbEntity
  8
View
100
AcDbCircle
 10
265.969
 20
141.058
 30
0
 40
1
100
AcDbArc
 50
-152
 51
-62
  0
ARC
  5
34C
330
112
100
AcDbEntity
  8
View
100
AcDbCircle
 10
260.336
 20
151.654
 30
0
 40
1
100
AcDbArc
 50
118
 51
-152
  0
LINE
  5
34D
330
112
100
AcDbEntity
  8
View
100
AcDbLine
 10
265.086
 20
140.589
 30
0
 11
259.453
 21
151.184
 31
0
  0
LINE
  5
34E
330
112
100
AcDbEntity
  8
View
100
AcDbLine
 10
262.87
 20
174.577
 30
0
 11
268.504
 21
163.982
 31
0
  0
ARC
  5
34F
330
112
100
AcDbEntity
  8
View
100
AcDbCircle
 10
267.621
 20
163.512
 30
0
 40
1
100
AcDbArc
 50
-62
 51
28
  0
ARC
  5
350
330
112
100
AcDbEntity
  8
View
100
AcDbCircle
 10
261.988
 20
174.107
 30
0
 40
1
100
AcDbArc
 50
28
 51
118
  0
LINE
  5
351
330
112
100
AcDbEntity
  8
View
100
AcDbLine
 10
268.091
 20
162.629
 30
0
 11
257.495
 21
156.996
 31
0
  0
LINE
  5
352
330
112
100
AcDbEntity
  8
View
100
AcDbLine
 10
250.923
 20
169.357
 30
0
 11
261.518
 21
174.99
 31
0
  0
ARC
  5
353
330
112
100
AcDbEntity
  8
View
100
AcDbCircle
 10
257.026
 20
157.878
 30
0
 40
1
100
AcDbArc
 50
-152
 51
-62
  0
ARC
  5
354
330
112
100
AcDbEntity
  8
View
100
AcDbCircle
 10
251.392
 20
168.474
 30
0
 40
1
100
AcDbArc
 50
118
 51
-152
  0
LINE
  5
355
330
112
100
AcDbEntity
  8
View
100
AcDbLine
 10
256.143
 20
157.409
 30
0
 11
250.509
 21
168.004
 31
0
  0
LINE
  5
356
330
112
100
AcDbEntity
  8
View
100
AcDbLine
 10
105.25
 20
114.909
 30
0
 11
110.884
 21
125.504
 31
0
  0
ARC
  5
357
330
112
100
AcDbEntity
  8
View
100
AcDbCircle
 10
104.367
 20
115.378
 30
0
 40
1
100
AcDbArc
 50
-118
 51
-28
  0
ARC
  5
358
330
112
100
AcDbEntity
  8
View
100
AcDbCircle
 10
110.001
 20
125.974
 30
0
 40
1
100
AcDbArc
 50
-28
 51
62
  0
LINE
  5
359
330
112
100
AcDbEntity
  8
View
100
AcDbLine
 10
93.3024
 20
120.129
 30
0
 11
103.898
 21
114.495
 31
0
  0
LINE
  5
35A
330
112
100
AcDbEntity
  8
View
100
AcDbLine
 10
110.47
 20
126.857
 30
0
 11
99.875
 21
132.49
 31
0
  0
ARC
  5
35B
330
112
100
AcDbEntity
  8
View
100
AcDbCircle
 10
93.7719
 20
121.012
 30
0
 40
1
100
AcDbArc
 50
152
 51
-118
  0
ARC
  5
35C
330
112
100
AcDbEntity
  8
View
100
AcDbCircle
 10
99.4055
 20
131.607
 30
0
 40
1
100
AcDbArc
 50
62
 51
152
  0
LINE
  5
35D
330
112
100
AcDbEntity
  8
View
100
AcDbLine
 10
98.5226
 20
132.077
 30
0
 11
92.8889
 21
121.481
 31
0
  0
LINE
  5
35E
330
112
100
AcDbEntity
  8
View
100
AcDbLine
 10
120.94
 20
103.829
 30
0
 11
126.574
 21
114.424
 31
0
  0
ARC
  5
35F
330
112
100
AcDbEntity
  8
View
100
AcDbCircle
 10
120.057
 20
104.298
 30
0
 40
1
100
AcDbArc
 50
-118
 51
-28
  0
ARC
  5
360
330
112
100
AcDbEntity
  8
View
100
AcDbCircle
 10
125.691
 20
114.894
 30
0
 40
1
100
AcDbArc
 50
-28
 51
62
  0
LINE
  5
361
330
112
100
AcDbEntity
  8
View
100
AcDbLine
 10
108.992
 20
109.049
 30
0
 11
119.588
 21
103.415
 31
0
  0
LINE
  5
362
330
112
100
AcDbEntity
  8
View
100
AcDbLine
 10
126.16
 20
115.777
 30
0
 11
115.565
 21
121.41
 31
0
  0
ARC
  5
363
330
112
100
AcDbEntity
  8
View
100
AcDbCircle
 10
109.462
 20
109.932
 30
0
 40
1
100
AcDbArc
 50
152
 51
-118
  0
ARC
  5
364
330
112
100
AcDbEntity
  8
View
100
AcDbCircle
 10
115.096
 20
120.527
 30
0
 40
1
100
AcDbArc
 50
62
 51
152
  0
LINE
  5
365
330
112
100
AcDbEntity
  8
View
100
AcDbLine
 10
114.213
 20
120.997
 30
0
 11
108.579
 21
110.401
 31
0
  0
LINE
  5
366
330
112
100
AcDbEntity
  8
View
100
AcDbLine
 10
253.927
 20
191.397
 30
0
 11
259.561
 21
180.802
 31
0
  0
ARC
  5
367
330
112
100
AcDbEntity
  8
View
100
AcDbCircle
 10
258.678
 20
180.332
 30
0
 40
1
100
AcDbArc
 50
-62
 51
28
  0
ARC
  5
368
330
112
100
AcDbEntity
  8
View
100
AcDbCircle
 10
253.044
 20
190.928
 30
0
 40
1
100
AcDbArc
 50
28
 51
118
  0
LINE
  5
369
330
112
100
AcDbEntity
  8
View
100
AcDbLine
 10
259.147
 20
179.449
 30
0
 11
248.552
 21
173.816
 31
0
  0
LINE
  5
36A
330
112
100
AcDbEntity
  8
View
100
AcDbLine
 10
241.979
 20
186.177
 30
0
 11
252.575
 21
191.811
 31
0
  0
ARC
  5
36B
330
112
100
AcDbEntity
  8
View
100
AcDbCircle
 10
248.082
 20
174.699
 30
0
 40
1
100
AcDbArc
 50
-152
 51
-62
  0
ARC
  5
36C
330
112
100
AcDbEntity
  8
View
100
AcDbCircle
 10
242.449
 20
185.294
 30
0
 40
1
100
AcDbArc
 50
118
 51
-152
  0
LINE
  5
36D
330
112
100
AcDbEntity
  8
View
100
AcDbLine
 10
247.199
 20
174.229
 30
0
 11
241.566
 21
184.825
 31
0
  0
LINE
  5
36E
330
112
100
AcDbEntity
  8
View
100
AcDbLine
 10
237.107
 20
182.454
 30
0
 11
242.741
 21
171.858
 31
0
  0
ARC
  5
36F
330
112
100
AcDbEntity
  8
View
100
AcDbCircle
 10
241.858
 20
171.389
 30
0
 40
1
100
AcDbArc
 50
-62
 51
28
  0
ARC
  5
370
330
112
100
AcDbEntity
  8
View
100
AcDbCircle
 10
236.224
 20
181.984
 30
0
 40
1
100
AcDbArc
 50
28
 51
118
  0
LINE
  5
371
330
112
100
AcDbEntity
  8
View
100
AcDbLine
 10
242.327
 20
170.506
 30
0
 11
231.732
 21
164.872
 31
0
  0
LINE
  5
372
330
112
100
AcDbEntity
  8
View
100
AcDbLine
 10
225.159
 20
177.233
 30
0
 11
235.754
 21
182.867
 31
0
  0
ARC
  5
373
330
112
100
AcDbEntity
  8
View
100
AcDbCircle
 10
231.262
 20
165.755
 30
0
 40
1
100
AcDbArc
 50
-152
 51
-62
  0
ARC
  5
374
330
112
100
AcDbEntity
  8
View
100
AcDbCircle
 10
225.629
 20
176.351
 30
0
 40
1
100
AcDbArc
 50
118
 51
-152
  0
LINE
  5
375
330
112
100
AcDbEntity
  8
View
100
AcDbLine
 10
230.379
 20
165.286
 30
0
 11
224.746
 21
175.881
 31
0
  0
LINE
  5
376
330
112
100
AcDbEntity
  8
View
100
AcDbLine
 10
254.994
 20
148.813
 30
0
 11
260.627
 21
138.218
 31
0
  0
ARC
  5
377
330
112
100
AcDbEntity
  8
View
100
AcDbCircle
 10
259.744
 20
137.749
 30
0
 40
1
100
AcDbArc
 50
-62
 51
28
  0
ARC
  5
378
330
112
100
AcDbEntity
  8
View
100
AcDbCircle
 10
254.111
 20
148.344
 30
0
 40
1
100
AcDbArc
 50
28
 51
118
  0
LINE
  5
379
330
112
100
AcDbEntity
  8
View
100
AcDbLine
 10
260.214
 20
136.866
 30
0
 11
249.619
 21
131.232
 31
0
  0
LINE
  5
37A
330
112
100
AcDbEntity
  8
View
100
AcDbLine
 10
243.046
 20
143.593
 30
0
 11
253.641
 21
149.227
 31
0
  0
ARC
  5
37B
330
112
100
AcDbEntity
  8
View
100
AcDbCircle
 10
249.149
 20
132.115
 30
0
 40
1
100
AcDbArc
 50
-152
 51
-62
  0
ARC
  5
37C
330
112
100
AcDbEntity
  8
View
100
AcDbCircle
 10
243.515
 20
142.71
 30
0
 40
1
100
AcDbArc
 50
118
 51
-152
  0
LINE
  5
37D
330
112
100
AcDbEntity
  8
View
100
AcDbLine
 10
248.266
 20
131.645
 30
0
 11
242.632
 21
142.241
 31
0
  0
LINE
  5
37E
330
112
100
AcDbEntity
  8
View
100
AcDbLine
 10
40.4769
 20
114.815
 30
0
 11
46.1106
 21
125.411
 31
0
  0
ARC
  5
37F
330
112
100
AcDbEntity
  8
View
100
AcDbCircle
 10
39.594
 20
115.285
 30
0
 40
1
100
AcDbArc
 50
-118
 51
-28
  0
ARC
  5
380
330
112
100
AcDbEntity
  8
View
100
AcDbCircle
 10
45.2276
 20
125.88
 30
0
 40
1
100
AcDbArc
 50
-28
 51
62
  0
LINE
  5
381
330
112
100
AcDbEntity
  8
View
100
AcDbLine
 10
28.5291
 20
120.035
 30
0
 11
39.1245
 21
114.402
 31
0
  0
LINE
  5
382
330
112
100
AcDbEntity
  8
View
100
AcDbLine
 10
45.6971
 20
126.763
 30
0
 11
35.1017
 21
132.397
 31
0
  0
ARC
  5
383
330
112
100
AcDbEntity
  8
View
100
AcDbCircle
 10
28.9986
 20
120.918
 30
0
 40
1
100
AcDbArc
 50
152
 51
-118
  0
ARC
  5
384
330
112
100
AcDbEntity
  8
View
100
AcDbCircle
 10
34.6322
 20
131.514
 30
0
 40
1
100
AcDbArc
 50
62
 51
152
  0
LINE
  5
385
330
112
100
AcDbEntity
  8
View
100
AcDbLine
 10
33.7493
 20
131.983
 30
0
 11
28.1156
 21
121.388
 31
0
  0
LINE
  5
386
330
112
100
AcDbEntity
  8
View
100
AcDbLine
 10
214.677
 20
184.057
 30
0
 11
220.311
 21
173.462
 31
0
  0
ARC
  5
387
330
112
100
AcDbEntity
  8
View
100
AcDbCircle
 10
219.428
 20
172.992
 30
0
 40
1
100
AcDbArc
 50
-62
 51
28
  0
ARC
  5
388
330
112
100
AcDbEntity
  8
View
100
AcDbCircle
 10
213.794
 20
183.588
 30
0
 40
1
100
AcDbArc
 50
28
 51
118
  0
LINE
  5
389
330
112
100
AcDbEntity
  8
View
100
AcDbLine
 10
219.897
 20
172.109
 30
0
 11
209.302
 21
166.476
 31
0
  0
LINE
  5
38A
330
112
100
AcDbEntity
  8
View
100
AcDbLine
 10
202.729
 20
178.837
 30
0
 11
213.325
 21
184.471
 31
0
  0
ARC
  5
38B
330
112
100
AcDbEntity
  8
View
100
AcDbCircle
 10
208.832
 20
167.359
 30
0
 40
1
100
AcDbArc
 50
-152
 51
-62
  0
ARC
  5
38C
330
112
100
AcDbEntity
  8
View
100
AcDbCircle
 10
203.199
 20
177.954
 30
0
 40
1
100
AcDbArc
 50
118
 51
-152
  0
LINE
  5
38D
330
112
100
AcDbEntity
  8
View
100
AcDbLine
 10
207.949
 20
166.889
 30
0
 11
202.316
 21
177.485
 31
0
  0
LINE
  5
38E
330
112
100
AcDbEntity
  8
View
100
AcDbLine
 10
41.5436
 20
157.399
 30
0
 11
47.1773
 21
167.994
 31
0
  0
ARC
  5
38F
330
112
100
AcDbEntity
  8
View
100
AcDbCircle
 10
40.6607
 20
157.868
 30
0
 40
1
100
AcDbArc
 50
-118
 51
-28
  0
ARC
  5
390
330
112
100
AcDbEntity
  8
View
100
AcDbCircle
 10
46.2943
 20
168.464
 30
0
 40
1
100
AcDbArc
 50
-28
 51
62
  0
LINE
  5
391
330
112
100
AcDbEntity
  8
View
100
AcDbLine
 10
29.5958
 20
162.619
 30
0
 11
40.1912
 21
156.986
 31
0
  0
LINE
  5
392
330
112
100
AcDbEntity
  8
View
100
AcDbLine
 10
46.7638
 20
169.347
 30
0
 11
36.1684
 21
174.98
 31
0
  0
ARC
  5
393
330
112
100
AcDbEntity
  8
View
100
AcDbCircle
 10
30.0653
 20
163.502
 30
0
 40
1
100
AcDbArc
 50
152
 51
-118
  0
ARC
  5
394
330
112
100
AcDbEntity
  8
View
100
AcDbCircle
 10
35.699
 20
174.097
 30
0
 40
1
100
AcDbArc
 50
62
 51
152
  0
LINE
  5
395
330
112
100
AcDbEntity
  8
View
100
AcDbLine
 10
34.816
 20
174.567
 30
0
 11
29.1824
 21
163.972
 31
0
  0
LINE
  5
396
330
112
100
AcDbEntity
  8
View
100
AcDbLine
 10
183.474
 20
120.997
 30
0
 11
189.108
 21
110.401
 31
0
  0
ARC
  5
397
330
112
100
AcDbEntity
  8
View
100
AcDbCircle
 10
188.225
 20
109.932
 30
0
 40
1
100
AcDbArc
 50
-62
 51
28
  0
ARC
  5
398
330
112
100
AcDbEntity
  8
View
100
AcDbCircle
 10
182.591
 20
120.527
 30
0
 40
1
100
AcDbArc
 50
28
 51
118
  0
LINE
  5
399
330
112
100
AcDbEntity
  8
View
100
AcDbLine
 10
188.694
 20
109.049
 30
0
 11
178.099
 21
103.415
 31
0
  0
LINE
  5
39A
330
112
100
AcDbEntity
  8
View
100
AcDbLine
 10
171.526
 20
115.777
 30
0
 11
182.121
 21
121.41
 31
0
  0
ARC
  5
39B
330
112
100
AcDbEntity
  8
View
100
AcDbCircle
 10
177.629
 20
104.298
 30
0
 40
1
100
AcDbArc
 50
-152
 51
-62
  0
ARC
  5
39C
330
112
100
AcDbEntity
  8
View
100
AcDbCircle
 10
171.996
 20
114.894
 30
0
 40
1
100
AcDbArc
 50
118
 51
-152
  0
LINE
  5
39D
330
112
100
AcDbEntity
  8
View
100
AcDbLine
 10
176.746
 20
103.829
 30
0
 11
171.113
 21
114.424
 31
0
  0
LINE
  5
39E
330
112
100
AcDbEntity
  8
View
100
AcDbLine
 10
80.7936
 20
150.059
 30
0
 11
86.4273
 21
160.654
 31
0
  0
ARC
  5
39F
330
112
100
AcDbEntity
  8
View
100
AcDbCircle
 10
79.9107
 20
150.528
 30
0
 40
1
100
AcDbArc
 50
-118
 51
-28
  0
ARC
  5
3A0
330
112
100
AcDbEntity
  8
View
100
AcDbCircle
 10
85.5443
 20
161.124
 30
0
 40
1
100
AcDbArc
 50
-28
 51
62
  0
LINE
  5
3A1
330
112
100
AcDbEntity
  8
View
100
AcDbLine
 10
68.8458
 20
155.279
 30
0
 11
79.4412
 21
149.646
 31
0
  0
LINE
  5
3A2
330
112
100
AcDbEntity
  8
View
100
AcDbLine
 10
86.0138
 20
162.007
 30
0
 11
75.4184
 21
167.64
 31
0
  0
ARC
  5
3A3
330
112
100
AcDbEntity
  8
View
100
AcDbCircle
 10
69.3153
 20
156.162
 30
0
 40
1
100
AcDbArc
 50
152
 51
-118
  0
ARC
  5
3A4
330
112
100
AcDbEntity
  8
View
100
AcDbCircle
 10
74.949
 20
166.757
 30
0
 40
1
100
AcDbArc
 50
62
 51
152
  0
LINE
  5
3A5
330
112
100
AcDbEntity
  8
View
100
AcDbLine
 10
74.066
 20
167.227
 30
0
 11
68.4324
 21
156.632
 31
0
  0
LINE
  5
3A6
330
112
100
AcDbEntity
  8
View
100
AcDbLine
 10
100.414
 20
146.389
 30
0
 11
106.047
 21
156.984
 31
0
  0
ARC
  5
3A7
330
112
100
AcDbEntity
  8
View
100
AcDbCircle
 10
99.5307
 20
146.858
 30
0
 40
1
100
AcDbArc
 50
-118
 51
-28
  0
ARC
  5
3A8
330
112
100
AcDbEntity
  8
View
100
AcDbCircle
 10
105.164
 20
157.454
 30
0
 40
1
100
AcDbArc
 50
-28
 51
62
  0
LINE
  5
3A9
330
112
100
AcDbEntity
  8
View
100
AcDbLine
 10
88.4658
 20
151.609
 30
0
 11
99.0612
 21
145.976
 31
0
  0
LINE
  5
3AA
330
112
100
AcDbEntity
  8
View
100
AcDbLine
 10
105.634
 20
158.337
 30
0
 11
95.0384
 21
163.97
 31
0
  0
ARC
  5
3AB
330
112
100
AcDbEntity
  8
View
100
AcDbCircle
 10
88.9353
 20
152.492
 30
0
 40
1
100
AcDbArc
 50
152
 51
-118
  0
ARC
  5
3AC
330
112
100
AcDbEntity
  8
View
100
AcDbCircle
 10
94.569
 20
163.087
 30
0
 40
1
100
AcDbArc
 50
62
 51
152
  0
LINE
  5
3AD
330
112
100
AcDbEntity
  8
View
100
AcDbLine
 10
93.686
 20
163.557
 30
0
 11
88.0524
 21
152.962
 31
0
  0
LINE
  5
3AE
330
112
100
AcDbEntity
  8
View
100
AcDbLine
 10
123.137
 20
148.549
 30
0
 11
128.771
 21
159.145
 31
0
  0
ARC
  5
3AF
330
112
100
AcDbEntity
  8
View
100
AcDbCircle
 10
122.254
 20
149.019
 30
0
 40
1
100
AcDbArc
 50
-118
 51
-28
  0
ARC
  5
3B0
330
112
100
AcDbEntity
  8
View
100
AcDbCircle
 10
127.888
 20
159.614
 30
0
 40
1
100
AcDbArc
 50
-28
 51
62
  0
LINE
  5
3B1
330
112
100
AcDbEntity
  8
View
100
AcDbLine
 10
111.189
 20
153.769
 30
0
 11
121.785
 21
148.136
 31
0
  0
LINE
  5
3B2
330
112
100
AcDbEntity
  8
View
100
AcDbLine
 10
128.357
 20
160.497
 30
0
 11
117.762
 21
166.131
 31
0
  0
ARC
  5
3B3
330
112
100
AcDbEntity
  8
View
100
AcDbCircle
 10
111.659
 20
154.652
 30
0
 40
1
100
AcDbArc
 50
152
 51
-118
  0
ARC
  5
3B4
330
112
100
AcDbEntity
  8
View
100
AcDbCircle
 10
117.292
 20
165.248
 30
0
 40
1
100
AcDbArc
 50
62
 51
152
  0
LINE
  5
3B5
330
112
100
AcDbEntity
  8
View
100
AcDbLine
 10
116.409
 20
165.717
 30
0
 11
110.776
 21
155.122
 31
0
  0
LINE
  5
3B6
330
112
100
AcDbEntity
  8
View
100
AcDbLine
 10
114.194
 20
131.729
 30
0
 11
119.827
 21
142.324
 31
0
  0
ARC
  5
3B7
330
112
100
AcDbEntity
  8
View
100
AcDbCircle
 10
113.311
 20
132.198
 30
0
 40
1
100
AcDbArc
 50
-118
 51
-28
  0
ARC
  5
3B8
330
112
100
AcDbEntity
  8
View
100
AcDbCircle
 10
118.944
 20
142.794
 30
0
 40
1
100
AcDbArc
 50
-28
 51
62
  0
LINE
  5
3B9
330
112
100
AcDbEntity
  8
View
100
AcDbLine
 10
102.246
 20
136.949
 30
0
 11
112.841
 21
131.316
 31
0
  0
LINE
  5
3BA
330
112
100
AcDbEntity
  8
View
100
AcDbLine
 10
119.414
 20
143.677
 30
0
 11
108.818
 21
149.31
 31
0
  0
ARC
  5
3BB
330
112
100
AcDbEntity
  8
View
100
AcDbCircle
 10
102.715
 20
137.832
 30
0
 40
1
100
AcDbArc
 50
152
 51
-118
  0
ARC
  5
3BC
330
112
100
AcDbEntity
  8
View
100
AcDbCircle
 10
108.349
 20
148.427
 30
0
 40
1
100
AcDbArc
 50
62
 51
152
  0
LINE
  5
3BD
330
112
100
AcDbEntity
  8
View
100
AcDbLine
 10
107.466
 20
148.897
 30
0
 11
101.832
 21
138.302
 31
0
  0
LINE
  5
3BE
330
112
100
AcDbEntity
  8
View
100
AcDbLine
 10
232.564
 20
150.417
 30
0
 11
238.198
 21
139.821
 31
0
  0
ARC
  5
3BF
330
112
100
AcDbEntity
  8
View
100
AcDbCircle
 10
237.315
 20
139.352
 30
0
 40
1
100
AcDbArc
 50
-62
 51
28
  0
ARC
  5
3C0
330
112
100
AcDbEntity
  8
View
100
AcDbCircle
 10
231.681
 20
149.947
 30
0
 40
1
100
AcDbArc
 50
28
 51
118
  0
LINE
  5
3C1
330
112
100
AcDbEntity
  8
View
100
AcDbLine
 10
237.784
 20
138.469
 30
0
 11
227.189
 21
132.835
 31
0
  0
LINE
  5
3C2
330
112
100
AcDbEntity
  8
View
100
AcDbLine
 10
220.616
 20
145.197
 30
0
 11
231.211
 21
150.83
 31
0
  0
ARC
  5
3C3
330
112
100
AcDbEntity
  8
View
100
AcDbCircle
 10
226.719
 20
133.718
 30
0
 40
1
100
AcDbArc
 50
-152
 51
-62
  0
ARC
  5
3C4
330
112
100
AcDbEntity
  8
View
100
AcDbCircle
 10
221.086
 20
144.314
 30
0
 40
1
100
AcDbArc
 50
118
 51
-152
  0
LINE
  5
3C5
330
112
100
AcDbEntity
  8
View
100
AcDbLine
 10
225.836
 20
133.249
 30
0
 11
220.203
 21
143.844
 31
0
  0
LINE
  5
3C6
330
112
100
AcDbEntity
  8
View
100
AcDbLine
 10
204
 20
163.557
 30
0
 11
209.634
 21
152.962
 31
0
  0
ARC
  5
3C7
330
112
100
AcDbEntity
  8
View
100
AcDbCircle
 10
208.751
 20
152.492
 30
0
 40
1
100
AcDbArc
 50
-62
 51
28
  0
ARC
  5
3C8
330
112
100
AcDbEntity
  8
View
100
AcDbCircle
 10
203.118
 20
163.087
 30
0
 40
1
100
AcDbArc
 50
28
 51
118
  0
LINE
  5
3C9
330
112
100
AcDbEntity
  8
View
100
AcDbLine
 10
209.221
 20
151.609
 30
0
 11
198.625
 21
145.976
 31
0
  0
LINE
  5
3CA
330
112
100
AcDbEntity
  8
View
100
AcDbLine
 10
192.053
 20
158.337
 30
0
 11
202.648
 21
163.97
 31
0
  0
ARC
  5
3CB
330
112
100
AcDbEntity
  8
View
100
AcDbCircle
 10
198.156
 20
146.858
 30
0
 40
1
100
AcDbArc
 50
-152
 51
-62
  0
ARC
  5
3CC
330
112
100
AcDbEntity
  8
View
100
AcDbCircle
 10
192.522
 20
157.454
 30
0
 40
1
100
AcDbArc
 50
118
 51
-152
  0
LINE
  5
3CD
330
112
100
AcDbEntity
  8
View
100
AcDbLine
 10
197.273
 20
146.389
 30
0
 11
191.639
 21
156.984
 31
0
  0
LINE
  5
3CE
330
112
100
AcDbEntity
  8
View
100
AcDbLine
 10
206.216
 20
129.569
 30
0
 11
200.583
 21
140.164
 31
0
  0
ARC
  5
3CF
330
112
100
AcDbEntity
  8
View
100
AcDbCircle
 10
207.099
 20
130.038
 30
0
 40
1
100
AcDbArc
 50
-152
 51
-62
  0
ARC
  5
3D0
330
112
100
AcDbEntity
  8
View
100
AcDbCircle
 10
201.466
 20
140.634
 30
0
 40
1
100
AcDbArc
 50
118
 51
-152
  0
LINE
  5
3D1
330
112
100
AcDbEntity
  8
View
100
AcDbLine
 10
218.164
 20
134.789
 30
0
 11
207.569
 21
129.155
 31
0
  0
LINE
  5
3D2
330
112
100
AcDbEntity
  8
View
100
AcDbLine
 10
200.996
 20
141.517
 30
0
 11
211.591
 21
147.15
 31
0
  0
ARC
  5
3D3
330
112
100
AcDbEntity
  8
View
100
AcDbCircle
 10
217.695
 20
135.672
 30
0
 40
1
100
AcDbArc
 50
-62
 51
28
  0
ARC
  5
3D4
330
112
100
AcDbEntity
  8
View
100
AcDbCircle
 10
212.061
 20
146.267
 30
0
 40
1
100
AcDbArc
 50
28
 51
118
  0
LINE
  5
3D5
330
112
100
AcDbEntity
  8
View
100
AcDbLine
 10
212.944
 20
146.737
 30
0
 11
218.578
 21
136.141
 31
0
  0
LINE
  5
3D6
330
112
100
AcDbEntity
  8
View
100
AcDbLine
 10
195.057
 20
180.377
 30
0
 11
200.691
 21
169.782
 31
0
  0
ARC
  5
3D7
330
112
100
AcDbEntity
  8
View
100
AcDbCircle
 10
199.808
 20
169.312
 30
0
 40
1
100
AcDbArc
 50
-62
 51
28
  0
ARC
  5
3D8
330
112
100
AcDbEntity
  8
View
100
AcDbCircle
 10
194.174
 20
179.908
 30
0
 40
1
100
AcDbArc
 50
28
 51
118
  0
LINE
  5
3D9
330
112
100
AcDbEntity
  8
View
100
AcDbLine
 10
200.277
 20
168.429
 30
0
 11
189.682
 21
162.796
 31
0
  0
LINE
  5
3DA
330
112
100
AcDbEntity
  8
View
100
AcDbLine
 10
183.109
 20
175.157
 30
0
 11
193.705
 21
180.791
 31
0
  0
ARC
  5
3DB
330
112
100
AcDbEntity
  8
View
100
AcDbCircle
 10
189.212
 20
163.679
 30
0
 40
1
100
AcDbArc
 50
-152
 51
-62
  0
ARC
  5
3DC
330
112
100
AcDbEntity
  8
View
100
AcDbCircle
 10
183.579
 20
174.274
 30
0
 40
1
100
AcDbArc
 50
118
 51
-152
  0
LINE
  5
3DD
330
112
100
AcDbEntity
  8
View
100
AcDbLine
 10
188.329
 20
163.209
 30
0
 11
182.696
 21
173.805
 31
0
  0
LINE
  5
3DE
330
112
100
AcDbEntity
  8
View
100
AcDbLine
 10
181.277
 20
165.717
 30
0
 11
186.911
 21
155.122
 31
0
  0
ARC
  5
3DF
330
112
100
AcDbEntity
  8
View
100
AcDbCircle
 10
186.028
 20
154.652
 30
0
 40
1
100
AcDbArc
 50
-62
 51
28
  0
ARC
  5
3E0
330
112
100
AcDbEntity
  8
View
100
AcDbCircle
 10
180.394
 20
165.248
 30
0
 40
1
100
AcDbArc
 50
28
 51
118
  0
LINE
  5
3E1
330
112
100
AcDbEntity
  8
View
100
AcDbLine
 10
186.497
 20
153.769
 30
0
 11
175.902
 21
148.136
 31
0
  0
LINE
  5
3E2
330
112
100
AcDbEntity
  8
View
100
AcDbLine
 10
169.329
 20
160.497
 30
0
 11
179.925
 21
166.131
 31
0
  0
ARC
  5
3E3
330
112
100
AcDbEntity
  8
View
100
AcDbCircle
 10
175.432
 20
149.019
 30
0
 40
1
100
AcDbArc
 50
-152
 51
-62
  0
ARC
  5
3E4
330
112
100
AcDbEntity
  8
View
100
AcDbCircle
 10
169.799
 20
159.614
 30
0
 40
1
100
AcDbArc
 50
118
 51
-152
  0
LINE
  5
3E5
330
112
100
AcDbEntity
  8
View
100
AcDbLine
 10
174.549
 20
148.549
 30
0
 11
168.916
 21
159.145
 31
0
  0
LINE
  5
3E6
330
112
100
AcDbEntity
  8
View
100
AcDbLine
 10
190.22
 20
148.897
 30
0
 11
195.854
 21
138.302
 31
0
  0
ARC
  5
3E7
330
112
100
AcDbEntity
  8
View
100
AcDbCircle
 10
194.971
 20
137.832
 30
0
 40
1
100
AcDbArc
 50
-62
 51
28
  0
ARC
  5
3E8
330
112
100
AcDbEntity
  8
View
100
AcDbCircle
 10
189.338
 20
148.427
 30
0
 40
1
100
AcDbArc
 50
28
 51
118
  0
LINE
  5
3E9
330
112
100
AcDbEntity
  8
View
100
AcDbLine
 10
195.441
 20
136.949
 30
0
 11
184.845
 21
131.316
 31
0
  0
LINE
  5
3EA
330
112
100
AcDbEntity
  8
View
100
AcDbLine
 10
178.273
 20
143.677
 30
0
 11
188.868
 21
149.31
 31
0
  0
ARC
  5
3EB
330
112
100
AcDbEntity
  8
View
100
AcDbCircle
 10
184.376
 20
132.198
 30
0
 40
1
100
AcDbArc
 50
-152
 51
-62
  0
ARC
  5
3EC
330
112
100
AcDbEntity
  8
View
100
AcDbCircle
 10
178.742
 20
142.794
 30
0
 40
1
100
AcDbArc
 50
118
 51
-152
  0
LINE
  5
3ED
330
112
100
AcDbEntity
  8
View
100
AcDbLine
 10
183.493
 20
131.729
 30
0
 11
177.859
 21
142.324
 31
0
  0
LINE
  5
3EE
330
112
100
AcDbEntity
  8
View
100
AcDbLine
 10
199.164
 20
132.077
 30
0
 11
204.798
 21
121.481
 31
0
  0
ARC
  5
3EF
330
112
100
AcDbEntity
  8
View
100
AcDbCircle
 10
203.915
 20
121.012
 30
0
 40
1
100
AcDbArc
 50
-62
 51
28
  0
ARC
  5
3F0
330
112
100
AcDbEntity
  8
View
100
AcDbCircle
 10
198.281
 20
131.607
 30
0
 40
1
100
AcDbArc
 50
28
 51
118
  0
LINE
  5
3F1
330
112
100
AcDbEntity
  8
View
100
AcDbLine
 10
204.384
 20
120.129
 30
0
 11
193.789
 21
114.495
 31
0
  0
LINE
  5
3F2
330
112
100
AcDbEntity
  8
View
100
AcDbLine
 10
187.216
 20
126.857
 30
0
 11
197.811
 21
132.49
 31
0
  0
ARC
  5
3F3
330
112
100
AcDbEntity
  8
View
100
AcDbCircle
 10
193.319
 20
115.378
 30
0
 40
1
100
AcDbArc
 50
-152
 51
-62
  0
ARC
  5
3F4
330
112
100
AcDbEntity
  8
View
100
AcDbCircle
 10
187.686
 20
125.974
 30
0
 40
1
100
AcDbArc
 50
118
 51
-152
  0
LINE
  5
3F5
330
112
100
AcDbEntity
  8
View
100
AcDbLine
 10
192.436
 20
114.909
 30
0
 11
186.803
 21
125.504
 31
0
  0
LINE
  5
3F6
330
112
100
AcDbEntity
  8
View
100
AcDbLine
 10
129.884
 20
120.649
 30
0
 11
135.517
 21
131.244
 31
0
  0
ARC
  5
3F7
330
112
100
AcDbEntity
  8
View
100
AcDbCircle
 10
129.001
 20
121.118
 30
0
 40
1
100
AcDbArc
 50
-118
 51
-28
  0
ARC
  5
3F8
330
112
100
AcDbEntity
  8
View
100
AcDbCircle
 10
134.634
 20
131.714
 30
0
 40
1
100
AcDbArc
 50
-28
 51
62
  0
LINE
  5
3F9
330
112
100
AcDbEntity
  8
View
100
AcDbLine
 10
117.936
 20
125.869
 30
0
 11
128.531
 21
120.236
 31
0
  0
LINE
  5
3FA
330
112
100
AcDbEntity
  8
View
100
AcDbLine
 10
135.104
 20
132.597
 30
0
 11
124.508
 21
138.23
 31
0
  0
ARC
  5
3FB
330
112
100
AcDbEntity
  8
View
100
AcDbCircle
 10
118.405
 20
126.752
 30
0
 40
1
100
AcDbArc
 50
152
 51
-118
  0
ARC
  5
3FC
330
112
100
AcDbEntity
  8
View
100
AcDbCircle
 10
124.039
 20
137.347
 30
0
 40
1
100
AcDbArc
 50
62
 51
152
  0
LINE
  5
3FD
330
112
100
AcDbEntity
  8
View
100
AcDbLine
 10
123.156
 20
137.817
 30
0
 11
117.522
 21
127.222
 31
0
  0
LINE
  5
3FE
330
112
100
AcDbEntity
  8
View
100
AcDbLine
 10
50.4871
 20
174.219
 30
0
 11
56.1207
 21
184.815
 31
0
  0
ARC
  5
3FF
330
112
100
AcDbEntity
  8
View
100
AcDbCircle
 10
49.6041
 20
174.689
 30
0
 40
1
100
AcDbArc
 50
-118
 51
-28
  0
ARC
  5
400
330
112
100
AcDbEntity
  8
View
100
AcDbCircle
 10
55.2378
 20
185.284
 30
0
 40
1
100
AcDbArc
 50
-28
 51
62
  0
LINE
  5
401
330
112
100
AcDbEntity
  8
View
100
AcDbLine
 10
38.5393
 20
179.439
 30
0
 11
49.1346
 21
173.806
 31
0
  0
LINE
  5
402
330
112
100
AcDbEntity
  8
View
100
AcDbLine
 10
55.7072
 20
186.167
 30
0
 11
45.1119
 21
191.801
 31
0
  0
ARC
  5
403
330
112
100
AcDbEntity
  8
View
100
AcDbCircle
 10
39.0087
 20
180.322
 30
0
 40
1
100
AcDbArc
 50
152
 51
-118
  0
ARC
  5
404
330
112
100
AcDbEntity
  8
View
100
AcDbCircle
 10
44.6424
 20
190.918
 30
0
 40
1
100
AcDbArc
 50
62
 51
152
  0
LINE
  5
405
330
112
100
AcDbEntity
  8
View
100
AcDbLine
 10
43.7594
 20
191.387
 30
0
 11
38.1258
 21
180.792
 31
0
  0
LINE
  5
406
330
112
100
AcDbEntity
  8
View
100
AcDbLine
 10
89.7371
 20
166.879
 30
0
 11
95.3707
 21
177.475
 31
0
  0
ARC
  5
407
330
112
100
AcDbEntity
  8
View
100
AcDbCircle
 10
88.8541
 20
167.349
 30
0
 40
1
100
AcDbArc
 50
-118
 51
-28
  0
ARC
  5
408
330
112
100
AcDbEntity
  8
View
100
AcDbCircle
 10
94.4878
 20
177.944
 30
0
 40
1
100
AcDbArc
 50
-28
 51
62
  0
LINE
  5
409
330
112
100
AcDbEntity
  8
View
100
AcDbLine
 10
77.7893
 20
172.099
 30
0
 11
88.3846
 21
166.466
 31
0
  0
LINE
  5
40A
330
112
100
AcDbEntity
  8
View
100
AcDbLine
 10
94.9572
 20
178.827
 30
0
 11
84.3619
 21
184.461
 31
0
  0
ARC
  5
40B
330
112
100
AcDbEntity
  8
View
100
AcDbCircle
 10
78.2587
 20
172.982
 30
0
 40
1
100
AcDbArc
 50
152
 51
-118
  0
ARC
  5
40C
330
112
100
AcDbEntity
  8
View
100
AcDbCircle
 10
83.8924
 20
183.578
 30
0
 40
1
100
AcDbArc
 50
62
 51
152
  0
LINE
  5
40D
330
112
100
AcDbEntity
  8
View
100
AcDbLine
 10
83.0094
 20
184.047
 30
0
 11
77.3758
 21
173.452
 31
0
  0
LINE
  5
40E
330
112
100
AcDbEntity
  8
View
100
AcDbLine
 10
138.827
 20
137.469
 30
0
 11
144.461
 21
148.065
 31
0
  0
ARC
  5
40F
330
112
100
AcDbEntity
  8
View
100
AcDbCircle
 10
137.944
 20
137.939
 30
0
 40
1
100
AcDbArc
 50
-118
 51
-28
  0
ARC
  5
410
330
112
100
AcDbEntity
  8
View
100
AcDbCircle
 10
143.578
 20
148.534
 30
0
 40
1
100
AcDbArc
 50
-28
 51
62
  0
LINE
  5
411
330
112
100
AcDbEntity
  8
View
100
AcDbLine
 10
126.879
 20
142.689
 30
0
 11
137.475
 21
137.056
 31
0
  0
LINE
  5
412
330
112
100
AcDbEntity
  8
View
100
AcDbLine
 10
144.047
 20
149.417
 30
0
 11
133.452
 21
155.051
 31
0
  0
ARC
  5
413
330
112
100
AcDbEntity
  8
View
100
AcDbCircle
 10
127.349
 20
143.572
 30
0
 40
1
100
AcDbArc
 50
152
 51
-118
  0
ARC
  5
414
330
112
100
AcDbEntity
  8
View
100
AcDbCircle
 10
132.982
 20
154.168
 30
0
 40
1
100
AcDbArc
 50
62
 51
152
  0
LINE
  5
415
330
112
100
AcDbEntity
  8
View
100
AcDbLine
 10
132.099
 20
154.637
 30
0
 11
126.466
 21
144.042
 31
0
  0
LINE
  5
416
330
112
100
AcDbEntity
  8
View
100
AcDbLine
 10
84.7426
 20
146.737
 30
0
 11
79.1089
 21
136.141
 31
0
  0
ARC
  5
417
330
112
100
AcDbEntity
  8
View
100
AcDbCircle
 10
79.9919
 20
135.672
 30
0
 40
1
100
AcDbArc
 50
152
 51
-118
  0
ARC
  5
418
330
112
100
AcDbEntity
  8
View
100
AcDbCircle
 10
85.6255
 20
146.267
 30
0
 40
1
100
AcDbArc
 50
62
 51
152
  0
LINE
  5
419
330
112
100
AcDbEntity
  8
View
100
AcDbLine
 10
79.5224
 20
134.789
 30
0
 11
90.1178
 21
129.155
 31
0
  0
LINE
  5
41A
330
112
100
AcDbEntity
  8
View
100
AcDbLine
 10
96.6904
 20
141.517
 30
0
 11
86.095
 21
147.15
 31
0
  0
ARC
  5
41B
330
112
100
AcDbEntity
  8
View
100
AcDbCircle
 10
90.5872
 20
130.038
 30
0
 40
1
100
AcDbArc
 50
-118
 51
-28
  0
ARC
  5
41C
330
112
100
AcDbEntity
  8
View
100
AcDbCircle
 10
96.2209
 20
140.634
 30
0
 40
1
100
AcDbArc
 50
-28
 51
62
  0
LINE
  5
41D
330
112
100
AcDbEntity
  8
View
100
AcDbLine
 10
91.4702
 20
129.569
 30
0
 11
97.1038
 21
140.164
 31
0
  0
LINE
  5
41E
330
112
100
AcDbEntity
  8
View
100
AcDbLine
 10
109.357
 20
163.209
 30
0
 11
114.991
 21
173.805
 31
0
  0
ARC
  5
41F
330
112
100
AcDbEntity
  8
View
100
AcDbCircle
 10
108.474
 20
163.679
 30
0
 40
1
100
AcDbArc
 50
-118
 51
-28
  0
ARC
  5
420
330
112
100
AcDbEntity
  8
View
100
AcDbCircle
 10
114.108
 20
174.274
 30
0
 40
1
100
AcDbArc
 50
-28
 51
62
  0
LINE
  5
421
330
112
100
AcDbEntity
  8
View
100
AcDbLine
 10
97.4093
 20
168.429
 30
0
 11
108.005
 21
162.796
 31
0
  0
LINE
  5
422
330
112
100
AcDbEntity
  8
View
100
AcDbLine
 10
114.577
 20
175.157
 30
0
 11
103.982
 21
180.791
 31
0
  0
ARC
  5
423
330
112
100
AcDbEntity
  8
View
100
AcDbCircle
 10
97.8787
 20
169.312
 30
0
 40
1
100
AcDbArc
 50
152
 51
-118
  0
ARC
  5
424
330
112
100
AcDbEntity
  8
View
100
AcDbCircle
 10
103.512
 20
179.908
 30
0
 40
1
100
AcDbArc
 50
62
 51
152
  0
LINE
  5
425
330
112
100
AcDbEntity
  8
View
100
AcDbLine
 10
102.629
 20
180.377
 30
0
 11
96.9958
 21
169.782
 31
0
  0
LINE
  5
426
330
112
100
AcDbEntity
  8
View
100
AcDbLine
 10
174.53
 20
137.817
 30
0
 11
180.164
 21
127.222
 31
0
  0
ARC
  5
427
330
112
100
AcDbEntity
  8
View
100
AcDbCircle
 10
179.281
 20
126.752
 30
0
 40
1
100
AcDbArc
 50
-62
 51
28
  0
ARC
  5
428
330
112
100
AcDbEntity
  8
View
100
AcDbCircle
 10
173.648
 20
137.347
 30
0
 40
1
100
AcDbArc
 50
28
 51
118
  0
LINE
  5
429
330
112
100
AcDbEntity
  8
View
100
AcDbLine
 10
179.751
 20
125.869
 30
0
 11
169.155
 21
120.236
 31
0
  0
LINE
  5
42A
330
112
100
AcDbEntity
  8
View
100
AcDbLine
 10
162.583
 20
132.597
 30
0
 11
173.178
 21
138.23
 31
0
  0
ARC
  5
42B
330
112
100
AcDbEntity
  8
View
100
AcDbCircle
 10
168.686
 20
121.118
 30
0
 40
1
100
AcDbArc
 50
-152
 51
-62
  0
ARC
  5
42C
330
112
100
AcDbEntity
  8
View
100
AcDbCircle
 10
163.052
 20
131.714
 30
0
 40
1
100
AcDbArc
 50
118
 51
-152
  0
LINE
  5
42D
330
112
100
AcDbEntity
  8
View
100
AcDbLine
 10
167.803
 20
120.649
 30
0
 11
162.169
 21
131.244
 31
0
  0
LINE
  5
42E
330
112
100
AcDbEntity
  8
View
100
AcDbLine
 10
165.587
 20
154.637
 30
0
 11
171.221
 21
144.042
 31
0
  0
ARC
  5
42F
330
112
100
AcDbEntity
  8
View
100
AcDbCircle
 10
170.338
 20
143.572
 30
0
 40
1
100
AcDbArc
 50
-62
 51
28
  0
ARC
  5
430
330
112
100
AcDbEntity
  8
View
100
AcDbCircle
 10
164.704
 20
154.168
 30
0
 40
1
100
AcDbArc
 50
28
 51
118
  0
LINE
  5
431
330
112
100
AcDbEntity
  8
View
100
AcDbLine
 10
170.807
 20
142.689
 30
0
 11
160.212
 21
137.056
 31
0
  0
LINE
  5
432
330
112
100
AcDbEntity
  8
View
100
AcDbLine
 10
153.639
 20
149.417
 30
0
 11
164.235
 21
155.051
 31
0
  0
ARC
  5
433
330
112
100
AcDbEntity
  8
View
100
AcDbCircle
 10
159.742
 20
137.939
 30
0
 40
1
100
AcDbArc
 50
-152
 51
-62
  0
ARC
  5
434
330
112
100
AcDbEntity
  8
View
100
AcDbCircle
 10
154.109
 20
148.534
 30
0
 40
1
100
AcDbArc
 50
118
 51
-152
  0
LINE
  5
435
330
112
100
AcDbEntity
  8
View
100
AcDbLine
 10
158.859
 20
137.469
 30
0
 11
153.226
 21
148.065
 31
0
  0
LINE
  5
436
330
112
100
AcDbEntity
  8
View
100
AcDbLine
 10
67.3072
 20
165.276
 30
0
 11
72.9409
 21
175.871
 31
0
  0
ARC
  5
437
330
112
100
AcDbEntity
  8
View
100
AcDbCircle
 10
66.4243
 20
165.745
 30
0
 40
1
100
AcDbArc
 50
-118
 51
-28
  0
ARC
  5
438
330
112
100
AcDbEntity
  8
View
100
AcDbCircle
 10
72.0579
 20
176.341
 30
0
 40
1
100
AcDbArc
 50
-28
 51
62
  0
LINE
  5
439
330
112
100
AcDbEntity
  8
View
100
AcDbLine
 10
55.3594
 20
170.496
 30
0
 11
65.9548
 21
164.862
 31
0
  0
LINE
  5
43A
330
112
100
AcDbEntity
  8
View
100
AcDbLine
 10
72.5274
 20
177.223
 30
0
 11
61.932
 21
182.857
 31
0
  0
ARC
  5
43B
330
112
100
AcDbEntity
  8
View
100
AcDbCircle
 10
55.8289
 20
171.379
 30
0
 40
1
100
AcDbArc
 50
152
 51
-118
  0
ARC
  5
43C
330
112
100
AcDbEntity
  8
View
100
AcDbCircle
 10
61.4625
 20
181.974
 30
0
 40
1
100
AcDbArc
 50
62
 51
152
  0
LINE
  5
43D
330
112
100
AcDbEntity
  8
View
100
AcDbLine
 10
60.5796
 20
182.444
 30
0
 11
54.9459
 21
171.848
 31
0
  0
LINE
  5
43E
330
112
100
AcDbEntity
  8
View
100
AcDbLine
 10
58.3638
 20
148.456
 30
0
 11
63.9974
 21
159.051
 31
0
  0
ARC
  5
43F
330
112
100
AcDbEntity
  8
View
100
AcDbCircle
 10
57.4808
 20
148.925
 30
0
 40
1
100
AcDbArc
 50
-118
 51
-28
  0
ARC
  5
440
330
112
100
AcDbEntity
  8
View
100
AcDbCircle
 10
63.1145
 20
159.52
 30
0
 40
1
100
AcDbArc
 50
-28
 51
62
  0
LINE
  5
441
330
112
100
AcDbEntity
  8
View
100
AcDbLine
 10
46.416
 20
153.676
 30
0
 11
57.0113
 21
148.042
 31
0
  0
LINE
  5
442
330
112
100
AcDbEntity
  8
View
100
AcDbLine
 10
63.584
 20
160.403
 30
0
 11
52.9886
 21
166.037
 31
0
  0
ARC
  5
443
330
112
100
AcDbEntity
  8
View
100
AcDbCircle
 10
46.8854
 20
154.559
 30
0
 40
1
100
AcDbArc
 50
152
 51
-118
  0
ARC
  5
444
330
112
100
AcDbEntity
  8
View
100
AcDbCircle
 10
52.5191
 20
165.154
 30
0
 40
1
100
AcDbArc
 50
62
 51
152
  0
LINE
  5
445
330
112
100
AcDbEntity
  8
View
100
AcDbLine
 10
51.6362
 20
165.624
 30
0
 11
46.0025
 21
155.028
 31
0
  0
LINE
  5
446
330
112
100
AcDbEntity
  8
View
100
AcDbLine
 10
49.4203
 20
131.635
 30
0
 11
55.054
 21
142.231
 31
0
  0
ARC
  5
447
330
112
100
AcDbEntity
  8
View
100
AcDbCircle
 10
48.5374
 20
132.105
 30
0
 40
1
100
AcDbArc
 50
-118
 51
-28
  0
ARC
  5
448
330
112
100
AcDbEntity
  8
View
100
AcDbCircle
 10
54.171
 20
142.7
 30
0
 40
1
100
AcDbArc
 50
-28
 51
62
  0
LINE
  5
449
330
112
100
AcDbEntity
  8
View
100
AcDbLine
 10
37.4725
 20
136.856
 30
0
 11
48.0679
 21
131.222
 31
0
  0
LINE
  5
44A
330
112
100
AcDbEntity
  8
View
100
AcDbLine
 10
54.6405
 20
143.583
 30
0
 11
44.0451
 21
149.217
 31
0
  0
ARC
  5
44B
330
112
100
AcDbEntity
  8
View
100
AcDbCircle
 10
37.942
 20
137.739
 30
0
 40
1
100
AcDbArc
 50
152
 51
-118
  0
ARC
  5
44C
330
112
100
AcDbEntity
  8
View
100
AcDbCircle
 10
43.5757
 20
148.334
 30
0
 40
1
100
AcDbArc
 50
62
 51
152
  0
LINE
  5
44D
330
112
100
AcDbEntity
  8
View
100
AcDbLine
 10
42.6927
 20
148.803
 30
0
 11
37.0591
 21
138.208
 31
0
  0
LINE
  5
44E
330
112
100
AcDbEntity
  8
View
100
AcDbLine
 10
263.937
 20
131.993
 30
0
 11
269.571
 21
121.398
 31
0
  0
ARC
  5
44F
330
112
100
AcDbEntity
  8
View
100
AcDbCircle
 10
268.688
 20
120.928
 30
0
 40
1
100
AcDbArc
 50
-62
 51
28
  0
ARC
  5
450
330
112
100
AcDbEntity
  8
View
100
AcDbCircle
 10
263.054
 20
131.524
 30
0
 40
1
100
AcDbArc
 50
28
 51
118
  0
LINE
  5
451
330
112
100
AcDbEntity
  8
View
100
AcDbLine
 10
269.157
 20
120.045
 30
0
 11
258.562
 21
114.412
 31
0
  0
LINE
  5
452
330
112
100
AcDbEntity
  8
View
100
AcDbLine
 10
251.989
 20
126.773
 30
0
 11
262.585
 21
132.407
 31
0
  0
ARC
  5
453
330
112
100
AcDbEntity
  8
View
100
AcDbCircle
 10
258.093
 20
115.295
 30
0
 40
1
100
AcDbArc
 50
-152
 51
-62
  0
ARC
  5
454
330
112
100
AcDbEntity
  8
View
100
AcDbCircle
 10
252.459
 20
125.89
 30
0
 40
1
100
AcDbArc
 50
118
 51
-152
  0
LINE
  5
455
330
112
100
AcDbEntity
  8
View
100
AcDbLine
 10
257.21
 20
114.825
 30
0
 11
251.576
 21
125.421
 31
0
  0
LINE
  5
456
330
112
100
AcDbEntity
  8
View
100
AcDbLine
 10
71.8502
 20
133.239
 30
0
 11
77.4838
 21
143.834
 31
0
  0
ARC
  5
457
330
112
100
AcDbEntity
  8
View
100
AcDbCircle
 10
70.9672
 20
133.708
 30
0
 40
1
100
AcDbArc
 50
-118
 51
-28
  0
ARC
  5
458
330
112
100
AcDbEntity
  8
View
100
AcDbCircle
 10
76.6009
 20
144.304
 30
0
 40
1
100
AcDbArc
 50
-28
 51
62
  0
LINE
  5
459
330
112
100
AcDbEntity
  8
View
100
AcDbLine
 10
59.9024
 20
138.459
 30
0
 11
70.4978
 21
132.825
 31
0
  0
LINE
  5
45A
330
112
100
AcDbEntity
  8
View
100
AcDbLine
 10
77.0704
 20
145.187
 30
0
 11
66.475
 21
150.82
 31
0
  0
ARC
  5
45B
330
112
100
AcDbEntity
  8
View
100
AcDbCircle
 10
60.3719
 20
139.342
 30
0
 40
1
100
AcDbArc
 50
152
 51
-118
  0
ARC
  5
45C
330
112
100
AcDbEntity
  8
View
100
AcDbCircle
 10
66.0055
 20
149.937
 30
0
 40
1
100
AcDbArc
 50
62
 51
152
  0
LINE
  5
45D
330
112
100
AcDbEntity
  8
View
100
AcDbLine
 10
65.1226
 20
150.407
 30
0
 11
59.4889
 21
139.811
 31
0
  0
LINE
  5
45E
330
112
100
AcDbEntity
  8
View
100
AcDbLine
 10
223.62
 20
167.237
 30
0
 11
229.254
 21
156.642
 31
0
  0
ARC
  5
45F
330
112
100
AcDbEntity
  8
View
100
AcDbCircle
 10
228.371
 20
156.172
 30
0
 40
1
100
AcDbArc
 50
-62
 51
28
  0
ARC
  5
460
330
112
100
AcDbEntity
  8
View
100
AcDbCircle
 10
222.738
 20
166.767
 30
0
 40
1
100
AcDbArc
 50
28
 51
118
  0
LINE
  5
461
330
112
100
AcDbEntity
  8
View
100
AcDbLine
 10
228.841
 20
155.289
 30
0
 11
218.245
 21
149.656
 31
0
  0
LINE
  5
462
330
112
100
AcDbEntity
  8
View
100
AcDbLine
 10
211.673
 20
162.017
 30
0
 11
222.268
 21
167.65
 31
0
  0
ARC
  5
463
330
112
100
AcDbEntity
  8
View
100
AcDbCircle
 10
217.776
 20
150.538
 30
0
 40
1
100
AcDbArc
 50
-152
 51
-62
  0
ARC
  5
464
330
112
100
AcDbEntity
  8
View
100
AcDbCircle
 10
212.142
 20
161.134
 30
0
 40
1
100
AcDbArc
 50
118
 51
-152
  0
LINE
  5
465
330
112
100
AcDbEntity
  8
View
100
AcDbLine
 10
216.893
 20
150.069
 30
0
 11
211.259
 21
160.664
 31
0
  0
LINE
  5
466
330
112
100
AcDbEntity
  8
View
100
AcDbLine
 10
246.05
 20
165.634
 30
0
 11
251.684
 21
155.038
 31
0
  0
ARC
  5
467
330
112
100
AcDbEntity
  8
View
100
AcDbCircle
 10
250.801
 20
154.569
 30
0
 40
1
100
AcDbArc
 50
-62
 51
28
  0
ARC
  5
468
330
112
100
AcDbEntity
  8
View
100
AcDbCircle
 10
245.167
 20
165.164
 30
0
 40
1
100
AcDbArc
 50
28
 51
118
  0
LINE
  5
469
330
112
100
AcDbEntity
  8
View
100
AcDbLine
 10
251.271
 20
153.686
 30
0
 11
240.675
 21
148.052
 31
0
  0
LINE
  5
46A
330
112
100
AcDbEntity
  8
View
100
AcDbLine
 10
234.103
 20
160.413
 30
0
 11
244.698
 21
166.047
 31
0
  0
ARC
  5
46B
330
112
100
AcDbEntity
  8
View
100
AcDbCircle
 10
240.206
 20
148.935
 30
0
 40
1
100
AcDbArc
 50
-152
 51
-62
  0
ARC
  5
46C
330
112
100
AcDbEntity
  8
View
100
AcDbCircle
 10
234.572
 20
159.53
 30
0
 40
1
100
AcDbArc
 50
118
 51
-152
  0
LINE
  5
46D
330
112
100
AcDbEntity
  8
View
100
AcDbLine
 10
239.323
 20
148.466
 30
0
 11
233.689
 21
159.061
 31
0
  0
LINE
  5
46E
330
112
100
AcDbEntity
  8
View
100
AcDbLine
 10
174.588
 20
70.274
 30
0
 11
171.08
 21
58.7984
 31
0
  0
ARC
  5
46F
330
112
100
AcDbEntity
  8
View
100
AcDbCircle
 10
170.124
 20
59.0908
 30
0
 40
1
100
AcDbArc
 50
-107
 51
-17
  0
ARC
  5
470
330
112
100
AcDbEntity
  8
View
100
AcDbCircle
 10
173.632
 20
70.5664
 30
0
 40
1
100
AcDbArc
 50
-17
 51
73
  0
LINE
  5
471
330
112
100
AcDbEntity
  8
View
100
AcDbLine
 10
169.831
 20
58.1345
 30
0
 11
158.356
 21
61.6429
 31
0
  0
LINE
  5
472
330
112
100
AcDbEntity
  8
View
100
AcDbLine
 10
162.449
 20
75.0312
 30
0
 11
173.925
 21
71.5227
 31
0
  0
ARC
  5
473
330
112
100
AcDbEntity
  8
View
100
AcDbCircle
 10
158.648
 20
62.5992
 30
0
 40
1
100
AcDbArc
 50
163
 51
-107
  0
ARC
  5
474
330
112
100
AcDbEntity
  8
View
100
AcDbCircle
 10
162.157
 20
74.0749
 30
0
 40
1
100
AcDbArc
 50
73
 51
163
  0
LINE
  5
475
330
112
100
AcDbEntity
  8
View
100
AcDbLine
 10
157.692
 20
62.8916
 30
0
 11
161.2
 21
74.3673
 31
0
  0
LINE
  5
476
330
112
100
AcDbEntity
  8
View
100
AcDbLine
 10
139.971
 20
62.868
 30
0
 11
136.463
 21
74.3437
 31
0
  0
ARC
  5
477
330
112
100
AcDbEntity
  8
View
100
AcDbCircle
 10
139.015
 20
62.5756
 30
0
 40
1
100
AcDbArc
 50
-73
 51
17
  0
ARC
  5
478
330
112
100
AcDbEntity
  8
View
100
AcDbCircle
 10
135.507
 20
74.0513
 30
0
 40
1
100
AcDbArc
 50
17
 51
107
  0
LINE
  5
479
330
112
100
AcDbEntity
  8
View
100
AcDbLine
 10
127.832
 20
58.1109
 30
0
 11
139.308
 21
61.6193
 31
0
  0
LINE
  5
47A
330
112
100
AcDbEntity
  8
View
100
AcDbLine
 10
135.214
 20
75.0076
 30
0
 11
123.739
 21
71.4991
 31
0
  0
ARC
  5
47B
330
112
100
AcDbEntity
  8
View
100
AcDbCircle
 10
127.539
 20
59.0672
 30
0
 40
1
100
AcDbArc
 50
-163
 51
-73
  0
ARC
  5
47C
330
112
100
AcDbEntity
  8
View
100
AcDbCircle
 10
124.031
 20
70.5428
 30
0
 40
1
100
AcDbArc
 50
107
 51
-163
  0
LINE
  5
47D
330
112
100
AcDbEntity
  8
View
100
AcDbLine
 10
123.075
 20
70.2505
 30
0
 11
126.583
 21
58.7748
 31
0
  0
ENDSEC
  0
SECTION
  2
OBJECTS
  0
DICTIONARY
  5
500
330
0
100
AcDbDictionary
  3
ACAD_GROUP
350
501
  0
DICTIONARY
  5
501
330
500
100
AcDbDictionary
  0
ENDSEC
  0
EOF